<svg xmlns="http://www.w3.org/2000/svg" viewBox="0 0 189.76367 61.963001"><defs><clipPath id="a"><path d="M0 0h603v196.895h-603v-196.895z"/></clipPath></defs><g clip-path="url(#a)" fill="#231f20"><path d="M66.261 23.452c-.218.059-.739.215-1.084.256.652-.634 1.044-1.406 1.044-2.053-.312.096-.87.305-1.381.418 1.015-.857 1.565-1.854 1.326-3.177-.312.156-.746.409-1.183.591.883-1.36.871-2.559.507-3.264-.395.373-.872.804-1.379 1.114.325-1.575.308-2.586-.349-3.291-.676 1.267-1.25 2.212-2.198 3.335.074-1.04-.037-2.334-.715-3.011 0 0-.196 1.448-.703 1.913-.125-1.418-.562-2.194-1.21-2.953 0 0-.04 1.479-.446 2.393-.341-1.237-.975-2.2-1.788-3.111.058 2.729-.703 7.875-2.895 11.333-.257 2.055-.481 5.137-3.822 6.964-.485-.341-1.33-.775-2.52-.704-.315-1.55 1.71-2.957 3.455-4.079 1.765-1.138 2.531-2.108 2.49-3.627-.04-1.664-1.168-2.34-2.335-2.39-1.644-.072-2.978 1.417-3.291 2.036-.476.224-1.882.661-2.46.818-.64.169-1.362.433-1.815.812.269.169 1.04.23 1.34.184.555-.08 2.333-.412 4.031-.615.62.335 1.618.895.56 1.63-1.445.925-2.062 1.165-4.101 2.233-3.225 1.686-2.18 5.933-1.392 6.245 0 1.43 1.282 4.02 2.151 4.918.389 1.803-.129 4.485-.676 5.596-.448-1.095-1.224-3.624-1.734-5.1.525-2.797-.322-4.024-.909-4.497-.593-.484-1.518-.354-2.124.618.929-.105 1.24 1.089 1.221 2.317-.025 1.477-.4 2.664-1.431 2.67.085 1.267 1.443 1.624 2.123 1.015.105.285.655 1.944 1.17 3.423.306.874.605 1.68.802 2.102.213.47 1.784.538 1.964 0 .25-.723.448-1.265.837-2.102v-.002c.3-.64.713-1.456 1.346-2.661.422.726.984 1.88 1.307 2.664.152.357.257.65.268.781.126 1.203.055 5.482-.268 8.041-3.517-.956-4.513.763-4.205 2.036.505-.56 1.165-.486 1.575-.191-.1.939.155 1.612 1.114 1.895 1.01-2.666 4.639-2.08 4.974-1.858.014-.513.505-1.805-1.361-2.073.068-2.313.306-5.14.394-5.728.084-.591.148-.959-.13-1.883-.084-.277-.183-.618-.289-1.021-.243-.938-.492-2.156-.509-3.479.322.32 1.095.575 1.629.461.409 1.744.999 1.237 1.31 1.969.159.375.193.732.239 1.048.038.301.085.57.253.794 1.246.037 2.309-.265 3.07-.794.234-.169.437-.353.61-.554-.306-1.86-.829-2.775-1.8-3.901-.254-1.52-.963-2.91-1.935-4.137 1.228-.397 2.468-1.397 3.124-2.089.588-.043 1.261-.532 1.314-1.491.341-.041.635-.055.903-.111-.031-.265-.097-.662-.139-.898.453 0 .884-.018 1.306-.059-.124-.351-.284-.714-.406-.978.451 0 1.01-.033 1.46-.061-.24-.449-.421-.843-.561-1.239.518-.053 1.324-.182 1.979-.336-.21-.221-.447-.449-.812-.802 1.715-.508 2.457-1.702 2.546-2.221-.253 0-.774.117-1.084.086.96-.566 1.605-1.339 1.699-2.169"/><path d="M42.286 27.301h-21.66v8c.101.059.193.135.289.221v-7.881h21.549v7.325c.078.082.152.185.22.316v-7.982h-.399"/><path d="M31.623 54.869c-9.557-3.56-10.77-11.4-10.805-14.956l-.032-.01.032-.258c.005-.768.063-1.294.087-1.477-.027-.511-.106-.904-.187-1.202l-.092-.185v3.691c0 4.131 1.516 7.697 4.5 10.588 2.618 2.531 5.556 3.716 6.396 4.017l.135.049.134-.049c.839-.301 3.779-1.486 6.394-4.017 2.988-2.892 4.499-6.458 4.499-10.588v-.674l-.233.295c-.083 1.852-.426 4.729-1.658 6.897-1.481 3.039-3.749 5.537-9.171 7.879"/><path d="M14.458 5.678c1.363.668 1.798-.56 4.344 1.087-1.686.531-2.98 2.615-4.879 2.082 1.366-.677 1.223-1.676 2.012-2.168-.507-.068-1.49-.295-1.477-1zm4.896 13.542c-.818-.332-2.075-.544-2.775.44-.38-.664.183-1.661.536-1.956-1.785.027-2.799-.514-3.065-1.056.662-.363 2.333-.969 3.696.031.943.689 1.421 1.025 2.534 1.39.401-.406.251-.224.379-.338-.915-.627-1.32-5.496-3.113-5.681.258-.615 1.185-.564 1.931-.363.053-1.093-.395-2.889-1.072-3.925 1.041-.551 1.751.043 2.115 1.335.38 1.374-.073 4.811.828 7.906l.564-.517c-.285-1.809 1.7-2.467 2.134-3.369.17 1.212-.082 1.76-.418 2.196.716.086 1.037.791.925 1.284-1.726-.256-2.727 1.476-2.343 2.855-1.28.279-2.152.064-2.856-.231zm8.448 1c-1.489.086-2.953 2.027-2.337 4.235-.22.08-.869.068-1.08-.378-.156.716-1.618 1.544-2.682 1.433.587-.637.981-2.071 2.132-2.827 1.157-.763 1.677-1.28 2.083-2.572-.537.25-3.32.966-4.109.108 1.832-.264 3.997-1.296 5.066-1.966l-.426-.449c-1.149.65-2.684 1.179-3.46 1.425-.277-2.292 1.906-2.2 2.068-1.579.902-1.073.271-2.605-.394-2.775.679-1.827 0-2.953-.577-3.63-.137 1.944-2.302 2.255-2.556 3.747-.086-1.184-.162-4.381-.256-5.94-.169-2.895-3.826-3.907-4.384-3.907-2.391.111-2.618-.201-2.559-1.308-1.208 1.376-.801 2.602.224 3.193-.141.828-1.464 1.474-2.279 1.655 1.94 1.803 4.192.73 5.269-.292l.236-.209c.389.689.671 1.938.671 2.658-1.815-.099-2.14 1.307-2.14 1.811 2.308-.954 2.557 3.461 3.164 4.175-.591-.041-1.629-1.403-3.164-1.501-1.846-.117-2.498.868-3.247.831.14 1.301 1.728 2.036 2.755 2.193-.522 1.335-.062 2.243 1.027 2.572 0-1.221 1.545-1.602 3.203-.63 1.99 1.157 3.012 1.261 4.613.769-.265.581-.984.636-1.87 1.507-1.234 1.221-1.275 2.814-2.659 3.39 1.623.771 4.067-.307 4.417-.929.678.421 1.55.172 1.789-.256-1.096-2.432.757-3.878 1.486-3.851 0 0 .327-.726-.026-.704"/><path d="M44.634 7.004c.817-.588 1.335-.846 1.761-1.095.702.025 1.912-.059 2.643-.425-.76.931-.845 1.268-2.083 1.403 1.605.144 2.28 1.578 3.069 1.799-2.677.816-2.946-1.84-5.39-1.682zm3.305 8.004c.801.655.539 1.587.35 1.796-.698-1.212-2.949-.787-5.158 1.7-.156.188-.364.4-.608.619.17-2.984-2.27-3.033-2.987-2.729.08-.858.614-1.446.897-1.532-.716-.831-.873-1.883-.955-2.642 1.195.517 2.962 1.91 3.26 4.315l.773-.519c-.23-4.206-.181-4.194-.209-7.048-.005-.396.016-1.332 1.286-1.231.053 1.058.214 3.88.16 7.799h.454c.406-1.095 1.856-2.375 3.54-2.261 1.155.074 1.549.053 2.213-.24-.54 1.308-2.506 1.882-3.014 1.973zm-2.431-1.468c0-2.709-.099-4.94-.129-5.642l.328.102c1.945.679 2.392 3.023 6.411.366-2.152.252-2.265-1.575-3.248-1.614 1.487-.843 1.59-2.785 1.59-2.785-1.254 1.006-4.146 1.068-4.712 1.4-.75.455-1.693 1.003-2.335 1.354-1.671.911-.506 5.866-.674 7.681-.902-2.701-2.727-2.295-3.685-3.842-.719 1.288.044 3.458.338 4.075-1.042.846-.76 2.409-.507 2.824.889-.636 2.262-.474 2.678.6-1.165.71-3.117.837-4.448-.453l-.477.533c.939 1.245 3.296 1.725 5.051.722-.006.283-.068.603-.185.954-.911.48-2.087.744-3.433.281.185 1.36 1.747 2.375 3.233 2.787-.501.387-1.122.544-1.57.492.279.784.434 1.836-.156 2.664-.743-.49-1.139-.984-1.42-2.892-.284-1.911-1.66-3.857-2.727-4.251-.06.677-.06.381.056.818 2.841 2.086 1.232 5.835 4.187 7.186 1.082-1.24 1.097-1.671.929-2.84 1.069-.283 1.868-1.177 2.15-1.873-1.01.48-2.615-.363-3.064-1.025 1.756-.055 3.385-1.384 5.049-3.122 1.489-1.556 3.474-1.323 3.319-.098 1.027-.154 1.435-1.56 1.095-2.461 1.506-.473 2.69-1.591 2.851-3.332-2.014 1.013-4.58-.664-6.492 1.39"/><path d="M34.569 22.779c-.14 0-.265.068-.343.169l-.477-.064.003-.871c.158-.064.263-.221.263-.4 0-.24-.192-.437-.431-.437-.241 0-.437.197-.437.437 0 .164.092.308.226.379l-.007.839-.459-.043c-.066-.154-.215-.259-.392-.259-.243 0-.434.191-.434.434 0 .24.192.433.434.433.151 0 .288-.076.362-.199l.49.052-.016 1.271c-.137.074-.231.215-.231.384 0 .24.193.434.433.434.241 0 .438-.194.438-.434 0-.175-.106-.329-.258-.394l.014-1.215.411.064c.063.17.22.293.412.293.239 0 .432-.197.432-.437s-.193-.437-.432-.437"/><path d="M30.799 22.529c-.176 0-.331.105-.4.259l-.455.043-.007-.839c.134-.071.229-.215.229-.379 0-.24-.197-.437-.433-.437-.244 0-.439.197-.439.437 0 .179.108.336.261.4l.012.871-.484.064c-.073-.101-.197-.169-.338-.169-.241 0-.436.197-.436.437s.194.437.436.437c.191 0 .351-.123.411-.293l.411-.064.012 1.215c-.151.065-.256.219-.256.394 0 .24.196.434.433.434.242 0 .436-.194.436-.434 0-.169-.096-.31-.231-.384l-.01-1.271.481-.052c.078.123.213.199.368.199.239 0 .434-.193.434-.433 0-.243-.196-.434-.434-.434"/><path d="M31.658 26.212c-.647 1.239-1.852 1.2-2.9.504-.421-.274-.853-.459-1.25-.523.183-1.218.481-3.517.699-5.457 1.36-.615 3.039-.757 3.451.806.412-1.563 2.088-1.421 3.446-.806.217 1.94.518 4.239.702 5.457-.394.064-.831.249-1.254.523-1.047.695-2.249.735-2.894-.504zm4.912.043c-.261-1.754-.895-6.661-.969-8.3l-.744.031c.009.283.038.648.075 1.079-.897-.261-2.072-.449-3.274-.449-1.2 0-2.381.188-3.279.449.039-.431.068-.796.081-1.079l-.751-.031c-.073 1.639-.705 6.546-.966 8.3-.45.172-.739.621-.739 1.421 0 0 4.075.058 5.654.058 1.575 0 5.648-.058 5.648-.058 0-.8-.293-1.249-.736-1.421"/><path d="M53.65 61.243h-43.985c-.198-1.397-.466-2.295-.706-3.055h45.396c-.243.76-.507 1.659-.704 3.055zm-29.814-9.411c.405.6.792 1.037.977 1.517.194.505.068.806-.299 1.329-.838 1.169-2.28 2.174-3.423 2.796h-4.406c2.769-.79 6.514-3.159 7.151-5.642zm-2.671-.815c.362-.668 1.234-.88 1.826-.086.255.335.148 1.239-.897 2.362-.753-.687-1.313-1.566-.929-2.276zm17.577 3.661c-.369-.523-.493-.824-.301-1.329.187-.48.576-.917.98-1.517.639 2.483 4.384 4.852 7.151 5.642h-4.41c-1.137-.621-2.582-1.627-3.42-2.796zm1.52-3.747c.597-.794 1.468-.582 1.829.086.384.71-.174 1.59-.928 2.276-1.039-1.123-1.152-2.028-.901-2.362zm14.26 6.315c-.473.145-1.044.228-1.9.228h-1.062c-3.66-.074-7.424-1.165-9.731-3.522 3.188-3.215-.554-5.861-2.579-3.132-.631.851-1.133 1.454-1.572 2.279-.357.671-.087 1.335.702 2.362.434.564 1.511 1.437 2.393 2.012h-18.286c.879-.575 1.955-1.448 2.393-2.012.787-1.027 1.058-1.692.705-2.362-.441-.824-.944-1.427-1.577-2.279-2.024-2.729-5.765-.084-2.579 3.132-2.306 2.356-6.065 3.448-9.728 3.522h-1.011c-.856 0-1.43-.082-1.9-.228-.758-.185-.927.145-.517 1.45.281.87.502 2.291.604 3.267h45.565c.096-.976.319-2.397.599-3.267.406-1.304.24-1.634-.519-1.45"/><path d="M14.921 60.123l-.014-.022.33-.87.016-.018.01.018.322.874-.014.018h-.651zm.705.126l.025.018.118.324-.023.064-.037.022.081.025h.495l.113-.025-.028-.022-.113-.012c-.055-.012-.13-.046-.226-.279-.167-.397-.583-1.462-.644-1.603l-.068-.086-.074.108-.655 1.639c-.05.129-.102.213-.219.231l-.085.002-.031.022.049.025h.589l.041-.025-.039-.022h-.041c-.077 0-.101-.031-.101-.082l.037-.151.054-.148.021-.025h.762"/><path d="M16.925 59.868c0 .379.098.572.234.693.188.169.437.175.573.175.171 0 .364-.018.543-.185.219-.185.252-.498.252-.787v-.277l.002-.548c.006-.092.023-.135.094-.15l.079-.006.044-.022-.054-.025-.298.006-.295-.006-.058.025.047.022.094.006c.085.018.107.058.109.15l.005.548v.324c0 .279-.007.511-.148.648-.107.108-.247.142-.362.142-.089 0-.208-.012-.322-.101-.129-.105-.207-.268-.207-.644v-.369l.005-.548c.004-.092.028-.135.095-.15l.079-.006.043-.022-.06-.025-.321.006-.378-.006-.062.025.047.022.097.006c.091.018.111.058.118.15l.005.548v.381"/><path d="M19.954 59.447l.002-.52.031-.052.169-.022c.207 0 .504.031.743.265.112.108.251.32.251.646 0 .268-.054.511-.22.658-.16.129-.333.185-.598.185-.208 0-.308-.055-.345-.105l-.027-.199-.006-.529v-.326zm-.324.498c0 .242 0 .449-.014.556-.011.078-.023.133-.076.142l-.094.012-.042.022.054.025h.326l.559.027c.48 0 .747-.187.871-.308.146-.154.285-.406.285-.728 0-.311-.125-.529-.257-.662-.278-.295-.72-.295-1.041-.295l-.404.006-.378-.006-.054.025.039.022.107.006c.082.018.106.058.108.15l.009.548v.459"/><path d="M22.509 60.123l-.01-.022.325-.87.017-.018.012.018.321.874-.015.018h-.651zm.703.126l.025.018.124.324-.026.064-.039.022.081.025h.491l.122-.025-.033-.022-.112-.012c-.054-.012-.127-.046-.228-.279l-.648-1.603-.064-.086-.073.108-.653 1.639c-.05.129-.103.213-.223.231l-.08.002-.034.022.053.025h.581l.047-.025-.037-.022h-.043c-.078 0-.102-.031-.102-.082l.037-.151.055-.148.026-.025h.754"/><path d="M25.758 59.004c.082-.123.13-.194.191-.209l.092-.012.043-.022-.046-.025-.257.006-.258-.006-.057.025.032.022.086.006.044.043-.03.105c-.037.07-.279.433-.357.544-.101-.172-.218-.363-.329-.578l-.028-.07.032-.043.073-.006.037-.022-.053-.025-.279.006-.395-.006-.053.018.026.028.109.021c.095.022.153.084.215.191l.453.738-.5.717c-.09.123-.139.175-.213.193l-.1.012-.036.022.038.025h.555l.054-.025-.032-.022-.06-.002-.05-.047.036-.105.388-.628.413.705-.007.064-.037.028.092.031h.545l.048-.025-.032-.022-.098-.015c-.069-.018-.109-.053-.153-.111-.062-.08-.486-.787-.571-.917l.427-.609"/><path d="M29.315 60.123l-.011-.022.321-.87.021-.018.011.018.333.876-.015.016h-.661zm.704.126l.023.018.122.324-.025.064-.036.022.079.025h.493l.116-.025-.033-.022-.108-.012c-.052-.012-.13-.046-.229-.279l-.646-1.603-.068-.086-.073.108-.653 1.639c-.049.129-.102.213-.224.231l-.078.002-.031.022.049.025h.581l.047-.025-.041-.022h-.036c-.082 0-.106-.031-.106-.082l.041-.151.052-.148.023-.025h.759"/><path d="M31.617 59.945c0 .242 0 .449-.012.556-.008.078-.025.133-.075.142l-.092.012-.042.022.052.025h.741l.048-.025-.046-.022-.127-.012c-.077-.009-.1-.064-.107-.135-.014-.113-.014-.32-.014-.562v-1.068l.33.006c.231.012.301.084.309.154v.022l.031.052.023-.037.009-.304-.021-.053-.252.025h-1.031l-.26-.009-.111-.037-.033.049-.052.298.018.047.031-.031.044-.092c.039-.065.102-.068.253-.08l.385-.01v1.068"/><path d="M36.152 59.732l.022-.015.383.006c.08.009.122.055.134.086l.014.086.026.039.022-.055.011-.187.021-.16-.014-.025-.036.027-.112.043-.117.006-.332.004-.022-.028v-.648l.028-.037.395.006c.103 0 .158.046.177.08l.016.098.025.039.025-.033.01-.213.022-.117-.016-.025-.041.022-.107.006-.685.002-.379-.006-.055.025.041.022.105.006c.085.018.101.058.107.15l.005.548v.459c0 .258 0 .449-.012.556-.011.078-.022.133-.074.142l-.096.012-.034.022.052.025h.726l.056-.025-.039-.022-.134-.012c-.077-.009-.094-.064-.101-.142-.015-.107-.015-.298-.015-.556v-.213"/><path d="M37.819 59.945l-.009.572c-.007.07-.023.117-.074.126l-.094.012-.044.022.054.025h.733l.049-.025-.042-.022-.133-.012c-.079-.009-.097-.055-.106-.126l-.008-.572v-.459l.004-.548c.004-.092.025-.135.097-.15l.079-.006.039-.028-.057-.018-.319.006-.333-.006-.063.018.04.028.091.006c.06.018.083.058.09.15l.002.548v.459"/><path d="M39.704 59.447v-.52l.038-.052.166-.022c.206 0 .502.031.745.265.107.108.242.32.242.646 0 .268-.049.511-.216.658-.156.129-.331.185-.598.185-.204 0-.309-.055-.338-.105l-.031-.199-.007-.529v-.326zm-.324.498c0 .242 0 .449-.017.556-.005.078-.021.133-.073.142l-.096.012-.042.022.057.025h.326l.558.027c.475 0 .751-.187.871-.308.144-.154.284-.406.284-.728 0-.311-.124-.529-.256-.662-.283-.295-.72-.295-1.045-.295l-.401.006-.37-.006-.061.025.048.022.101.006c.084.018.103.058.111.15l.005.548v.459"/><path d="M42.161 59.945c0 .242 0 .449-.012.556-.011.078-.024.133-.07.142l-.1.012-.039.022.054.025h.326l.721.015c.1 0 .124 0 .138-.074l.036-.289-.018-.052-.03.043c-.019.105-.048.162-.118.193-.068.031-.175.031-.243.031-.267 0-.309-.039-.313-.218v-.609l.02-.025.365.009c.095.006.133.043.149.098l.01.092.02.025.022-.049.011-.172.026-.193-.023-.018-.038.033-.127.037-.413.01-.021-.034v-.655l.021-.025.368.006c.129.018.155.046.172.095l.018.098.02.034.028-.031.011-.176.022-.166-.015-.025-.039.012-.117.016-.651.002-.372-.006-.058.025.043.022.099.006c.091.018.107.058.113.15l.005.548v.459"/><path d="M44.514 59.486l.004-.548c.004-.092.026-.135.096-.15l.102-.006.043-.022-.053-.025-.353.006-.357-.006-.055.025.041.022.089.006c.086.018.103.058.113.15l.003.548v.459c0 .242 0 .449-.014.556-.01.078-.02.133-.079.142l-.093.012-.038.022.052.025h.326l.76.015c.134 0 .147-.015.163-.076l.037-.301-.017-.043-.027.043-.073.156c-.063.065-.163.071-.306.071-.201 0-.267-.016-.313-.059-.052-.049-.052-.228-.052-.562v-.459"/><path d="M46.137 59.945l-.01.572c-.008.07-.026.117-.077.126l-.095.012-.042.022.054.025h.738l.048-.025-.048-.022-.129-.012c-.079-.009-.1-.055-.107-.126l-.01-.572v-.459l.006-.548c.003-.092.027-.135.096-.15l.08-.006.039-.028-.052-.018-.318.006-.343-.006-.06.018.038.028.097.006c.056.018.085.058.086.15l.006.548v.459"/><path d="M47.933 60.735c.136 0 .284-.018.416-.105.187-.119.243-.301.243-.449 0-.246-.113-.427-.426-.664l-.075-.058c-.21-.164-.276-.256-.276-.369 0-.164.118-.274.31-.274.167 0 .244.084.282.133.059.064.071.144.071.169l.027.043.028-.07.01-.314-.034-.034c-.068-.018-.177-.046-.347-.046-.363 0-.604.205-.604.492 0 .212.097.396.385.618l.126.092c.214.17.25.295.25.422 0 .135-.113.295-.353.295-.156 0-.314-.071-.367-.265l-.028-.129-.021-.049-.031.068-.016.338.049.092c.112.052.231.064.381.064"/><path d="M31.658 15.232c-1.365 0-2.9.324-4.084.84.017-.262.111-.492.277-.693.688-.827 2.478-1.122 3.807-1.122 1.324 0 3.117.295 3.803 1.122.167.201.257.431.278.689-1.184-.519-2.698-.837-4.081-.837zm2.321 1.926l-.426-.975c.642.123 1.257.31 1.795.535l.249.999c-.4-.16-.953-.381-1.618-.56zm-3.998-.154l-.724-.713c.593-.15 1.221-.246 1.831-.289l.434.837c-.552.006-1.064.074-1.542.166zm-2.358.754l-.21.089c-.289.117-.491.025-.564-.117-.075-.15-.031-.4.332-.621l.146-.08.693.57-.397.16zm4.035-5.123l.979.711c-.418-.041-.769-.047-.979-.047-.213 0-.565.006-.982.047l.982-.711zm-1.12-2.599c-.402-.868-.516-2.009.722-1.462l.102 1.462h-.824zm.938-3.156l.182.129.175-.129.712-.517-.41 1.378-.038.012c-.071-.172-.245-.287-.439-.287-.199 0-.367.114-.439.287l-.044-.012-.407-1.378.709.517zm1.057 5.642l-.7-.508-.175-.129-.182.129-.696.508.453-1.47h.849l.451 1.47zm.245-2.486h-.826l.1-1.462c1.237-.548 1.122.594.726 1.462zm-4.138.345l.507-.702.129-.178-.129-.176-.507-.701 1.04.324c.054.449.16.753.273 1.028l-1.313.406zm4.999-1.434l1.035-.324-.506.701-.13.176.13.178.506.702-1.314-.406c.117-.274.218-.578.279-1.028zm6.466-1.794c.024-.388-.701-.683-.882-.702-.304-.021-.688.615-1.085 1.015-.351-1.873-.166-2.672.03-3.501.789 1.431 1.858 1.741 2.421 1.671-1.902-1.517-1.572-2.895-2.153-2.969-.329-.033-.565-.012-.735-.012-.665 0-.757 1.289-.844 1.882-.431-.802-.855-1.473-1.587-2.406-.7-1.796-1.56-1.347-2.433-2.166.677 1.031.128 1.659 1.703 2.409.41.39.889.997 1.207 1.491-.262.348-.443.547-.688.785-.193.292-.294 1.409-.9 2.248.9-.394 1.253-.941 1.573-1.476 2.838 2.141.534 7.62-.122 8.822-.624-.424-1.426-.661-2.155-.79l-.075-.246-.667-2.159h.306c.356 0 .439-.238.381-.428l1.959.603.869.268-.529-.732-.913-1.261.913-1.249.529-.738-.869.265-1.762.544c-.122-.4-.45-.587-.813-.64l.596-2.002.253-.855-.724.523-1.252.913-1.26-.913-.719-.523.252.855.594 2.002c-.357.053-.687.24-.813.64l-1.766-.544-.864-.265.529.738.914 1.249-.914 1.261-.529.732.864-.268 1.97-.605c-.058.193.015.431.377.431h.308l-.669 2.159-.073.246c-.752.132-1.571.378-2.203.821-1.916-3.712-1.374-7.465.233-8.712-.027.787.657 1.855.983 2.079-.213-.812.155-2.266-.266-2.629-.298-.25-.744-.375-1.223-.363.324-.533.773-1.209 1.527-2.206 1.13-.535 1.454-1.846 1.734-2.506-1.226.452-2.123 1.083-2.321 2.113-.434.572-.915 1.249-1.447 2.049.027-.968-.508-1.304-1.213-1.36-2.065.434-1.911 1.923-3.68 2.951 1.207.425 3.104-2.237 3.752-1.938.103 1.627-.268 2.91-.268 3.796-.309-.342-.465-.576-.731-.619-.25-.046-.94.012-1.419.535-.13.822-.097 2.375-.87 4.233 1.152-1.058 1.699-3.125 1.884-3.725.295.403.616 1.295.687 2.061.138 1.485 1.05 3.952 1.827 5.143-.215.409-.279.876-.204 1.39-.599.445-.667 1.073-.461 1.492.224.453.816.757 1.512.48l.218-.089c.731-.301 2.097-.868 3.749-.868 1.65 0 3.012.566 3.748.868l.217.089c.7.277 1.286-.027 1.507-.48.213-.418.145-1.046-.458-1.492.081-.551-.005-1.052-.257-1.492l.022.025c1.411-2.008 1.505-5.851 2.672-6.946.1 1.345.815 2.461 1.52 2.615-.565-.929-.565-2.771-.524-3.617"/><path d="M22.264 38.457l-.869.012c-.129 1.511-.069 2.885.138 4.141.539-.886 1.08-1.778 1.056-2.399-.028-.642-.176-1.227-.325-1.753"/><path d="M25.358 41.072c.3.831.666 2.153.965 3.08-.261.012-.511.031-.742.064-.134-.329-.567-1.421-1.01-2.476-.418-.991.573-1.243.787-.668zm1.828-.882c.069-.492 1.453-.584 1.192.495-.26 1.086-.591 2.354-.84 3.445l-.352-.006-.354.006c-.251-1.091-.58-2.359-.842-3.445-.258-1.079 1.123-.987 1.196-.495zm2.61 1.55c-.444 1.054-.875 2.147-1.005 2.476-.235-.033-.488-.052-.744-.064.299-.927.661-2.249.968-3.08.213-.575 1.201-.322.781.668zm-4.43 3.088c.297-.108 1.469-.172 1.82-.172.347 0 1.515.064 1.815.172.032.154.038.372.014.535-.454.129-1.242.199-1.828.199-.594 0-1.379-.07-1.828-.199-.028-.164-.027-.381.009-.535zm3.266 3.433c-.395.086-1.026.125-1.446.125-.42 0-1.055-.039-1.452-.125l.155-.644c-.295-.031-.6-.141-.84-.228.121-.427.315-.851.474-1.434.533.121 1.058.164 1.664.164.602 0 1.126-.043 1.656-.164.164.582.356 1.007.48 1.434-.24.086-.549.197-.844.228l.154.644zm-5.986-9.807c.148.523.285 1.095.311 1.735.028.741-.52 1.651-1.105 2.611l-.198.338c1.676 8.25 9.659 11 9.659 11v-15.67s-6.01-.018-8.667-.015"/><path d="M40.076 40.002l-.026-.39.394-.004c.528-.002.79-.511.928-1.101-2.047-.015-9.384.01-9.384.01v7.57c.606-.452 1.196-.824 1.966-1.071v-1.657h.763c.047-1.827.48-3.148 1.33-4.024l.248-.261.25.261c.849.876 1.286 2.196 1.329 4.024h.793v1.768c.84.345 1.404.88 1.837 1.443.693-1.409 1.2-3.043 1.385-4.928l-.112.012c-.791 0-1.628-.572-1.701-1.653"/><path d="M41.908 38.516l-.155-.004c-.185.861-.582 1.458-1.307 1.464.058.861.707 1.304 1.332 1.304l.144-.021c.064-.865.072-1.772-.014-2.744"/><path d="M38.117 48.323l-.667-.767-1.135 1.013.467.535s.475-.225.897.265l-1.19 1.034c-.421-.492-.13-.927-.13-.927l-.461-.532-1.384 1.243-.453-.523 1.425-1.194-.513-.588-.462.406c-.407-.468-.724-1.085-.431-1.867.81-.178 1.378.221 1.785.683l-.464.409.516.6 1.165-.982-.666-.765c.605-.074 1.124.141 1.423.482.292.336.434.887.279 1.474zm-1.821-2.922c-2.226 0-3.086.618-4.307 1.55v7.238s5.278-1.817 8.16-6.921c-.667-.991-1.634-1.867-3.854-1.867"/><path d="M23.219 32.315c1.111-.631 1.686-1.099 2.279-2.024-.439-.213-.96-.603-1.341-1.142 2.113.594 3.183.902 5.67.016-.409.642-1.011 1.03-1.518 1.35.564.929 1.123 1.997 1.324 2.842-.747-.055-1.59.123-2.194.674-.93.043-2.109.338-2.76-1.772-.335.169-.672.394-.672.394.379 1.378 1.08 2.316 2.935 2.119.105.44.185.693.411 1.062-.76.445-2.674 1.571-4.133.277v-3.796zm6.988 3.109c-.197.281-1.392.65-1.686.461-.498-.304-.748-.956-.632-1.237.145-.365 1.459-.728 1.879-.591.423.139.607 1.126.439 1.366zm3.557-1.59v-.394l-.928-.016c.224-.984 2.139-2.233 2.999-2.525-.047-1.071 1.36-1.425 2.49-1.456 1.399-.037 1.726 1.468 1.726 1.932 0 .619-.162 1.991-.936 2.412-1.126.619-2.085-.234-2.085-1.005 0-.847.588-1.339 1.599-1.228 1.013.114.935-.452.172-.646-.377-.092-1.984-.175-2.519 1.019-.305.009-.641-.114-.831-.305-.208.274-.533.455-.982.578.387.797 1.183.662 1.667.281l-.024.341c0 1.95 2.082 2.446 3.363 1.714-.213.63-.114 1.43-.027 1.971h-5.039c.089-.541.757-1.153 1.32-1.55l-.447-.701c-.549.237-1.062.455-1.653.615-1.396.357-1.314-.634.132-1.036zm-12.066.744c.561.458.774.796.597 2.35-.023.193.08.56.196.954h18.981c.019-.207.03-.406.032-.584.015-.853-.142-1.526-.415-1.809-.09-.09-.191-.135-.368-.135l-.025.002-.76.084.405-.646c.398-.64.964-1.007 1.566-1.05v-5.636h-20.475v6.291l.209.129.057.049"/><path d="M21.433 34.84v3.043h.674c-.116-.397-.21-.751-.178-.997.175-1.538-.059-1.692-.496-2.046"/><path d="M41.908 37.883v-3.775c-.44.041-.899.314-1.251.88l.11-.009c.845 0 1.131 1.151 1.111 2.328-.002.194-.016.391-.032.576h.063"/><path d="M26.412 32.709c.354.166.786-.028 1.237.031-.089-.197-.185-.338-.128-.621.11-.551-.322-.689-.532-.674-.512.031-.805.141-1.34 0 .368.363.274 1.027.763 1.265"/><path d="M21.957 36.855c.178-1.575-.068-1.696-.522-2.067-.394-.326-1.045-.428-1.691-.874-.463-.32-.592-.785-1.178-1.403.116-1.326 1.066-2.947 1.761-3.314.105-.055.07-2.106.07-2.106s.463-.019.418-.047c-.625-.381-1.381-.095-1.927.545-.53.427-1.737 1.239-2.572 1.522-1.131-.954-2.894-1.793-4.18-3.085 0 0 1.704-.016 2.492-.338.209-.127.758-.994.534-1.827-.265-.096-.646-.295-1.02-.502-.468-.267-.92-.554-1.131-.713-.742-.56-1.04-1.049-2.319-1.372.084-.587.208-.451.774-.831.716-.486 1.117-1.067 1.408-1.642.221-.449-.031-1.378-.609-.199-.201.415-.763.968-1.392 1.138.05-.363.069-.576.069-.775 1.873-1.32 1.689-2.489 1.545-3.584-.079-.634-.71-.898-.683-.24.014.437.405 1.677-.876 2.406-.028-.55-.178-.8-.294-1.079 1.143-1.507.662-2.957.18-3.615-.303-.425-1.057-.572-.714.098.281.548.73 2.034-.113 2.639-.295-.363-.632-.504-.747-.993.085-1.634-.018-2.631-.224-3.211-.197-.545-.716-.884-.673-.08.046.904.124 2.051.039 2.122-.082.07-1.291-1.056-1.784-1.39-.498-.345-1.084-.215-.507.458.508.597 2.054 1.732 1.856 2.102-.123.23-1.229-.683-1.798-.874-.578-.2-.76.107-.269.505.787.649 1.31 1.07 2.604 1.507 1.292.433 1.938 2.224 1.529 4.777-.016.121-.237.102-.363.062-.062-.975-.231-2.147-.464-2.66-.306-.674-.913-.689-.689.224.176.726.279 1.507.153 2.477-1.068-.182-1.477-.465-1.922-.732-.048-.496.205-1.304.255-2.04.038-.716-.384-1.169-.623-.267-.23.864-.381 1.282-.524 1.901-.305-.098-.631-.243-.78-.41l-.078-1.756c-.073-.797-.378-.775-.618-.071-.107.324-.192.748-.224 1.267-.378-.228-.632-.664-.674-1.015.055-.827.197-1.713.297-2.264.069-.394-.198-1.196-.507-.224-.224.695-.283 1.28-.422 1.772-.272-.022-.63-1.606-.815-2.612-.081-.464-.465-.991-.535.037-.076 1.13.155 2.268.437 2.772-.551-.055-1.072-1.044-1.451-1.618-.337-.511-.495.025-.463.224.322 2.012 1.931 2.732 2.659 2.871 1.125 1.618 3.273 2.307 5.088 3.095-2.362-.028-2.979.925-4.062.307.047.892.491 1.304.914 1.51.305.141.602.182.743.207.196 1.083 1.224 1.028 2.097 1.083-.223 2.11.03 4.897 1.883 6.971-.054 1.073-.126 2.476-.112 3.405-1.517 1.406-2.867 4.362-3.402 5.992-.402 1.218-1 2.169-1.927 2.612.759.806 1.881.406 2.53-.041.046.717.212 1.228.325 1.646-.434.646-.728 1.098-.689 1.885-.495.135-.829.437-1.096.773-.165.209.025 1.181.214 1.59.605 1.354.132 4.409.025 5.316.253.012.719.031.818-.347.146.135.517.402.689.993-.044.252-.187 1.191.295 1.31.393.098 2.091.041 2.318-.255-.17-.201-.466-.646-.647-1.095 0-.465-.043-1.025-.169-1.267-.197-.338-.689-1.123-1-1.437-.068-.562-.127-3.052.138-4.005.44-.308 3.435-2.531 4.056-4.66.548.187.38 1.673.38 3.595 0 .517.626.779 1.002.824.807.098 1.968.871 3.257 2.785.251-.268.577-.523.577-.523.169.228.363.781.477 1.132.14.261 1.182.415 1.984.175.265-.086.421-.132.594-.418-1.016-1.772-1.628-2.943-2.927-3.921-.604-.455-1.408-.68-2.084-1.114.452-.84 1.692-4.805.941-6.257-.252-.477-1.194-.957-2.34-.742.96-1.157 2.905-3.435 3.16-4.134.224.268 1.377.084 2.23.416.311.125 1.186 1.255 1.227 1.646.076.698.116 1.534-.375 3.45.342-.058.293-.074.628-.212.055.513-.096.917-.546 1.686.113.689.423 1.753.748 1.956.436-1.292 2.04-3.129 1.995-4.202-.057-1.458-.735-2.689-.66-3.322"/><path d="M82.224 20.827c-.258-.821-1.125-2.06-2.856-2.06-1.1 0-2.06.561-2.528 1.427-.564 1.053-.819 2.481-.819 4.448 0 2.808.466 4.564 1.449 5.266.516.374 1.17.561 1.944.561 2.27 0 3.23-1.731 3.23-5.876 0-1.661-.141-2.856-.421-3.768zm5.033 14.652s-.468.281-1.452.281c-1.265 0-2.387-.749-2.996-1.146-.773-.516-2.036-1.242-3.302-1.64-2.432 0-4.025-.678-5.266-2.294-1.239-1.591-1.872-3.651-1.872-6.038 0-3.512 1.334-6.344 3.674-7.609.96-.513 2.153-.795 3.371-.795 4.33 0 6.999 3.161 6.999 8.262 0 3.534-1.265 6.179-3.208 7.468.445.164 1.077.584 1.453.82.583.351 1.287.678 2.011.678.704 0 1.453-.117 1.453-.117l-.866 2.13"/><path d="M96.745 33.046c-.399-.282-.726-.679-.936-1.171-.773.749-1.896 1.148-3.16 1.148-1.686 0-3.138-.797-3.534-1.943-.188-.538-.258-1.17-.258-2.388v-7.677l3.09-.586v7.701c0 1.077.093 1.638.257 1.966.163.329.633.562 1.101.562.771 0 1.709-.562 1.942-1.148v-8.428l2.998-.631v9.152c0 .796.256 1.616.725 2.177l-2.224 1.265"/><path d="M107.875 25.273c0-.888-.094-1.356-.375-1.8-.304-.47-.749-.704-1.38-.704-1.194 0-1.873.938-1.873 2.599v.047h3.629v-.142zm-3.675 2.435v.094c0 1.849.913 2.903 2.529 2.903 1.077 0 2.083-.399 3.043-1.193l1.217 1.874c-1.381 1.122-2.833 1.661-4.517 1.661-3.44 0-5.665-2.435-5.665-6.204 0-2.153.446-3.581 1.499-4.751.982-1.101 2.176-1.614 3.768-1.614 1.382 0 2.692.467 3.464 1.263 1.101 1.125 1.592 2.739 1.592 5.243v.726h-6.929"/><path d="M119.708 25.273c0-.888-.094-1.356-.374-1.8-.305-.47-.749-.704-1.382-.704-1.194 0-1.871.938-1.871 2.599v.047h3.627v-.142zm-3.675 2.435v.094c0 1.849.914 2.903 2.529 2.903 1.077 0 2.084-.399 3.044-1.193l1.216 1.874c-1.381 1.122-2.832 1.661-4.517 1.661-3.44 0-5.664-2.435-5.664-6.204 0-2.153.444-3.581 1.498-4.751.983-1.101 2.177-1.614 3.769-1.614 1.38 0 2.691.467 3.464 1.263 1.101 1.125 1.591 2.739 1.591 5.243v.726h-6.929"/><path d="M131.541 32.717v-7.795c0-1.357-.234-1.755-1.055-1.755-.631 0-1.451.422-2.175 1.077v8.473h-3.138v-8.683c0-1.031-.14-2.013-.422-2.809l2.786-.796c.282.492.447 1.008.447 1.497.466-.327.865-.609 1.379-.888.633-.327 1.452-.516 2.155-.516 1.334 0 2.504.703 2.878 1.732.165.444.235.96.235 1.708v8.755h-3.09"/><path d="M141.454 33.093c-1.475 0-3.09-.469-4.847-1.381l1.125-2.295c.96.586 2.621 1.358 3.979 1.358.888 0 1.592-.587 1.592-1.358 0-.818-.586-1.24-1.85-1.475l-1.404-.257c-.797-.139-1.78-.703-2.201-1.216-.422-.515-.678-1.382-.678-2.156 0-2.339 1.848-3.908 4.634-3.908 1.92 0 3.183.585 4.283 1.124l-1.03 2.106c-1.194-.609-2.06-.866-2.948-.866-.914 0-1.522.468-1.522 1.171 0 .609.398.936 1.499 1.216l1.451.375c1.474.374 1.966.818 2.388 1.358.444.561.655 1.24.655 2.036 0 2.481-2.061 4.166-5.126 4.166"/><path d="M151.856 32.999c-1.335 0-2.412-.632-2.786-1.639-.234-.608-.282-.983-.282-2.692v-8.941c0-1.569-.046-2.529-.163-3.605l3.207-.726c.117.655.162 1.427.162 3.113v9.339c0 2.061.024 2.34.212 2.669.117.21.375.327.631.327.117 0 .188 0 .351-.047l.539 1.874c-.539.21-1.194.327-1.871.327"/><path d="M160.693 27.474c-2.177 0-2.925.398-2.925 1.826 0 .936.585 1.569 1.381 1.569.585 0 1.17-.305 1.638-.819l.048-2.575h-.141zm2.669 5.852c-.726-.304-1.381-.843-1.686-1.452-.234.234-.491.468-.725.632-.586.422-1.429.656-2.412.656-2.668 0-4.119-1.358-4.119-3.745 0-2.809 1.942-4.12 5.758-4.12.235 0 .445 0 .702.023v-.492c0-1.334-.257-1.778-1.405-1.778-1.006 0-2.175.491-3.464 1.357l-1.334-2.248c.631-.396 1.099-.631 1.942-.982 1.171-.491 2.178-.701 3.278-.701 2.013 0 3.395.748 3.863 2.082.163.492.234.866.21 2.153l-.072 4.027c-.022 1.311.072 1.872 1.125 2.668l-1.663 1.92"/><path d="M173.581 32.717v-7.795c0-1.357-.234-1.755-1.053-1.755-.633 0-1.452.422-2.177 1.077v8.473h-3.138v-8.683c0-1.031-.14-2.013-.421-2.809l2.785-.796c.282.492.447 1.008.447 1.497.467-.327.866-.609 1.379-.888.632-.327 1.452-.516 2.154-.516 1.334 0 2.504.703 2.879 1.732.164.444.234.96.234 1.708v8.755h-3.09"/><path d="M186.443 23.894c-.586-.516-1.148-.774-1.709-.774-1.404 0-2.014 1.171-2.014 3.839 0 2.575.539 3.418 2.178 3.418.586 0 1.24-.399 1.546-.773v-5.71zm.702 8.824c-.095-.187-.141-.375-.188-.703-.772.68-1.686 1.008-2.763 1.008-3.042 0-4.961-2.364-4.961-6.086 0-3.746 2.082-6.321 5.126-6.321.866 0 1.544.212 2.13.679-.047-.257-.094-1.077-.094-1.778v-4.121l3.113.492v12.453c0 2.949.234 3.909.444 4.377h-2.808"/><path d="M79.766 55.629c-2.013 0-3.722-.701-4.938-2.012-1.359-1.474-1.991-3.465-1.991-6.227 0-3.065.82-5.243 2.481-6.741 1.148-1.03 2.529-1.522 4.19-1.522 1.709 0 3.185.539 4.403 1.592l-.868 1.194c-1.31-.89-2.246-1.24-3.487-1.24-1.874 0-3.347.866-4.004 2.716-.42 1.194-.63 2.551-.63 4.073 0 2.107.396 3.816 1.122 4.869.726 1.052 2.364 1.709 3.886 1.709 1.006 0 1.873-.21 2.552-.632v-4.892h-3.23l-.374-1.592h5.405v7.491c-1.147.748-2.878 1.216-4.517 1.216"/><path d="M94.85 46.361c-.491-1.031-1.521-1.499-2.481-1.499-1.028 0-1.988.491-2.387 1.265-.375.725-.561 1.661-.561 3.042 0 1.639.279 3.091.724 3.817.422.701 1.358 1.17 2.366 1.17 1.217 0 2.128-.632 2.527-1.757.257-.726.349-1.381.349-2.526 0-1.64-.162-2.74-.538-3.512zm-2.387 9.316c-3.207 0-5.032-2.364-5.032-6.203 0-3.794 1.896-6.109 4.962-6.109 1.943 0 3.207.888 4.003 2.036.726 1.053 1.077 2.435 1.077 4.33 0 3.886-2.085 5.946-5.009 5.946"/><path d="M104.74 55.489h-1.804l-4.19-11.681 1.874-.399 2.714 8.029c.329.96.562 1.991.562 1.991h.047s.188-.914.563-1.968l2.667-7.747h1.943l-4.377 11.774"/><path d="M117.532 45.868c-.399-.632-1.218-1.029-2.108-1.029-1.663 0-2.597 1.216-2.691 3.626h5.336c-.025-1.262-.187-2.036-.538-2.598zm-4.799 3.979v.281c0 1.1.139 1.943.538 2.552.656 1.007 1.732 1.427 2.903 1.427 1.122 0 2.036-.351 2.856-1.1l.702 1.171c-1.029.936-2.435 1.449-3.933 1.449-3.23 0-5.173-2.339-5.173-6.203 0-1.965.422-3.23 1.404-4.4.938-1.1 2.085-1.616 3.49-1.616 1.264 0 2.364.445 3.159 1.265 1.008 1.03 1.335 2.13 1.335 4.916v.257h-7.279"/><path d="M128.24 45.47c-.117-.046-.327-.092-.514-.092-.701 0-1.405.303-1.943.842-.539.538-.679.891-.679 1.851v7.303h-1.825v-8.989c0-1.709-.398-2.482-.398-2.482l1.826-.492s.444.914.375 1.897c.842-1.194 2.082-1.943 3.275-1.943.305 0 .633.117.633.117l-.749 1.988"/><path d="M137.455 55.373v-7.89c0-1.239-.092-1.544-.42-1.942-.258-.305-.749-.491-1.29-.491-.935 0-2.387.749-3.23 1.638v8.685h-1.778v-8.989c0-1.664-.444-2.458-.444-2.458l1.778-.492s.421.867.421 1.826c1.217-1.217 2.435-1.801 3.675-1.801 1.264 0 2.388.678 2.856 1.709.187.421.282.888.282 1.356v8.85h-1.851"/><path d="M155.609 55.373v-8.616c0-1.122-.516-1.707-1.499-1.707-1.053 0-1.871.678-3.09 1.801v8.521h-1.85v-8.286c0-.703-.07-1.17-.327-1.499-.28-.329-.655-.469-1.194-.469-.888 0-1.756.444-2.973 1.545v8.708h-1.755v-9.035c0-1.686-.422-2.482-.422-2.482l1.778-.422s.422.914.422 1.734c.773-.866 2.2-1.757 3.394-1.757 1.148 0 2.294.704 2.716 1.943 1.125-1.194 2.551-1.943 3.744-1.943 1.734 0 2.927 1.31 2.927 3.161v8.802h-1.873"/><path d="M167.297 45.868c-.398-.632-1.219-1.029-2.108-1.029-1.662 0-2.597 1.216-2.692 3.626h5.338c-.025-1.262-.187-2.036-.538-2.598zm-4.8 3.979v.281c0 1.1.14 1.943.539 2.552.655 1.007 1.731 1.427 2.903 1.427 1.122 0 2.036-.351 2.856-1.1l.702 1.171c-1.029.936-2.435 1.449-3.932 1.449-3.23 0-5.173-2.339-5.173-6.203 0-1.965.422-3.23 1.404-4.4.936-1.1 2.084-1.616 3.488-1.616 1.265 0 2.365.445 3.16 1.265 1.007 1.03 1.335 2.13 1.335 4.916v.257h-7.281"/><path d="M179.759 55.373v-7.89c0-1.239-.092-1.544-.42-1.942-.258-.305-.749-.491-1.287-.491-.938 0-2.388.749-3.233 1.638v8.685h-1.777v-8.989c0-1.664-.445-2.458-.445-2.458l1.778-.492s.422.867.422 1.826c1.216-1.217 2.434-1.801 3.674-1.801 1.265 0 2.388.678 2.856 1.709.188.421.282.888.282 1.356v8.85h-1.851"/><path d="M189.464 45.096h-2.434v7.514c0 1.287.351 1.731 1.499 1.731.513 0 .818-.069 1.146-.234l.258 1.17c-.586.305-1.242.468-2.061.468-.608 0-1.077-.117-1.521-.327-.82-.396-1.124-1.146-1.124-2.316v-8.007h-1.523v-1.381h1.523c0-1.123.186-2.951.186-2.951l1.92-.42s-.234 1.826-.234 3.37h2.927l-.562 1.381"/></g></svg>