<svg xmlns="http://www.w3.org/2000/svg" viewBox="0 0 358.17499 61.962502"><defs><clipPath id="a"><path d="M0 0h2865v495.738h-2865v-495.738z"/></clipPath></defs><g clip-path="url(#a)" fill="#231f20"><path d="M66.207 23.486c-.223.058-.741.21-1.085.254.651-.63 1.043-1.406 1.043-2.052-.311.099-.87.308-1.38.421 1.014-.858 1.563-1.853 1.323-3.176-.309.155-.743.407-1.18.588.884-1.359.871-2.556.506-3.258-.393.368-.872.801-1.379 1.109.324-1.572.309-2.583-.35-3.286-.675 1.264-1.248 2.208-2.194 3.33.072-1.039-.039-2.334-.717-3.008 0 0-.193 1.451-.7 1.912-.124-1.419-.561-2.19-1.208-2.95 0 0-.042 1.475-.445 2.388-.342-1.234-.976-2.194-1.788-3.106.057 2.727-.702 7.87-2.893 11.325-.256 2.05-.481 5.128-3.821 6.955-.48-.338-1.326-.771-2.516-.701-.314-1.548 1.709-2.952 3.452-4.077 1.763-1.138 2.528-2.106 2.489-3.623-.041-1.659-1.167-2.34-2.333-2.387-1.644-.072-2.978 1.416-3.291 2.032-.475.228-1.88.663-2.457.817-.638.171-1.362.434-1.812.815.268.168 1.037.226 1.336.181.556-.078 2.333-.409 4.03-.615.62.334 1.615.894.561 1.629-1.444.926-2.065 1.165-4.102 2.231-3.221 1.687-2.178 5.934-1.387 6.241 0 1.43 1.276 4.018 2.145 4.916.393 1.8-.128 4.481-.671 5.59-.449-1.091-1.225-3.623-1.732-5.097.523-2.793-.323-4.021-.912-4.496-.591-.48-1.517-.35-2.121.619.928-.102 1.238 1.087 1.217 2.316-.021 1.477-.399 2.664-1.428 2.671.085 1.265 1.443 1.617 2.119 1.012.107.282.656 1.938 1.171 3.416.306.875.604 1.682.799 2.104.214.47 1.783.537 1.965 0 .249-.725.445-1.265.835-2.104.3-.637.711-1.453 1.344-2.659.424.729.983 1.879 1.306 2.659.153.363.255.652.267.785.128 1.204.056 5.477-.267 8.036-3.513-.957-4.507.761-4.2 2.035.503-.562 1.163-.491 1.574-.192-.1.939.154 1.611 1.111 1.896 1.009-2.669 4.633-2.08 4.971-1.855.016-.52.503-1.809-1.362-2.08.07-2.304.306-5.129.392-5.719.086-.591.153-.955-.127-1.881-.085-.277-.184-.618-.289-1.024-.243-.933-.493-2.151-.511-3.472.325.321 1.096.576 1.628.463.411 1.74.999 1.236 1.309 1.968.159.376.195.726.24 1.041.038.307.087.571.255.796 1.245.036 2.303-.26 3.064-.796.234-.164.438-.348.61-.55-.305-1.855-.828-2.768-1.796-3.893-.254-1.516-.962-2.911-1.938-4.136 1.228-.4 2.468-1.395 3.124-2.088.586-.043 1.26-.532 1.313-1.489.34-.04.633-.058.904-.113-.032-.263-.098-.66-.141-.897.451 0 .884-.018 1.304-.058-.123-.352-.281-.714-.406-.981.452 0 1.01-.032 1.461-.058-.237-.45-.423-.843-.561-1.239.516-.053 1.321-.182 1.976-.336-.21-.222-.447-.45-.81-.801 1.713-.505 2.457-1.7 2.543-2.22-.255 0-.773.115-1.083.086.959-.565 1.601-1.337 1.7-2.165"/><path d="M42.252 27.331h-21.643v7.993c.1.059.193.134.288.22v-7.873h21.531v7.322c.079.081.152.182.223.311v-7.973h-.399"/><path d="M31.599 54.875c-9.55-3.557-10.763-11.393-10.796-14.944l-.032-.006.03-.258c.005-.771.063-1.294.087-1.478-.026-.508-.102-.906-.186-1.2l-.092-.187v3.687c0 4.13 1.514 7.691 4.497 10.58 2.614 2.535 5.551 3.713 6.391 4.015l.133.049.135-.049c.838-.301 3.776-1.479 6.39-4.015 2.983-2.89 4.497-6.45 4.497-10.58v-.672c-.076.122-.154.2-.233.292-.087 1.853-.429 4.726-1.658 6.896-1.479 3.034-3.747 5.531-9.163 7.871"/><path d="M14.446 5.727c1.364.663 1.798-.561 4.342 1.082-1.684.534-2.979 2.616-4.875 2.082 1.362-.676 1.22-1.673 2.01-2.166-.507-.068-1.49-.297-1.477-.998zm4.892 13.529c-.814-.334-2.069-.545-2.771.438-.378-.662.183-1.66.537-1.954-1.788.027-2.797-.515-3.064-1.056.66-.361 2.331-.967 3.693.032.941.689 1.419 1.024 2.532 1.389.401-.403.252-.223.379-.337-.914-.629-1.322-5.493-3.11-5.679.257-.615 1.183-.559 1.928-.361.053-1.089-.397-2.884-1.073-3.923 1.043-.547 1.754.046 2.116 1.337.379 1.374-.074 4.803.827 7.896l.562-.516c-.283-1.804 1.7-2.465 2.134-3.361.168 1.208-.084 1.753-.42 2.192.717.084 1.037.786.926 1.279-1.725-.255-2.726 1.477-2.341 2.851-1.276.281-2.151.065-2.855-.228zm8.442 1.001c-1.488.082-2.949 2.022-2.333 4.229-.224.083-.871.071-1.079-.376-.158.715-1.619 1.543-2.684 1.429.589-.633.985-2.067 2.133-2.822 1.154-.762 1.674-1.28 2.081-2.571-.534.248-3.315.966-4.104.111 1.829-.267 3.993-1.295 5.059-1.968l-.421-.449c-1.149.65-2.682 1.179-3.457 1.423-.278-2.289 1.903-2.198 2.067-1.578.897-1.071.268-2.602-.396-2.772.679-1.826 0-2.949-.575-3.623-.137 1.94-2.303 2.249-2.557 3.742-.083-1.184-.162-4.376-.254-5.934-.168-2.894-3.821-3.906-4.383-3.906-2.387.114-2.612-.196-2.554-1.305-1.208 1.375-.804 2.599.225 3.191-.143.828-1.465 1.47-2.278 1.654 1.939 1.799 4.189.73 5.265-.293l.234-.207c.389.686.669 1.936.669 2.653-1.812-.098-2.135 1.307-2.135 1.812 2.304-.958 2.555 3.458 3.16 4.172-.59-.043-1.629-1.406-3.16-1.503-1.847-.117-2.498.87-3.246.829.138 1.305 1.726 2.037 2.753 2.192-.522 1.333-.062 2.24 1.025 2.569 0-1.221 1.544-1.601 3.201-.632 1.988 1.162 3.01 1.264 4.609.772-.263.579-.983.636-1.867 1.505-1.238 1.219-1.277 2.812-2.657 3.387 1.62.77 4.063-.308 4.412-.931.676.424 1.549.174 1.785-.249-1.096-2.433.757-3.877 1.49-3.852 0 0 .325-.724-.029-.7"/><path d="M44.596 7.049c.817-.587 1.335-.844 1.76-1.095.701.026 1.91-.057 2.639-.421-.758.929-.841 1.266-2.081 1.402 1.604.144 2.279 1.577 3.067 1.798-2.672.815-2.942-1.839-5.385-1.684zm3.303 7.997c.802.657.538 1.587.352 1.796-.702-1.208-2.951-.788-5.157 1.701-.153.186-.362.4-.608.617.173-2.978-2.265-3.033-2.982-2.725.079-.857.612-1.446.896-1.532-.717-.828-.874-1.879-.955-2.643 1.195.52 2.961 1.913 3.259 4.316l.771-.522c-.23-4.197-.18-4.184-.209-7.036-.003-.4.016-1.333 1.284-1.234.053 1.061.217 3.878.161 7.793h.453c.406-1.093 1.855-2.376 3.538-2.26 1.152.076 1.546.054 2.209-.239-.538 1.306-2.504 1.882-3.011 1.968zm-2.43-1.465c0-2.707-.097-4.936-.128-5.639l.327.104c1.945.682 2.388 3.022 6.403.366-2.147.254-2.261-1.574-3.245-1.613 1.487-.844 1.589-2.783 1.589-2.783-1.25 1.008-4.144 1.067-4.707 1.4-.751.452-1.694 1.002-2.332 1.351-1.671.91-.507 5.862-.673 7.671-.903-2.699-2.724-2.291-3.684-3.833-.716 1.29.045 3.452.339 4.073-1.042.842-.76 2.404-.507 2.822.888-.638 2.258-.474 2.677.595-1.165.71-3.115.839-4.447-.451l-.477.532c.938 1.244 3.295 1.727 5.047.723-.007.283-.068.602-.185.954-.912.478-2.087.74-3.429.277.184 1.363 1.745 2.372 3.229 2.782-.5.391-1.12.547-1.571.494.284.785.437 1.838-.155 2.666-.742-.492-1.137-.984-1.417-2.892-.286-1.91-1.659-3.852-2.726-4.246-.06.676-.06.38.057.816 2.837 2.08 1.232 5.83 4.184 7.177 1.083-1.234 1.095-1.669.93-2.834 1.068-.283 1.864-1.181 2.147-1.872-1.01.478-2.611-.364-3.062-1.024 1.756-.056 3.384-1.381 5.044-3.119 1.489-1.556 3.471-1.322 3.316-.099 1.027-.154 1.433-1.559 1.094-2.46 1.505-.474 2.685-1.586 2.852-3.328-2.019 1.009-4.577-.662-6.49 1.389"/><path d="M34.541 22.814c-.138 0-.264.065-.344.167l-.476-.069.006-.867c.156-.066.263-.22.263-.4 0-.238-.194-.436-.434-.436s-.433.198-.433.436c0 .166.088.309.224.38l-.007.837-.46-.043c-.065-.155-.216-.259-.393-.259-.241 0-.434.194-.434.435 0 .239.193.435.434.435.153 0 .289-.08.364-.202l.487.054-.015 1.268c-.139.073-.233.215-.233.383 0 .24.195.438.434.438.241 0 .439-.197.439-.438 0-.174-.107-.325-.258-.392l.012-1.214.41.064c.061.171.221.293.413.293.239 0 .435-.195.435-.433 0-.243-.195-.437-.435-.437"/><path d="M30.773 22.56c-.177 0-.329.104-.399.259l-.455.043-.006-.837c.133-.072.227-.215.227-.38 0-.238-.196-.436-.431-.436-.244 0-.439.198-.439.436 0 .18.107.334.259.4l.011.867-.478.069c-.077-.102-.199-.167-.342-.167-.24 0-.434.194-.434.437 0 .238.194.433.434.433.191 0 .351-.122.411-.293l.411-.064.011 1.214c-.15.067-.254.218-.254.392 0 .24.193.438.432.438.241 0 .437-.197.437-.438 0-.168-.097-.31-.235-.383l-.008-1.268.482-.054c.076.122.212.202.366.202.239 0 .436-.196.436-.435 0-.24-.197-.435-.436-.435"/><path d="M31.63 26.241c-.645 1.237-1.848 1.199-2.896.507-.422-.281-.851-.462-1.25-.525.183-1.218.482-3.513.699-5.452 1.358-.615 3.034-.76 3.446.805.413-1.565 2.088-1.42 3.445-.805.218 1.938.52 4.234.701 5.452-.393.064-.83.245-1.252.525-1.047.692-2.248.73-2.893-.507zm4.91.043c-.263-1.751-.894-6.653-.968-8.292l-.746.033c.009.28.04.648.078 1.079-.897-.266-2.072-.451-3.274-.451-1.197 0-2.377.185-3.274.451.037-.431.067-.798.08-1.079l-.748-.033c-.073 1.639-.705 6.541-.967 8.292-.446.173-.738.619-.738 1.419 0 0 4.073.057 5.648.057 1.575 0 5.644-.057 5.644-.057 0-.8-.292-1.246-.735-1.419"/><path d="M53.606 61.246h-43.951c-.197-1.399-.464-2.297-.703-3.053h45.354c-.24.756-.503 1.654-.7 3.053zm-29.79-9.406c.406.601.792 1.038.978 1.516.192.504.067.806-.301 1.323-.835 1.168-2.28 2.173-3.419 2.795h-4.404c2.768-.787 6.508-3.155 7.145-5.635zm-2.669-.815c.362-.666 1.233-.876 1.827-.086.254.34.143 1.239-.899 2.366-.75-.69-1.31-1.569-.928-2.279zm17.564 3.655c-.369-.518-.495-.819-.301-1.323.186-.479.573-.916.978-1.516.636 2.479 4.379 4.848 7.145 5.635h-4.406c-1.138-.623-2.581-1.627-3.416-2.795zm1.517-3.741c.597-.79 1.466-.58 1.829.086.382.71-.175 1.589-.928 2.279-1.039-1.127-1.149-2.025-.9-2.366zm14.25 6.312c-.473.138-1.043.225-1.898.225h-1.064c-3.655-.071-7.416-1.159-9.719-3.519 3.184-3.209-.556-5.852-2.579-3.13-.63.854-1.134 1.455-1.573 2.28-.355.667-.088 1.335.703 2.359.433.565 1.511 1.437 2.392 2.009h-18.271c.877-.572 1.954-1.444 2.393-2.009.785-1.024 1.056-1.692.703-2.359-.437-.825-.946-1.426-1.576-2.28-2.022-2.722-5.76-.08-2.576 3.13-2.304 2.36-6.062 3.448-9.722 3.519h-1.008c-.857 0-1.428-.086-1.897-.225-.759-.183-.927.138-.518 1.447.281.87.503 2.289.605 3.265h45.523c.096-.977.32-2.395.601-3.265.407-1.309.239-1.63-.518-1.447"/><path d="M14.911 60.123l-.013-.02.327-.871.018-.021.01.021.323.871-.014.02h-.65zm.703.128l.026.02.119.321-.022.063-.039.023.081.022.492.001.117-.023-.029-.023-.113-.008c-.055-.016-.13-.047-.228-.283-.168-.396-.585-1.458-.644-1.604l-.066-.083-.073.107-.655 1.635c-.051.129-.102.216-.219.232l-.085.004-.03.023.049.023.308-.001.278.001.044-.023-.041-.023h-.039c-.08 0-.102-.032-.102-.082l.037-.155.053-.145.023-.022h.758"/><path d="M16.914 59.869c0 .376.097.569.231.691.19.171.439.177.577.177.17 0 .359-.023.54-.187.22-.183.251-.492.251-.783v-.279l.005-.547c.006-.091.022-.138.093-.15l.077-.007.046-.024-.054-.023-.3.003-.293-.003-.058.023.046.024.093.007c.086.016.106.059.111.15l.005.547v.328c0 .269-.007.504-.148.645-.107.104-.247.144-.362.144-.089 0-.208-.016-.325-.107-.127-.106-.203-.265-.203-.642v-.367l.003-.547c.007-.091.03-.138.098-.15l.078-.007.042-.024-.059-.023-.32.003-.38-.003-.059.023.045.024.101.007c.088.016.107.059.114.15l.006.547v.381"/><path d="M19.939 59.445l.001-.52.032-.051.168-.02c.206 0 .505.032.743.264.113.106.251.319.251.648 0 .27-.053.507-.221.652-.157.131-.332.187-.597.187-.207 0-.308-.057-.344-.104l-.027-.199-.005-.526v-.331zm-.325.5c0 .24 0 .449-.015.556-.009.077-.021.133-.074.145l-.092.008-.043.023.053.023.327-.001.556.027c.481 0 .751-.184.874-.309.146-.148.283-.398.283-.725 0-.312-.124-.527-.255-.662-.28-.295-.719-.295-1.042-.295l-.401.003-.377-.003-.055.023.041.024.106.007c.085.016.104.059.109.15l.007.547v.458"/><path d="M22.49 60.123l-.007-.02.324-.871.015-.021.013.021.321.871-.013.02h-.653zm.703.128l.025.02.124.321-.027.063-.036.023.079.022.49.001.124-.023-.036-.023-.11-.008c-.055-.016-.127-.047-.224-.283-.17-.396-.586-1.458-.651-1.604l-.064-.083-.069.107-.658 1.635c-.05.129-.102.216-.222.232l-.079.004-.033.023.051.023.308-.001.274.001.044-.023-.038-.023h-.041c-.078 0-.102-.032-.102-.082l.036-.155.055-.145.026-.022h.754"/><path d="M25.737 59c.082-.116.132-.189.191-.205l.093-.011.042-.024-.045-.023-.257.003-.26-.003-.054.023.029.024.088.007.042.042-.027.104-.356.548-.33-.579-.027-.073.032-.042.073-.007.036-.024-.051-.023-.28.003-.395-.003-.052.02.024.028.111.017c.093.025.152.089.213.195l.452.741-.498.709c-.088.127-.138.177-.212.197l-.099.012-.036.023.038.023h.046l.215-.001.247.001h.046l.054-.023-.033-.023-.058-.004-.052-.043.036-.109.387-.624.413.705-.006.063-.039.027.094.03.464.001h.078l.051-.023-.032-.023-.098-.014c-.07-.02-.111-.053-.154-.112-.063-.082-.486-.786-.57-.913l.426-.615"/><path d="M29.292 60.123l-.013-.02.324-.871.019-.021.012.021.333.874-.015.016h-.659zm.703.128l.025.02.119.321-.024.063-.037.023.079.022.492.001.119-.023-.033-.023-.11-.008c-.053-.016-.131-.047-.229-.283-.169-.396-.584-1.458-.643-1.604l-.068-.083-.073.107-.654 1.635c-.051.129-.1.216-.223.232l-.078.004-.031.023.049.023.307-.001.275.001.044-.023-.038-.023h-.037c-.083 0-.105-.032-.105-.082l.04-.155.052-.145.024-.022h.759"/><path d="M31.593 59.945c0 .24 0 .449-.012.556-.008.077-.025.133-.074.145l-.094.008-.043.023.051.023.333-.001.409.001.045-.023-.042-.023-.13-.008c-.079-.012-.096-.068-.105-.142-.012-.11-.012-.319-.012-.559v-1.065l.328.006c.233.007.303.078.309.149v.028l.029.051.024-.044.008-.299-.021-.054-.249.022h-1.032l-.26-.007-.111-.035-.031.051-.053.297.022.044.027-.029.044-.095c.041-.059.102-.067.254-.074l.385-.01v1.065"/><path d="M36.123 59.737l.022-.024.384.012c.078.007.116.055.133.09l.014.083.024.035.022-.051.013-.189.02-.164-.016-.021-.033.028-.115.044-.114.004-.333.003-.022-.028v-.646l.027-.039.399.01c.097 0 .153.042.173.077l.014.099.027.042.025-.035.011-.212.023-.118-.017-.023-.042.02-.107.007h-.686l-.374-.003-.059.023.039.024.105.007c.085.016.103.059.108.15l.007.547v.458c0 .251 0 .449-.013.556-.011.077-.022.133-.076.145l-.092.008-.04.023.056.023.327-.001.395.001.058-.023-.04-.023-.132-.008c-.08-.012-.095-.068-.102-.145-.015-.106-.015-.304-.015-.556v-.208"/><path d="M37.789 59.945l-.01.571c-.005.071-.025.117-.077.129l-.09.008-.043.023.053.023.327-.001.407.001.049-.023-.04-.023-.137-.008c-.079-.012-.095-.059-.102-.128l-.01-.573v-.458l.002-.547c.007-.091.024-.138.098-.15l.078-.007.041-.028-.056-.02-.318.003-.334-.003-.065.02.043.028.09.007c.059.016.084.059.09.15l.003.547v.458"/><path d="M39.671 59.445v-.52l.036-.051.167-.02c.206 0 .503.032.744.264.109.106.246.319.246.648 0 .27-.051.507-.219.652-.156.131-.334.187-.596.187-.207 0-.309-.057-.341-.104l-.031-.199-.005-.526v-.331zm-.323.5c0 .24 0 .449-.018.556-.006.077-.021.133-.074.145l-.095.008-.043.023.056.023.329-.001.554.027c.478 0 .751-.184.871-.309.146-.148.286-.398.286-.725 0-.312-.125-.527-.257-.662-.281-.295-.717-.295-1.044-.295l-.398.003-.377-.003-.058.023.046.024.103.007c.085.016.104.059.111.15l.006.547v.458"/><path d="M42.127 59.945l-.011.556c-.013.077-.024.133-.075.145l-.096.008-.041.023.053.023.326-.001.724.014c.095 0 .121 0 .136-.071l.036-.29-.021-.05-.028.042c-.018.105-.049.163-.118.195-.068.03-.175.03-.243.03-.265 0-.308-.042-.313-.219v-.609l.019-.026.367.009c.096.007.134.047.147.099l.013.094.018.023.024-.046.011-.173.021-.193-.018-.021-.041.034-.126.038-.415.007-.021-.029v-.66l.021-.023.367.01c.131.014.157.045.173.093l.019.094.021.039.023-.031.012-.173.024-.169-.019-.023-.037.011-.113.016h-.653l-.371-.003-.058.023.043.024.099.007c.089.016.109.059.114.15l.004.547v.458"/><path d="M44.476 59.487l.004-.547c.005-.091.026-.138.095-.15l.102-.007.044-.024-.053-.023-.354.003-.355-.003-.054.023.039.024.089.007c.085.016.102.059.11.15l.005.547v.458c0 .24 0 .449-.013.556-.009.077-.021.133-.078.145l-.091.008-.042.023.053.023.327-.001.758.014c.135 0 .149-.014.164-.073l.038-.302-.019-.042-.026.039-.071.157c-.065.067-.168.071-.308.071-.199 0-.266-.016-.312-.055-.053-.048-.053-.228-.053-.563v-.458"/><path d="M46.098 59.945l-.01.571c-.005.071-.025.117-.077.129l-.096.008-.039.023.05.023.329-.001.413.001.049-.023-.047-.023-.132-.008c-.077-.012-.099-.059-.104-.128-.013-.112-.013-.317-.013-.573v-.458l.006-.547c.006-.091.028-.138.098-.15l.077-.007.041-.028-.052-.02-.318.003-.341-.003-.059.02.038.028.095.007c.058.016.085.059.088.15l.004.547v.458"/><path d="M47.893 60.736c.137 0 .286-.023.415-.106.189-.12.244-.303.244-.453 0-.244-.115-.421-.429-.659l-.074-.06c-.21-.161-.274-.254-.274-.373 0-.157.117-.267.31-.267.167 0 .242.078.282.128.058.068.07.148.07.171l.027.043.029-.075.01-.313-.036-.034c-.067-.016-.176-.042-.347-.042-.359 0-.6.208-.6.492 0 .212.095.395.384.619l.124.09c.215.169.251.291.251.421 0 .134-.112.295-.351.295-.159 0-.315-.071-.37-.264l-.026-.129-.024-.051-.032.071-.014.338.05.09c.11.051.228.067.38.067"/><path d="M31.63 15.273c-1.361 0-2.896.321-4.079.838.019-.263.108-.492.277-.693.688-.827 2.476-1.122 3.802-1.122s3.116.295 3.802 1.122c.168.202.258.429.278.69-1.184-.518-2.698-.835-4.08-.835zm2.318 1.921l-.422-.974c.642.124 1.257.311 1.794.536l.246 1c-.398-.16-.949-.382-1.618-.562zm-3.992-.151l-.724-.713c.594-.149 1.218-.248 1.831-.29l.434.839c-.552.007-1.063.072-1.541.165zm-2.356.755l-.212.086c-.288.115-.488.024-.56-.118-.075-.151-.029-.399.331-.621l.149-.081.69.567-.397.166zm4.03-5.12l.981.711c-.419-.039-.77-.048-.981-.048-.212 0-.562.009-.982.048l.982-.711zm-1.119-2.596c-.4-.87-.512-2.009.724-1.46l.098 1.46h-.822zm.939-3.153l.18.126.176-.126.714-.517-.41 1.376-.041.013c-.072-.173-.243-.289-.44-.289-.196 0-.363.115-.438.289l-.042-.013-.409-1.376.709.517zm1.055 5.633l-.699-.506-.176-.13-.18.13-.697.506.454-1.468h.846l.452 1.468zm.244-2.481h-.823l.099-1.46c1.235-.549 1.124.591.724 1.46zm-4.133.342l.507-.697.128-.181-.128-.175-.507-.7 1.037.319c.058.453.159.753.275 1.029l-1.313.404zm4.995-1.434l1.036-.319-.509.7-.129.175.129.181.509.697-1.315-.404c.117-.276.218-.576.279-1.029zm6.462-1.79c.024-.388-.701-.686-.883-.703-.302-.022-.687.618-1.083 1.014-.35-1.869-.168-2.67.027-3.498.789 1.434 1.855 1.74 2.418 1.669-1.897-1.515-1.569-2.893-2.148-2.966-.329-.034-.566-.013-.733-.013-.666 0-.757 1.292-.843 1.883-.432-.802-.857-1.476-1.587-2.403-.699-1.797-1.557-1.349-2.429-2.164.676 1.028.128 1.659 1.699 2.405.41.39.888.998 1.208 1.489-.264.348-.443.551-.689.787-.194.293-.293 1.406-.899 2.247.899-.395 1.252-.94 1.572-1.477 2.838 2.143.534 7.613-.121 8.813-.625-.421-1.425-.659-2.152-.789l-.077-.244-.666-2.16h.309c.354 0 .438-.236.38-.427l1.957.605.868.265-.531-.732-.91-1.258.91-1.252.531-.736-.868.267-1.763.544c-.121-.4-.447-.592-.81-.643l.593-1.998.254-.858-.724.527-1.252.91-1.257-.91-.72-.527.254.858.593 1.998c-.355.05-.689.243-.813.643l-1.763-.544-.865-.267.532.736.91 1.252-.91 1.258-.532.732.865-.265 1.968-.606c-.059.192.015.428.376.428h.305l-.666 2.16-.076.244c-.749.13-1.568.378-2.197.82-1.913-3.706-1.375-7.457.232-8.704-.028.788.657 1.855.983 2.08-.213-.814.154-2.266-.268-2.629-.295-.25-.743-.376-1.222-.362.323-.533.774-1.212 1.529-2.207 1.127-.532 1.451-1.841 1.731-2.501-1.225.449-2.122 1.081-2.32 2.108-.433.576-.913 1.25-1.447 2.049.03-.969-.506-1.306-1.209-1.36-2.062.435-1.908 1.922-3.678 2.949 1.209.423 3.102-2.232 3.751-1.935.1 1.626-.268 2.907-.268 3.792-.309-.339-.468-.574-.731-.618-.25-.044-.941.014-1.417.534-.132.823-.098 2.376-.87 4.227 1.152-1.054 1.698-3.118 1.882-3.719.293.404.614 1.296.687 2.062.139 1.482 1.049 3.947 1.824 5.137-.213.414-.278.877-.202 1.388-.601.448-.67 1.073-.461 1.493.223.448.815.757 1.509.478l.22-.088c.73-.302 2.092-.868 3.743-.868 1.65 0 3.014.567 3.746.868l.219.088c.694.279 1.283-.03 1.507-.478.211-.419.142-1.045-.461-1.493.081-.549-.006-1.049-.257-1.488l.021.023c1.413-2.006 1.505-5.846 2.673-6.94.098 1.345.815 2.459 1.519 2.612-.567-.926-.567-2.768-.523-3.613"/><path d="M22.248 38.478l-.869.012c-.131 1.509-.068 2.885.139 4.137.538-.886 1.077-1.775 1.051-2.404-.026-.64-.175-1.223-.321-1.746"/><path d="M25.337 41.09c.301.832.666 2.147.966 3.073-.26.016-.514.035-.745.071-.13-.331-.564-1.422-1.008-2.477-.418-.989.576-1.244.787-.666zm1.827-.886c.069-.488 1.453-.581 1.193.492-.261 1.092-.59 2.357-.84 3.447l-.353-.001-.354.001c-.253-1.091-.58-2.356-.841-3.447-.258-1.073 1.122-.98 1.194-.492zm2.612 1.553c-.447 1.055-.877 2.146-1.009 2.477-.232-.036-.486-.055-.744-.071.301-.926.661-2.241.966-3.073.212-.577 1.201-.322.786.666zm-4.431 3.083c.298-.109 1.469-.164 1.819-.164.349 0 1.515.055 1.815.164.032.157.035.376.011.537-.451.13-1.239.198-1.826.198-.591 0-1.377-.067-1.827-.198-.027-.161-.026-.38.008-.537zm3.264 3.431c-.394.086-1.024.128-1.445.128-.421 0-1.053-.042-1.448-.128l.154-.645c-.296-.027-.602-.141-.842-.226.123-.424.314-.85.473-1.434.536.119 1.057.166 1.663.166.603 0 1.124-.047 1.658-.166.16.584.352 1.01.478 1.434-.24.084-.549.199-.844.226l.153.645zm-5.979-9.796c.145.52.285 1.095.311 1.733.029.741-.522 1.65-1.105 2.615l-.198.331c1.674 8.247 9.651 10.996 9.651 10.996v-15.659s-6.005-.022-8.66-.016"/><path d="M40.043 40.021l-.026-.392.392-.004c.526-.003.795-.509.929-1.1-2.044-.016-9.377.012-9.377.012v7.562c.611-.452 1.196-.827 1.968-1.071v-1.656h.762c.043-1.83.48-3.149 1.329-4.023l.245-.256.249.256c.851.874 1.287 2.194 1.329 4.023h.793v1.768c.837.347 1.4.876 1.832 1.442.693-1.406 1.198-3.042 1.386-4.927l-.112.01c-.792 0-1.627-.563-1.699-1.645"/><path d="M41.871 38.538l-.155-.009c-.183.866-.579 1.463-1.303 1.468.057.861.707 1.3 1.33 1.3l.145-.022c.063-.86.07-1.769-.017-2.738"/><path d="M38.083 48.332l-.665-.763-1.133 1.011.466.532s.475-.225.897.264c-.317.279-.869.76-1.189 1.034-.421-.486-.133-.924-.133-.924l-.457-.531-1.387 1.239-.45-.52 1.422-1.193-.511-.586-.465.408c-.404-.471-.72-1.09-.428-1.867.808-.184 1.377.218 1.783.683l-.463.408.514.593 1.164-.974-.665-.765c.605-.073 1.123.142 1.424.482.29.335.43.883.275 1.47zm-1.818-2.92c-2.225 0-3.084.615-4.305 1.553v7.229s5.276-1.813 8.154-6.912c-.666-.995-1.632-1.87-3.85-1.87"/><path d="M23.201 32.337c1.11-.629 1.685-1.095 2.275-2.019-.434-.211-.954-.605-1.338-1.143 2.111.594 3.179.902 5.665.019-.408.641-1.009 1.025-1.516 1.348.564.927 1.123 1.992 1.321 2.839-.744-.059-1.587.122-2.192.674-.931.043-2.106.337-2.755-1.773-.335.17-.673.395-.673.395.381 1.378 1.08 2.316 2.937 2.119.101.438.18.692.406 1.06-.758.445-2.671 1.572-4.13.276v-3.795zm6.982 3.109c-.196.279-1.39.646-1.685.461-.497-.304-.747-.956-.631-1.235.142-.364 1.46-.729 1.879-.593.422.142.605 1.126.436 1.367zm3.555-1.588v-.394l-.927-.015c.222-.984 2.135-2.232 2.995-2.525-.046-1.067 1.359-1.421 2.485-1.452 1.401-.036 1.726 1.463 1.726 1.931 0 .619-.159 1.986-.935 2.412-1.123.615-2.083-.234-2.083-1.008 0-.844.586-1.338 1.599-1.225 1.013.109.935-.456.17-.649-.374-.092-1.98-.175-2.515 1.018-.305.013-.637-.113-.83-.301-.208.27-.533.449-.98.578.386.795 1.182.659 1.665.281l-.022.337c0 1.95 2.08 2.442 3.358 1.712-.212.632-.113 1.432-.025 1.972h-5.034c.086-.539.756-1.154 1.318-1.549l-.446-.705c-.549.24-1.061.459-1.651.614-1.395.363-1.313-.63.133-1.032zm-12.056.741c.562.459.771.8.596 2.352-.024.195.079.559.194.953h18.964c.021-.206.031-.41.034-.585.016-.851-.143-1.526-.414-1.806-.09-.093-.189-.136-.369-.136h-.024l-.757.085.403-.648c.396-.636.962-1.003 1.563-1.046v-5.629h-20.453v6.283l.206.13.058.047"/><path d="M21.418 34.862v3.041h.673c-.117-.399-.209-.752-.181-.996.175-1.539-.059-1.693-.492-2.045"/><path d="M41.871 37.903v-3.772c-.437.042-.898.316-1.248.877l.109-.006c.842 0 1.128 1.145 1.108 2.323-.002.201-.014.392-.029.579h.06"/><path d="M26.392 32.733c.351.167.784-.029 1.236.03-.088-.196-.185-.338-.13-.621.112-.549-.322-.688-.53-.674-.513.032-.803.142-1.339 0 .368.364.274 1.029.763 1.265"/><path d="M21.94 36.876c.178-1.572-.07-1.698-.522-2.069-.393-.321-1.042-.423-1.687-.87-.463-.319-.592-.784-1.179-1.403.116-1.326 1.063-2.942 1.761-3.309.103-.053.069-2.105.069-2.105s.462-.019.418-.048c-.625-.38-1.378-.093-1.924.547-.531.424-1.74 1.237-2.57 1.521-1.133-.953-2.893-1.791-4.176-3.084 0 0 1.703-.015 2.489-.337.209-.127.754-.997.532-1.827-.265-.095-.645-.294-1.019-.503-.467-.266-.917-.552-1.127-.711-.743-.561-1.04-1.049-2.321-1.371.084-.588.209-.451.775-.831.716-.486 1.116-1.066 1.405-1.641.223-.451-.029-1.377-.608-.202-.199.415-.759.972-1.39 1.14.049-.363.07-.572.07-.773 1.869-1.321 1.688-2.486 1.544-3.58-.08-.634-.713-.901-.685-.237.018.433.406 1.671-.875 2.399-.028-.547-.178-.801-.294-1.08 1.141-1.501.663-2.952.183-3.612-.305-.422-1.058-.57-.718.1.282.545.73 2.031-.111 2.642-.294-.366-.631-.509-.745-.999.084-1.631-.019-2.629-.226-3.207-.197-.544-.715-.882-.67-.081.043.906.123 2.049.039 2.119-.084.07-1.292-1.052-1.783-1.389-.499-.343-1.085-.213-.507.461.508.594 2.053 1.73 1.854 2.096-.122.23-1.228-.679-1.797-.874-.577-.197-.757.106-.269.508.786.645 1.311 1.067 2.599 1.504 1.294.433 1.94 2.225 1.533 4.775-.016.118-.239.101-.366.058-.06-.971-.229-2.144-.463-2.655-.308-.676-.912-.69-.688.225.178.724.28 1.502.153 2.474-1.067-.182-1.474-.465-1.921-.731-.046-.497.209-1.305.253-2.038.038-.716-.38-1.168-.62-.268-.23.864-.379 1.28-.522 1.899-.308-.1-.63-.242-.78-.408l-.078-1.759c-.078-.795-.38-.771-.615-.07-.112.322-.197.747-.227 1.268-.377-.228-.629-.663-.674-1.014.055-.83.198-1.711.297-2.261.071-.395-.197-1.196-.509-.227-.222.696-.281 1.279-.42 1.77-.271-.018-.628-1.602-.813-2.612-.083-.462-.466-.984-.536.038-.076 1.13.157 2.266.438 2.771-.549-.056-1.071-1.042-1.451-1.616-.335-.514-.496.022-.462.225.326 2.009 1.929 2.725 2.658 2.866 1.124 1.615 3.271 2.305 5.085 3.093-2.359-.029-2.977.925-4.06.304.049.891.489 1.303.916 1.51.305.142.602.183.741.208.195 1.081 1.224 1.024 2.095 1.081-.225 2.109.029 4.892 1.881 6.969-.054 1.068-.128 2.47-.111 3.4-1.519 1.406-2.868 4.357-3.4 5.986-.399 1.219-1 2.166-1.926 2.615.761.799 1.883.405 2.53-.044.043.716.211 1.223.323 1.647-.434.642-.728 1.091-.69 1.881-.49.138-.827.437-1.093.772-.167.208.026 1.179.213 1.586.604 1.355.133 4.408.025 5.313.255.013.718.029.816-.352.148.141.517.411.688.995-.043.254-.185 1.191.296 1.309.392.098 2.092.043 2.317-.249-.17-.199-.467-.649-.646-1.099 0-.461-.042-1.024-.17-1.262-.196-.342-.688-1.125-.999-1.437-.066-.563-.125-3.049.139-4.007.438-.303 3.43-2.524 4.051-4.648.548.186.38 1.666.38 3.589 0 .516.627.776 1.001.824.808.098 1.963.87 3.253 2.783.254-.271.577-.522.577-.522.168.225.365.774.478 1.127.14.264 1.181.42 1.982.179.265-.093.419-.137.591-.42-1.013-1.767-1.623-2.94-2.923-3.919-.605-.453-1.406-.678-2.082-1.109.451-.846 1.689-4.805.94-6.255-.251-.476-1.192-.954-2.339-.745.959-1.15 2.905-3.429 3.16-4.128.223.268 1.373.083 2.226.415.313.127 1.186 1.257 1.227 1.645.077.701.114 1.532-.374 3.447.341-.055.289-.071.627-.209.058.512-.098.91-.547 1.682.111.689.42 1.757.747 1.954.433-1.29 2.037-3.125 1.993-4.196-.058-1.454-.735-2.688-.658-3.321"/><path d="M83.797 28.578c-.305-.972-1.332-2.443-3.386-2.443-1.305 0-2.443.666-2.998 1.694-.666 1.248-.971 2.943-.971 5.273 0 3.333.554 5.415 1.721 6.248.61.443 1.389.665 2.305.665 2.692 0 3.831-2.055 3.831-6.969 0-1.97-.167-3.386-.5-4.468zm5.969 17.378s-.555.332-1.722.332c-1.499 0-2.832-.887-3.553-1.361-.916-.61-2.415-1.469-3.914-1.942-2.887 0-4.775-.803-6.247-2.72-1.47-1.888-2.22-4.332-2.22-7.164 0-4.163 1.581-7.522 4.357-9.021 1.139-.61 2.554-.944 3.998-.944 5.136 0 8.3 3.748 8.3 9.8 0 4.191-1.499 7.329-3.804 8.857.528.193 1.277.693 1.722.973.694.414 1.526.803 2.387.803.834 0 1.722-.138 1.722-.138l-1.027 2.526"/><path d="M101.366 43.068c-.472-.332-.86-.803-1.11-1.387-.916.886-2.249 1.36-3.748 1.36-2 0-3.721-.944-4.192-2.305-.222-.638-.306-1.387-.306-2.83v-9.107l3.665-.693v9.132c0 1.278.111 1.945.305 2.332.194.391.75.667 1.305.667.916 0 2.027-.667 2.304-1.361v-9.993l3.553-.75v10.853c0 .945.305 1.917.861 2.582l-2.637 1.499"/><path d="M114.91 33.852c0-1.053-.111-1.609-.444-2.137-.36-.556-.889-.833-1.638-.833-1.415 0-2.22 1.11-2.22 3.082v.056h4.303v-.168zm-4.358 2.888v.112c0 2.191 1.083 3.442 2.998 3.442 1.277 0 2.471-.471 3.608-1.417l1.444 2.223c-1.637 1.331-3.359 1.969-5.357 1.969-4.082 0-6.719-2.887-6.719-7.354 0-2.555.528-4.249 1.777-5.637 1.165-1.305 2.582-1.915 4.47-1.915 1.637 0 3.192.556 4.107 1.499 1.305 1.333 1.889 3.248 1.889 6.218v.861h-8.217"/><path d="M129.289 33.852c0-1.053-.111-1.609-.445-2.137-.36-.556-.889-.833-1.637-.833-1.416 0-2.221 1.11-2.221 3.082v.056h4.303v-.168zm-4.359 2.888v.112c0 2.191 1.082 3.442 2.999 3.442 1.276 0 2.47-.471 3.607-1.417l1.445 2.223c-1.639 1.331-3.36 1.969-5.357 1.969-4.083 0-6.718-2.887-6.718-7.354 0-2.555.526-4.249 1.776-5.637 1.165-1.305 2.581-1.915 4.47-1.915 1.637 0 3.191.556 4.107 1.499 1.305 1.333 1.889 3.248 1.889 6.218v.861h-8.217"/><path d="M143.666 42.68v-9.244c0-1.61-.279-2.082-1.249-2.082-.75 0-1.722.499-2.584 1.276v10.049h-3.719v-10.3c0-1.221-.168-2.387-.5-3.331l3.304-.943c.333.584.527 1.193.527 1.776.554-.389 1.028-.721 1.637-1.055.75-.388 1.72-.611 2.554-.611 1.584 0 2.97.833 3.415 2.054.194.528.278 1.138.278 2.027v10.382h-3.664"/><path d="M155.765 43.123c-1.748 0-3.663-.555-5.745-1.637l1.333-2.72c1.137.693 3.109 1.609 4.719 1.609 1.055 0 1.887-.693 1.887-1.609 0-.973-.693-1.472-2.194-1.749l-1.665-.306c-.944-.167-2.109-.833-2.609-1.443-.5-.611-.805-1.639-.805-2.553 0-2.777 2.192-4.638 5.495-4.638 2.279 0 3.777.694 5.082 1.333l-1.224 2.498c-1.415-.722-2.441-1.027-3.498-1.027-1.083 0-1.804.555-1.804 1.388 0 .721.472 1.111 1.778 1.442l1.72.445c1.749.445 2.333.974 2.831 1.611.527.666.779 1.47.779 2.415 0 2.943-2.444 4.94-6.081 4.94"/><path d="M168.446 43.013c-1.584 0-2.86-.749-3.305-1.942-.278-.723-.333-1.165-.333-3.193v-10.605c0-1.86-.055-2.998-.195-4.275l3.803-.861c.14.777.196 1.694.196 3.692v11.078c0 2.442.028 2.775.25 3.163.138.251.443.391.749.391.14 0 .223 0 .415-.055l.64 2.219c-.64.25-1.416.388-2.22.388"/><path d="M179.268 36.462c-2.583 0-3.47.473-3.47 2.167 0 1.11.694 1.859 1.636 1.859.695 0 1.39-.362 1.945-.973l.055-3.053h-.166zm3.164 6.942c-.86-.363-1.637-1.001-1.998-1.723-.278.276-.583.556-.861.749-.694.5-1.694.779-2.859.779-3.165 0-4.886-1.61-4.886-4.442 0-3.333 2.304-4.885 6.83-4.885.276 0 .526 0 .831.027v-.583c0-1.584-.305-2.111-1.665-2.111-1.194 0-2.583.582-4.109 1.61l-1.583-2.666c.75-.472 1.305-.75 2.305-1.165 1.387-.583 2.581-.834 3.885-.834 2.389 0 4.026.888 4.581 2.471.195.584.279 1.027.25 2.554l-.084 4.775c-.028 1.554.084 2.221 1.333 3.166l-1.971 2.278"/><path d="M194.895 42.68v-9.244c0-1.61-.281-2.082-1.25-2.082-.75 0-1.721.499-2.584 1.276v10.049h-3.719v-10.3c0-1.221-.166-2.387-.5-3.331l3.305-.943c.331.584.527 1.193.527 1.776.554-.389 1.026-.721 1.637-1.055.75-.388 1.72-.611 2.555-.611 1.581 0 2.97.833 3.413 2.054.195.528.279 1.138.279 2.027v10.382h-3.664"/><path d="M210.494 32.214c-.694-.611-1.361-.916-2.029-.916-1.666 0-2.386 1.388-2.386 4.553 0 3.053.637 4.054 2.583 4.054.695 0 1.47-.474 1.833-.918v-6.773zm.833 10.466c-.11-.222-.165-.443-.223-.833-.916.806-2 1.194-3.276 1.194-3.609 0-5.885-2.804-5.885-7.217 0-4.442 2.469-7.497 6.08-7.497 1.026 0 1.833.251 2.527.805-.056-.305-.111-1.276-.111-2.11v-4.886l3.692.584v14.77c0 3.498.275 4.635.526 5.19h-3.331"/><path d="M231.615 42.985c-2.388 0-4.415-.833-5.859-2.386-1.611-1.75-2.359-4.11-2.359-7.385 0-3.637.973-6.219 2.941-7.996 1.36-1.221 2.999-1.804 4.97-1.804 2.027 0 3.776.638 5.219 1.888l-1.028 1.416c-1.554-1.055-2.664-1.472-4.135-1.472-2.221 0-3.97 1.027-4.747 3.221-.497 1.416-.751 3.026-.751 4.832 0 2.498.472 4.523 1.334 5.773.861 1.249 2.804 2.028 4.607 2.028 1.192 0 2.223-.251 3.027-.751v-5.801h-3.831l-.445-1.889h6.414v8.884c-1.36.888-3.415 1.443-5.357 1.443"/><path d="M248.822 31.992c-.584-1.221-1.805-1.776-2.944-1.776-1.22 0-2.36.583-2.83 1.499-.444.86-.667 1.97-.667 3.608 0 1.942.335 3.663.863 4.527.499.832 1.61 1.387 2.803 1.387 1.444 0 2.527-.75 2.998-2.083.306-.86.416-1.637.416-2.998 0-1.944-.193-3.248-.637-4.164zm-2.831 11.049c-3.804 0-5.97-2.804-5.97-7.356 0-4.498 2.249-7.247 5.886-7.247 2.304 0 3.805 1.055 4.746 2.415.863 1.25 1.279 2.888 1.279 5.136 0 4.609-2.473 7.052-5.941 7.052"/><path d="M259.869 42.82h-2.139l-4.969-13.854 2.221-.472 3.22 9.521c.39 1.139.665 2.359.665 2.359h.058s.223-1.081.666-2.331l3.165-9.189h2.305l-5.192 13.965"/><path d="M274.354 31.409c-.474-.75-1.446-1.22-2.5-1.22-1.971 0-3.081 1.443-3.192 4.303h6.331c-.028-1.5-.225-2.417-.639-3.083zm-5.692 4.72v.333c0 1.304.166 2.305.637 3.026.78 1.194 2.055 1.693 3.444 1.693 1.333 0 2.415-.417 3.388-1.304l.831 1.387c-1.22 1.111-2.886 1.721-4.664 1.721-3.83 0-6.134-2.777-6.134-7.356 0-2.33.5-3.831 1.665-5.219 1.11-1.305 2.471-1.915 4.135-1.915 1.5 0 2.804.528 3.749 1.498 1.194 1.223 1.583 2.526 1.583 5.831v.305h-8.634"/><path d="M286.371 30.938c-.14-.056-.388-.112-.611-.112-.833 0-1.666.361-2.304 1-.639.639-.806 1.055-.806 2.194v8.66h-2.164v-10.66c0-2.027-.471-2.943-.471-2.943l2.163-.583s.527 1.083.446 2.248c.999-1.415 2.469-2.303 3.888-2.303.359 0 .749.139.749.139l-.889 2.36"/><path d="M296.475 42.68v-9.354c0-1.473-.111-1.834-.501-2.306-.305-.361-.889-.583-1.526-.583-1.111 0-2.831.888-3.831 1.942v10.3h-2.109v-10.66c0-1.971-.529-2.915-.529-2.915l2.109-.584s.501 1.027.501 2.166c1.444-1.444 2.888-2.138 4.356-2.138 1.501 0 2.834.805 3.389 2.026.223.5.334 1.056.334 1.611v10.493h-2.192"/><path d="M318.012 42.68v-10.215c0-1.333-.61-2.027-1.776-2.027-1.249 0-2.22.805-3.663 2.138v10.104h-2.192v-9.827c0-.833-.086-1.389-.391-1.777-.331-.389-.776-.555-1.414-.555-1.055 0-2.085.527-3.526 1.831v10.327h-2.084v-10.715c0-2-.497-2.943-.497-2.943l2.109-.5s.501 1.083.501 2.054c.914-1.027 2.606-2.082 4.022-2.082 1.363 0 2.721.833 3.221 2.305 1.333-1.416 3.025-2.305 4.441-2.305 2.055 0 3.471 1.555 3.471 3.748v10.437h-2.223"/><path d="M331.89 31.409c-.472-.75-1.444-1.22-2.498-1.22-1.974 0-3.083 1.443-3.195 4.303h6.33c-.026-1.5-.221-2.417-.637-3.083zm-5.692 4.72v.333c0 1.304.168 2.305.639 3.026.78 1.194 2.055 1.693 3.442 1.693 1.334 0 2.415-.417 3.389-1.304l.831 1.387c-1.222 1.111-2.886 1.721-4.664 1.721-3.83 0-6.135-2.777-6.135-7.356 0-2.33.5-3.831 1.666-5.219 1.111-1.305 2.471-1.915 4.138-1.915 1.499 0 2.803.528 3.746 1.498 1.194 1.223 1.583 2.526 1.583 5.831v.305h-8.635"/><path d="M345.99 42.68v-9.354c0-1.473-.111-1.834-.5-2.306-.305-.361-.886-.583-1.525-.583-1.111 0-2.834.888-3.834 1.942v10.3h-2.107v-10.66c0-1.971-.527-2.915-.527-2.915l2.11-.584s.497 1.027.497 2.166c1.446-1.444 2.889-2.138 4.359-2.138 1.5 0 2.833.805 3.386 2.026.225.5.335 1.056.335 1.611v10.493h-2.194"/><path d="M357.509 30.494h-2.888v8.911c0 1.526.415 2.055 1.776 2.055.61 0 .971-.084 1.359-.278l.307 1.387c-.695.362-1.474.555-2.444.555-.724 0-1.279-.138-1.804-.387-.973-.471-1.335-1.361-1.335-2.748v-9.495h-1.804v-1.638h1.804c0-1.333.223-3.498.223-3.498l2.277-.499s-.278 2.164-.278 3.998h3.47l-.665 1.638"/></g></svg>