<svg height="80" viewBox="0 0 160 80" width="160" xmlns="http://www.w3.org/2000/svg" xmlns:xlink="http://www.w3.org/1999/xlink"><mask id="a" fill="#fff"><path d="m0 79.719h159.7v-79.719h-159.7z" fill="#fff" fill-rule="evenodd"/></mask><g fill="#fefefe" fill-rule="evenodd"><path d="m66.715 48.474c-.054.093-.12.167-.213.213m2.145-15.318c.223 0 .404-.182.404-.407 0-.224-.18-.407-.404-.407-.223 0-.404.183-.404.407 0 .225.181.407.404.407"/><path d="m82.527 24.501h4.427v-7.805h-4.427zm4.427 3.707c-.076.843-.362 1.543-.944 1.94l-3.483 2.08v-7.329h4.427zm-8.912-3.707h4.09v-7.805h-4.09zm4.09 7.964-1.61.96h-.028c-.117.092-.262.15-.424.15-.163 0-.313-.06-.429-.155l-1.599-.955v-7.566h4.09zm-5.746-7.965h1.26v-2.857h-1.26zm1.26 7.727-3.484-2.08c-.582-.397-.868-1.097-.944-1.94v-3.309h4.427v7.329zm-4.428-12.521h1.529v-3.01h-1.529zm1.91-1.88.179-.187-.111-.206.235.025.142-.249.138.245.239-.02-.112.205.18.187-.23.043v.255l-.215-.162-.217.162v-.255zm1.082 3.146c-.01-.076-.11-.097-.154-.097-.134 0-.19.225-.304.231-.085.005-.145.012-.145-.09 0-.076.174-.136.24-.202-.944 0-.962.432-1.109.432-.247 0 .207-.454.339-.587-.192-.03-.302-.267-.512-.384.098-.142.155-.08.278.018 0-.099.074-.215.293-.215.423 0 .304.408.373.408.067 0-.005-.408.278-.408.417 0 .941 1.076.467 1.076-.204 0-.04-.153-.044-.182zm-1.014 2.297.235.025.142-.249.138.246.239-.022-.112.205.18.187-.23.044v.254l-.215-.162-.217.162v-.254l-.228-.044.179-.187zm-1.726-2.905.235.024.142-.248.139.245.237-.021-.111.205.179.186-.228.044v.255l-.216-.162-.216.162v-.254l-.228-.044.178-.186-.11-.205zm-.25 4.136h1.529v-2.857h-1.529zm3.513-3.745.179-.186-.112-.205.236.024.14-.248.14.245.238-.021-.11.205.179.186-.23.044v.255l-.216-.162-.216.162v-.254l-.228-.044zm-.345-1.05h1.26v-3.01h-1.26zm10.977-3.4v-.008h-14.556v.007h-.002l.012 11.755c0 1.134.48 2.126 1.143 2.43l5.598 3.345c.124.14.306.23.51.23.178 0 .336-.07.455-.178l5.686-3.396c.663-.305 1.143-1.297 1.143-2.431l.012-11.755h-.002z" mask="url(#a)"/><path d="m77.41 27.593c-.02-.047-.554.177-.402.162.015-.157.31-.478.443-.597-.024-.186-.262-.018-.511.113.829-1.187.297-.7-.167-.616.74-.797.546-.784 0-.536.43-.34.52-.744.455-.862-.402.535-.772.452-.772.949 0 .327-.119.864-.287 1.046-.216.234-.05-.877-.617-.877-.182 0-.611-.015-.74.207.116 0 .288.295.288.412 0 .119.108.441-.087.441-.194 0-.42-.408-.42-.604s-.012-.15-.012-.43c0-.471-.766-1.131-1.077-1.131 0 .327.427.405.427.823-.181 0-.44-.34-.44-.13 0 .208.272.247.272.431 0 .183-.311-.066-.311.13 0 .173.17.143.21.312-.125-.035-.238-.019-.261.046-.02.057.037.13.133.183-.044.04-.082.138-.082.413 0 .928.582 1.36 1.01 1.36.304 0 .256-.212.293-.314.013.157.162-.078.162.196 0 .287-.295.162-.295.41 0 .332.467-.012.467.356 0 .444-.055.435-.055.605 0 .116.488-.164.457-.213.118.042.112.387.33.378.14-.005.17-.353.282-.383-.066.017.441.33.441.172 0-.432-.177-.249-.177-.546 0-.274.599-.221.505-.361-.08-.117-.135-.046-.198-.25.012.038-.47-.688.1-.314.6.393.669-.913.637-.981m15.527 3.074c.265 0 .478-.188.478-.421s-.213-.422-.478-.422c-.264 0-.478.189-.478.422s.214.421.478.421m-1.935 1.151c.265 0 .478-.189.478-.422s-.213-.422-.478-.422-.48.19-.48.422c0 .233.215.422.48.422m-23.006 2.652c.263 0 .478-.188.478-.421s-.215-.423-.478-.423c-.265 0-.48.19-.48.423s.215.422.48.422m1.491.128c.264 0 .479-.19.479-.423s-.215-.421-.48-.421c-.264 0-.478.188-.478.421 0 .234.214.423.479.423m41.417-20.075c.711.844.864 2.2.356 3.17-.28-.024-.23-.383-.28-.588-.508-.945-.914-2.147-.457-3.221.331.052.203.46.381.639m-60.774 1.151c-.152.613-.152 1.457 0 2.02-.126.128-.101-.128-.228-.103-.99-.715-.533-2.121-.786-3.119.05-.076.176-.102.253-.051.456.307.66.741.761 1.253m62.958.077c.152.28-.127.562-.331.69-.228.051-.483-.077-.635-.281-.076-.281.076-.538.306-.665.253-.025.507.025.66.256m-64.506 1.125c-.05.229-.127.46-.33.562-.152 0-.381 0-.483-.128-.151-.128-.177-.357-.102-.537.102-.178.305-.204.483-.23.178.077.355.128.432.333m65.495.435c.05.153.05.255 0 .409-.176.23-.431.332-.685.23-.178-.103-.229-.282-.28-.435.051-.204.255-.384.432-.46.229 0 .381.127.533.256m-1.448.025c.204.102.052.358.027.51-.127.13-.305.333-.534.256-.126-.126-.278-.126-.33-.306 0-.256.102-.512.357-.588.202-.051.33.05.48.128m-1.852.383c0 .282.025.64-.305.692-.304.101-.508-.155-.583-.36-.026-.255.127-.51.38-.613.203 0 .382.128.508.281m-59.428.128c.076.255-.178.41-.33.537-.177.051-.406-.102-.508-.282-.178-.177.05-.332.102-.485.254-.23.634-.05.736.23m-1.523.077c0 .204-.102.409-.28.486-.202.076-.405-.077-.508-.231-.127-.255.027-.485.228-.588.28-.103.458.153.56.333m54.808.102c.254.537.456 1.176.508 1.841-.102.486.076 1.125-.28 1.457-.355-.128-.38-.563-.61-.791-.456-.896-.05-1.945.102-2.814.205-.076.205.18.28.307m-56.001.307c.076.307-.153.46-.33.64-.305.076-.508-.154-.636-.36-.025-.254.128-.51.33-.612.255-.026.509.101.636.332m60.012.741c.33.742.355 1.636.126 2.454l-.152.128c-.356-.69-.863-1.329-1.041-2.07 0-.538.102-1.023.306-1.459.177-.126.278.027.354.18.025.281.153.614.407.767m3.199-.46c-.025.256-.127.537-.382.613-.253.052-.507-.025-.584-.306-.076-.256.077-.486.28-.614.28-.154.559.103.686.307m-61.993.793c0 .204-.177.434-.38.486-.204.153-.355-.103-.535-.18-.075-.204-.126-.383 0-.587.077-.154.255-.154.408-.205.228.127.456.23.507.486m1.117-.128c.102.256-.178.384-.279.511-.305.102-.457-.127-.584-.307-.051-.256.102-.41.279-.562.305-.076.457.128.584.358m61.586-.077c-.025.333-.534.665-.584.997-.28.69-.888 1.202-1.573 1.432-.153.128-.356.307-.585.332-.05-.51.407-.971.686-1.43.533-.692 1.27-1.126 2.056-1.331m-63.21 1.074c.38.435.584.818 1.04 1.201.026.103-.051.256-.177.256-1.244-.076-2.082-1.355-2.691-2.25.075-.281.405-.05.584-.076.43.332.913.434 1.244.87m63.565.357c-.05 1.1-.583 2.224-1.573 2.761-.28.103-.584.384-.864.205.534-1.1 1.347-1.994 2.235-2.966h.203zm-4.873.741c.076.384-.127.614-.432.742-.279.025-.457-.205-.584-.409-.025-.255.127-.486.356-.563.076-.076.202-.076.304-.076.153.05.229.178.356.306m-60.089.231c.483.332.914.792 1.37 1.201-.328.23-.735.026-1.117.026-.862-.307-1.446-1.049-2.334-1.305.024-.28.355-.178.533-.255.558-.051 1.015.204 1.548.333" mask="url(#a)"/><path d="m75.136 14.039c-1.421-.563-2.36.92-3.808.74-.178.103-.126.282-.228.41-.076.077-.204.025-.28-.026-.075-.614-.278-1.176-.355-1.764-.152-.256-.075-.613-.202-.87-.813-2.223 1.98-.536 2.537-1.84.484-1.125-.938-1.253-1.37-2.045v-.333c-.406-.409-.838-.537-1.092-1.074.178-.639.254-1.33.076-1.969-.024-.153-.126-.358-.355-.28-.483.664-.837 1.201-1.295 1.84-.482-.358-.94-.817-1.497-1.125-.381-.05-.736-.435-1.168-.281-.076.153 0 .28.077.382.025.998.532 1.791 1.243 2.507l.076.384c-.457 1.048-.33 2.25-.457 3.375-1.142 2.914-2.995 5.727-5.509 7.747-1.446 1.636-3.173 3.222-3.401 5.471-.076.358.05.793-.229 1.048-.837-.306-1.675-.715-2.36-1.252-1.168-.819-2.844-.716-3.605-2.2-.305-.587.077-1.176.355-1.61.863-.818.736-2.275.28-3.272-.102-.026-.128.101-.204.127-.076 1.51-1.27 2.557-.813 4.22.103.485.356.792.484 1.252-.18-.051-.432-.051-.585-.127-.558-.078-1.117-.308-1.7-.231-1.168.537-2.767-.127-3.707.946-.152.026-.355.051-.304.281.557 0 1.09.154 1.65.129.888.152 1.472-.59 2.081-.921h.152c.255-.256.687-.103 1.017-.154 1.598.18 2.843.946 4.162 1.739v.102c-.507.23-1.092.383-1.6.665-.583.435-1.243.997-1.42 1.714-.407.638.126 1.201.38 1.737.025.256.05.563.28.665.812-.869.05-1.943.177-2.94.203-.767.914-1.125 1.65-1.33 1.447-.613 2.489.563 3.655 1.228-.025 1.176.128 2.301-.126 3.451-.356.128-.813.205-1.194.18-2.005.153-3.579 1.252-5.381 1.866-.812.281-1.777.256-2.59.562.635.18 1.296-.05 1.956-.076 2.487-.358 4.39-2.276 7.082-1.944l.05.077c-.304.64-.71 1.176-1.193 1.662-.076-.281-.1-.51-.355-.665-.203-.102-.432 0-.583.205-.077.127-.077.28 0 .383.126.23.33.282.558.358-.051.23-.33.333-.482.537-.711 1.202-2.158.716-2.996 1.56-.128.179-.584.282-.381.563.965.102 1.904-.154 2.615-.666.939-1.048 1.929-2.044 2.868-3.042.152.818-.076 1.663-.558 2.327-.229-.128-.407-.307-.686-.384-.253.051-.431.307-.456.512.1.178.203.383.38.511-.862.614-1.954.665-2.944.946-1.853.23-3.656.384-5.534.41-.889-.052-1.904.255-2.742 0-.965.178-2.005-.129-2.793.408-.101.127.025.256.025.383 1.168.768 2.768.154 4.088.384h10.001c.738-.025 1.473-.05 2.057-.384 1.295-.74 2.006-2.07 2.667-3.375.252-.46.43-.996.532-1.533.253-.87 1.04-1.484 1.903-1.56.128 1.33-.126 2.659-.431 3.886-.152.82-.685 1.611-.356 2.48.077.41.508.41.838.46 3.073-.05 6.144-.178 9.393.052.584.102 1.092.281 1.727.255.05-.077.228-.102.152-.255-.077-.282-.28-.64-.61-.716-.05-.153-.278-.102-.355-.204-1.624-.921-3.58-.435-5.483-.41-.99.103-1.98.281-2.818-.28-.381-.461-.102-1.919-.102-1.919 0-.577 1.397-4.602 1.574-4.934.05-.384.203-.741.153-1.177.203-.511.153-1.175.153-1.738.1-.819.507-1.585.786-2.378.153-.383.28-.792.43-1.176.154-.486.205-.946.51-1.33.828.526 1.637.51 2.035 1.45l.35 2.13c0 .128.102.383.279.23.66-.435.458-1.406.458-2.07.152-.794-.405-1.177-.635-1.868-.178-.127-.47-.737-.47-.737-.102-.563-1.332-.95-1.053-1.64.153-.588.305-1.125.863-1.458.082.058.117.119.127.182l.304-.214.032-2.138c.822-.003 2.05.103 2.888.103.23.076.406.255.66.28l.203-.28 2.057-.401c-.874.097-1.405-.906-2.235-.906" mask="url(#a)"/><path d="m77.371 14.945c.062-.007.125-.019.19-.037zm-22.111 7.122c.025.307-.153.485-.382.588-.203-.076-.355-.103-.482-.307-.101-.28.152-.486.356-.588.203.051.457.077.507.307m-1.649 0c.152.153.177.41.101.588-.178.153-.458.281-.61.077-.152-.153-.304-.333-.177-.537.178-.18.482-.333.685-.128m35.337.281.022.037m19.322.397c.102.283-.127.486-.33.589-.254-.077-.583-.128-.583-.46.025-.205.202-.333.38-.384.228-.077.432.103.533.255m1.346-.05c.076.127.254.333.051.46-.102.076-.178.102-.254.204-.28.051-.533-.051-.61-.306-.05-.282.178-.41.381-.537.178-.052.305.076.432.179m-62.399.307c-.101.306-.356.434-.685.332-.076-.078-.152-.205-.203-.332.025-.18.076-.359.28-.435.303.026.532.153.608.435m8.556.434c-.027.205-.254.384-.432.486-.254.025-.432-.179-.558-.358 0-.205.1-.46.304-.512.28-.102.584.103.686.384m-1.498-.179c.076.077.151.28.076.41-.153.127-.381.357-.635.204-.153-.128-.33-.23-.28-.486.103-.102.23-.256.382-.306.202-.051.304.076.457.178m59.225.306c0 .206-.202.41-.33.487-.204.076-.431.025-.56-.128-.15-.05-.1-.256-.1-.384.127-.179.305-.281.482-.333.228.052.381.205.508.359m1.625.229c-.077.23-.254.435-.483.461-.152-.026-.431-.076-.38-.306 0-.18.102-.358.228-.41.254-.128.558 0 .635.256m-65.014.359c.051.306-.05.51-.305.612-.177.103-.355-.025-.481-.128-.128-.127-.228-.332-.128-.51.05-.23.28-.18.432-.282.229.026.356.128.482.307m1.244.23c.076.205-.152.28-.203.435-.127.076-.305.153-.457.05-.178-.152-.38-.383-.204-.613.204-.383.737-.179.864.128m60.646-.128c.026.256-.201.435-.354.588-.229.052-.458-.102-.508-.307-.026-.205.102-.358.28-.486.228-.025.456 0 .582.205m2.083.409c-.051.23-.026.487-.28.64-.204.05-.456.025-.61-.102-.15-.128-.177-.358-.1-.538.127-.204.356-.358.61-.307.178.103.228.23.38.307m-64.937.538c.1.203-.127.255-.203.357-.178.103-.356.026-.508-.05-.179-.104-.101-.358-.076-.487.228-.434.685-.128.787.18m63.338.485c.1.026.05.18.024.23-.608.307-1.522.383-2.056-.102-.304-.256-.685-.358-1.015-.563.127-.332.584-.307.914-.383.735.102 1.32.793 2.133.818m-62.12-.23c.051.204-.101.282-.152.435-.102.153-.304.101-.432.05-.228-.153-.33-.434-.178-.638.28-.281.61-.128.762.153m2.234.154c.101.23-.05.434-.254.561-.178.103-.33-.05-.482-.076-.127-.179-.355-.384-.127-.589.229-.382.685-.178.863.104m29.351 1.081c-.048.51-.893-.073-.773.607.12.487.218 1.069.507 1.433.24.34.12.875.097 1.288-.218.364-.58.631-.966.825-.723-.073-1.785.365-2.122-.534-.144-.388-.41-.778-.41-1.215.073-.048.17-.048.241-.12 0-.17-.192-.268-.168-.438.82-.146-.339-.875.362-.923.578.607 1.518.413 2.025 1.068.121.098.217.244.362.316-.097-.607-.386-1.213-.482-1.87-.073-.34.048-.656.29-.85.434-.34.795.146 1.037.413m-27.117-.161c.076.256-.126.41-.28.536-.227.103-.355-.152-.456-.28-.077-.256.101-.384.254-.512.177 0 .38.076.482.256m15.663.255c.305.998.203 2.02-.305 2.864-.025.205.052.537-.228.511-.685-.946-.177-2.275.102-3.272.05-.256.355-.358.431-.103m21.73.486c.356.716.381 1.662.052 2.378l-.203.204c-.28-.588-.508-1.175-.585-1.815.128-.46.28-.87.305-1.354.356-.077.33.383.431.587m-35.413.282c-.152.306-.584.383-.863.587-.608.46-1.497.562-2.259.436.66-.92 1.675-1.458 2.893-1.203.052.103.179.051.229.18m-10.433.92c.939.665 1.192 1.585 1.751 2.506.076.102.33.128.229.332-.204.153-.407-.153-.686-.103-.965-.434-1.574-1.508-1.549-2.633 0-.102.153-.102.255-.102m44.856.792c.027.256-.025.512-.227.589-.28.076-.51-.077-.585-.308-.076-.178.076-.28.128-.409.202-.204.558-.101.684.128" mask="url(#a)"/><path d="m101.97 30.657c0-.485.127-.945.176-1.406.077-.153.128-.332.103-.536.61-.82 1.853-.563 2.817-.486.381.204.863.178 1.27.281.178-.128.431-.154.634-.128.813-.435.28-1.38.33-2.122l-.304-.767c-.077-.154-.154-.332-.203-.512-.152-.178-.253-.511-.406-.69-.432-1.125-1.27-1.764-1.98-2.659-1.296-1.687-3.327-2.633-5.357-3.298-2.005-.69-4.037.204-5.84.843-.558-.153-.836-.587-.988-1.074-.103-.97.1-1.917.482-2.71.076-.639.506-1.125.685-1.713.457-1.431.94-2.838 1.041-4.397.05-.946-.66-1.612-1.371-2.02-.483-.128-1.04-.102-1.396.28-.33.691-1.04 1.152-1.65 1.484-.051.435.481.153.66.307.558.102 1.193-.077 1.65.28.051 1.024-.533 1.868-1.066 2.635-.864 1.278-1.777 2.582-2.31 3.988l-.102-.102.124 6.25c.809 1.346 1.82 2.882 3.329 3.39.811.664 1.827 1.456 2.918.869.584-.18.635.639.914.97.305.947-.38 1.612-.431 2.48l-.66 1.408c-.762 1.483-1.446 3.068-2.614 4.32-.382 0-.61.409-.99.435-.204.281-.61.077-.864.179-.786.333-1.904.128-2.436.87.05.076.126.102.202.127 1.548.026 3.275.128 4.925.051.203-.076.381-.256.406-.485-.228-.435.076-.819.28-1.151.126-.615.532-.997.71-1.585.533-1.048 1.142-2.07 1.726-3.12l.787-1.278c.178-.434.482-.971.787-1.432.203-.204.305-.435.457-.69.026-.256-.101-.358-.254-.537.178-.18.457-.128.686-.18.635.384 1.295.998 1.422 1.69l.228.663.102.307-.052.843.102.793c.128 1.228-.102 2.48-.228 3.709-.432 1.482-2.132 1.329-3.351 1.661-.305.204-.888.102-.888.613 1.471.308 3.198.128 4.772.103.254-.103.305-.333.431-.563.051-.332.382-.614.28-.972-.28-.357-.026-.92-.102-1.406.051-.128.051-.306 0-.485.204-.741.153-1.637.305-2.353zm12.49-.997c-.813 1.151-1.677 2.455-3.097 2.864-.102 0-.204.05-.255-.077.863-.92 1.32-2.352 2.666-2.684.203-.102.483-.204.686-.102m-69.305 1.252c-.126.103-.025.333-.253.359-.203.102-.431-.026-.532-.23-.103-.257.126-.513.33-.563.202.102.405.178.455.434m7.312.359c.076.23-.178.23-.305.28-1.067.384-2.157.026-2.92-.741 0-.102 0-.204.102-.23 1.041.255 2.26.051 3.123.69m-5.915-.332c.05.102.076.281.05.384-.151.23-.38.28-.634.23-.152-.077-.228-.179-.33-.333.026-.255.229-.41.432-.485.203.025.355.076.482.204m23.786.128c.051.23-.151.384-.304.485-.229.052-.431-.05-.533-.204-.076-.178 0-.434.177-.486.229-.05.585-.026.66.205m45.085.103c.077.255-.15.383-.33.536-.152.076-.329 0-.483-.077-.025-.127-.176-.23-.125-.408.1-.23.33-.333.583-.308.127.103.23.128.355.256m1.677-.102c.151.23.025.41-.102.588-.101.179-.304.23-.457.153-.153-.153-.357-.23-.381-.46 0-.205.228-.358.38-.434.255-.103.357.153.56.153m-73.01.741c.025.179-.128.281-.177.435-.128.051-.255.154-.408.102-.178-.076-.305-.23-.38-.41.05-.229.202-.433.457-.51.203.051.432.153.507.383" mask="url(#a)"/><path d="m97.552 31.808c.05.103.026.23.026.333-.152.204-.356.384-.61.256-.151-.154-.33-.308-.254-.537.204-.282.636-.384.838-.052m-49.376.384c-.05.18-.126.358-.355.383-.229.026-.304-.179-.431-.28 0-.231-.026-.461.202-.59.305-.101.584.154.584.487m-2.436.051c.075.256-.103.434-.254.562-.305.103-.56-.128-.685-.357.024-.23.203-.512.456-.589.229 0 .355.256.483.384m53.488-.051c.05.256-.025.51-.28.613-.304.103-.558-.153-.685-.357.127-.205.152-.486.457-.537.229 0 .38.102.508.281m-52.296.102c.077.179-.075.256-.127.384-.126 0-.202.153-.355.101-.101-.127-.305-.178-.33-.357-.025-.256.153-.384.33-.486.255-.025.407.154.482.358m67.095.205c-.076.203-.227.306-.431.41-.203.05-.33-.13-.482-.207-.128-.1-.077-.33-.025-.46.254-.434.938-.229.938.257m1.93.101c-.076.282-.356.41-.61.435-.228-.101-.482-.28-.304-.588.101-.101.152-.205.305-.23.304-.102.533.129.609.384m-12.059.179c.128.332-.176.435-.38.588-.177-.026-.33-.103-.483-.204-.05-.282.077-.538.356-.665.229 0 .356.102.507.28m-6.98.308c.126.051.076.23.05.306-.151.103-.355.358-.583.205-.178-.102-.305-.256-.255-.486.128-.28.66-.306.788-.025m1.421.179c.025.204-.025.307-.202.41-.179.177-.382-.026-.56-.078-.05-.102-.1-.256-.025-.384.076-.101.203-.178.33-.204.178.051.38.051.457.256m-43.079.025c.15.153-.026.333-.051.487-.128.153-.407.28-.635.127-.254-.102-.229-.435-.178-.64.152-.05.152-.23.356-.23.228.027.355.128.507.256m51.356.103c.05.255-.203.357-.38.409-.305.102-.458-.128-.584-.333 0-.154.151-.255.203-.383.355-.153.583.103.76.307m-1.37 0c.101.255-.177.384-.28.511-.178.077-.404.05-.558-.102-.127-.077-.127-.23-.127-.384.152-.128.229-.28.407-.332.228 0 .457.128.558.307m11.45.306c.05.358-.407.18-.584.282-1.067.638-2.438.153-3.453-.23.077-.333.457-.205.66-.333 1.092-.69 2.208.154 3.3.205zm-69.483-.306-.1.179c-.94.562-2.159.945-3.275.588l-.102-.154c.94-.69 2.183-.869 3.402-.69zm61.993.179c0 .205-.1.383-.254.485-.253.077-.584 0-.66-.28-.076-.205.127-.41.33-.487.178 0 .483.026.584.282m-57.448.102c-.101.204-.05.409-.305.511-.253.102-.559-.128-.634-.332-.076-.281.127-.358.254-.486.304-.153.533.077.685.307m-1.802.127c.076.18-.076.281-.128.41-.127.153-.355.127-.508.076-.176-.153-.354-.332-.279-.613.153-.128.229-.205.407-.281.229.05.456.153.508.408m61.027.588c-.025.23-.203.41-.406.46-.203.026-.38-.127-.482-.255-.077-.153-.051-.358.102-.485.05-.077.228-.077.33-.128.228.025.406.204.456.409m-62.906-.281c.076.204-.102.28-.127.435-.076.434-.355.715-.558 1.098-.483.588-1.168.588-1.854.768l-.1-.206c.735-.945 1.522-1.687 2.562-2.147l.077.051zm61.637.562c.051.307-.203.358-.38.485-.229 0-.407-.127-.509-.306-.076-.282.178-.383.33-.511.254-.051.483.128.559.332m-58.718 0c-.025.051.026.102.077.128-.026.281-.229.357-.38.485-.23 0-.407-.077-.56-.255-.101-.23 0-.512.254-.588.228-.025.533 0 .61.23m63.389.768c.253-.027.303-.333.584-.385.254-.05.48.102.608.282.101.307-.127.46-.33.588-.178.127-.559-.153-.533.179.178.127.33.307.355.511-.05.102-.228.077-.304.026-.737-.308-1.523-.818-1.828-1.586-.102-.23-.583-.409-.305-.613.737-.052 1.346.537 1.753.997m2.436-.793c.127.128.076.359-.025.486-.128.256-.507.154-.736.128-.128-.128-.254-.255-.204-.46.102-.154.204-.256.381-.332.229-.052.406.05.584.178m-9.215 1.381c.229.281.457.716.558 1.023-.05.077-.177.051-.228.051-.862-.486-1.98-1.023-2.31-2.045-.076-.103-.28-.23-.254-.41.66-.127 1.295.358 1.752.716.177.256.38.384.482.665m-58.032-.971c.102.23-.102.41-.228.511-.28.051-.433-.051-.585-.205-.177-.28.152-.511.356-.614.203-.025.33.18.457.308m61.205.587c.025.154-.176.256-.253.359-.204.025-.407.102-.585-.077-.05-.128-.177-.333-.025-.46.28-.358.687-.077.863.178m6.322.359c.075.306-.153.51-.357.639-.253.077-.456-.103-.609-.23-.126-.154-.025-.307 0-.486.178-.154.407-.282.66-.179.103.077.204.128.306.256m-17.567 3.528c0 .307-.56.23-.788.46-.787.41-1.726.41-2.665.384v-.153c.914-.768 2.234-1.05 3.453-.691m-37.038 1.1c-.027.23-.154.357-.382.434-.178 0-.355-.102-.432-.256-.101-.306.153-.434.33-.562.23.025.432.204.484.383m36.605.281c-.05.23-.126.487-.38.588-.229.052-.38-.076-.56-.178-.126-.103-.05-.281-.074-.41.176-.46.837-.46 1.015 0m5.052.103c-.635.41-1.346.895-2.183.895l-1.37-.026-.13-.102c.84-1.022 2.363-1.022 3.683-.92zm-48.614.613c0 .23-.102.41-.33.486-.254.052-.433-.05-.534-.23-.102-.23 0-.46.202-.588.28-.18.56.128.662.332m1.269.256c.076.128-.05.205-.102.334-.152.075-.354.127-.482 0-.178-.104-.23-.283-.152-.436.076-.154.228-.128.304-.23.178.076.355.153.432.332m-9.723 2.583c-.255.306-.66-.077-.94-.23-.888-.512-.862-1.51-1.751-2.097.102-.307.33.026.507-.026.153.103.356.206.534.281.863.486 1.066 1.304 1.65 2.072" mask="url(#a)"/><path d="m80.721 43.979c-.102.306-.305.562-.279.895l-.101.051c.075-.384-.305-.613-.204-1.023-.203-.307-.203-.69-.38-1.022-.229-.41.202-.589.38-.87.356.154.482.486.737.793.152.434-.179.767-.153 1.176m40.364-9.434c-.406-.742-1.092-1.049-1.904-1.049-.66.05-1.143.486-1.421 1.049-.153.562.05 1.073.481 1.406.179.076.406.05.508-.128.128-.333-.228-.333-.279-.59-.102-.356.026-.664.28-.893.253-.256.685-.128.99-.128.304.205.609.383.76.741.154.435.154.92 0 1.355-.279.64-.912 1.15-1.572 1.28-2.108.306-25.235.203-25.235.203-2.715.256-5.813-.511-8.148.92-1.066.512-1.599 1.688-1.879 2.736-.685.614-1.422 1.33-1.98 2.02l-.077-.076c.127-.614.407-1.15.534-1.765.381-.511.381-1.201.66-1.764.965-1.56 1.878-3.145 3.377-4.244.635-.844 1.75-.69 2.716-.69 1.04.486 2.259.639 3.529.511.05-.051.075-.102.075-.179-.355-.333-.94-.46-1.345-.792-1.015-.486-1.98.153-3.047.077-.05-.052-.101-.077-.076-.154.966-.716 2.056-1.228 3.148-1.688.889-.486 1.828-.742 2.767-1.1.381 0 .737-.331 1.092-.102l1.345-.357c.051.025.102.101.204.076 1.142-.384 2.589-.025 3.883-.05l.178.153 1.219.306c.456.052.66.588 1.142.614.254-.358-.28-.511-.406-.742.56-.127 1.193.025 1.7.256l-.252.281c-.154.282.075.487.304.588.178.052.305-.076.43-.127.331-.23-.025-.46.077-.666 1.88.333 3.681.793 5.408 1.535.481.154.938.51 1.472.485-.534-.485-1.27-.74-1.93-1.022-.431-.256-1.04-.281-1.37-.64.076-.127.254-.076.33-.178.863-.102 1.6-.741 2.209-1.432.05-.153.329-.102.304-.307-.229-.256-.61.077-.914.052-1.066.204-1.523 1.456-2.59 1.687-1.294-.307-2.614-.613-3.91-.946-.634-.102-1.319-.154-1.902-.41l-1.422-.127h-2.59c-.025-.051-.102-.076-.076-.153.915-.23 1.7-.768 2.615-.998l6.804-3.12c.71-.638 1.345-1.354 1.929-2.095.024-.205-.102-.41-.28-.487-.177-.076-.38-.05-.507.103-.305.23 0 .511 0 .793-.305.408-.788.766-1.168.997-.1-.026-7.006 3.145-7.006 3.145-1.016.434-2.031.92-3.097 1.15l-1.473.23c-.101.307-.355.486-.635.588-.405.077-.736.333-1.168.333-3.3 1.278-6.726 2.633-9.341 5.241.152-.306.228-.69.253-1.074-.05-.383-.025-.818-.278-1.125-.06-.14-.247-.553-.187-.7l-.372.24c-.23.563-.431 1.585-.203 2.173.076.46.456.998.101 1.406-1.218 1.483-1.904 3.273-2.716 4.961-.305-.051-.458-.333-.584-.614.863-1.1 1.55-2.327 1.803-3.733.178-.128.05-.46.227-.614-.05-.408.229-.817.027-1.15.162-.558-.743-1.073-.165-1.43l-.478.228c-1.093 1.432.567 3.58-.678 4.96v.102c-.355.462-.534.921-1.015 1.228-.61-.256-.838-.946-1.194-1.457-.559-.537-.559-1.637-.228-2.378.228-.741-.152-1.381-.229-2.046l-.253-.153c-.61.793-.838 2.045-.356 2.991.253.461.28 1.1.661 1.484.228.74.684 1.227 1.091 1.89.102.257-.153.308-.279.436-.279-.18-.23-.588-.482-.767-.838-1.79-1.93-3.221-3.25-4.679-.05-.23-.28-.434-.153-.69.483-.46.585-1.355.33-1.943-.05-.128-.202-.281-.177-.41l-.381-.306c.051.895-.533 1.687-.28 2.633v.051c-2.614-1.968-5.504-3.726-8.45-5.107l-.234.65c.744.187 2.72 1.389 2.72 1.389.888.332 1.7.87 2.538 1.355 3.452 1.918 5.737 5.089 7.285 8.617.026.282.28.588.102.87-.534-.82-1.295-1.279-1.929-1.944-.178-1.202-.888-2.352-1.93-2.838-.38-.562-1.192-.613-1.827-.793l-9.24-.05c-7.515-.104-14.37.23-21.833.101-1.04-.102-2.31-.46-2.614-1.56-.203-.383-.203-1.047 0-1.405.279-.487.786-.64 1.294-.69.406.05.686.434.864.715 0 .333-.28.64-.407.92.025.103.127.307.305.23.33-.127.584-.485.66-.817.025-.18.102-.435-.076-.563-.153-.537-.71-.92-1.193-1.048-.636-.051-1.294.127-1.727.588-.609.511-.584 1.432-.406 2.148.406 1.124 1.6 1.892 2.742 2.045l24.7.103c2.412.127 5.129-.282 7.566.204.888.28 1.828.945 2.056 1.943-.026.051-.102.025-.178.025-2.006-1.303-4.646-1.789-7.21-1.482-1.015-.052-1.93.332-2.842.588-.483.102-.94-.129-1.245-.41-.914-.818-2.513-.767-3.68-.46 0 .077-.026.154.025.18 1.243-.103 1.98.97 3.097 1.099.253.05.456-.23.685-.025-1.167.562-2.285 1.227-3.528 1.584-.382-.076-.585-.434-.89-.639-.482-.536-1.37-.307-2.03-.358-.228.051-.43-.102-.584 0 .203.41.66.64 1.093.844.634.281 1.37-.026 1.954.358-.153.18-.356.23-.533.358-1.194.46-2.184 1.535-3.504 1.457-1.396.153-2.818-.255-3.757-1.227-.406-.997-1.446-1.534-2.564-1.483-.075.051-.177.051-.153.179.56.332.99.996 1.55 1.381.355.434 1.04 0 1.37.485.484.333 1.092.614 1.65.716.407.179.864.256 1.32.359l-.177.102c-2.31.767-4.976.844-7.565.741-.762-.026-1.499-.255-2.26-.23.127.153.382.281.61.358-.203.128-.433.178-.686.205-.304.076-.66.102-.965.255-.406-.025-.762.128-1.091.256-.432.46-.94.946-1.447 1.176 0 .102-.025.256.101.256.483-.205 1.092-.052 1.574-.256.838-.077 1.32-.997 1.982-1.381.71-.562 1.724-.434 2.588-.306.508.127-.051.332.101.664.204.18.38.384.661.307.05-.051.101-.102.177-.127.153-.205.127-.436.025-.64.356-.23.838.026 1.219-.128.965-.025 1.93-.23 2.869-.256.152-.025.33-.179.482-.025-.076.205-.33.23-.228.511.05.23.305.333.507.384.255-.102.482-.282.38-.614-.05-.179-.253-.204-.38-.28.533-.257 1.142-.334 1.676-.589.38-.077.736-.205 1.066-.358.33-.025.609-.332.914-.205-.127.434-.305.844-.534 1.228-.405 1.355-.71 3.144 0 4.448.077.026.102-.025.153-.05-.533-1.355-.229-2.915.228-4.194.355-2.173 2.59-2.812 4.19-3.63l.075.102c-.431 1.124-1.065 2.198-.964 3.554.05.23-.101.46 0 .614.432-.23.71-.743.939-1.177.177-1.15-.482-2.582.686-3.426 2.08-.818 4.036-1.891 6.448-1.917.076.076.254-.052.279.101-.508.563-1.244 1.1-1.474 1.79-.811 1.125-.786 3.043-.43 4.424.229.792-.457 1.227-.787 1.84-.158.218-.203.59-.349.84l.501.056c.432-.46.838-1.023.864-1.689.05.257.278.461.481.512.178-.281-.152-.485-.178-.767.407-.23.585.282.914.384.534.128.99.358 1.548.358l.179-.179c-.559-.869-1.675-1.022-2.64-1.074-.508-.844-.508-1.891-.458-2.914.103-.537.204-1.1.508-1.585.127-.359.483-.692.711-.973.457-.434 1.042-.741 1.6-.869h.076c0 .051.024.077.024.077-.685.537-.76 1.278-1.166 1.943-.432.639-.636 1.509-.229 2.224.152.332.076.844.431 1.075.33-.46.356-1.05.534-1.56-.077-.844-.584-1.637-.102-2.455.254-.639.787-.895 1.37-1.125 1.397-.128 2.616.589 3.834 1.125.254.18.686.332.737.69-.026.691-.406 1.382-.94 1.714-.685.408-1.675.46-2.311-.026-.38-.384-.532-1.048-.405-1.56.28-.307.66-.563 1.117-.41.254.13.482.385.812.231.127-.076.178-.281.102-.409-.28-.153-.38-.537-.762-.588-.482-.077-1.067-.051-1.396.282-.534.46-.737 1.15-.584 1.79.178.818.787 1.406 1.574 1.636 1.168.281 2.387-.078 3.122-1.074.304-.333.38-.69.56-1.1 1.218.741 2.13 2.046 2.614 3.375 0 .435.127.895.025 1.279l.888.076c-.076-.204 0-.434.077-.613.33-1.687 1.371-3.094 2.614-4.194.432-.255.33.333.432.512.38.972 1.27 1.661 2.209 1.944 1.066.178 2.081-.077 2.741-.896.33-.614.737-1.508.178-2.148-.355-.434-.838-.665-1.396-.665-.66 0-1.066.461-1.396.947 0 .204-.026.434.152.537.1 0 .305.025.381-.128.05-.384.38-.563.685-.767.28-.153.584 0 .813.153.278.23.33.614.354.998-.05.486-.38.997-.836 1.202-.737.383-1.804.203-2.439-.231-.304-.332-.481-.716-.71-1.125-.05-.409-.203-.767 0-1.177 1.117-.664 2.286-1.15 3.63-1.277.533.102.99.46 1.345.843 1.168 1.202-.252 2.916.56 4.244.304-.05.304-.46.43-.715.383-.92-.1-1.918-.33-2.812-.304-.564-.482-1.05-.964-1.51.127-.05.179-.05.304-.05.534.357 1.118.767 1.55 1.33.735 1.201 1.117 2.632.99 4.192-.203.767-1.016 1.126-1.65 1.406-.254.205-.559.512-.686.818.305.18.737 0 1.04-.128.483-.178.762-.793 1.093-1.073.05.025.026.103.05.154.026.28-.127.664.127.74.127-.357.153-.869.228-1.303.33.358.381.818.483 1.278.229.46.61 1.074 1.218 1.151.153-.23-.025-.46-.076-.665-.076-.64-.61-.972-.964-1.432-.889-1.228-.482-3.145-1.168-4.524-.254-.743-.787-1.28-1.37-1.894l.1-.102c1.244-.025 2.285.384 3.427.614 1.397.69 3.428.537 4.088 2.352.279 1.023.736 1.97 1.447 2.761l.076-.05c.152-.256.152-.69 0-.946-.152-1.279-1.27-1.585-1.853-2.66l.076-.102c.609.179 1.244.332 1.853.588 2.032.562 3.452 2.557 3.706 4.628 0 1.636-.304 2.991-.94 4.372-.075.205-.43.435-.203.613.28-.204.33-.536.484-.766.837-1.406 1.268-3.35.837-5.14-.026-.332-.406-.587-.229-.92.128.154.28.179.432.23.153-.103.382-.103.483-.282.025-.153.126-.332 0-.46-.153-.23-.483-.23-.736-.178-.128.153-.28.358-.306.562-.253-.435-.507-.996-.913-1.354l.05-.078c1.143.384 2.183.947 3.352 1.253.253.154.533.282.888.282.99.383 2.081.536 3.123.792.761-.076 1.396.281 2.158.102v-.05l-.026.025c-.28-.358-.888-.025-1.218-.281-1.752-.18-3.428-.64-5.002-1.253.026-.077.128-.051.204-.051.254-.128.432-.358.406-.64-.127-.179-.33-.281-.584-.281-.153.077-.356.255-.381.435.025.204.203.435.38.486-.05.051-.152.026-.227.026-.787-.359-1.55-.692-2.31-1.05-.28-.05-.508-.28-.788-.332-.584-.28-1.168-.562-1.752-.792-1.624-.843-3.427-1.304-5.152-1.917-.382-.103-.737-.206-1.093-.308-.633-.178-1.268-.332-1.904-.51-2.157-.537-5.051-.588-6.93.587-.304-.102-.483.384-.634.077.533-1.407 2.081-1.867 3.477-1.917 10.18-.103 19.726-.18 29.753-.333 1.168 0 2.31-.41 2.92-1.457.43-.614.507-1.663.177-2.352" mask="url(#a)"/><path d="m108.265 42.368c0 .076.152.102.101.23-.888.793-2.132 1.023-3.401 1.074-.102.025-.204.102-.33.077-.075-.052-.102-.128-.05-.18.913-.997 2.309-1.507 3.68-1.2m-4.087.408c.1.358-.126.562-.407.69-.278-.025-.43-.204-.558-.41-.076-.203.101-.306.179-.433.202-.206.684-.206.786.153m-48.258.051c.05.18.024.41-.127.537-.102.128-.33.154-.458.128-.177-.026-.279-.23-.33-.384 0-.23.127-.358.33-.485.204 0 .432-.026.584.204m-4.544 1.662v.18c-.61.127-1.193-.026-1.65-.384-.355-.512-.762-1.023-1.345-1.278 0-.078-.153-.18 0-.23 1.269 0 2.031 1.021 2.995 1.712m60.748-1.687c-.584.869-1.09 1.943-2.132 2.326-.177 0-.33.256-.482.077.406-.972 1.269-2.02 2.26-2.429.1 0 .253-.026.354.026m-54.731.307c.025.281-.178.332-.356.485-.203.026-.304-.128-.432-.28-.102-.257.128-.359.255-.487.202-.05.431.102.533.281m57.93.154c-.228.333-.127.818-.355 1.176-.508.588-.94 1.253-1.752 1.38-.126-.255.178-.51.305-.741.356-.766.864-1.636 1.675-1.969zm-71.817.23c.077.179.152.358 0 .562-.152.128-.38.179-.584.103-.227-.128-.304-.41-.202-.613.153-.23.608-.359.786-.052m-1.446.307c.025.128.101.23.075.357-.075.128-.202.283-.354.308-.28.05-.457-.103-.584-.333-.025-.23.05-.435.252-.536.23-.103.484.025.61.204m2.996.153c.05.204.101.563-.203.613-.356.154-.559-.102-.762-.306 0-.23.127-.41.305-.512.254-.025.482 0 .66.205m4.163.333c-.025.179.026.435-.178.485-.127.128-.355.078-.481.052-.051-.153-.33-.282-.178-.46.101-.13.202-.205.355-.282.153.077.381 0 .482.205m68.543.179c-.077.178-.178.41-.382.41-.228-.026-.457-.052-.583-.283-.101-.28.126-.434.33-.51.253 0 .584.101.634.383m-4.645.127c.025.205-.203.359-.305.435-.355.153-.66-.102-.788-.383.052-.23.23-.384.433-.461.329-.026.508.154.66.409m3.147-.051c0 .18-.1.359-.227.435-.204.076-.457.051-.611-.102-.228-.205-.05-.384.102-.538.229-.128.66-.102.736.205m-73.416.435c.052.28-.05.536-.304.64-.229 0-.482-.129-.559-.36-.025-.229.05-.459.254-.535.254-.078.458.076.61.255m68.999.281c.076.282-.076.537-.356.665-.203.05-.33-.051-.482-.18-.102-.126-.229-.408-.026-.536.204-.383.711-.23.864.051m-55.342.282c.1.28-.203.332-.279.485-.102.051-.304.077-.381-.025-.127-.154-.279-.307-.203-.538.127-.101.177-.204.33-.255.28-.077.382.18.533.333m60.799.179c.051.179-.1.255-.127.383-.152.128-.405.153-.583.102-.229-.128-.229-.332-.229-.562.152-.102.178-.23.355-.282.229 0 .508.103.584.359m-1.573.076c.101.307-.178.46-.382.537-.1.025-.253-.05-.279.103.66.332 1.067.869 1.574 1.355v.204c-.913-.025-1.853-.256-2.513-.972-.177-.127-.482-.127-.685-.307.33-.331.94-.204 1.396-.23.33-.357-.38-.613.05-.92.153-.025.255-.18.457-.128.178.077.28.205.382.358m-10.384.026c.051.128-.1.28-.125.409-.154.153-.382.178-.559.102-.128-.179-.332-.332-.255-.588.204-.384.863-.307.94.077m-56.763.894c-.077.23-.179.384-.432.41-.203-.026-.38-.102-.457-.307-.026-.179.102-.281.128-.41.28-.229.786-.076.76.307m2.058-.332c0 .358-.381.562-.509.92-.381.844-1.065 1.612-2.03 1.688-.102-.23.33-.512.431-.74.406-.87 1.218-1.33 1.955-1.868h.152zm54.096.358c.025.282-.228.486-.432.588-.227.078-.406-.102-.533-.205-.202-.204-.075-.409.026-.613.305-.306.737-.051.94.23m1.573.18c-.025.28-.203.485-.457.562-.05-.077-.177-.026-.253-.052-.178-.102-.331-.255-.331-.46.127-.128.178-.332.356-.357.228-.026.61 0 .686.306m-51.737-.025c.025.28-.178.434-.381.536-.228.026-.381-.127-.482-.306-.05-.23.177-.384.304-.511.305-.103.381.127.559.28m1.752.103c-.077.23-.229.384-.483.434-.177-.05-.38-.102-.457-.306-.024-.256.178-.384.355-.512.254 0 .534.103.585.384m55.443 1.79c.126.101.354.23.304.41-.406.178-.736-.282-1.117-.36-.61-.613-1.066-1.277-1.32-2.045.228-.23.482.05.685.128.584.486 1.142 1.125 1.448 1.867m.939-1.79c.075.179.05.384-.05.562-.153.256-.483.205-.711.154-.128-.154-.356-.358-.204-.588.076-.205.304-.256.482-.333.177-.025.305.128.483.205m-54.048.664c.026.205.077.512-.177.64-.229.051-.533-.026-.609-.307-.126-.307.152-.358.305-.511.203-.052.33.05.481.179m47.574 1.661c.356.512.608 1.15.66 1.816-.077.179.127.358-.025.486h-.102c-1.142-.819-1.397-1.97-1.827-3.12-.103-.05-.128-.153-.103-.255.254-.23.432.23.686.307zm-44.274-.869c-.024.026 0 .052.026.052-1.015.715-2.437 1.15-3.604.46-.026-.078.025-.205.126-.23.737-.23 1.448-.588 2.235-.486l1.218.204zm-5.788.128c-.862.537-1.649 1.586-2.716 1.84-.203.078-.329.36-.583.206.458-1.381 1.955-2.123 3.3-2.25v.204zm48.564 1.15c.076.206 0 .487-.202.537-.128.128-.38.128-.482 0-.229-.102-.229-.331-.229-.51.075-.18.254-.205.38-.281.228.05.407.05.533.254m-2.106.129c-.153.358-.584.562-.914.664-.863.308-1.65-.102-2.412-.306.025-.205.278-.129.406-.256.838-.18 1.7-.358 2.589-.128.076-.051.254-.077.33.025m-46.457.742c-.075.102-.1.332-.304.41-.177.075-.355 0-.507-.103-.05-.154-.229-.281-.102-.46.051-.18.254-.23.406-.282.255.026.457.18.507.435m1.498.23c-.075.153-.15.384-.354.486-.204.05-.356-.051-.509-.18-.075-.153-.151-.331-.075-.51.051-.129.228-.154.355-.231.254-.025.483.23.584.435m46.583.256c.025.204-.076.332-.177.486-.128.178-.381.203-.558.102-.178-.026-.23-.23-.306-.358-.152-.205.101-.333.178-.511.28-.23.736-.103.863.28m1.116-.05c.026.128.103.255.052.357-.153.128-.254.46-.56.333-.15.05-.227-.153-.303-.205-.102-.256-.026-.638.304-.69.228-.077.382.128.508.205m-48.613.741c.05.282-.052.537-.255.69-.278.052-.636.052-.737-.28-.025-.257 0-.589.306-.743.254-.025.558.026.686.333m1.446-.102c-.051.715-.203 1.585-.914 1.994-.407.077-.812.46-1.218.205v-.128c.532-.767 1.497-1.356 2.132-2.07m42.065.586c.1.154-.076.282-.152.41-.153.179-.432.102-.61.026-.178-.077-.203-.333-.127-.512.05-.153.203-.23.33-.281.23-.026.432.18.559.357m-39.526 1.177c.354.588.153 1.381.354 2.02-.43.051-.608-.435-.887-.69-.559-.767-.483-1.79-.737-2.685.051-.077.127-.077.178-.051.381.255.66.741.965 1.073-.05.18.152.18.127.333m40.795-.972c0 .205-.229.256-.356.384-.177-.025-.33-.102-.481-.23-.077-.256.126-.333.253-.46.253-.103.508.025.584.306m3.022 2.276c0 .077-.027.23-.153.179h-.102c-.736-.665-1.472-1.406-1.371-2.43l.152-.025c.686.588 1.447 1.228 1.473 2.276m-1.904-.818c.025.204-.102.358-.228.485-.28.077-.711.052-.763-.332-.025-.256.255-.383.382-.511.304-.077.507.128.609.358m-1.676.537c-.355.945-1.32 1.431-1.98 2.147-.126-.076-.076-.28-.05-.384.254-.97 1.015-1.916 1.954-2.3.406.05 0 .332.076.537m1.904.767c0 .23-.228.333-.355.46-.203-.025-.406-.076-.559-.282-.025-.254.178-.331.33-.46.254-.051.483.078.584.282m-18.855-46.207h-.28c-.735 0-.111.941.284.941.491 0 .522-.941-.004-.941zm-2.273.941c.736 0 .04-.941-.355-.941h-.736c-.736 0-.04.941.356.941zm-3.084 0c.735 0 .04-.941-.356-.941h-.735c-.736 0-.04.941.355.941zm5.323-1.153c.347 0 .628.299.628.666 0 .37-.281.667-.628.667h-7.529c-.346 0-.627-.298-.627-.667 0-.367.281-.666.627-.666zm.053 11.67c0 .334.445.111.777.111.33 0 .777.223.777-.11 0-.473-.446-.309-.777-.309-.332 0-.777-.164-.777.308zm1.41.786c.323 0 .351-.445.351-.83 0-.872-.69 0-1.045-.821-.258.693-.967.051-.967.796 0 .512-.003.855.506.855h1.154zm-2.123-3.82 1.44.553 1.413-.552-.56 2.117 1.12-.232-.383 1.283.383 1.232-.994-.27.434 2.284-1.414-.551-1.439.55.586-2.283-1.147.322.306-1.284-.306-1.231 1.096.18-.535-2.117zm-3.367 3.116v-.269l-.242-.046.19-.196-.117-.217.246.027.149-.263.147.258.251-.022-.119.217.19.196-.24.046v.269l-.229-.171zm-1.116 1.437v-.268l-.242-.047.189-.196-.117-.216.247.026.15-.262.146.259.251-.023-.117.216.188.196-.241.047v.268l-.227-.171zm1.893-.183v-.269l-.24-.045.189-.197-.117-.216.248.026.149-.261.145.257.251-.022-.117.216.189.197-.24.045v.269l-.228-.171zm.224 1.074v-.152l-.136-.026.107-.111-.066-.122.139.015.085-.148.082.145.142-.012-.067.122.107.111-.136.026v.152l-.128-.096zm-1.759 1.228v-.461l-.413-.078.324-.337-.201-.369.423.045.257-.45.25.443.429-.038-.2.369.322.337-.412.078v.461l-.389-.292zm.896-24.118.894 2.198 2.264-.666-1.149 2.074 1.929 1.368-2.327.389.141 2.372-1.752-1.59-1.753 1.59.141-2.372-2.327-.389 1.93-1.368-1.15-2.074 2.265.666zm-8.191 49.308c-.268.1-.373.175-.307.454l.318 1.346c.06.25.078.644-.089.884-.198.29-.617.474-.92.547-.22.053-.7.143-1.084-.02-.255-.11-.42-.225-.528-.682l-.335-1.411c-.084-.355-.216-.332-.503-.29l-.026-.105 1.702-.409.026.105c-.33.093-.485.135-.398.507l.334 1.41c.057.241.196.824.92.65.887-.212.744-.861.68-1.132l-.305-1.288c-.06-.258-.156-.387-.593-.3l-.024-.106 1.107-.266zm2.523.282c-.156-.276-.567-.696-1.163-.563-.263.058-.513.247-.452.523.05.229.167.3.631.384l.81.144c.188.034.627.194.729.657.08.372-.13.958-1.06 1.165-.479.107-.74.014-.895.05-.107.023-.115.105-.12.177l-.146.033-.231-1.048.146-.033c.195.407.595.82 1.237.677.606-.135.539-.56.526-.616-.062-.283-.322-.333-.68-.39l-.368-.062c-.94-.154-1.021-.519-1.064-.714-.057-.259-.028-.87.932-1.085.406-.09.674-.003.82-.035.117-.026.128-.095.135-.182l.152-.034.203.92zm3.35 1.675-1.84.176-.011-.108c.374-.062.496-.082.463-.445l-.217-2.281c-.359.052-.888.125-.926.827l-.15.014-.066-.87 3.094-.298.092.868-.149.015c-.17-.682-.702-.653-1.06-.636l.216 2.28c.037.367.16.365.543.349l.01.109zm2.063-1.545c.677.01.949-.081.96-.646.007-.439-.2-.63-.614-.638-.285-.005-.297.043-.324.176l-.022 1.109zm2.242 1.545-1.061-.022-1.045-1.38-.14-.004-.016.853c-.007.347.107.362.448.409l-.002.108-1.75-.034.003-.109c.352-.028.455-.039.462-.391l.038-1.92c.008-.375-.153-.387-.447-.41l.002-.108 1.667.032c.362.007 1.458.063 1.444.794-.01.534-.547.659-.827.727l1.016 1.259c.07.08.148.085.21.087z" mask="url(#a)"/><path d="m84.05 50.487-.39-1.113-.612.988zm1.44 1.214-1.665-.209.014-.108c.32.018.413.026.431-.116.015-.117-.11-.456-.165-.603l-1.156-.145c-.181.292-.286.459-.295.527-.02.165.226.208.398.239l-.012.107-1.043-.13.013-.108c.281 0 .372-.137.566-.44l1.434-2.22.143.017.864 2.412c.174.49.238.647.486.67zm3.014.614-2.945-.541.02-.107c.29.022.446.037.493-.223l.375-2.07c.05-.282-.156-.328-.383-.383l.02-.107 1.777.326-.02.106c-.359-.052-.517-.077-.585.3l-.366 2.018c-.037.205.069.26.41.323.77.141 1.12-.161 1.44-.602l.149.028zm1.954.437-1.774-.373.023-.106c.277.037.478.06.533-.203l.425-2.058c.06-.281-.179-.34-.409-.402l.022-.105 1.774.372-.022.106c-.24-.04-.483-.087-.544.202l-.426 2.057c-.056.273.144.328.419.403zm2.132-.722-.413-1.105-.592 1zm1.468 1.183-1.67-.172.01-.109c.323.012.417.017.43-.126.012-.116-.12-.453-.178-.6l-1.159-.119c-.176.296-.277.465-.283.534-.018.164.229.203.403.229l-.01.109-1.047-.11.011-.107c.282-.006.37-.145.556-.454l1.386-2.249.145.014.916 2.393c.184.486.252.643.5.66zm-14.143-34.863c-.305 0-.716.21-.716-.152 0-.512.347-.398.652-.398.304 0 .778-.114.778.398 0 .361-.41.151-.714.151m.904-.2c0-1.044-.585-.066-.91-.953-.236.75-.94.118-.94.926 0 .309.08.486.229.586v.308c0 .08.064.144.143.144h1.109c.08 0 .144-.064.144-.144v-.334c.133-.114.225-.296.225-.532m9.084 12.81c.265 0 .478-.188.478-.422 0-.232-.213-.422-.478-.422s-.478.19-.478.422c0 .234.213.422.478.422m-2.25-15.462s-.226.378-.226.45c0 .137.103.249.228.249.126 0 .227-.112.227-.25 0-.008-.23-.45-.23-.45m-15.332.001s-.225.378-.225.45c0 .137.102.249.228.249s.227-.112.227-.25c0-.008-.23-.45-.23-.45m3.832.001s-.224.378-.224.45c0 .137.102.249.228.249s.227-.112.227-.25c0-.008-.23-.45-.23-.45m3.832.001s-.224.378-.224.45c0 .137.102.249.227.249.127 0 .229-.112.229-.25 0-.008-.232-.45-.232-.45m3.833.001s-.224.378-.224.45c0 .137.103.249.228.249.126 0 .228-.112.228-.25 0-.008-.232-.45-.232-.45m-11.492 5.263s.224.378.224.45c0 .138-.101.25-.227.25s-.228-.112-.228-.25c0-.008.231-.45.231-.45m0 5.114s.224.379.224.449c0 .138-.101.25-.227.25s-.228-.112-.228-.25c0-.008.231-.449.231-.449m.614 4.048s.225.379.225.45c0 .137-.103.25-.229.25-.125 0-.227-.113-.227-.25 0-.009.23-.45.23-.45m3.216 2.152s.224.378.224.45c0 .137-.102.25-.226.25-.127 0-.229-.113-.229-.25 0-.008.231-.45.231-.45m11.692-11.314s-.223.378-.223.45c0 .138.102.25.226.25.126 0 .227-.112.227-.25 0-.008-.23-.45-.23-.45m0 5.114s-.223.379-.223.449c0 .138.102.25.226.25.126 0 .227-.112.227-.25 0-.008-.23-.449-.23-.449m-.613 4.048s-.225.379-.225.45c0 .137.103.25.228.25s.227-.113.227-.25c0-.009-.23-.45-.23-.45m-3.216 2.152s-.224.378-.224.45c0 .137.102.25.228.25.125 0 .227-.113.227-.25 0-.008-.231-.45-.231-.45m-3.914 2.281s-.224.377-.224.448c0 .139.102.25.227.25.126 0 .228-.111.228-.25 0-.008-.23-.448-.23-.448m6.237-7.628c.048.072.169.096.321.044l.146-.413c.011-.029-.168-.192-.274-.166-.41.097-.845.146-1.086.535 0 .266.193.51.387.63.144-.047.169.098.265.17.023.122-.049.22-.17.22-.289-.292-.795.098-1.012-.268.096-.364.29-.777-.025-1.117.025-.073.146-.146.074-.219-.121-.34-.483-.072-.7-.072-.362-.05-.651.145-.869.437.025.121.073.243.193.364.097-.025.146 0 .17.098l-.242.145c.072.073.072.17.097.267-.17.073-.338-.17-.41-.291 0-.194.024-.535-.242-.583-.048 0-.209.07-.209.07-.058.075-.098.226-.098.402 0 .173.094.435.094.435s.744.551.912.89c-.216.437-.216 1.044-.722 1.287-.146.097-.146.243-.146.39l.12.096c.315-.17.917-.218.87-.752.12-.22.24-.463.457-.632.242-.049.459.073.555.267-.072.365-.313.607-.651.728-.048.05-.024.122-.024.195.097.17.362.098.506.073.411-.268.58-.753.941-.899.048.243-.482.316-.144.559.216-.049.506.024.651-.268-.17-.412.578-.607.12-.97 0-.365.386-.51.362-.9-.145-.388-.604-.388-.723-.752.144-.098.361-.073.506 0m-17.616 4.42c.265 0 .48-.189.48-.423 0-.232-.215-.42-.48-.42s-.478.188-.478.42c0 .234.213.423.478.423m-24.862 14.523c.26 0 .471-.201.471-.452 0-.249-.21-.451-.47-.451-.261 0-.472.202-.472.451 0 .25.21.453.471.453m15.936 3.619h-.065l-.064-.082h-.008v.052c0 .021.006.021.026.024v.007h-.105v-.007c.02-.003.027-.003.027-.024v-.117c0-.023-.01-.023-.027-.024v-.007h.1c.023 0 .09.003.09.047 0 .032-.033.04-.05.045l.063.075c.005.005.01.005.013.005v.007z" mask="url(#a)"/><path d="m59.754 49.138c-.003-.01-.012-.024-.03-.024-.008 0-.016.004-.016.012 0 .007.004.01.015.015l.022.01c.006.002.017.01.017.023 0 .011-.01.027-.037.027-.014 0-.021-.005-.026-.005-.003 0-.004.003-.004.005h-.005v-.032h.005c.003.012.011.027.031.027.018 0 .019-.012.019-.015 0-.008-.008-.01-.018-.014l-.01-.004c-.026-.011-.026-.022-.026-.028 0-.007.006-.025.034-.025.012 0 .019.004.024.004.003 0 .004-.002.005-.004h.004v.028zm.159-.023c-.005 0-.008.004-.01.009l-.03.076h-.004l-.026-.06-.03.06h-.002l-.032-.076c-.003-.006-.006-.008-.011-.009v-.003h.044v.003c-.005 0-.01.001-.01.005 0 .002 0 .004.002.005l.017.046h.001l.018-.039-.006-.012c-.002-.003-.003-.005-.011-.005v-.003h.048v.003c-.007 0-.011.001-.011.005l.002.007.016.042.017-.043.001-.005c0-.006-.005-.006-.01-.006v-.003h.027zm.005.173c.033-.004.07-.017.085-.068-.005.003-.008.004-.013.005h-.016c-.022 0-.058-.009-.058-.056 0-.013.012-.058.07-.058.028 0 .072.016.072.078 0 .048-.044.1-.14.107z" mask="url(#a)"/><path d="m60.004 49.139c.014 0 .023.001.033.006.007.003.016.011.016.024 0 .016-.016.03-.044.03-.011 0-.02-.004-.02-.011 0-.004.002-.008.008-.008.01 0 .02.011.029.011.005 0 .015-.002.015-.013 0-.007-.009-.014-.016-.017-.01-.004-.022-.004-.033-.005l.015-.044h.048l-.006.016h-.042l-.003.01zm28.423-20.548c-.093 1.024-.44 1.875-1.148 2.357l-6.669 4.24h-.036c-.142.112-.319.181-.513.181-.2 0-.38-.071-.524-.188l-6.657-4.233c-.708-.482-1.056-1.333-1.149-2.357v-13.225h16.696v13.224zm.499-13.7v-.01h-17.693v.01h-.002l.014 13.52c0 1.378.584 2.583 1.39 2.955l6.804 4.32c.15.17.372.28.622.28.214 0 .406-.085.553-.216l6.909-4.384c.807-.372 1.392-1.577 1.392-2.956l.013-13.52h-.002z" mask="url(#a)"/><path d="m82.461 34.596.215-.103c-.09.032-.156.067-.215.103m-15.031 17.643-.64-.987-.363 1.104zm1.686.837-1.668.193-.012-.108c.317-.058.41-.073.393-.215-.013-.118-.215-.417-.303-.547l-1.157.134c-.108.328-.171.514-.163.583.019.164.268.148.444.137l.012.108-1.045.12-.012-.107c.275-.067.33-.222.447-.563l.87-2.497.144-.017 1.407 2.137c.285.434.384.572.631.535z" mask="url(#a)"/><path d="m97.755 47.712c-.228.46-.584.793-1.091.87.025-.614.584-1.05.38-1.74-.33-.486-.99-.638-1.599-.51-.229.153-.126.408-.203.638l-.102.844c-.508 0-.533-.46-.685-.819.025-.537.254-1.073.787-1.329.406-.205 1.066-.178 1.472.051.33.077.712.23.838.537.38.359.28.997.203 1.458zm-2.056.256c.28-.282-.076-1.893.71-.845 0 .205.026.512-.177.665-.127.103-.33.308-.533.18zm.28.639c.024.409-.356.306-.559.46h-.61c-.126-.205-.076-.511-.076-.715.406.076.864.076 1.245.255zm.71 3.12c-.202.255-.025.664-.28.893 0 .461-.38.692-.71.87-3.021.665-5.99-.358-8.91-.87-4.087-.894-8.86-1.15-13.024-.204-1.954.358-3.858.818-5.736 1.356-1.168.153-2.437.332-3.555-.026-.913-.434-.533-1.61-.812-2.43.05-.638-.178-1.15-.203-1.763-.076-.204-.128-.46-.101-.666.38.052.76.333 1.168.435 2.132.41 4.036-.28 6.016-.639 1.904-.409 3.858-.742 5.864-.895 2.285-.025 4.62-.153 6.803.23.71.026 1.32.205 2.005.256 1.422.18 2.742.563 4.19.665.228.077.507.077.761.128 2.285.358 4.848.997 7.031 0 0 .92-.38 1.765-.507 2.66zm-12.895 1.865c.126.358.354.691.227 1.126-.252.485-.761.485-1.218.588-.229.025-.407-.051-.583-.18.025-.102-.026-.179-.102-.255.076-.333-.584-.665-.127-.946.405-.384 1.37-1.253 1.803-.333zm.558.103c.304.077.33.409.355.664-.026.563-.33 1.049-.862 1.253-.28.153-.712.205-.991.103.61-.026 1.27-.256 1.523-.87zm.66 3.4c-.051.026-.051.078-.051.103-.737.025-1.22-.41-1.777-.793l-.027-.128c.688.05 1.245.486 1.855.818zm-.94 2.353c-.025.076-.152.076-.202.025-.762-.972-1.118-1.994-1.6-3.068l.102-.026c.609.998 1.091 2.097 1.7 3.069zm-1.269-.615-.128.052c-.126-.103-.076-.384-.05-.537.153.128.28.307.178.485zm-.711-1.533c.026.255.28.358.128.588-.051-.102-.204-.333-.128-.588zm-.152-1.61h.05v-.078h-.05v.077zm-1.473 3.681c-.481.026-1.217.307-1.674-.102.024-.205-.203-.307-.179-.512.407-.153.762.332 1.143-.026.584.026 1.192-.076 1.777.051.28.077.71-.46.761.077-.203.844-1.218.256-1.828.512zm-1.116-3.043.126-.204c-.203.613-.508 1.253-.838 1.84-.152-.613.483-1.1.712-1.636zm.71-.485c.33-.359.635.204.762.485.382.562 1.371 1.074.99 1.841-.483.435-1.244.025-1.777.358-.279-.026-.762.051-.914-.23.279-.818.534-1.739.94-2.454zm-.075-.972h-.102l.152-.153c.076.05-.026.102-.05.153zm.583.05c.1-.152.229-.383.406-.383 0 .027.025.052.05.078-.151.127-.278.255-.456.306zm.355.385c.051-.051.178-.051.23 0zm.685.793c-.025.05.026.126-.05.178l-.584-.46c.28-.052.483.076.634.282zm-.075-1.483h.025v-.078h-.025zm1.092-1.663c-.305.103-.534.461-.838.537.152-.281.533-.563.838-.537zm-1.27-.333c-.05-.23.228-.05.33-.153l.787.052c-.407-.052-.914.895-1.117.101zm-1.853.717c.127-.358.153-.665.38-.946.254 0 .483 0 .686.102.05.512.686 1.202 0 1.636-.228.103-.56.333-.812.103-.33-.282-.381-.537-.254-.895zm-.38 1.585c-.026-.102.05-.23.075-.357.127-.129.254.102.305.178-.076.128-.23.204-.38.179zm-.052-1.176h.026v-.28h-.026zm-.278-.767c-.33-.077-.51-.46-.864-.46.304-.103.608-.077.965-.026.127.18-.077.333-.101.486zm-.28 2.07c.077-.33.228-.766.406-1.073-.025.333-.178.793-.407 1.073zm-.558 0c-.432-.05-.839-.178-1.219-.306-.254-.256 0-.537 0-.818.355-.562 1.37-.844 1.854-.333-.078.563-.28 1.049-.635 1.457zm.228.691v.103h-.052v-.128h.102c-.025 0-.076 0-.102.025zm-.635 1.483c-.355.818-.762 1.61-1.244 2.403-.05.128-.254.154-.406.18 0-.358.356-.64.508-.947.533-.69.685-1.431 1.294-2.096.152.152-.152.255-.152.46zm-2.412-.256c.61-.255 1.244-.792 1.93-.562-.483.384-1.27.537-1.93.562zm.914-1.764c-.127-.894.23-1.662.813-2.301.355-.076.76-.153 1.092.051-.66.18-1.498.332-1.651 1.176.026.333-.077.512.076.793.28.486.914.281 1.27.665 0 .128-.102.28-.229.306-.432-.255-.964-.357-1.371-.69zm-11.906-8.208c.076-.204 0-.51.28-.562.177-.05.456-.05.481.154-.025.307-.05.613-.126.895-.356.025-.534-.18-.635-.487zm.076.86c.38.28.914.152 1.372.23.075.28.075.639-.128.87-.431-.104-.99-.052-1.219-.46.052-.18-.076-.436-.025-.64zm-1.193-.732c.076-.46.178-.945.61-1.278.608-.332 1.447-.255 2.005.077.177.102.305.256.408.485.126.435-.079.896-.383 1.152h-.254c0-.41 0-.819.153-1.152-.025-.306-.28-.332-.482-.46-.432-.127-.813.077-1.143.257-.254.306-.482.69-.33 1.124.178.282.025.665.126.972l-.075.102c-.304-.332-.711-.69-.635-1.279zm23.82 10.869c.607.274 1.828.541 2.708.64-.08.348-.7.022-.626.51-.787-.307-1.701-.46-2.285-1.073.05-.026.102-.103.203-.077zm-15.849.408-.355-.333c.178-.23.559-.103.838-.256.66-.205 1.422-.46 2.158-.307-.762.614-1.752.69-2.641.896zm27.417-11.66c-.304-.792-.939-1.33-1.726-1.585-.813-.179-1.676-.051-2.209.562-.914.741-.279 1.969-.254 2.966 0 .204.026.358-.178.46-3.68-.332-7.107-1.252-10.763-1.636-.84-.144-1.682-.106-2.482-.275l-1.021-.109c-3.173.103-6.347.282-9.317 1.049-.634.205-1.345.256-1.98.486-.456-.077-.837.255-1.269.127l-.835.196c-.08.014-.172.01-.282-.016-.406-1.049.813-1.687.432-2.71-.33-.589-.99-1.151-1.752-1.049-.863-.102-1.624.384-2.032 1.048-.583 1.278.153 2.608.382 3.861-.052.41.407.87 0 1.202-.813-.563-1.879-.87-2.869-.588-.305.154-.863-.051-1.014.307 1.09.588 2.487.511 3.705.46.152-.051.254-.078.38.025.103.665-.126 1.56.28 2.148.457.614 1.219.767 1.955.844 2.336-.077 4.417-.767 6.55-1.304.33-.025.583-.204.939-.204 1.142-.256 2.386-.46 3.604-.486-.533.69-.837 1.457-1.066 2.301-.304.69.533.792.787 1.176-.787.23-1.345.767-2.08 1.074-1.626-.052-2.997.562-4.52.741-.026.333.533.23.584.563-.076.23-.304.255-.483.383-.025.154 0 .18.153.205.152-.18.482-.051.635-.23.508 0 .939-.154 1.42-.179.433-.179.914-.205 1.296-.512.533-.153.864-.511 1.396-.664.762 0 1.446-.256 2.158-.307v.153c-.584.946-1.193 1.918-1.803 2.812-.1.18.025.359.178.41.355.102.71 0 .99-.153.533-.92 1.015-1.79 1.447-2.737.178-.869.812-1.33 1.447-1.917.101-.051.254-.204.356-.051-.509.588-.838 1.15-1.218 1.79-.205.715-.256 1.636.38 2.224.305.256.761.179 1.168.205.99-.512 2.259.306 3.021-.665.457-.077.533.46.786.716.432.128.888.562 1.321.255-.026-.28-.33-.537-.482-.792-.306-.538-.685-.972-.966-1.457-.126-.359-.355-.589-.407-.948.459.155.864.462 1.373.538.43.18.965.153 1.37.41.33.434.838.69 1.27.97.633.308 1.345.359 2.005.615.254.025.635.23.812 0-.102-.128-.229-.205-.38-.282-.078-.333.456-.153.635-.409-.063-.126-.174-.176-.295-.193-.365-.195-1.269-.264-1.509-.395-.303-.051-.584-.179-.888-.28-1.523 0-2.36-1.382-3.58-1.893.28-.256.711-.46.89-.844.228-.358.304-.946.076-1.355-.23-.792-1.245-.69-1.828-1.125l.076-.077c.99-.05 1.854.179 2.742.358 2.436.332 4.696 1.253 7.235 1.304 1.395 0 3.147.077 3.833-1.278.126-.793.279-1.586.406-2.378.305-1.279 1.142-2.454 1.015-3.861zm-91.774 28.905-1.673-3.868-1.722 3.868zm.282.612h-3.967l-.472 1.094c-.154.364-.232.665-.232.903 0 .314.127.546.381.695.15.089.517.155 1.102.199v.306h-3.735v-.306c.403-.061.734-.228.993-.502.26-.272.58-.837.962-1.693l4.016-8.96h.157l4.05 9.208c.386.873.703 1.423.952 1.648.188.172.452.272.795.299v.306h-5.433v-.306h.224c.436 0 .743-.061.92-.183.12-.087.181-.214.181-.38 0-.1-.016-.203-.05-.307-.01-.05-.093-.256-.248-.62l-.596-1.4zm12.563-4.547v6.063c0 .591.055.959.166 1.105.11.147.334.24.67.278v.299h-3.155v-1.036c-.37.442-.74.764-1.11.965s-.783.302-1.241.302c-.436 0-.824-.133-1.164-.402-.34-.267-.567-.58-.684-.94-.115-.359-.173-.985-.173-1.879v-3.072c0-.586-.054-.95-.162-1.094-.107-.144-.332-.237-.675-.282v-.306h3.156v5.292c0 .552.026.908.078 1.068.053.16.135.282.249.365.113.082.244.124.393.124.199 0 .378-.053.538-.158.22-.143.486-.433.795-.87v-4.14c0-.585-.053-.949-.16-1.093-.108-.144-.334-.237-.676-.282v-.306h3.155zm6.17-.214.125 2.642h-.281c-.336-.785-.685-1.32-1.048-1.607-.36-.287-.722-.431-1.08-.431-.227 0-.42.077-.58.228-.16.152-.24.328-.24.526 0 .149.055.293.166.431.177.225.67.614 1.482 1.163.812.55 1.345 1.016 1.603 1.4.256.384.385.812.385 1.288 0 .43-.108.852-.323 1.266-.215.415-.52.733-.912.953-.391.22-.825.331-1.3.331-.37 0-.863-.116-1.482-.348-.165-.06-.279-.091-.34-.091-.181 0-.334.138-.455.414h-.273l-.133-2.783h.282c.248.729.59 1.276 1.022 1.64.434.365.844.547 1.23.547.265 0 .482-.081.65-.245.169-.163.253-.36.253-.592 0-.265-.083-.494-.248-.687-.166-.193-.536-.485-1.11-.877-.845-.586-1.392-1.033-1.64-1.342-.364-.452-.546-.953-.546-1.5 0-.595.205-1.135.616-1.619.412-.481 1.007-.724 1.785-.724.42 0 .825.103 1.218.306.149.083.27.125.364.125.1 0 .18-.02.24-.062.061-.042.158-.158.29-.352h.281zm4.101-2.617v2.832h1.838v.82h-1.838v4.778c0 .447.02.736.062.865.04.131.114.236.219.316s.2.12.29.12c.359 0 .698-.274 1.018-.82l.25.182c-.449 1.06-1.174 1.589-2.18 1.589-.49 0-.906-.136-1.246-.409-.34-.274-.556-.579-.65-.916-.055-.187-.083-.695-.083-1.523v-4.182h-1.01v-.29c.696-.491 1.288-1.008 1.776-1.548.489-.541.916-1.145 1.28-1.814zm5.109 2.831v1.757c.514-.8.964-1.333 1.35-1.594.387-.262.759-.394 1.118-.394.31 0 .557.095.741.286.185.19.278.46.278.807 0 .37-.09.658-.27.86-.179.206-.396.308-.65.308-.292 0-.546-.094-.761-.282-.216-.187-.343-.292-.381-.314-.056-.033-.119-.05-.19-.05-.161 0-.313.061-.456.182-.227.188-.397.456-.514.804-.176.536-.265 1.126-.265 1.772v1.78l.009.465c0 .314.019.515.057.603.067.15.165.258.295.328.129.069.348.111.658.128v.299h-4.182v-.3c.336-.026.564-.12.683-.277s.178-.572.178-1.245v-4.283c0-.442-.022-.723-.066-.845-.056-.154-.136-.268-.24-.34-.105-.071-.29-.12-.555-.149v-.306zm7.91 5.997v-2.592c-.668.392-1.165.811-1.49 1.259-.216.298-.323.599-.323.902 0 .255.09.477.272.67.139.15.332.225.58.225.276 0 .596-.155.96-.464m0 .605c-.943.833-1.79 1.249-2.541 1.249-.442 0-.81-.144-1.102-.434s-.439-.653-.439-1.089c0-.591.254-1.122.762-1.594s1.615-1.1 3.32-1.884v-.778c0-.586-.031-.954-.095-1.106s-.183-.284-.36-.398c-.176-.112-.375-.17-.596-.17-.359 0-.654.08-.886.241-.144.099-.216.215-.216.348 0 .116.078.259.232.43.21.238.315.467.315.687 0 .272-.1.502-.302.692-.201.191-.465.286-.79.286-.349 0-.64-.105-.874-.315-.235-.21-.352-.455-.352-.737 0-.397.156-.777.471-1.139.316-.361.754-.639 1.317-.831.564-.194 1.149-.291 1.756-.291.733 0 1.315.157 1.743.469.428.311.705.65.832 1.013.078.232.116.765.116 1.599v3.006c0 .353.014.576.042.667.027.09.069.159.124.203s.119.066.19.066c.143 0 .29-.102.439-.306l.249.198c-.276.41-.562.706-.858.89-.295.185-.63.277-1.006.277-.441 0-.786-.102-1.035-.31-.249-.207-.4-.52-.455-.94" mask="url(#a)"/><path d="m49.335 68.225v9.623c0 .547.063.896.19 1.048.127.15.376.238.746.26v.298h-4.182v-.298c.342-.011.596-.11.762-.299.11-.126.165-.462.165-1.009v-8.016c0-.541-.064-.888-.19-1.04-.127-.152-.372-.239-.737-.26v-.307z" mask="url(#a)"/><path d="m52.201 67.96c.36 0 .663.125.91.377.25.25.373.554.373.907 0 .352-.125.653-.377.902-.25.249-.553.372-.906.372s-.654-.123-.903-.372c-.248-.249-.372-.55-.372-.902 0-.353.124-.657.372-.907.249-.252.55-.377.903-.377zm1.16 3.75v6.138c0 .547.063.896.19 1.048.127.15.375.238.745.26v.298h-4.183v-.298c.343-.01.597-.11.763-.299.11-.126.165-.462.165-1.009v-4.522c0-.547-.063-.896-.19-1.048-.128-.152-.372-.238-.738-.26v-.308h3.247zm5.283 5.997v-2.592c-.668.392-1.165.811-1.491 1.259-.215.298-.323.599-.323.902 0 .255.091.477.274.67.137.15.331.225.58.225.275 0 .595-.155.96-.464m0 .605c-.944.833-1.792 1.249-2.542 1.249-.442 0-.81-.144-1.102-.434s-.439-.653-.439-1.089c0-.591.254-1.122.762-1.594s1.615-1.1 3.32-1.884v-.778c0-.586-.031-.954-.094-1.106-.064-.152-.184-.284-.361-.398-.176-.112-.374-.17-.596-.17-.359 0-.654.08-.886.241-.143.099-.215.215-.215.348 0 .116.077.259.232.43.21.238.315.467.315.687 0 .272-.101.502-.303.692-.2.191-.465.286-.79.286-.35 0-.64-.105-.875-.315-.234-.21-.352-.455-.352-.737 0-.397.157-.777.472-1.139.316-.361.755-.639 1.317-.831.563-.194 1.15-.291 1.756-.291.734 0 1.315.157 1.743.469.428.311.705.65.832 1.013.078.232.117.765.117 1.599v3.006c0 .353.013.576.04.667.028.09.07.159.125.203s.119.066.19.066c.144 0 .29-.102.44-.306l.248.198c-.276.41-.562.706-.857.89-.296.185-.631.277-1.007.277-.441 0-.786-.102-1.035-.31-.248-.207-.4-.52-.455-.94m6.692-6.601v1.003c.398-.43.779-.744 1.143-.939.364-.197.756-.295 1.176-.295.502 0 .92.14 1.25.418.33.28.552.626.662 1.04.09.315.133.92.133 1.814v3.014c0 .596.054.967.162 1.113.107.147.333.24.674.278v.299h-3.916v-.3c.292-.038.502-.16.629-.363.088-.138.132-.48.132-1.027v-3.445c0-.635-.024-1.035-.074-1.201s-.134-.294-.253-.384c-.118-.092-.25-.137-.393-.137-.475 0-.916.339-1.325 1.019v4.148c0 .58.054.947.161 1.1.108.156.308.252.601.29v.3h-3.917v-.3c.326-.032.558-.138.695-.314.095-.121.141-.48.141-1.076v-4.372c0-.586-.054-.95-.161-1.094-.108-.144-.333-.237-.675-.282v-.306h3.155zm20.961-3.742v3.959h-.307c-.37-1.082-.924-1.905-1.664-2.468-.74-.564-1.548-.844-2.426-.844-.84 0-1.538.234-2.096.707-.557.473-.952 1.13-1.183 1.975-.233.845-.349 1.712-.349 2.6 0 1.077.127 2.021.382 2.832.254.812.664 1.408 1.23 1.789.565.381 1.237.571 2.016.571.27 0 .547-.028.832-.086.284-.058.576-.141.874-.252v-2.337c0-.44-.03-.726-.092-.856-.06-.13-.186-.247-.377-.351-.19-.105-.42-.159-.69-.159h-.29v-.305h5.457v.305c-.415.027-.703.084-.866.17-.162.086-.288.229-.376.427-.05.105-.075.362-.075.77v2.336c-.717.32-1.464.562-2.24.724-.776.163-1.58.244-2.413.244-1.067 0-1.952-.144-2.655-.435-.704-.29-1.325-.67-1.863-1.142s-.96-1.003-1.264-1.595c-.386-.762-.579-1.614-.579-2.559 0-1.688.593-3.116 1.78-4.28 1.188-1.166 2.681-1.748 4.48-1.748.558 0 1.06.044 1.508.132.243.045.636.17 1.18.377.543.206.865.311.965.311.154 0 .298-.057.43-.17.133-.113.254-.327.364-.642zm5.068 4.099c-.28 0-.523.107-.724.319s-.334.632-.398 1.26c-.064.626-.095 1.497-.095 2.612 0 .59.038 1.143.116 1.656.06.392.19.69.39.894.198.204.424.307.678.307.249 0 .456-.07.621-.207.216-.188.359-.45.431-.787.11-.525.166-1.584.166-3.18 0-.939-.053-1.583-.158-1.934-.105-.35-.26-.606-.463-.766-.144-.115-.332-.174-.564-.174m-.033-.588c.674 0 1.3.174 1.88.522s1.02.842 1.321 1.483c.3.64.451 1.341.451 2.103 0 1.099-.278 2.018-.836 2.758-.673.894-1.604 1.341-2.791 1.341-1.165 0-2.062-.408-2.691-1.226-.63-.816-.944-1.763-.944-2.84 0-1.11.322-2.077.964-2.902.643-.826 1.525-1.24 2.646-1.24m7.645 8.208-2.609-6.004c-.314-.723-.56-1.181-.737-1.374-.127-.144-.315-.24-.562-.29v-.307h4.115v.307c-.26 0-.436.047-.53.14-.133.122-.199.265-.199.431 0 .204.121.588.365 1.151l1.274 2.906 1.02-2.509c.292-.717.438-1.225.438-1.523 0-.17-.062-.31-.186-.418s-.344-.168-.658-.178v-.307h2.534v.307c-.243.032-.442.124-.596.273-.155.15-.387.588-.696 1.317l-2.584 6.078zm8.828-4.936c0-.888-.049-1.498-.145-1.83-.097-.33-.247-.583-.451-.754-.116-.098-.27-.149-.464-.149-.287 0-.522.141-.704.423-.326.492-.489 1.165-.489 2.02v.29zm2.037.555h-4.248c.05 1.027.323 1.839.82 2.435.38.458.839.687 1.374.687.331 0 .633-.092.903-.277s.56-.517.87-.998l.281.182c-.42.856-.883 1.461-1.391 1.818-.508.356-1.096.534-1.764.534-1.148 0-2.018-.442-2.609-1.325-.474-.712-.712-1.596-.712-2.65 0-1.292.349-2.32 1.048-3.085.698-.764 1.517-1.147 2.455-1.147.784 0 1.464.322 2.042.965.577.643.886 1.597.931 2.86zm3.504-3.595v1.757c.514-.8.964-1.333 1.35-1.594.386-.262.759-.394 1.118-.394.309 0 .556.095.741.286.185.19.278.46.278.807 0 .37-.09.658-.27.86-.18.206-.396.308-.65.308-.293 0-.547-.094-.762-.282-.215-.187-.342-.292-.38-.314-.056-.033-.12-.05-.19-.05-.161 0-.314.061-.456.182-.228.188-.398.456-.514.804-.177.536-.265 1.126-.265 1.772v1.78l.008.465c0 .314.02.515.058.603.066.15.164.258.294.328.13.069.349.111.659.128v.299h-4.182v-.3c.336-.026.564-.12.683-.277s.178-.572.178-1.245v-4.283c0-.442-.023-.723-.066-.845-.056-.154-.136-.268-.24-.34-.105-.071-.29-.12-.555-.149v-.306zm6.799 0v1.003c.398-.43.778-.744 1.143-.939.364-.197.756-.295 1.176-.295.502 0 .919.14 1.25.418.331.28.552.626.662 1.04.09.315.133.92.133 1.814v3.014c0 .596.054.967.162 1.113.107.147.332.24.675.278v.299h-3.917v-.3c.292-.038.502-.16.628-.363.09-.138.133-.48.133-1.027v-3.445c0-.635-.024-1.035-.074-1.201s-.134-.294-.252-.384c-.12-.092-.25-.137-.394-.137-.475 0-.917.339-1.325 1.019v4.148c0 .58.054.947.161 1.1.108.156.308.252.6.29v.3h-3.916v-.3c.326-.032.557-.138.695-.314.095-.121.141-.48.141-1.076v-4.372c0-.586-.053-.95-.161-1.094s-.333-.237-.675-.282v-.306h3.155zm8.804 0v1.02c.425-.464.818-.788 1.18-.974.362-.184.758-.277 1.189-.277.497 0 .913.116 1.25.349.337.231.597.584.778 1.059.443-.497.866-.855 1.271-1.077.406-.22.83-.331 1.272-.331.535 0 .962.123 1.28.37.317.245.538.557.662.935.124.377.186.981.186 1.81v3.171c0 .596.054.966.161 1.11.108.142.332.237.676.28v.3h-4v-.3c.314-.026.546-.149.695-.363.1-.149.15-.492.15-1.027v-3.33c0-.69-.028-1.128-.083-1.316-.056-.187-.143-.327-.261-.418-.12-.092-.259-.137-.419-.137-.237 0-.477.087-.72.26-.243.175-.489.436-.737.784v4.157c0 .557.047.908.14 1.052.127.204.37.318.73.339v.299h-4.009v-.3c.216-.01.385-.064.51-.16.124-.098.206-.212.248-.349.042-.134.062-.43.062-.881v-3.33c0-.7-.027-1.138-.083-1.316-.055-.176-.147-.315-.277-.414-.13-.1-.27-.15-.418-.15-.221 0-.423.06-.605.174-.26.172-.536.464-.828.88v4.156c0 .547.054.907.162 1.08.107.174.332.278.675.31v.3h-3.992v-.3c.325-.032.557-.138.695-.314.094-.121.141-.48.141-1.076v-4.372c0-.586-.054-.95-.161-1.094-.108-.144-.333-.237-.675-.282v-.306h3.155zm14.759 3.04c0-.888-.049-1.498-.146-1.83-.096-.33-.247-.583-.45-.754-.117-.098-.27-.149-.464-.149-.288 0-.522.141-.705.423-.326.492-.488 1.165-.488 2.02v.29zm2.037.555h-4.249c.05 1.027.324 1.839.82 2.435.381.458.84.687 1.375.687.33 0 .632-.092.902-.277.271-.185.561-.517.87-.998l.282.182c-.42.856-.883 1.461-1.392 1.818-.508.356-1.095.534-1.763.534-1.149 0-2.018-.442-2.61-1.325-.474-.712-.711-1.596-.711-2.65 0-1.292.348-2.32 1.047-3.085.699-.764 1.517-1.147 2.456-1.147.784 0 1.464.322 2.042.965.576.643.886 1.597.93 2.86zm3.453-3.595v1.003c.398-.43.779-.744 1.143-.939.364-.197.756-.295 1.176-.295.502 0 .919.14 1.25.418.331.28.552.626.662 1.04.09.315.133.92.133 1.814v3.014c0 .596.054.967.162 1.113.107.147.333.24.675.278v.299h-3.917v-.3c.293-.038.502-.16.629-.363.089-.138.132-.48.132-1.027v-3.445c0-.635-.024-1.035-.074-1.201s-.134-.294-.252-.384c-.12-.092-.25-.137-.394-.137-.475 0-.916.339-1.325 1.019v4.148c0 .58.054.947.162 1.1.107.156.307.252.6.29v.3h-3.917v-.3c.326-.032.558-.138.695-.314.095-.121.142-.48.142-1.076v-4.372c0-.586-.054-.95-.162-1.094s-.333-.237-.675-.282v-.306h3.155zm8.663-2.831v2.832h1.84v.82h-1.84v4.778c0 .447.02.736.062.865.042.131.115.236.22.316s.202.12.29.12c.358 0 .698-.274 1.018-.82l.25.182c-.448 1.06-1.175 1.589-2.179 1.589-.492 0-.907-.136-1.247-.409-.34-.274-.556-.579-.65-.916-.055-.187-.082-.695-.082-1.523v-4.182h-1.01v-.29c.695-.491 1.287-1.008 1.776-1.548.488-.541.915-1.145 1.28-1.814z" mask="url(#a)"/></g></svg>