<svg width="16" height="16" xmlns="http://www.w3.org/2000/svg"><path d="M15.96 15.148h-3.42V9.9a4.114 4.114 0 0 0-.14-1.16 1.5 1.5 0 0 0-.94-1.068 1.862 1.862 0 0 0-2.08.56c-.286.325-.442.74-.44 1.17.01.148 0 .294 0 .444v5.134c0 .163 0 .163-.17.163H5.66c-.12 0-.15-.033-.15-.15.01-2.321.017-4.641.02-6.96 0-.852 0-1.704-.01-2.558V5.18H8.78c.12 0 .16.03.16.15-.01.357 0 .716 0 1.073a.37.37 0 0 0 .02.142l.24-.306a3.317 3.317 0 0 1 2.52-1.279 4.49 4.49 0 0 1 1.83.246 3.3 3.3 0 0 1 1.42.99c.541.69.868 1.517.94 2.385.01.137.03.276.05.414v6.153zM-.01 1.866c.04-.11.06-.22.1-.328A1.6 1.6 0 0 1 1.1.534a2.243 2.243 0 0 1 1.83.079 1.63 1.63 0 0 1 .87 1.832 1.596 1.596 0 0 1-1.19 1.273 2.233 2.233 0 0 1-1.67-.099 1.609 1.609 0 0 1-.92-1.201l-.03-.079v-.473zm3.62 13.282H.34c-.12 0-.14-.037-.14-.146V5.194h3.41V15.148z" fill="#FFF" fill-rule="evenodd" opacity=".7"/></svg>