<svg width="19" height="16" xmlns="http://www.w3.org/2000/svg"><path d="M18.95 2.117a7.944 7.944 0 0 1-2.23.59A3.788 3.788 0 0 0 18.43.641a7.996 7.996 0 0 1-2.47.905 3.967 3.967 0 0 0-2.84-1.18 3.875 3.875 0 0 0-2.73 1.072 3.75 3.75 0 0 0-1.16 2.658c.002.286.036.57.1.848a11.18 11.18 0 0 1-8.01-3.899 3.568 3.568 0 0 0-.53 1.88 3.673 3.673 0 0 0 1.73 3.103A3.96 3.96 0 0 1 .76 5.56v.047c.018 1.796 1.325 3.329 3.12 3.657a4.064 4.064 0 0 1-1.76.065c.528 1.534 1.984 2.573 3.63 2.59a7.985 7.985 0 0 1-4.83 1.595c-.307 0-.615-.016-.92-.05a11.312 11.312 0 0 0 5.96 1.673 10.939 10.939 0 0 0 7.787-3.028 10.583 10.583 0 0 0 3.273-7.583c0-.163 0-.323-.01-.485a7.614 7.614 0 0 0 1.94-1.93" fill="#FFF" fill-rule="evenodd" opacity=".7"/></svg>