<svg width="65" height="40" xmlns="http://www.w3.org/2000/svg" xmlns:xlink="http://www.w3.org/1999/xlink"><defs><path id="a" d="M0 0.85L4.1556 0.85 4.1556 6 0 6z"/></defs><g fill="none" fill-rule="evenodd"><path d="M23.194 3.02c.718.349.947-.296 2.287.57-.888.282-1.569 1.377-2.568 1.096.718-.356.644-.881 1.06-1.14-.268-.036-.786-.155-.779-.526m2.576 7.128c-.43-.178-1.089-.288-1.458.23-.2-.348.095-.874.281-1.03-.94.014-1.473-.27-1.613-.555.347-.191 1.228-.51 1.946.017.496.361.747.538 1.332.731.213-.213.134-.119.2-.178-.48-.332-.695-2.893-1.636-2.99.132-.325.622-.296 1.015-.192.027-.575-.208-1.519-.566-2.067.55-.286.924.026 1.113.705.201.724-.037 2.532.437 4.16l.296-.274c-.148-.949.895-1.295 1.125-1.77.09.64-.044.925-.222 1.156a.57.57 0 0 1 .49.674c-.91-.136-1.439.778-1.236 1.5-.67.15-1.133.037-1.504-.117m4.448.527c-.785.042-1.554 1.064-1.228 2.227-.119.043-.459.036-.57-.198-.082.375-.852.813-1.414.753.31-.334.52-1.089 1.125-1.488.608-.4.881-.675 1.095-1.352-.28.13-1.746.507-2.16.057.961-.14 2.101-.681 2.664-1.035l-.222-.24c-.607.345-1.413.623-1.822.753-.146-1.207 1.003-1.159 1.09-.832.473-.562.14-1.37-.208-1.46.355-.962 0-1.554-.303-1.91-.074 1.022-1.215 1.186-1.347 1.97-.045-.622-.085-2.303-.134-3.125-.089-1.522-2.013-2.056-2.31-2.056-1.258.06-1.377-.103-1.347-.688-.637.725-.42 1.369.12 1.68-.075.437-.77.777-1.2.873 1.021.949 2.206.385 2.775-.157.042-.037.081-.074.121-.107.205.362.354 1.02.354 1.396-.956-.05-1.125.69-1.125.955 1.213-.502 1.346 1.821 1.665 2.2-.31-.024-.859-.74-1.665-.793-.973-.062-1.319.46-1.71.438.072.688.91 1.072 1.45 1.152-.275.704-.033 1.18.54 1.355 0-.643.814-.841 1.688-.332 1.045.61 1.585.665 2.428.407-.14.303-.519.332-.985.793-.65.64-.673 1.48-1.398 1.784.85.406 2.138-.164 2.324-.489.354.222.814.088.94-.134-.578-1.28.4-2.043.784-2.028 0 0 .172-.382-.015-.37m8.86-6.958c.43-.312.703-.443.926-.578.37.015 1.007-.03 1.392-.22-.4.486-.444.664-1.096.737.845.075 1.2.831 1.614.95-1.406.428-1.547-.97-2.836-.889m1.741 4.21c.422.35.282.838.184.95-.37-.638-1.554-.415-2.716.894a2.783 2.783 0 0 1-.322.326c.092-1.568-1.193-1.597-1.573-1.437.044-.45.325-.76.475-.805-.379-.437-.46-.992-.503-1.39.628.271 1.56 1.005 1.715 2.271l.41-.274c-.123-2.212-.099-2.205-.113-3.71-.002-.21.008-.7.677-.647.028.558.113 2.042.086 4.104h.236c.216-.576.978-1.25 1.866-1.19.605.04.813.03 1.162-.127-.28.688-1.317.991-1.584 1.035m-1.28-.768c0-1.426-.052-2.6-.07-2.972.056.017.111.034.172.055 1.027.358 1.26 1.591 3.376.192-1.132.135-1.192-.829-1.71-.85.783-.445.836-1.467.836-1.467-.659.533-2.184.563-2.48.741-.393.237-.89.528-1.229.711-.879.48-.266 3.086-.355 4.042-.473-1.422-1.435-1.207-1.938-2.02-.378.68.022 1.82.176 2.146-.547.444-.399 1.265-.266 1.487.468-.338 1.19-.252 1.41.315-.612.371-1.64.44-2.343-.24l-.25.281c.495.654 1.736.91 2.658.381a1.824 1.824 0 0 1-.097.502c-.479.252-1.1.391-1.807.145.096.718.92 1.252 1.702 1.464-.266.208-.592.291-.829.261.15.415.231.97-.08 1.406-.393-.259-.6-.518-.748-1.525-.149-1.007-.873-2.029-1.436-2.236-.03.357-.03.2.03.431 1.495 1.095.65 3.071 2.205 3.782.57-.652.577-.882.49-1.496.56-.147.983-.623 1.131-.984-.532.251-1.377-.193-1.613-.54.925-.029 1.783-.728 2.66-1.645.781-.82 1.827-.695 1.744-.049.54-.083.755-.823.577-1.296.792-.254 1.414-.837 1.502-1.754-1.064.532-2.413-.349-3.419.732m-5.76 4.864a.23.23 0 0 0-.18.088 7.034 7.034 0 0 0-.25-.038l.005-.455a.229.229 0 0 0-.091-.439.229.229 0 0 0-.111.43l-.003.44c-.078-.007-.157-.017-.241-.024a.23.23 0 1 0-.015.217l.254.027-.006.669a.226.226 0 0 0-.123.201.23.23 0 1 0 .46 0 .231.231 0 0 0-.135-.208l.005-.637c.076.009.147.02.216.033a.23.23 0 1 0 .216-.304m-1.984-.134a.227.227 0 0 0-.209.136l-.24.025-.004-.441a.228.228 0 0 0-.109-.43.23.23 0 0 0-.23.23c0 .093.057.175.138.209l.005.455a6.763 6.763 0 0 0-.25.038.23.23 0 1 0 .035.216c.07-.013.14-.023.216-.033l.005.637a.232.232 0 0 0-.135.208.23.23 0 1 0 .46 0 .23.23 0 0 0-.123-.201l-.006-.67c.082-.007.166-.017.253-.026a.23.23 0 1 0 .194-.353" fill="#FEFEFE"/><path d="M32.247 13.828c-.34.651-.974.63-1.525.265a1.774 1.774 0 0 0-.659-.276c.096-.642.255-1.85.37-2.87.714-.325 1.597-.403 1.814.422.217-.825 1.1-.747 1.815-.422.114 1.02.272 2.228.37 2.87a1.767 1.767 0 0 0-.66.276c-.552.364-1.185.386-1.525-.265m2.586.021c-.139-.92-.47-3.505-.508-4.369l-.396.02c.008.145.023.341.043.566a6.352 6.352 0 0 0-1.725-.236c-.632 0-1.252.097-1.726.236.021-.225.036-.42.043-.567l-.394-.019c-.038.864-.37 3.448-.51 4.37-.234.09-.388.325-.388.748 0 0 2.146.028 2.975.028.83 0 2.976-.028 2.976-.028 0-.423-.156-.658-.39-.749m-3.578 4.11c-.222-.076-.915.118-.992.309-.06.149.072.489.334.651.155.098.784-.096.887-.245.088-.123-.007-.642-.23-.715m-2.25-1.985c-.31.488-.614.733-1.198 1.067v1.998c.769.68 1.777.088 2.176-.149a1.585 1.585 0 0 1-.215-.554c-.976.103-1.347-.392-1.546-1.119 0 0 .177-.117.354-.208.342 1.111.963.955 1.45.935.319-.289.764-.385 1.156-.357-.103-.443-.4-1.006-.696-1.495.267-.17.584-.37.799-.71-1.31.466-1.872.303-2.982-.008.2.282.474.489.703.6m-1.31-1.096c1.235.444 2.628.726 4.107-.014-.191.658-.48 1.052-.843 1.331.207.519.533 1.163.667 1.681.39.259.317.704.252.999-.062.275-.963.6-1.26.511-.278-.084-.28-.214-.422-.201-.391.038-1.613 1.237-2.79.09v-2.473c.459-.252.845-.48 1.067-.806-.26-.17-.631-.637-.778-1.118m8.312 1.422c-.198-.05-1.042-.094-1.324.538a.633.633 0 0 1-.437-.16c-.111.14-.281.237-.518.303.205.42.624.347.878.147a1.128 1.128 0 0 0-.012.179c0 1.029 1.096 1.288 1.77.903-.112.333-.061.755-.015 1.036h-2.652c.046-.281.4-.608.697-.814l-.237-.371a5.909 5.909 0 0 1-.87.323c-.733.193-.691-.334.07-.544v-.207l-.49-.01c.12-.516 1.127-1.175 1.579-1.331-.024-.56.716-.744 1.31-.762.738-.021.91.772.91 1.016 0 .326-.084 1.046-.493 1.272-.591.324-1.097-.124-1.097-.532 0-.444.309-.705.842-.645.534.059.494-.24.089-.341m1.155.222c0-.756-.547-1.444-1.392-1.444-.777 0-1.746.377-1.805 1.06-1.141.664-1.681 1.266-1.51 1.835-.386.414-.09 1.184 1.05.696a1.36 1.36 0 0 0-.414.976h3.833c-.4-2.101.238-1.731.238-3.123m-3.341 7.114v-.418h1.753v.448a3.593 3.593 0 0 0-.884-.102c-.338 0-.621.028-.87.072m.87-2.497c.295.392.448.956.467 1.713h-.934c.018-.757.173-1.321.467-1.713m1.248 2.644v-.931h-.418c-.022-.964-.252-1.657-.7-2.118l-.13-.136-.131.136c-.446.46-.676 1.154-.7 2.118h-.401V23.726c-.517.162-.875.438-1.307.767l-.014.013.22.288.016-.012c.672-.515 1.115-.854 2.317-.854 1.243 0 1.742.52 2.095 1.084l.308-.193c-.247-.394-.581-.796-1.155-1.036" fill="#FEFEFE"/><path d="M35.645 25.468c.085-.31.01-.6-.145-.777-.156-.18-.43-.293-.748-.252l.35.402-.613.512-.273-.311s.101-.09.245-.215c-.213-.245-.512-.456-.939-.36-.155.408.011.737.225.983l.246-.214.27.308-.75.628.237.275.73-.653.242.279s-.154.232.07.487l.626-.543c-.224-.257-.472-.137-.472-.137l-.245-.282.595-.533.35.403zM31.27 22c-.234.557-.462 1.13-.532 1.307a5.505 5.505 0 0 0-.393-.036c.16-.487.35-1.182.51-1.619.11-.304.634-.172.415.348m-.252 2.976a1.913 1.913 0 0 1-.443.118l.08.339c-.206.045-.54.068-.761.068-.223 0-.556-.023-.764-.068.023-.087.054-.213.082-.339a1.927 1.927 0 0 1-.443-.118c.065-.225.166-.45.25-.754.28.062.557.087.875.087.318 0 .593-.025.874-.087.084.304.186.529.25.754M28.517 22c-.22-.52.303-.652.414-.348.16.437.35 1.132.51 1.619-.137.008-.271.02-.393.036-.068-.177-.297-.75-.531-1.307m2.334 1.626a.867.867 0 0 1 .005.283c-.237.066-.652.103-.962.103-.311 0-.726-.037-.963-.103a.867.867 0 0 1 .006-.283c.157-.058.77-.087.957-.087.184 0 .798.029.957.087m-.957-2.441c.036-.259.765-.308.628.259-.137.575-.31 1.24-.443 1.815l-.185-.001-.186.001c-.132-.575-.307-1.24-.443-1.815-.137-.567.59-.518.629-.259m.97-.059c-.094-.548-.704-.607-.974-.363-.27-.244-.874-.185-.968.363-.972-.147-.863.769-.742 1.02.109.229.374.842.553 1.222-.028.006-.057.015-.084.023a2.175 2.175 0 0 0-.014.725c.044.015.088.028.132.041-.1.294-.284.769-.384.98.134.083.274.15.474.194 0 0-.037.17-.088.34.267.089.784.148 1.125.148.339 0 .858-.059 1.124-.148-.052-.17-.088-.34-.088-.34.2-.044.34-.111.474-.194a11.82 11.82 0 0 1-.383-.98c.043-.013.087-.026.13-.041.038-.223.03-.511-.014-.725-.026-.008-.054-.017-.083-.023.18-.38.444-.993.553-1.222.122-.251.229-1.167-.742-1.02m-1.779-4.545c.281.074.435.02.704 0 .11-.007.338.065.281.355-.029.147.022.222.066.326-.237-.03-.467.074-.651-.014-.256-.124-.207-.475-.4-.667m20.252-2.695c-.214.237-.896.52-1.71.555.162.171.43.297.607.386-.229.051-.554.06-.844.073.133.231.333.527.407.652-.23 0-.443-.016-.71-.03.134.252.162.363.281.57-.176 0-.516.007-.704-.022.061.17.164.4.216.533-.105 0-.273 0-.377.008-.786 1.088-1.889 2.236-3.96 2.123.058.178.101.363.118.363.31.016.926-.039 1.383-.114.315.35.886 1.19 1.186 2.468.23.142.592.77.77 1.57-.372.216-.705.317-1.185.37-.178-1.022-.703-1.06-.955-1.902-.356.043-.868-.229-1.007-.726h-.467c-.09.98.125 1.88.302 2.645.083.362.158.694.187.99.06.591-.184 2.893-.193 3.842.437-.018.771.095.756.457-.69-.214-1.88-.08-2.444.851-.133-.072-.22-.457.008-.578-.266-.287-.495-.487-.984-.347.208-.347.695-.57 2.162-.198.148-.504.28-3.715.252-4.404.003-.118-.067-.333-.177-.613-.353-.89-1.13-2.428-1.312-3.466-.252 0-.622.051-.749-.073-.316-.318-1.005-1.334-1.139-2.326-.237-.4-.632-1.92.556-2.775.822-.593 2.713-1.318 2.702-2.007-.008-.415-.71-.726-.946-.895-.238-.134-.15-.256.05-.452 1.11-1.088 2.428-.023 1.657 1.297-.566.967-3.442 1.811-2.78 3.632.626.053.931.282 1.166.593.572-.199 2.783-1.177 3-3.99a15.848 15.848 0 0 0 1.664-1.17c.105.711-.015 5.256-4.115 6.3.112.385.991.496 1.51-.2.504.118 1.11-.297 1.126-.687.451 0 .933-.497.858-.964.555-.185.813-.918.577-1.472.482-.215.645-.785.43-1.34.385-.26.503-.926.177-1.347.193-.356.148-.652 0-.888.741-.69 1.688-1.563 2.281-2.628.043.732-.34 1.34-.786 2.004.786-.5.964-.62 1.451-1.005-.14.836-1.103 1.607-1.435 1.983a19.858 19.858 0 0 0 1.68-.798c-.452.917-1.236 1.444-1.702 1.732.642-.12 1.102-.216 1.523-.363-.377.421-1.08.896-1.878 1.133a6.289 6.289 0 0 0 1.707-.253c-.413.43-1.019.836-1.73.925.725 0 .858.052 1.54-.022m-9.252 9.522a5.457 5.457 0 0 0-.223.76c-.05.24-.59.185-.667 0a48.714 48.714 0 0 1-.296-.76c-.31-.81-.732-1.958-.837-2.444-.213.347-.444.532-.689.31.883-.392.571-2.767.231-2.888.422-.375.895 1.06.621 2.133.263.743.783 2.268.99 2.89.043.132.074.223.084.257.06.191.304.176.362 0l.082-.258c.202-.663.626-2.079.555-2.964.414.075.534.46.682.95-.343.823-.663 1.387-.895 2.014m5.69-15.147c.223.37.392 1.037.392 1.6.283-.282.468-.742.563-1.075.127.252.111.918.081 1.215.318-.267.52-.638.711-1.016.037.275.044.512 0 .778-.68.725-1.797 1.686-2.975 2.673.637-1.318 1.036-2.415 1.227-4.175m4.687 4.116c-.117.028-.392.11-.57.132.341-.33.55-.739.55-1.08-.166.052-.459.163-.728.222.534-.452.822-.977.697-1.674-.163.082-.393.215-.622.312.465-.718.46-1.349.268-1.717-.208.192-.46.421-.726.584.17-.829.161-1.362-.185-1.732-.357.667-.66 1.163-1.156 1.754.037-.548-.02-1.229-.379-1.585 0 0-.102.764-.369 1.008-.065-.747-.296-1.154-.635-1.554 0 0-.024.777-.237 1.258-.179-.65-.512-1.155-.94-1.635.03 1.435-.37 4.145-1.525 5.966-.133 1.08-.252 2.702-2.013 3.664a2.058 2.058 0 0 0-1.326-.37c-.163-.815.902-1.556 1.82-2.148.93-.598 1.331-1.11 1.311-1.909-.022-.874-.615-1.232-1.228-1.257-.867-.038-1.57.746-1.733 1.072-.252.118-.992.347-1.295.428-.337.091-.719.23-.954.431.14.09.546.12.702.096.294-.043 1.23-.215 2.125-.327.326.18.851.475.294.86-.76.487-1.086.614-2.16 1.178-1.696.886-1.148 3.123-.732 3.286 0 .754.673 2.115 1.13 2.59.208.948-.066 2.361-.353 2.946-.238-.578-.645-1.91-.91-2.687.272-1.472-.172-2.117-.482-2.369-.31-.252-.8-.185-1.119.326.49-.052.652.574.642 1.222-.012.776-.21 1.403-.75 1.406.042.666.76.852 1.115.532.056.151.344 1.025.617 1.802.161.46.318.887.421 1.106.112.248.938.284 1.037 0 .127-.38.231-.664.44-1.106.155-.339.373-.767.706-1.4.223.382.52.986.69 1.4.08.193.133.343.138.412.066.638.03 2.887-.14 4.233-1.85-.502-2.376.401-2.213 1.074a.604.604 0 0 1 .828-.102c-.05.496.083.85.587.997.532-1.406 2.442-1.095 2.618-.975.01-.274.267-.957-.718-1.098.038-1.213.163-2.7.208-3.01.046-.312.08-.505-.067-.993a15.245 15.245 0 0 1-.153-.538 7.726 7.726 0 0 1-.268-1.83c.17.17.577.303.858.243.216.92.527.652.69 1.037.083.197.102.384.125.55.02.16.047.3.133.42.657.017 1.215-.14 1.618-.42a1.86 1.86 0 0 0 .32-.29c-.162-.977-.437-1.46-.947-2.05-.133-.802-.507-1.535-1.019-2.18.644-.214 1.3-.736 1.642-1.1.311-.022.666-.282.695-.786.178-.02.333-.029.474-.058a6.647 6.647 0 0 0-.075-.474c.24 0 .466-.008.69-.03a6.201 6.201 0 0 0-.215-.518c.237 0 .531-.014.77-.029a4.85 4.85 0 0 1-.297-.653 9.81 9.81 0 0 0 1.044-.176c-.11-.12-.236-.237-.429-.423.902-.267 1.296-.895 1.34-1.17-.133 0-.407.061-.57.045.503-.296.844-.704.895-1.139" fill="#FEFEFE"/><path d="M44.801 13.546c-.075.888-.764 2.235-1.562 2.916l.52-.006c.546-.527 1.463-1.489 1.597-3.25 0 0-.356.215-.555.34m-2.99-1.895c.075-.104.05-.283.303-.349.23-.058.244.112.342.135.13.03.095.012.02.125-.073.112-.05.281-.28.304-.251.023-.224-.108-.352-.108-.14 0-.13-.04-.032-.107m2.692 10.244c.245.015.438 0 .623-.043.162.25.295.383.325.488-.297.073-.577.102-.8.058 0 .015 0-.177-.148-.503m-.68 10.374H20.67a9.111 9.111 0 0 0-.37-1.609h23.895a9.081 9.081 0 0 0-.371 1.61m-15.692-4.956c.213.316.417.545.515.8.1.264.034.424-.16.695-.44.616-1.2 1.147-1.8 1.475h-2.32c1.457-.416 3.428-1.665 3.765-2.97m-1.407-.429c.19-.354.65-.46.963-.044.132.177.074.651-.474 1.242-.397-.362-.691-.825-.49-1.198m9.254 1.924c-.195-.27-.26-.43-.16-.695.097-.255.303-.484.516-.8.335 1.305 2.307 2.554 3.764 2.97h-2.32c-.6-.328-1.36-.859-1.8-1.475m.799-1.968c.313-.417.772-.31.964.044.2.373-.093.836-.49 1.198-.547-.59-.607-1.065-.474-1.242m7.506 3.323c-.248.073-.547.12-1 .12h-.56c-1.928-.04-3.907-.614-5.12-1.856 1.678-1.692-.293-3.082-1.36-1.647-.333.45-.598.767-.827 1.198-.187.353-.047.704.368 1.246.23.297.798.757 1.26 1.06H27.42c.464-.303 1.03-.763 1.259-1.06.416-.542.558-.893.37-1.246-.23-.43-.495-.749-.828-1.198-1.066-1.435-3.036-.045-1.358 1.647-1.214 1.242-3.194 1.816-5.121 1.856h-.531c-.452 0-.752-.047-1-.12-.4-.097-.488.077-.274.763.149.46.266 1.206.319 1.722h23.983c.053-.516.17-1.262.318-1.722.214-.686.125-.86-.274-.763" fill="#FEFEFE"/><path d="M23.438 31.674c-.006 0-.008-.004-.006-.007l.172-.458c.001-.004.004-.012.009-.012.004 0 .005.008.006.012l.17.46c.001.001 0 .005-.007.005h-.344zm.371.07c.005 0 .009.003.013.01l.063.173c.007.014-.003.026-.011.03-.015 0-.02.003-.02.013 0 .01.016.01.041.011a9.4 9.4 0 0 0 .26.003c.05 0 .062-.003.062-.014 0-.01-.007-.013-.017-.013-.017 0-.038 0-.059-.005-.028-.007-.067-.025-.12-.147-.087-.21-.307-.77-.34-.846-.014-.032-.022-.043-.035-.043-.013 0-.021.014-.038.054l-.344.861c-.028.071-.053.116-.117.124-.011.002-.03.002-.042.002-.011 0-.017.003-.017.013 0 .011.009.014.027.014.071 0 .146-.005.161-.005.042 0 .102.005.145.005.016 0 .024-.003.024-.014 0-.01-.005-.013-.02-.013h-.021c-.042 0-.054-.016-.054-.043a.27.27 0 0 1 .02-.083l.027-.075c.004-.009.007-.012.013-.012h.399zm.684-.2c0 .2.052.302.123.363.1.091.23.094.304.094a.402.402 0 0 0 .284-.098c.117-.098.13-.26.13-.412v-.145c0-.21 0-.248.005-.293.002-.049.013-.072.05-.078.017-.003.025-.005.04-.005.016 0 .024-.002.024-.01 0-.012-.01-.012-.028-.012l-.157.002-.158-.002c-.02 0-.028 0-.028.011 0 .009.007.012.022.012.017 0 .04.002.05.005.046.008.056.029.059.078.004.044.004.083.004.292v.17c0 .14-.005.264-.08.34a.267.267 0 0 1-.19.074.254.254 0 0 1-.171-.056c-.068-.055-.107-.14-.107-.338v-.19c0-.21 0-.248.003-.293.002-.049.013-.072.05-.078.017-.003.024-.005.04-.005.014 0 .022-.002.022-.01 0-.012-.01-.012-.03-.012l-.17.002-.2-.002c-.02 0-.03 0-.03.011 0 .009.009.012.023.012.02 0 .043.002.054.005.045.008.057.029.059.078.003.044.003.083.003.292v.198zm1.595-.221v-.276c0-.013.005-.023.017-.03a.503.503 0 0 1 .09-.006c.106 0 .263.016.39.135.058.06.13.17.13.345 0 .142-.026.266-.114.34-.082.072-.175.102-.316.102-.108 0-.161-.031-.18-.057-.01-.015-.013-.071-.015-.105a11.95 11.95 0 0 1-.002-.275v-.173zm-.171.262c0 .127 0 .234-.007.294-.006.04-.012.069-.04.074a.214.214 0 0 1-.05.005c-.017 0-.022.003-.022.012 0 .009.01.014.027.014.055 0 .142-.005.173-.005.069 0 .193.017.293.017.254 0 .396-.097.459-.162a.548.548 0 0 0 .15-.382.486.486 0 0 0-.134-.35c-.15-.154-.378-.154-.55-.154l-.211.002-.197-.002c-.021 0-.03 0-.03.012 0 .008.008.01.023.01a.26.26 0 0 1 .054.005c.045.009.056.03.059.078.003.044.003.083.003.292v.24zm1.515.09c-.006 0-.008-.005-.006-.008l.172-.458c.001-.004.004-.012.008-.012s.005.008.007.012l.17.46c.001.001 0 .005-.007.005h-.344zm.37.07c.006 0 .011.002.013.01l.064.172c.008.014-.003.026-.01.03-.016 0-.02.003-.02.013 0 .01.015.01.04.011.11.003.21.003.26.003.05 0 .062-.003.062-.014 0-.01-.007-.013-.018-.013-.016 0-.038 0-.058-.005-.028-.007-.067-.025-.12-.147-.088-.21-.307-.77-.34-.846-.014-.032-.022-.043-.035-.043-.013 0-.022.014-.038.054l-.344.861c-.028.071-.053.116-.117.124a.295.295 0 0 1-.042.002c-.01 0-.017.003-.017.013 0 .011.008.014.026.014.071 0 .147-.005.162-.005.042 0 .102.005.145.005.016 0 .024-.003.024-.014 0-.01-.005-.013-.02-.013h-.02c-.044 0-.056-.016-.056-.043a.25.25 0 0 1 .021-.083l.027-.075c.003-.009.007-.012.013-.012h.398zm1.34-.659c.043-.062.069-.1.1-.108.02-.003.038-.008.05-.008.014 0 .023-.005.023-.01 0-.01-.01-.013-.025-.013l-.134.002-.137-.002c-.02 0-.03.002-.03.012 0 .008.009.011.017.011.012 0 .03 0 .043.005.015.003.024.015.024.025a.13.13 0 0 1-.014.052c-.021.037-.147.23-.187.29-.053-.094-.116-.196-.174-.306a.092.092 0 0 1-.015-.039c0-.007.005-.015.017-.02a.136.136 0 0 1 .038-.007c.01 0 .02-.003.02-.01 0-.012-.01-.013-.028-.013l-.147.002-.208-.002c-.017 0-.027.001-.027.01 0 .008.005.013.014.013.013 0 .035.005.057.012.048.012.08.045.114.102l.235.39-.261.374c-.047.066-.072.092-.112.102-.021.007-.042.007-.052.007-.011 0-.02.003-.02.013 0 .01.008.013.022.013h.023l.115-.004c.035 0 .12.004.13.004h.025c.017 0 .026-.002.026-.013 0-.01-.007-.013-.016-.013-.01 0-.024 0-.031-.002-.013-.003-.025-.01-.027-.022a.119.119 0 0 1 .019-.058l.204-.328c.062.101.14.238.216.374.01.017.005.03-.003.03-.011.002-.02.006-.02.015 0 .01.013.013.048.015.106.002.214.002.248.002h.04c.015 0 .026-.004.026-.013 0-.01-.007-.013-.017-.013-.013 0-.028 0-.052-.007a.138.138 0 0 1-.08-.058c-.034-.044-.257-.415-.301-.484l.225-.322zm1.872.588c-.006 0-.006-.004-.006-.007l.172-.458c0-.004.004-.012.008-.012s.005.008.007.012l.174.46c.002.001 0 .005-.006.005h-.35zm.372.07c.006 0 .01.003.013.01l.062.173c.007.014-.003.026-.012.03-.014 0-.02.003-.02.013 0 .01.017.01.042.011.109.003.21.003.258.003.052 0 .064-.003.064-.014 0-.01-.007-.013-.018-.013-.016 0-.037 0-.058-.005-.028-.007-.068-.025-.12-.147-.088-.21-.307-.77-.34-.846-.014-.032-.022-.043-.035-.043-.013 0-.021.014-.038.054l-.344.861c-.028.071-.054.116-.117.124-.011.002-.031.002-.042.002-.012 0-.017.003-.017.013 0 .011.008.014.026.014.072 0 .147-.005.162-.005.042 0 .1.005.145.005.015 0 .024-.003.024-.014 0-.01-.005-.013-.021-.013h-.02c-.043 0-.055-.016-.055-.043a.27.27 0 0 1 .02-.083l.028-.075c.004-.009.007-.012.014-.012h.399zm.842-.16c0 .128 0 .235-.007.294-.003.04-.013.07-.039.075a.227.227 0 0 1-.05.005c-.016 0-.022.003-.022.013 0 .009.01.012.027.012l.173-.003c.04 0 .126.003.215.003.015 0 .027-.003.027-.012 0-.01-.008-.014-.022-.014a.524.524 0 0 1-.07-.005c-.042-.005-.05-.034-.054-.073-.007-.06-.007-.168-.007-.295v-.561l.173.003c.122.003.16.041.162.078l.002.015c.001.02.004.027.014.027s.012-.006.013-.02l.004-.16c0-.02-.002-.029-.01-.029-.012 0-.045.012-.133.012h-.542c-.045 0-.099-.002-.139-.006-.033-.004-.047-.016-.058-.016-.008 0-.012.01-.016.026-.003.012-.03.136-.03.157 0 .017.004.024.014.024.008 0 .011-.008.015-.018a.143.143 0 0 1 .023-.049c.021-.03.052-.038.132-.04l.205-.005v.563zm2.387-.11c0-.009.003-.014.009-.014.023 0 .169 0 .203.005.043.006.062.031.07.05a.141.141 0 0 1 .008.043c0 .01.002.02.012.02.013 0 .013-.017.013-.028 0-.01.003-.07.006-.098.003-.045.01-.079.01-.084 0-.01-.002-.014-.007-.014-.01 0-.012.007-.018.014-.014.02-.033.023-.06.023-.018.002-.038.002-.06.002l-.177.001c-.008 0-.01-.003-.01-.01v-.345c0-.015.005-.02.014-.02l.21.005c.05 0 .082.022.092.042.007.018.007.04.007.052.002.015.005.021.014.021.009 0 .012-.01.014-.019.003-.017.004-.097.006-.11.003-.035.012-.054.012-.062s-.005-.012-.011-.012c-.006 0-.013.004-.021.008-.014.004-.03.004-.057.005l-.362.001-.198-.002c-.02 0-.031.001-.031.011 0 .008.01.011.023.011.019 0 .042.002.054.005.047.01.057.03.059.078.003.044.003.083.003.292v.24c0 .131 0 .234-.007.293-.006.04-.012.07-.04.075a.308.308 0 0 1-.05.004c-.015 0-.02.003-.02.013 0 .011.009.014.029.014.053 0 .138-.005.174-.005.037 0 .122.005.209.005.02 0 .029-.005.029-.014 0-.01-.005-.013-.023-.013a.823.823 0 0 1-.068-.004c-.04-.005-.05-.035-.053-.075-.007-.059-.007-.162-.007-.294v-.11zm.878.11c0 .136 0 .242-.007.303-.004.037-.012.06-.04.066a.201.201 0 0 1-.048.005c-.018 0-.022.003-.022.013 0 .009.01.012.026.012l.174-.003c.036 0 .124.003.214.003.015 0 .026-.003.026-.012 0-.01-.007-.014-.022-.014a.54.54 0 0 1-.071-.005c-.041-.005-.051-.028-.054-.066-.006-.06-.006-.166-.006-.302v-.238c0-.21 0-.248.002-.293.004-.049.014-.072.053-.078a.199.199 0 0 1 .04-.005c.014 0 .022-.002.022-.014 0-.008-.011-.008-.03-.008l-.167.002-.178-.002c-.022 0-.031 0-.031.008 0 .012.006.015.02.015.016 0 .035.002.049.006.03.006.044.027.047.076.003.044.003.084.003.293v.238zm.991-.261v-.276c0-.013.005-.023.017-.03a.499.499 0 0 1 .091-.006c.105 0 .262.016.39.135.056.06.13.17.13.345 0 .142-.027.266-.116.34-.08.072-.175.102-.315.102-.109 0-.162-.031-.18-.057-.01-.015-.014-.071-.014-.105-.003-.024-.003-.13-.003-.275v-.173zm-.173.262c0 .127 0 .234-.007.294-.005.04-.012.069-.04.074a.199.199 0 0 1-.049.005c-.016 0-.022.003-.022.012 0 .009.011.014.028.014.055 0 .142-.005.172-.005.07 0 .194.017.294.017.253 0 .397-.097.46-.162a.552.552 0 0 0 .15-.382.49.49 0 0 0-.135-.35c-.149-.154-.379-.154-.549-.154l-.212.002-.197-.002c-.02 0-.032 0-.032.012 0 .008.011.01.024.01a.28.28 0 0 1 .055.005c.045.009.056.03.06.078v.532zm1.467 0c0 .127 0 .233-.006.293-.007.04-.012.07-.041.075a.221.221 0 0 1-.048.005c-.017 0-.024.003-.024.013 0 .009.01.012.028.012l.173-.003c.082 0 .173.006.38.006.052 0 .064 0 .074-.035a1.02 1.02 0 0 0 .018-.152c0-.014 0-.026-.011-.026-.01 0-.012.006-.015.023-.01.056-.026.084-.063.1a.347.347 0 0 1-.128.017c-.14 0-.161-.02-.164-.114-.003-.041 0-.166 0-.215v-.107c0-.01 0-.012.008-.012.033 0 .167 0 .195.003.05.003.069.026.076.055.005.015.005.032.006.047 0 .006.002.01.013.01.01 0 .01-.013.01-.024 0-.009.004-.066.008-.09.003-.072.01-.093.01-.102 0-.009-.004-.01-.01-.01-.007 0-.012.008-.02.018-.013.015-.035.018-.067.02-.032.003-.19.003-.22.003-.008 0-.01-.005-.01-.014v-.348c0-.01.004-.015.01-.015l.195.005c.068.01.08.024.092.052a.155.155 0 0 1 .008.047c0 .015.003.02.012.02.01 0 .013-.008.013-.015.003-.017.005-.078.008-.09.004-.061.012-.08.012-.09 0-.008-.003-.01-.01-.01l-.021.002a.223.223 0 0 1-.06.01h-.342l-.198-.002c-.02 0-.03.002-.03.012 0 .009.009.012.023.012.02 0 .042.002.054.005.045.008.056.029.059.078.003.044.003.083.003.292v.238zm1.237-.24v-.292c.004-.049.015-.07.052-.078a.374.374 0 0 1 .054-.005c.017 0 .024-.003.024-.01 0-.01-.01-.012-.028-.012l-.186.001h-.187c-.021 0-.031 0-.031.01 0 .008.008.011.023.011.019 0 .034.002.045.005.046.01.056.03.059.078.003.044.003.083.003.292v.24c0 .126 0 .234-.008.293-.004.04-.011.07-.04.074a.214.214 0 0 1-.05.005c-.015 0-.021.003-.021.013 0 .01.01.014.028.014.055 0 .14-.005.173-.005.11 0 .2.008.4.008.072 0 .076-.006.086-.037.01-.039.019-.145.019-.158 0-.016 0-.022-.01-.022-.011 0-.012.008-.014.02a.178.178 0 0 1-.036.08c-.033.04-.088.041-.162.041-.105 0-.142-.009-.166-.032-.027-.023-.027-.119-.027-.295v-.239zm.855.24c0 .134 0 .24-.006.302-.004.037-.014.06-.04.066a.205.205 0 0 1-.05.005c-.015 0-.022.003-.022.013 0 .009.011.012.028.012l.173-.003c.036 0 .124.003.214.003.014 0 .026-.003.026-.012 0-.01-.008-.014-.023-.014a.509.509 0 0 1-.069-.005c-.043-.005-.05-.028-.056-.066-.006-.06-.006-.166-.006-.302v-.238c0-.21 0-.248.003-.293.003-.049.015-.072.051-.078.018-.003.027-.005.043-.005.013 0 .021-.002.021-.014 0-.008-.01-.008-.029-.008l-.167.002-.18-.002c-.02 0-.032 0-.032.008 0 .012.01.015.023.015a.18.18 0 0 1 .048.006c.03.006.046.027.047.076.003.044.003.084.003.293v.238zm.945.416a.398.398 0 0 0 .218-.056.27.27 0 0 0 .128-.24c0-.128-.06-.218-.224-.347l-.038-.03c-.114-.085-.147-.134-.147-.198 0-.083.063-.14.163-.14.09 0 .13.04.15.069a.166.166 0 0 1 .037.087c0 .017.005.026.013.026.01 0 .014-.012.014-.043 0-.106.007-.146.007-.164 0-.009-.007-.012-.019-.015a.666.666 0 0 0-.183-.023c-.19 0-.316.108-.316.26 0 .11.05.206.203.323l.063.051c.114.087.135.151.135.218 0 .073-.063.159-.184.159-.086 0-.166-.04-.197-.14a.25.25 0 0 1-.011-.068c0-.014-.003-.027-.015-.027-.01 0-.015.017-.017.038 0 .021-.005.105-.005.18 0 .03.002.037.023.046a.485.485 0 0 0 .202.034M32.247 8.049c-.717 0-1.526.17-2.15.44a.641.641 0 0 1 .148-.364c.36-.435 1.304-.59 2.002-.59.698 0 1.642.155 2.002.59a.628.628 0 0 1 .147.363 5.607 5.607 0 0 0-2.149-.439zm1.222 1.012l-.222-.513c.335.066.66.164.944.282l.13.53a6.587 6.587 0 0 0-.852-.299zm-2.103-.08l-.384-.374c.314-.079.645-.132.966-.153l.228.44c-.29.004-.56.037-.81.087zm-1.243.398l-.11.045c-.152.062-.258.014-.295-.062-.04-.079-.017-.21.174-.326.024-.015.051-.028.078-.043l.363.301c-.077.03-.148.06-.21.085zm2.124-2.698l.518.376a5.298 5.298 0 0 0-1.036 0l.518-.376zm-.589-1.367c-.21-.458-.269-1.057.381-.769l.052.77h-.433zm.495-1.66l.094.066.093-.067.375-.273-.215.726-.022.005a.251.251 0 0 0-.462 0l-.023-.005-.215-.726.375.273zm.556 2.968l-.369-.267-.093-.068-.094.068-.368.267.238-.774h.447l.24.774zm.126-1.308h-.433l.053-.769c.65-.288.591.311.38.77zm-2.176.18l.266-.367.067-.094-.067-.093-.266-.37.546.17c.031.238.084.395.146.54l-.692.214zm2.63-.755l.547-.169-.267.37-.068.093.068.094.267.367-.693-.214c.062-.145.114-.302.146-.54zm3.406-.94c.011-.206-.37-.364-.465-.372-.16-.012-.363.326-.572.533-.184-.983-.088-1.406.016-1.844.414.756.977.918 1.273.882-.999-.8-.826-1.525-1.132-1.563-.173-.02-.297-.006-.386-.006-.35 0-.399.681-.443.991a8.23 8.23 0 0 0-.838-1.266c-.369-.947-.82-.71-1.28-1.139.356.54.067.874.896 1.264.214.21.467.527.636.787-.14.184-.233.291-.36.414-.105.155-.158.74-.475 1.183.474-.206.658-.494.828-.778 1.495 1.128.28 4.011-.065 4.644-.329-.224-.749-.347-1.133-.416l-.04-.128-.352-1.137h.162c.188 0 .231-.125.201-.224l1.032.317.457.141-.28-.388-.48-.66.48-.662.28-.387-.457.141-.928.287c-.066-.21-.238-.313-.429-.339l.314-1.053.134-.45-.38.274-.662.481-.66-.48-.382-.275.134.45.313 1.053c-.189.026-.362.13-.429.34l-.929-.288-.455-.14.281.386.48.661-.48.661-.28.388.454-.14 1.037-.32c-.03.1.01.226.197.226h.162l-.35 1.137-.04.128c-.395.071-.827.2-1.158.433-1.009-1.954-.725-3.929.121-4.586-.015.414.35.977.52 1.097-.113-.43.081-1.195-.142-1.385-.156-.133-.393-.2-.644-.192.17-.282.406-.638.806-1.162.593-.282.763-.97.91-1.318-.644.236-1.116.57-1.22 1.11-.23.305-.48.658-.763 1.082.015-.512-.266-.689-.636-.719-1.088.23-1.008 1.014-1.939 1.555.635.222 1.635-1.177 1.975-1.023.053.858-.14 1.533-.14 2-.162-.178-.246-.303-.385-.327a.91.91 0 0 0-.748.282c-.068.434-.05 1.25-.458 2.228.607-.555.895-1.643.991-1.962.156.215.326.685.364 1.088.072.781.552 2.08.96 2.705a1.2 1.2 0 0 0-.107.735c-.317.235-.353.562-.243.784.118.238.428.4.795.253l.115-.048c.386-.159 1.103-.456 1.973-.456.87 0 1.587.297 1.972.456l.115.048c.367.147.677-.015.795-.253.112-.222.074-.549-.244-.784a1.17 1.17 0 0 0-.135-.785l.014.011c.744-1.056.792-3.079 1.406-3.657.051.71.431 1.295.8 1.376-.297-.489-.297-1.458-.275-1.9zm-9.904 18.157c-.066 0-.125-.022-.162-.104.131-.475.169-.725.141-.822-.111.038-.193.033-.245.006.13-.77.047-1.247-.037-1.546-.089-.318-.506-.762-.65-.84-.231-.122-.423-.256-.875-.307-.932-.784-1.187-.313-1.851-.393-.091-.116-.266-.281-.266-.281l-.297.207s.282.355.342.593c0 0 .607-.112 1.066.008-.178.584-.995 1.376-1.784 2.257-.843.94-.847 1.147-.829 1.887.022.874-1.185 2.184-2.109 2.799-.08.222-.184 2.16-.06 2.459.064.108.326.413.487.658.074.109.055.373.091.63a.539.539 0 0 1-.312-.047c-.057-.271-.281-.637-.688-.897.099-1.08.207-1.656-.17-2.728-.034-.096.473-.378.473-.378s.171-.792.63-1.177c-.326-.837-.371-1.97-.371-1.97s-.196.259-.522.468c.859-2.725 1.033-1.948 2.043-3.94.701-3.176-1.143-3.82-.869-4.921.644.606.977.415 1.503.266.473.398 1.161 1.296 1.805 1.517 1.037.355 1.03 1.325.866 1.776.43 0 .777.155.941.408.728 1.123 1.199.784 1.584 1.259.184.225 0 .858.222 1.42.145.37.207.813.207.94-.022.185-.266.534-.304.793m-3.349-.436c.396.494-.168 2.55-.374 2.922-.185.334.158.547.333.593.822.208 1.637.99 1.903 1.584l-.289.117c-.615-.835-.777-.562-.932-.405-.156-.274-.896-1.103-1.369-1.15-.436-.04-.43-.301-.401-.524a6.442 6.442 0 0 0-.014-1.443c-.059-.29-.312-.63-.493-.643.093-.223-.027-.926.574-1.223.445-.221.968.054 1.062.172m-4.515-9.18c-.119-.138-.179-.301-.24-.35.473-.294 1.058-.05 1.414-.39.229.127.563-.001.711-.023.491-.073 1.104.44 1.553.764.193.137.355.24.466.25-.125.386-.089.459.237.533-.013.113-.11.192-.48.15a5.862 5.862 0 0 0-1.03-.008c-1.119.58-1.484-.347-1.48-.925v-.01a.075.075 0 0 0-.015.01c-.649.363-.959.208-1.136 0m8.197 7.105c.097-.83-.035-.893-.273-1.09-.207-.17-.55-.22-.889-.457-.244-.17-.31-.414-.621-.741.074-.851.991-1.894 1.303-1.74l.007-.421c-.401-.132-1.11.25-1.718 1.688-.066-.073-.125-.104-.192-.148.046-.332-.064-.61-.272-.86.211-.14.834-.43 1.19-.688.397-.285.474-.406.963-.29 0 0 .088-.1.117-.22-.354-.46-.872-.326-1.226.09-.281.224-.917.653-1.355.803-.596-.503-1.524-.946-2.2-1.625 0 0 .895-.008 1.31-.178.11-.067.4-.526.281-.963a4.078 4.078 0 0 1-.537-.265 6.313 6.313 0 0 1-.593-.373c-.392-.295-.549-.554-1.224-.723.044-.31.112-.24.409-.436.378-.258.587-.565.739-.868.118-.236-.014-.723-.319-.103-.106.217-.399.51-.732.599a3.08 3.08 0 0 0 .038-.406c.983-.696.887-1.31.813-1.888-.042-.333-.377-.475-.364-.126.011.23.216.88-.458 1.266-.014-.29-.096-.423-.155-.57.6-.793.347-1.554.096-1.903-.161-.221-.557-.3-.378.052.149.289.386 1.074-.058 1.392-.156-.193-.334-.266-.393-.525.044-.858-.009-1.387-.118-1.69-.105-.287-.378-.465-.355-.043.025.477.066 1.08.022 1.118-.045.037-.681-.556-.941-.732-.261-.18-.569-.113-.266.245.267.31 1.081.909.978 1.102-.066.12-.648-.357-.948-.46-.303-.102-.398.055-.141.267.415.34.69.563 1.37.792.68.23 1.021 1.172.807 2.516-.011.062-.127.052-.193.03-.033-.512-.121-1.13-.245-1.397-.162-.357-.481-.364-.362.117a3.4 3.4 0 0 1 .081 1.302c-.561-.096-.777-.243-1.014-.386-.024-.258.11-.686.134-1.072.022-.378-.201-.614-.326-.14-.122.454-.2.673-.273.999-.164-.053-.335-.126-.412-.214-.038-.043-.003-.557-.04-.927-.043-.417-.201-.407-.326-.036a2.5 2.5 0 0 0-.119.666.77.77 0 0 1-.354-.532c.029-.437.102-.903.154-1.193.037-.207-.103-.627-.266-.118-.117.368-.147.673-.222.933-.142-.01-.334-.844-.429-1.378-.045-.241-.244-.518-.281.024-.041.592.08 1.19.229 1.457-.289-.03-.563-.547-.763-.852-.177-.27-.261.012-.244.12a1.802 1.802 0 0 0 1.399 1.51c.592.85 1.724 1.214 2.679 1.627-1.243-.014-1.569.489-2.139.163.027.466.259.686.483.794.16.075.316.096.391.11.104.569.644.54 1.104.569-.12 1.11.014 2.578.99 3.672a31.923 31.923 0 0 0-.059 1.793c-.799.739-1.51 2.293-1.792 3.152-.21.642-.525 1.14-1.013 1.376.4.423.991.215 1.332-.021.023.377.111.643.17.866-.229.339-.384.577-.362.993a1.11 1.11 0 0 0-.577.404c-.089.112.015.625.11.839.32.712.071 2.324.015 2.797.134.007.378.014.43-.184.078.073.274.215.363.524-.023.134-.096.625.155.689.208.053 1.103.022 1.221-.133a2.478 2.478 0 0 1-.341-.576c0-.247-.022-.54-.088-.668-.104-.177-.364-.593-.525-.755-.038-.296-.067-1.606.073-2.11.23-.162 1.807-1.332 2.132-2.45.288.098.2.879.2 1.889 0 .273.332.413.528.436.427.052 1.034.46 1.714 1.465.134-.141.305-.274.305-.274.088.12.192.409.251.594.074.14.622.22 1.044.094.139-.047.221-.073.311-.22-.533-.932-.855-1.551-1.54-2.066-.317-.24-.741-.354-1.096-.585.237-.444.889-2.532.496-3.294-.133-.252-.629-.503-1.232-.392.503-.606 1.529-1.807 1.662-2.176.118.14.725.044 1.175.218.164.066.623.663.646.87.039.367.058.806-.197 1.814.178-.03.153-.04.33-.112.03.274-.052.48-.289.888.06.363.221.925.393 1.028.229-.68 1.073-1.642 1.05-2.212-.028-.762-.387-1.413-.348-1.747" fill="#FEFEFE"/><path d="M21.285 12.576c.214-.023.319-.133.51-.059-.022-.065-.131-.065-.155-.119a1.146 1.146 0 0 0-.007-.058c-.025-.203-.09-.368-.415-.415-.081.171-.37.296-.533.391a.479.479 0 0 1 .122.024c.208.07.18.268.478.236m16.558 1.825H26.44v4.21a.816.816 0 0 1 .225.19c.184.227 0 .859.222 1.422.01.026.017.053.026.079h5.165v8.233a9.55 9.55 0 0 1-2.978-1.931c-1.398-1.354-2.14-3.007-2.223-4.914-.04.092-.075.183-.087.266-.066 0-.125-.022-.162-.104.13-.475.17-.725.14-.823-.11.039-.192.034-.244.007.13-.77.047-1.247-.037-1.546-.008-.032-.032-.067-.047-.1v1.944c0 2.176.797 4.05 2.369 5.573a9.907 9.907 0 0 0 3.366 2.114l.07.026.072-.026a9.898 9.898 0 0 0 3.366-2.114c1.574-1.522 2.369-3.397 2.369-5.573v-.354c-.133.213-.274.35-.42.372-.005 2.05-.757 3.819-2.24 5.252a9.56 9.56 0 0 1-2.978 1.93v-8.232h5.22v.76c.53-.68.29-2.45 0-2.654v1.558H26.86v-5.144H37.635v3.555c.146-.103.296-.005.418.226V14.4h-.21z" fill="#FEFEFE"/><g transform="translate(0 33.92)"><mask id="b" fill="#fff"><use xlink:href="#a"/></mask><path d="M2.6 2.061a.775.775 0 0 0-.753-.544.747.747 0 0 0-.667.377c-.148.277-.216.654-.216 1.173 0 .741.123 1.204.383 1.39a.857.857 0 0 0 .512.148c.599 0 .852-.457.852-1.55 0-.438-.037-.754-.111-.994zm1.328 3.865S3.804 6 3.545 6c-.334 0-.63-.198-.791-.302a3.706 3.706 0 0 0-.87-.433c-.642 0-1.062-.179-1.39-.604C.168 4.241 0 3.697 0 3.067c0-.926.352-1.674.97-2.007.253-.136.568-.21.889-.21 1.142 0 1.846.834 1.846 2.18 0 .932-.333 1.631-.845 1.97.117.042.283.155.382.216.154.092.339.179.53.179.186 0 .384-.031.384-.031l-.228.562z" fill="#FEFEFE" mask="url(#b)"/></g><path d="M6.51 39.205a.735.735 0 0 1-.246-.31c-.204.198-.5.303-.834.303-.444 0-.827-.21-.932-.513-.05-.141-.068-.308-.068-.63V36.03l.815-.153v2.03c0 .284.025.433.068.52.044.086.167.148.29.148.204 0 .45-.148.513-.304v-2.222l.79-.166v2.414c0 .209.068.426.19.574l-.585.334zm3.016-2.051c0-.234-.024-.357-.1-.476-.08-.123-.196-.185-.363-.185-.315 0-.494.248-.494.685v.013h.957v-.037zm-.97.643v.024c0 .487.24.766.668.766.283 0 .549-.105.802-.316l.32.494c-.363.297-.746.44-1.19.44-.908 0-1.495-.643-1.495-1.637 0-.568.117-.945.395-1.254.26-.29.575-.426.994-.426.365 0 .71.123.914.333.29.297.42.723.42 1.384v.192H8.556zm4.17-.643c0-.234-.024-.357-.099-.476-.08-.123-.197-.185-.364-.185-.315 0-.494.248-.494.685v.013h.957v-.037zm-.969.643v.024c0 .487.24.766.667.766.284 0 .55-.105.802-.316l.321.494c-.364.297-.746.44-1.19.44-.909 0-1.496-.643-1.496-1.637 0-.568.118-.945.396-1.254.26-.29.574-.426.994-.426.364 0 .71.123.914.333.29.297.42.723.42 1.384v.192h-1.828zm4.17 1.32v-2.055c0-.358-.063-.464-.279-.464-.166 0-.383.112-.574.285v2.235h-.828v-2.291c0-.272-.036-.531-.11-.741l.734-.21a.794.794 0 0 1 .118.395c.123-.087.228-.16.364-.235.166-.086.383-.136.568-.136.352 0 .661.186.76.457.043.118.061.254.061.45v2.31h-.815zm2.694.1c-.39 0-.815-.125-1.278-.365l.296-.605c.253.154.692.358 1.05.358.235 0 .42-.155.42-.358 0-.217-.155-.328-.488-.389l-.37-.068c-.21-.037-.47-.185-.581-.32-.111-.137-.18-.365-.18-.569 0-.618.489-1.032 1.224-1.032.506 0 .84.155 1.13.296l-.272.556c-.315-.16-.543-.229-.778-.229-.241 0-.402.124-.402.31 0 .16.105.246.396.32l.382.1c.389.098.519.216.63.357a.84.84 0 0 1 .174.538c0 .655-.544 1.1-1.353 1.1m2.822-.026c-.352 0-.636-.166-.735-.432-.06-.161-.074-.26-.074-.71v-2.36c0-.412-.012-.665-.043-.95l.846-.192c.031.173.043.378.043.822v2.465c0 .543.006.617.056.703.031.055.098.087.166.087.032 0 .05 0 .093-.012l.142.493a1.372 1.372 0 0 1-.494.086m2.41-1.457c-.576 0-.773.105-.773.482 0 .247.154.414.364.414a.6.6 0 0 0 .432-.216l.013-.68h-.037zm.703 1.544c-.192-.08-.365-.223-.445-.383-.062.062-.13.124-.19.167-.156.11-.378.173-.637.173-.704 0-1.087-.358-1.087-.987 0-.743.512-1.087 1.52-1.087.06 0 .116 0 .184.006v-.13c0-.353-.068-.47-.37-.47-.266 0-.575.13-.914.358l-.352-.592c.166-.106.29-.167.512-.26a2.14 2.14 0 0 1 .865-.185c.531 0 .895.198 1.02.55.042.13.06.229.054.567l-.018 1.063c-.007.346.018.494.296.704l-.438.506zm2.774-.16v-2.056c0-.358-.061-.464-.278-.464-.166 0-.383.112-.574.285v2.235h-.827v-2.291c0-.272-.037-.531-.112-.741l.735-.21a.794.794 0 0 1 .118.395c.124-.087.228-.16.364-.235.167-.086.383-.136.568-.136.352 0 .66.186.76.457.043.118.06.254.06.45v2.31h-.814zm3.472-2.328c-.154-.136-.302-.204-.451-.204-.37 0-.53.308-.53 1.013 0 .678.142.9.574.9a.593.593 0 0 0 .407-.202V36.79zm.186 2.328a.554.554 0 0 1-.05-.185 1.062 1.062 0 0 1-.73.265c-.801 0-1.308-.623-1.308-1.605 0-.988.55-1.667 1.353-1.667.228 0 .407.055.56.178a3.955 3.955 0 0 1-.023-.47v-1.086l.82.13v3.285c0 .778.063 1.03.119 1.155h-.741zm4.825.067c-.532 0-.983-.186-1.303-.53-.358-.39-.524-.914-.524-1.643 0-.808.215-1.384.654-1.779.303-.272.666-.4 1.105-.4.45 0 .84.141 1.16.42l-.227.314c-.346-.235-.593-.327-.92-.327-.495 0-.884.228-1.056.716a3.218 3.218 0 0 0-.167 1.075c0 .555.105 1.006.296 1.284.191.277.623.45 1.025.45.267 0 .494-.055.673-.167v-1.29h-.853l-.098-.42h1.426v1.976c-.302.198-.76.321-1.191.321m3.985-2.444a.713.713 0 0 0-.655-.396c-.271 0-.525.13-.63.334-.098.19-.148.438-.148.802 0 .433.075.816.192 1.007.11.185.358.309.623.309.322 0 .562-.167.667-.463.068-.192.093-.364.093-.667 0-.433-.043-.723-.142-.926m-.63 2.457c-.846 0-1.328-.623-1.328-1.636 0-1.001.5-1.612 1.31-1.612.512 0 .846.234 1.055.537.192.278.284.643.284 1.143 0 1.025-.55 1.568-1.321 1.568m3.243-.05h-.476l-1.105-3.081.494-.105.717 2.118c.086.254.147.525.147.525h.014s.048-.241.147-.518l.704-2.044h.513l-1.155 3.106zm3.379-2.537c-.105-.167-.321-.271-.556-.271-.438 0-.685.32-.71.957h1.409c-.007-.334-.05-.54-.143-.686zm-1.266 1.05v.073c0 .29.037.514.142.673.173.266.457.377.767.377.295 0 .536-.092.753-.29l.184.308a1.534 1.534 0 0 1-1.037.383c-.852 0-1.364-.617-1.364-1.637 0-.517.11-.851.37-1.16.247-.29.55-.425.92-.425.334 0 .624.117.834.333.265.272.35.56.35 1.296v.069h-1.92zm4.096-1.156a.4.4 0 0 0-.136-.024.73.73 0 0 0-.512.222c-.142.142-.18.235-.18.488v1.926h-.482v-2.37c0-.452-.104-.656-.104-.656l.48-.129s.119.241.1.5c.223-.314.55-.513.865-.513.08 0 .166.032.166.032l-.197.524zm2.403 2.613v-2.081c0-.327-.025-.408-.112-.513-.068-.08-.198-.13-.339-.13-.248 0-.63.198-.853.433v2.29h-.468v-2.37c0-.44-.119-.65-.119-.65l.47-.128s.111.228.111.48c.322-.32.642-.474.969-.474.334 0 .63.179.754.45.05.112.073.235.073.359v2.334h-.486zm4.64 0v-2.272c0-.297-.137-.452-.396-.452-.278 0-.495.18-.815.476v2.248h-.488v-2.186c0-.185-.02-.31-.086-.395-.074-.087-.173-.124-.315-.124-.235 0-.463.117-.785.407v2.298h-.463v-2.384c0-.444-.111-.654-.111-.654l.47-.111s.11.24.11.457c.204-.23.58-.463.896-.463.302 0 .606.185.716.512.297-.315.674-.512.989-.512.457 0 .77.345.77.834v2.32h-.492zm3.09-2.507c-.105-.167-.322-.271-.556-.271-.44 0-.686.32-.712.957h1.41c-.007-.334-.05-.54-.143-.686zm-1.267 1.05v.073c0 .29.038.514.142.673.173.266.456.377.767.377.295 0 .536-.092.753-.29l.184.308a1.534 1.534 0 0 1-1.037.383c-.852 0-1.364-.617-1.364-1.637 0-.517.11-.851.37-1.16.247-.29.55-.425.92-.425.335 0 .623.117.835.333.264.272.35.56.35 1.296v.069h-1.92zm4.56 1.457v-2.081c0-.327-.026-.408-.113-.513-.068-.08-.198-.13-.339-.13-.247 0-.63.198-.853.433v2.29h-.468v-2.37c0-.44-.119-.65-.119-.65l.47-.128s.111.228.111.48c.322-.32.642-.474.97-.474.333 0 .63.179.753.45.05.112.074.235.074.359v2.334h-.487zm2.718-2.711h-.643v1.982c0 .339.093.457.396.457a.618.618 0 0 0 .303-.062l.068.309a1.135 1.135 0 0 1-.544.124.896.896 0 0 1-.4-.087c-.218-.105-.298-.303-.298-.611v-2.112h-.402v-.364h.402c0-.296.05-.78.05-.78l.506-.11s-.062.482-.062.89h.771l-.147.364z" fill="#FEFEFE"/></g></svg>