<?xml version="1.0" encoding="UTF-8"?>
<svg width="24px" height="24px" viewBox="0 0 24 24" version="1.1" xmlns="http://www.w3.org/2000/svg" xmlns:xlink="http://www.w3.org/1999/xlink">
    <title>external-link-alt-solid</title>
    <g id="MVE-AUG-Sundry" stroke="none" stroke-width="1" fill="none" fill-rule="evenodd">
        <g id="external-link-alt-solid" fill="#0273EC" fill-rule="nonzero">
            <path d="M20.25,15 L18.75,15 C18.3357864,15 18,15.3357864 18,15.75 L18,21 L3,21 L3,6 L9.75,6 C10.1642136,6 10.5,5.66421356 10.5,5.25 L10.5,3.75 C10.5,3.33578644 10.1642136,3 9.75,3 L2.25,3 C1.00735931,3 0,4.00735931 0,5.25 L0,21.75 C0,22.9926407 1.00735931,24 2.25,24 L18.75,24 C19.9926407,24 21,22.9926407 21,21.75 L21,15.75 C21,15.3357864 20.6642136,15 20.25,15 Z M22.875,0 L16.875,0 C15.8732812,0 15.3726562,1.21453125 16.078125,1.921875 L17.7529688,3.59671875 L6.328125,15.0173438 C6.11630117,15.2284334 5.99723786,15.5151733 5.99723786,15.8142188 C5.99723786,16.1132642 6.11630117,16.4000041 6.328125,16.6110938 L7.39078125,17.671875 C7.60187086,17.8836988 7.88861084,18.0027621 8.18765625,18.0027621 C8.48670166,18.0027621 8.77344164,17.8836988 8.98453125,17.671875 L20.40375,6.249375 L22.078125,7.921875 C22.78125,8.625 24,8.1328125 24,7.125 L24,1.125 C24,0.503679656 23.4963203,0 22.875,0 Z" id="Shape"></path>
        </g>
    </g>
</svg>