<svg id="Layer_1" xmlns="http://www.w3.org/2000/svg" viewBox="0 0 358.17 61.96"><style>.st0{fill:#fff}</style><path class="st0" d="M66.21 23.49c-.22.06-.74.21-1.08.25.65-.63 1.04-1.41 1.04-2.05-.31.1-.87.31-1.38.42 1.01-.86 1.56-1.85 1.32-3.18-.31.16-.74.41-1.18.59.88-1.36.87-2.56.51-3.26-.39.37-.87.8-1.38 1.11.32-1.57.31-2.58-.35-3.29-.67 1.26-1.25 2.21-2.19 3.33.07-1.04-.04-2.33-.72-3.01 0 0-.19 1.45-.7 1.91-.12-1.42-.56-2.19-1.21-2.95 0 0-.04 1.48-.44 2.39-.34-1.23-.98-2.19-1.79-3.11.06 2.73-.7 7.87-2.89 11.32-.26 2.05-.48 5.13-3.82 6.95-.48-.34-1.33-.77-2.52-.7-.31-1.55 1.71-2.95 3.45-4.08 1.76-1.14 2.53-2.11 2.49-3.62-.04-1.66-1.17-2.34-2.33-2.39-1.64-.07-2.98 1.42-3.29 2.03-.47.23-1.88.66-2.46.82-.64.17-1.36.43-1.81.82.27.17 1.04.23 1.34.18.56-.08 2.33-.41 4.03-.61.62.33 1.62.89.56 1.63-1.44.93-2.06 1.16-4.1 2.23-3.22 1.69-2.18 5.93-1.39 6.24 0 1.43 1.28 4.02 2.15 4.92.39 1.8-.13 4.48-.67 5.59-.45-1.09-1.22-3.62-1.73-5.1.52-2.79-.32-4.02-.91-4.5-.59-.48-1.52-.35-2.12.62.93-.1 1.24 1.09 1.22 2.32-.02 1.48-.4 2.66-1.43 2.67.08 1.26 1.44 1.62 2.12 1.01.11.28.66 1.94 1.17 3.42.31.88.6 1.68.8 2.1.21.47 1.78.54 1.97 0 .25-.72.44-1.26.83-2.1.3-.64.71-1.45 1.34-2.66.42.73.98 1.88 1.31 2.66.15.36.26.65.27.78.13 1.2.06 5.48-.27 8.04-3.51-.96-4.51.76-4.2 2.03.5-.56 1.16-.49 1.57-.19-.1.94.15 1.61 1.11 1.9 1.01-2.67 4.63-2.08 4.97-1.85.02-.52.5-1.81-1.36-2.08.07-2.3.31-5.13.39-5.72.09-.59.15-.96-.13-1.88-.08-.28-.18-.62-.29-1.02-.24-.93-.49-2.15-.51-3.47.33.32 1.1.58 1.63.46.41 1.74 1 1.24 1.31 1.97.16.38.19.73.24 1.04.04.31.09.57.26.8 1.24.04 2.3-.26 3.06-.8.23-.16.44-.35.61-.55-.31-1.85-.83-2.77-1.8-3.89-.25-1.52-.96-2.91-1.94-4.14 1.23-.4 2.47-1.4 3.12-2.09.59-.04 1.26-.53 1.31-1.49.34-.04.63-.06.9-.11-.03-.26-.1-.66-.14-.9.45 0 .88-.02 1.3-.06-.12-.35-.28-.71-.41-.98.45 0 1.01-.03 1.46-.06-.24-.45-.42-.84-.56-1.24.52-.05 1.32-.18 1.98-.34-.21-.22-.45-.45-.81-.8 1.71-.5 2.46-1.7 2.54-2.22-.25 0-.77.11-1.08.09.96-.56 1.6-1.33 1.71-2.15"/><path class="st0" d="M42.25 27.33H20.61v7.99c.1.06.19.13.29.22v-7.87h21.53v7.32c.08.08.15.18.22.31v-7.97h-.4M31.6 54.88c-9.55-3.56-10.76-11.39-10.8-14.94l-.03-.01.03-.26c0-.77.06-1.29.09-1.48-.03-.51-.1-.91-.19-1.2l-.09-.19v3.69c0 4.13 1.51 7.69 4.5 10.58 2.61 2.53 5.55 3.71 6.39 4.01l.13.05.14-.05c.84-.3 3.78-1.48 6.39-4.01 2.98-2.89 4.5-6.45 4.5-10.58v-.67c-.08.12-.15.2-.23.29-.09 1.85-.43 4.73-1.66 6.9-1.49 3.03-3.76 5.53-9.17 7.87M14.45 5.73c1.36.66 1.8-.56 4.34 1.08-1.68.53-2.98 2.62-4.88 2.08 1.36-.68 1.22-1.67 2.01-2.17-.5-.06-1.49-.29-1.47-.99zm4.89 13.53c-.81-.33-2.07-.55-2.77.44-.38-.66.18-1.66.54-1.95-1.79.03-2.8-.51-3.06-1.06.66-.36 2.33-.97 3.69.03.94.69 1.42 1.02 2.53 1.39.4-.4.25-.22.38-.34-.91-.63-1.32-5.49-3.11-5.68.26-.61 1.18-.56 1.93-.36.05-1.09-.4-2.88-1.07-3.92 1.04-.55 1.75.05 2.12 1.34.38 1.37-.07 4.8.83 7.9l.56-.52c-.28-1.8 1.7-2.47 2.13-3.36.17 1.21-.08 1.75-.42 2.19.72.08 1.04.79.93 1.28-1.73-.25-2.73 1.48-2.34 2.85-1.29.27-2.17.06-2.87-.23zm8.44 1c-1.49.08-2.95 2.02-2.33 4.23-.22.08-.87.07-1.08-.38-.16.72-1.62 1.54-2.68 1.43.59-.63.99-2.07 2.13-2.82 1.15-.76 1.67-1.28 2.08-2.57-.53.25-3.32.97-4.1.11 1.83-.27 3.99-1.3 5.06-1.97l-.42-.45c-1.15.65-2.68 1.18-3.46 1.42-.28-2.29 1.9-2.2 2.07-1.58.9-1.07.27-2.6-.4-2.77.68-1.83 0-2.95-.58-3.62-.14 1.94-2.3 2.25-2.56 3.74-.08-1.18-.16-4.38-.25-5.93-.17-2.89-3.82-3.91-4.38-3.91-2.39.11-2.61-.2-2.55-1.3-1.21 1.38-.8 2.6.23 3.19-.14.83-1.47 1.47-2.28 1.65 1.94 1.8 4.19.73 5.27-.29l.23-.21c.39.69.67 1.94.67 2.65-1.81-.1-2.14 1.31-2.14 1.81 2.3-.96 2.56 3.46 3.16 4.17-.59-.04-1.63-1.41-3.16-1.5-1.85-.12-2.5.87-3.25.83.14 1.31 1.73 2.04 2.75 2.19-.52 1.33-.06 2.24 1.02 2.57 0-1.22 1.54-1.6 3.2-.63 1.99 1.16 3.01 1.26 4.61.77-.26.58-.98.64-1.87 1.5-1.24 1.22-1.28 2.81-2.66 3.39 1.62.77 4.06-.31 4.41-.93.68.42 1.55.17 1.78-.25-1.1-2.43.76-3.88 1.49-3.85.02.01.34-.72-.01-.69M44.6 7.05c.82-.59 1.33-.84 1.76-1.1.7.03 1.91-.06 2.64-.42-.76.93-.84 1.27-2.08 1.4 1.6.14 2.28 1.58 3.07 1.8-2.68.82-2.95-1.84-5.39-1.68zm3.3 8c.8.66.54 1.59.35 1.8-.7-1.21-2.95-.79-5.16 1.7-.15.19-.36.4-.61.62.17-2.98-2.26-3.03-2.98-2.73.08-.86.61-1.45.9-1.53-.72-.83-.87-1.88-.96-2.64 1.19.52 2.96 1.91 3.26 4.32l.77-.52c-.23-4.2-.18-4.18-.21-7.04 0-.4.02-1.33 1.28-1.23.05 1.06.22 3.88.16 7.79h.45c.41-1.09 1.85-2.38 3.54-2.26 1.15.08 1.55.05 2.21-.24-.53 1.29-2.49 1.87-3 1.96zm-2.43-1.47c0-2.71-.1-4.94-.13-5.64l.33.1c1.94.68 2.39 3.02 6.4.37-2.15.25-2.26-1.57-3.24-1.61 1.49-.84 1.59-2.78 1.59-2.78-1.25 1.01-4.14 1.07-4.71 1.4-.75.45-1.69 1-2.33 1.35-1.67.91-.51 5.86-.67 7.67-.9-2.7-2.72-2.29-3.68-3.83-.72 1.29.04 3.45.34 4.07-1.04.84-.76 2.4-.51 2.82.89-.64 2.26-.47 2.68.59-1.17.71-3.12.84-4.45-.45l-.48.53c.94 1.24 3.3 1.73 5.05.72-.01.28-.07.6-.19.95-.91.48-2.09.74-3.43.28.18 1.36 1.74 2.37 3.23 2.78-.5.39-1.12.55-1.57.49.28.78.44 1.84-.15 2.67-.74-.49-1.14-.98-1.42-2.89-.29-1.91-1.66-3.85-2.73-4.25-.06.68-.06.38.06.82 2.84 2.08 1.23 5.83 4.18 7.18 1.08-1.23 1.1-1.67.93-2.83 1.07-.28 1.86-1.18 2.15-1.87-1.01.48-2.61-.36-3.06-1.02 1.76-.06 3.38-1.38 5.04-3.12 1.49-1.56 3.47-1.32 3.32-.1 1.03-.15 1.43-1.56 1.09-2.46 1.51-.47 2.69-1.59 2.85-3.33-2.02 1.01-4.58-.66-6.49 1.39m-10.93 9.23c-.14 0-.26.07-.34.17l-.48-.07.01-.87c.16-.07.26-.22.26-.4 0-.24-.19-.44-.43-.44s-.43.2-.43.44c0 .17.09.31.22.38l-.01.84-.46-.04a.414.414 0 0 0-.39-.26c-.24 0-.43.19-.43.43s.19.43.43.43c.15 0 .29-.08.36-.2l.49.05-.01 1.27c-.14.07-.23.22-.23.38 0 .24.19.44.43.44s.44-.2.44-.44c0-.17-.11-.33-.26-.39l.01-1.21.41.06c.06.17.22.29.41.29.24 0 .44-.19.44-.43a.449.449 0 0 0-.44-.43m-3.77-.25c-.18 0-.33.1-.4.26l-.45.04-.01-.84c.13-.07.23-.22.23-.38 0-.24-.2-.44-.43-.44-.24 0-.44.2-.44.44 0 .18.11.33.26.4l.01.87-.48.07a.43.43 0 0 0-.77.27.433.433 0 1 0 .84.14l.41-.06.01 1.21a.435.435 0 0 0 .18.83c.24 0 .44-.2.44-.44 0-.17-.1-.31-.24-.38l-.01-1.27.48-.05a.442.442 0 0 0 .81-.23c0-.24-.2-.44-.44-.44"/><path class="st0" d="M31.63 26.24c-.65 1.24-1.85 1.2-2.9.51-.42-.28-.85-.46-1.25-.52.18-1.22.48-3.51.7-5.45 1.36-.61 3.03-.76 3.45.81.41-1.57 2.09-1.42 3.44-.81.22 1.94.52 4.23.7 5.45-.39.06-.83.25-1.25.52-1.04.69-2.25.73-2.89-.51zm4.91.04c-.26-1.75-.89-6.65-.97-8.29l-.75.03c.01.28.04.65.08 1.08-.9-.27-2.07-.45-3.27-.45-1.2 0-2.38.18-3.27.45.04-.43.07-.8.08-1.08l-.75-.03c-.07 1.64-.7 6.54-.97 8.29-.45.17-.74.62-.74 1.42 0 0 4.07.06 5.65.06s5.64-.06 5.64-.06c.01-.8-.29-1.24-.73-1.42m17.07 34.97H9.65c-.2-1.4-.46-2.3-.7-3.05H54.3c-.23.75-.5 1.65-.69 3.05zm-29.79-9.41c.41.6.79 1.04.98 1.52.19.5.07.81-.3 1.32-.83 1.17-2.28 2.17-3.42 2.79h-4.4c2.76-.78 6.5-3.15 7.14-5.63zm-2.67-.82c.36-.67 1.23-.88 1.83-.09.25.34.14 1.24-.9 2.37-.76-.68-1.32-1.56-.93-2.28zm17.56 3.66c-.37-.52-.49-.82-.3-1.32.19-.48.57-.92.98-1.52.64 2.48 4.38 4.85 7.15 5.64h-4.41c-1.14-.63-2.58-1.63-3.42-2.8zm1.52-3.74c.6-.79 1.47-.58 1.83.09.38.71-.17 1.59-.93 2.28-1.04-1.13-1.15-2.03-.9-2.37zm14.25 6.31c-.47.14-1.04.22-1.9.22h-1.06c-3.65-.07-7.42-1.16-9.72-3.52 3.18-3.21-.56-5.85-2.58-3.13-.63.85-1.13 1.46-1.57 2.28-.35.67-.09 1.33.7 2.36.43.56 1.51 1.44 2.39 2.01H22.47c.88-.57 1.95-1.44 2.39-2.01.78-1.02 1.06-1.69.7-2.36-.44-.83-.95-1.43-1.58-2.28-2.02-2.72-5.76-.08-2.58 3.13-2.3 2.36-6.06 3.45-9.72 3.52h-1.01c-.86 0-1.43-.09-1.9-.22-.76-.18-.93.14-.52 1.45.28.87.5 2.29.6 3.26H54.4c.1-.98.32-2.4.6-3.26.4-1.31.24-1.63-.52-1.45"/><path class="st0" d="M14.91 60.12l-.01-.02.33-.87.02-.02.01.02.32.87-.01.02h-.66zm.7.13l.03.02.12.32-.02.06-.04.02.08.02h.49l.12-.02-.03-.02-.11-.01c-.06-.02-.13-.05-.23-.28-.17-.4-.59-1.46-.64-1.6l-.07-.08-.07.11-.65 1.63c-.05.13-.1.22-.22.23h-.09l-.03.02.05.02H14.89l.04-.02-.04-.02h-.04c-.08 0-.1-.03-.1-.08l.04-.15.05-.15.02-.02h.75m1.3-.38c0 .38.1.57.23.69.19.17.44.18.58.18.17 0 .36-.02.54-.19.22-.18.25-.49.25-.78V58.94c.01-.09.02-.14.09-.15l.08-.01.05-.02-.05-.02h-.59l-.06.02.05.02.09.01c.09.02.11.06.11.15V59.82c0 .27-.01.5-.15.65a.538.538 0 0 1-.69.03c-.13-.11-.2-.26-.2-.64v-.92c.01-.09.03-.14.1-.15l.08-.01.04-.02-.06-.02h-.7l-.06.02.05.02.1.01c.09.02.11.06.11.15l.01.55v.38m3.03-.43v-.52l.03-.05.17-.02c.21 0 .5.03.74.26.11.11.25.32.25.65 0 .27-.05.51-.22.65-.16.13-.33.19-.6.19-.21 0-.31-.06-.34-.1l-.03-.2V59.44zm-.33.5c0 .24 0 .45-.01.56-.01.08-.02.13-.07.15l-.09.01-.04.02.05.02h.33l.56.03c.48 0 .75-.18.87-.31.15-.15.28-.4.28-.72 0-.31-.12-.53-.25-.66-.28-.29-.72-.29-1.04-.29h-.78l-.06.02.04.02.11.01c.08.02.1.06.11.15l.01.55-.02.44m2.88.18l-.01-.02.32-.87.01-.02.01.02.32.87-.01.02h-.64zm.7.13l.02.02.12.32-.03.06-.04.02.08.02h.49l.12-.02-.04-.02-.11-.01c-.06-.02-.13-.05-.22-.28-.17-.4-.59-1.46-.65-1.6l-.06-.08-.07.11-.66 1.63c-.05.13-.1.22-.22.23h-.08l-.03.02.05.02H22.44l.04-.02-.04-.02h-.04c-.08 0-.1-.03-.1-.08l.04-.15.06-.15.03-.02h.76M25.74 59c.08-.12.13-.19.19-.21l.09-.01.04-.02-.05-.02h-.52l-.05.02.03.02.09.01.04.04-.03.1-.36.55-.33-.58-.03-.07.03-.04.07-.01.04-.02-.05-.02h-.68l-.05.02.02.03.11.02c.09.03.15.09.21.19l.45.74-.5.71c-.09.13-.14.18-.21.2l-.1.01-.04.02.04.02H24.76l.05-.02-.03-.02h-.06l-.05-.04.04-.11.39-.62.41.71-.01.06-.04.03.09.03h.54l.05-.02-.03-.02-.1-.01a.24.24 0 0 1-.15-.11c-.06-.08-.49-.79-.57-.91l.45-.65m3.55 1.12l-.01-.02.32-.87.02-.02.01.02.33.87-.01.02h-.66zm.7.13l.02.02.12.32-.02.06-.04.02.08.02h.49l.12-.02-.03-.02-.11-.01c-.05-.02-.13-.05-.23-.28-.17-.4-.58-1.46-.64-1.6l-.07-.08-.07.11-.65 1.63c-.05.13-.1.22-.22.23h-.08l-.03.02.05.02H29.26l.04-.02-.04-.02h-.04c-.08 0-.1-.03-.1-.08l.04-.15.05-.15.02-.02h.76m1.6-.31c0 .24 0 .45-.01.56-.01.08-.02.13-.07.15l-.09.01-.04.02.05.02h.74l.04-.02-.04-.02-.13-.01c-.08-.01-.1-.07-.1-.14-.01-.11-.01-.32-.01-.56v-1.06l.33.01c.23.01.3.08.31.15v.03l.03.05.02-.04.01-.3-.02-.05-.25.02h-1.03l-.26-.01-.11-.03-.03.05-.05.3.02.04.03-.03.04-.1c.04-.06.1-.07.25-.07l.39-.01-.02 1.04m4.53-.2l.02-.02.38.01c.08.01.12.06.13.09l.01.08.02.03.02-.05.01-.19.02-.16-.02-.02-.03.03-.12.04h-.44l-.02-.03v-.65l.03-.04.4.01c.1 0 .15.04.17.08l.01.1.03.04.03-.03.01-.21.02-.12-.02-.02-.04.02-.11.01h-1.06l-.06.02.04.02.1.01c.08.02.1.06.11.15l.01.55v.46c0 .25 0 .45-.01.56-.01.08-.02.13-.08.15l-.09.01-.04.02.06.02h.73l.06-.02-.04-.02-.13-.01c-.08-.01-.1-.07-.1-.15-.01-.11-.01-.3-.01-.56v-.21m1.67.2l-.01.57c-.01.07-.03.12-.08.13l-.09.01-.04.02.05.02h.74l.05-.02-.04-.02-.14-.01c-.08-.01-.1-.06-.1-.13l-.01-.57v-1.01c.01-.09.02-.14.1-.15l.08-.01.04-.03-.06-.02h-.65l-.06.02.04.03.09.01c.06.02.08.06.09.15v1.01m1.88-.5v-.52l.04-.05.17-.02c.21 0 .5.03.74.26.11.11.25.32.25.65 0 .27-.05.51-.22.65-.16.13-.33.19-.6.19-.21 0-.31-.06-.34-.1l-.03-.2-.01-.53v-.33zm-.32.5c0 .24 0 .45-.02.56-.01.08-.02.13-.07.15l-.1.01-.04.02.06.02h.33l.55.03c.48 0 .75-.18.87-.31.15-.15.29-.4.29-.72 0-.31-.12-.53-.26-.66-.28-.29-.72-.29-1.04-.29h-.78l-.06.02.05.02.1.01c.08.02.1.06.11.15l.01.55v.44m2.78 0l-.01.56c-.01.08-.02.13-.08.15l-.1.01-.04.02.05.02h.33l.72.01c.1 0 .12 0 .14-.07l.04-.29-.02-.05-.03.04c-.02.1-.05.16-.12.19-.07.03-.17.03-.24.03-.26 0-.31-.04-.31-.22v-.61l.02-.03.37.01c.1.01.13.05.15.1v.11l.02.02.02-.05.01-.17.02-.19-.02-.02-.04.03-.13.04-.42.01-.02-.03v-.66l.02-.02.37.01c.13.01.16.04.17.09l.02.09.02.04.02-.03.01-.17.02-.17-.02-.02-.04.01-.11.02H41.9l-.06.02.04.02.1.01c.09.02.11.06.11.15v.55l.04.44m2.35-.45v-.55c.01-.09.03-.14.1-.15l.1-.01.04-.02-.05-.02h-.7l-.05.02.04.02.09.01c.08.02.1.06.11.15l.01.55v.46c0 .24 0 .45-.01.56-.01.08-.02.13-.08.15l-.09.01-.04.02.05.02h.33l.76.01c.13 0 .15-.01.16-.07l.04-.3-.02-.04-.03.04-.07.16c-.06.07-.17.07-.31.07-.2 0-.27-.02-.31-.06-.05-.05-.05-.23-.05-.56l-.02-.47m1.62.45l-.01.57c-.01.07-.03.12-.08.13l-.1.01-.04.02.05.02h.74l.05-.02-.05-.02-.13-.01c-.08-.01-.1-.06-.1-.13-.01-.11-.01-.32-.01-.57v-.46l.01-.55c.01-.09.03-.14.1-.15l.08-.01.04-.03-.05-.02h-.66l-.06.02.04.03.1.01c.06.02.08.06.09.15v1.01m1.78.8c.14 0 .29-.02.42-.11.19-.12.24-.3.24-.45 0-.24-.12-.42-.43-.66l-.07-.06c-.21-.16-.27-.25-.27-.37 0-.16.12-.27.31-.27.17 0 .24.08.28.13.06.07.07.15.07.17l.03.04.03-.08.01-.31-.04-.03c-.07-.02-.18-.04-.35-.04-.36 0-.6.21-.6.49 0 .21.1.4.38.62l.12.09c.22.17.25.29.25.42s-.11.29-.35.29c-.16 0-.31-.07-.37-.26l-.03-.13-.02-.05-.03.07-.01.34.05.09c.11.05.23.07.38.07M31.63 15.27c-1.36 0-2.9.32-4.08.84.02-.26.11-.49.28-.69.69-.83 2.48-1.12 3.8-1.12 1.33 0 3.12.3 3.8 1.12.17.2.26.43.28.69-1.18-.52-2.7-.84-4.08-.84zm2.32 1.92l-.42-.97c.64.12 1.26.31 1.79.54l.25 1c-.4-.16-.95-.39-1.62-.57zm-3.99-.15l-.72-.71c.59-.15 1.22-.25 1.83-.29l.43.84c-.56.01-1.07.07-1.54.16zm-2.36.76l-.21.09c-.29.11-.49.02-.56-.12-.08-.15-.03-.4.33-.62l.15-.08.69.56-.4.17zm4.03-5.12l.98.71c-.42-.04-.77-.05-.98-.05-.21 0-.56.01-.98.05l.98-.71zm-1.12-2.6c-.4-.87-.51-2.01.72-1.46l.1 1.46h-.82zm.94-3.15l.18.13.18-.13.71-.52-.41 1.38-.04.01a.473.473 0 0 0-.44-.29c-.2 0-.36.11-.44.29l-.04-.01-.41-1.38.71.52zm1.05 5.63l-.7-.51-.18-.13-.18.13-.7.51.45-1.47h.85l.46 1.47zm.25-2.48h-.82l.1-1.46c1.23-.55 1.12.59.72 1.46zm-4.13.34l.51-.7.13-.18-.13-.18-.51-.7 1.04.32c.06.45.16.75.27 1.03l-1.31.41zm4.99-1.43l1.04-.32-.51.7-.13.18.13.18.51.7-1.31-.4c.11-.29.21-.59.27-1.04zm6.46-1.79c.02-.39-.7-.69-.88-.7-.3-.02-.69.62-1.08 1.01-.35-1.87-.17-2.67.03-3.5.79 1.43 1.85 1.74 2.42 1.67-1.9-1.51-1.57-2.89-2.15-2.97-.33-.03-.57-.01-.73-.01-.67 0-.76 1.29-.84 1.88-.43-.8-.86-1.48-1.59-2.4-.7-1.8-1.56-1.35-2.43-2.16.68 1.03.13 1.66 1.7 2.4.41.39.89 1 1.21 1.49-.26.35-.44.55-.69.79-.19.29-.29 1.41-.9 2.25.9-.39 1.25-.94 1.57-1.48 2.84 2.14.53 7.61-.12 8.81-.62-.42-1.42-.66-2.15-.79l-.08-.24-.67-2.16H33c.35 0 .44-.24.38-.43l1.96.61.87.27-.53-.73-.91-1.26.91-1.25.53-.74-.87.27-1.76.54c-.12-.4-.45-.59-.81-.64l.59-2 .25-.86-.72.53-1.26.9-1.26-.91-.72-.53.25.86.59 2c-.35.05-.69.24-.81.64l-1.76-.54-.86-.27.53.74.91 1.25-.91 1.26-.53.73.86-.27 1.97-.61c-.06.19.01.43.38.43h.31l-.67 2.16-.08.24c-.75.13-1.57.38-2.2.82-1.91-3.71-1.38-7.46.23-8.7-.03.79.66 1.86.98 2.08-.2-.81.16-2.26-.26-2.62-.3-.25-.74-.38-1.22-.36.32-.53.77-1.21 1.53-2.21 1.13-.53 1.45-1.84 1.73-2.5-1.23.45-2.12 1.08-2.32 2.11-.43.58-.91 1.25-1.45 2.05.03-.97-.51-1.31-1.21-1.36-2.06.43-1.91 1.92-3.68 2.95 1.21.42 3.1-2.23 3.75-1.93.1 1.63-.27 2.91-.27 3.79-.31-.34-.47-.57-.73-.62-.25-.04-.94.01-1.42.53-.13.82-.1 2.38-.87 4.23 1.15-1.05 1.7-3.12 1.88-3.72.29.4.61 1.3.69 2.06.14 1.48 1.05 3.95 1.82 5.14-.21.41-.28.88-.2 1.39-.6.45-.67 1.07-.46 1.49.22.45.82.76 1.51.48l.22-.09c.73-.3 2.09-.87 3.74-.87 1.65 0 3.01.57 3.75.87l.22.09c.69.28 1.28-.03 1.51-.48.21-.42.14-1.05-.46-1.49.08-.55-.01-1.05-.26-1.49l.02.02c1.41-2.01 1.51-5.85 2.67-6.94.1 1.35.81 2.46 1.52 2.61-.56-.93-.56-2.77-.52-3.61M22.25 38.48l-.87.01c-.13 1.51-.07 2.88.14 4.14.54-.89 1.08-1.78 1.05-2.4-.03-.65-.18-1.23-.32-1.75"/><path class="st0" d="M25.34 41.09c.3.83.67 2.15.97 3.07-.26.02-.51.03-.75.07-.13-.33-.56-1.42-1.01-2.48-.42-.98.58-1.24.79-.66zm1.82-.89c.07-.49 1.45-.58 1.19.49-.26 1.09-.59 2.36-.84 3.45h-.7c-.25-1.09-.58-2.36-.84-3.45-.26-1.07 1.12-.97 1.19-.49zm2.62 1.56c-.45 1.06-.88 2.15-1.01 2.48-.23-.04-.49-.06-.74-.07.3-.93.66-2.24.97-3.07.2-.59 1.19-.33.78.66zm-4.44 3.08c.3-.11 1.47-.16 1.82-.16.35 0 1.51.06 1.82.16.03.16.03.38.01.54-.45.13-1.24.2-1.83.2-.59 0-1.38-.07-1.83-.2-.02-.16-.02-.38.01-.54zm3.27 3.43c-.39.09-1.02.13-1.44.13s-1.05-.04-1.45-.13l.15-.65c-.3-.03-.6-.14-.84-.23.12-.42.31-.85.47-1.43.54.12 1.06.17 1.66.17.6 0 1.12-.05 1.66-.17.16.58.35 1.01.48 1.43-.24.08-.55.2-.84.23 0 .01.15.65.15.65zm-5.98-9.8c.15.52.28 1.1.31 1.73.03.74-.52 1.65-1.1 2.62l-.2.33c1.67 8.25 9.65 11 9.65 11V38.49s-6.01-.02-8.66-.02m17.41 1.55l-.03-.39h.39c.53 0 .79-.51.93-1.1-2.04-.02-9.38.01-9.38.01v7.56c.61-.45 1.2-.83 1.97-1.07v-1.66h.76c.04-1.83.48-3.15 1.33-4.02l.24-.26.25.26c.85.87 1.29 2.19 1.33 4.02h.79v1.77c.84.35 1.4.88 1.83 1.44.69-1.41 1.2-3.04 1.39-4.93l-.11.01c-.78.01-1.62-.56-1.69-1.64"/><path class="st0" d="M41.87 38.54l-.15-.01c-.18.87-.58 1.46-1.3 1.47.06.86.71 1.3 1.33 1.3l.15-.02c.05-.87.06-1.77-.03-2.74m-3.79 9.79l-.67-.76-1.13 1.01.47.53s.47-.22.9.26c-.32.28-.87.76-1.19 1.03-.42-.49-.13-.92-.13-.92l-.46-.53-1.39 1.24-.45-.52 1.42-1.19-.51-.59-.47.41c-.4-.47-.72-1.09-.43-1.87.81-.18 1.38.22 1.78.68l-.46.41.51.59 1.16-.97-.67-.76c.6-.07 1.12.14 1.42.48.32.34.46.89.3 1.47zm-1.82-2.92c-2.22 0-3.08.62-4.31 1.55v7.23s5.28-1.81 8.15-6.91c-.65-.99-1.62-1.87-3.84-1.87M23.2 32.34c1.11-.63 1.68-1.09 2.27-2.02-.43-.21-.95-.6-1.34-1.14 2.11.59 3.18.9 5.67.02-.41.64-1.01 1.02-1.52 1.35.56.93 1.12 1.99 1.32 2.84-.74-.06-1.59.12-2.19.67-.93.04-2.11.34-2.76-1.77-.33.17-.67.4-.67.4.38 1.38 1.08 2.32 2.94 2.12.1.44.18.69.41 1.06-.76.44-2.67 1.57-4.13.28v-3.81zm6.98 3.11c-.2.28-1.39.65-1.68.46-.5-.3-.75-.96-.63-1.24.14-.36 1.46-.73 1.88-.59.42.14.6 1.13.43 1.37zm3.56-1.59v-.39l-.93-.01c.22-.98 2.13-2.23 2.99-2.52-.05-1.07 1.36-1.42 2.49-1.45 1.4-.04 1.73 1.46 1.73 1.93 0 .62-.16 1.99-.94 2.41-1.12.6-2.08-.25-2.08-1.02 0-.84.59-1.34 1.6-1.23 1.01.11.94-.46.17-.65-.37-.09-1.98-.17-2.51 1.02-.31.01-.64-.11-.83-.3-.21.27-.53.45-.98.58.39.79 1.18.66 1.67.28l-.02.34c0 1.95 2.08 2.44 3.36 1.71-.21.63-.11 1.43-.03 1.97H34.4c.09-.54.76-1.15 1.32-1.55l-.45-.71c-.55.24-1.06.46-1.65.61-1.41.37-1.33-.62.12-1.02zm-12.06.74c.56.46.77.8.6 2.35-.02.19.08.56.19.95h18.96c.02-.21.03-.41.03-.58.02-.85-.14-1.53-.41-1.81-.09-.09-.19-.14-.37-.14h-.02l-.76.08.4-.65c.4-.64.96-1 1.56-1.05v-5.63H21.42v6.28l.21.13.05.07"/><path class="st0" d="M21.42 34.86v3.04h.67c-.12-.4-.21-.75-.18-1 .17-1.53-.06-1.69-.49-2.04m20.45 3.04v-3.77c-.44.04-.9.32-1.25.88l.11-.01c.84 0 1.13 1.15 1.11 2.32 0 .2-.01.39-.03.58h.06m-15.48-5.17c.35.17.78-.03 1.24.03-.09-.2-.18-.34-.13-.62.11-.55-.32-.69-.53-.67-.51.03-.8.14-1.34 0 .37.36.27 1.03.76 1.26"/><path class="st0" d="M21.94 36.88c.18-1.57-.07-1.7-.52-2.07-.39-.32-1.04-.42-1.69-.87-.46-.32-.59-.78-1.18-1.4.12-1.33 1.06-2.94 1.76-3.31.1-.05.07-2.1.07-2.1s.46-.02.42-.05c-.62-.38-1.38-.09-1.92.55-.53.42-1.74 1.24-2.57 1.52-1.13-.95-2.89-1.79-4.18-3.08 0 0 1.7-.01 2.49-.34.21-.13.75-1 .53-1.83-.27-.09-.65-.29-1.02-.5-.47-.27-.92-.55-1.13-.71-.74-.56-1.04-1.05-2.32-1.37.08-.59.21-.45.77-.83.72-.49 1.12-1.07 1.4-1.64.22-.45-.03-1.38-.61-.2-.2.42-.76.97-1.39 1.14.05-.36.07-.57.07-.77 1.87-1.32 1.69-2.49 1.54-3.58-.08-.63-.71-.9-.69-.24.02.43.41 1.67-.88 2.4-.03-.55-.18-.8-.29-1.08 1.14-1.5.66-2.95.18-3.61-.31-.42-1.06-.57-.72.1.28.55.73 2.03-.11 2.64-.29-.37-.63-.51-.74-1 .11-1.65.01-2.65-.2-3.22-.2-.54-.72-.88-.67-.08.04.91.12 2.05.04 2.12-.08.07-1.29-1.05-1.78-1.39-.5-.34-1.09-.21-.51.46.51.59 2.05 1.73 1.85 2.1-.12.23-1.23-.68-1.8-.87-.58-.2-.76.11-.27.51.79.64 1.31 1.07 2.6 1.5 1.29.43 1.94 2.22 1.53 4.78-.02.12-.24.1-.37.06-.06-.97-.23-2.14-.46-2.66-.31-.68-.91-.69-.69.23.18.72.28 1.5.15 2.47-1.07-.18-1.47-.47-1.92-.73-.05-.5.21-1.31.25-2.04.04-.72-.38-1.17-.62-.27-.23.86-.38 1.28-.52 1.9-.31-.1-.63-.24-.78-.41l-.08-1.76c-.08-.8-.38-.77-.61-.07-.11.32-.2.75-.23 1.27-.38-.23-.63-.66-.67-1.01.06-.83.2-1.71.3-2.26.07-.4-.2-1.2-.51-.23-.22.7-.28 1.28-.42 1.77-.27-.02-.63-1.6-.81-2.61-.08-.46-.47-.98-.54.04-.08 1.13.16 2.27.44 2.77-.55-.06-1.07-1.04-1.45-1.62-.34-.51-.5.02-.46.23a3.45 3.45 0 0 0 2.66 2.87c1.12 1.61 3.27 2.31 5.09 3.09-2.36-.03-2.98.92-4.06.3.05.89.49 1.3.92 1.51.3.14.6.18.74.21.2 1.08 1.22 1.02 2.1 1.08-.22 2.11.03 4.89 1.88 6.97-.05 1.07-.13 2.47-.11 3.4-1.52 1.41-2.87 4.36-3.4 5.99-.4 1.22-1 2.17-1.93 2.62.76.8 1.88.4 2.53-.04.04.72.21 1.22.32 1.65-.43.64-.73 1.09-.69 1.88-.49.14-.83.44-1.09.77-.17.21.03 1.18.21 1.59.6 1.35.13 4.41.03 5.31.26.01.72.03.82-.35.15.14.52.41.69.99-.04.25-.18 1.19.3 1.31.39.1 2.09.04 2.32-.25-.17-.2-.47-.65-.65-1.1 0-.46-.04-1.02-.17-1.26-.2-.34-.69-1.12-1-1.44-.07-.56-.12-3.05.14-4.01.44-.3 3.43-2.52 4.05-4.65.55.19.38 1.67.38 3.59 0 .52.63.78 1 .82.81.1 1.96.87 3.25 2.78.25-.27.58-.52.58-.52.17.22.36.77.48 1.13.14.26 1.18.42 1.98.18.26-.09.42-.14.59-.42-1.01-1.77-1.62-2.94-2.92-3.92-.6-.45-1.41-.68-2.08-1.11.45-.85 1.69-4.81.94-6.26-.25-.48-1.19-.95-2.34-.74.96-1.15 2.9-3.43 3.16-4.13.22.27 1.37.08 2.23.42.31.13 1.19 1.26 1.23 1.65.08.7.11 1.53-.37 3.45.34-.06.29-.07.63-.21.06.51-.1.91-.55 1.68.11.69.42 1.76.75 1.95.43-1.29 2.04-3.12 1.99-4.2-.09-1.47-.77-2.7-.69-3.33m61.86-8.3c-.31-.97-1.33-2.44-3.39-2.44-1.31 0-2.44.67-3 1.69-.67 1.25-.97 2.94-.97 5.27 0 3.33.55 5.42 1.72 6.25.61.44 1.39.67 2.31.67 2.69 0 3.83-2.06 3.83-6.97 0-1.97-.17-3.39-.5-4.47zm5.97 17.38s-.56.33-1.72.33c-1.5 0-2.83-.89-3.55-1.36-.92-.61-2.42-1.47-3.91-1.94-2.89 0-4.78-.8-6.25-2.72-1.47-1.89-2.22-4.33-2.22-7.16 0-4.16 1.58-7.52 4.36-9.02 1.14-.61 2.55-.94 4-.94 5.14 0 8.3 3.75 8.3 9.8 0 4.19-1.5 7.33-3.8 8.86.53.19 1.28.69 1.72.97.69.41 1.53.8 2.39.8.83 0 1.72-.14 1.72-.14l-1.04 2.52m11.6-2.89c-.47-.33-.86-.8-1.11-1.39-.92.89-2.25 1.36-3.75 1.36-2 0-3.72-.94-4.19-2.31-.22-.64-.31-1.39-.31-2.83v-9.1l3.67-.69v9.13c0 1.28.11 1.94.31 2.33.19.39.75.67 1.31.67.92 0 2.03-.67 2.3-1.36v-9.99l3.55-.75v10.85c0 .94.31 1.92.86 2.58l-2.64 1.5m13.54-9.22c0-1.05-.11-1.61-.44-2.14-.36-.56-.89-.83-1.64-.83-1.42 0-2.22 1.11-2.22 3.08v.06h4.3v-.17zm-4.36 2.89v.11c0 2.19 1.08 3.44 3 3.44 1.28 0 2.47-.47 3.61-1.42l1.44 2.22c-1.64 1.33-3.36 1.97-5.36 1.97-4.08 0-6.72-2.89-6.72-7.35 0-2.56.53-4.25 1.78-5.64 1.17-1.31 2.58-1.92 4.47-1.92 1.64 0 3.19.56 4.11 1.5 1.31 1.33 1.89 3.25 1.89 6.22v.86l-8.22.01m18.74-2.89c0-1.05-.11-1.61-.45-2.14-.36-.56-.89-.83-1.64-.83-1.42 0-2.22 1.11-2.22 3.08v.06h4.3l.01-.17zm-4.36 2.89v.11c0 2.19 1.08 3.44 3 3.44 1.28 0 2.47-.47 3.61-1.42l1.45 2.22c-1.64 1.33-3.36 1.97-5.36 1.97-4.08 0-6.72-2.89-6.72-7.35 0-2.56.53-4.25 1.78-5.64 1.17-1.31 2.58-1.92 4.47-1.92 1.64 0 3.19.56 4.11 1.5 1.3 1.33 1.89 3.25 1.89 6.22v.86l-8.23.01m18.74 5.94v-9.24c0-1.61-.28-2.08-1.25-2.08-.75 0-1.72.5-2.58 1.28v10.05h-3.72v-10.3c0-1.22-.17-2.39-.5-3.33l3.3-.94c.33.58.53 1.19.53 1.78.55-.39 1.03-.72 1.64-1.06.75-.39 1.72-.61 2.55-.61 1.58 0 2.97.83 3.41 2.05.19.53.28 1.14.28 2.03v10.38l-3.66-.01m12.09.44c-1.75 0-3.66-.56-5.74-1.64l1.33-2.72c1.14.69 3.11 1.61 4.72 1.61 1.05 0 1.89-.69 1.89-1.61 0-.97-.69-1.47-2.19-1.75l-1.66-.31c-.94-.17-2.11-.83-2.61-1.44s-.8-1.64-.8-2.55c0-2.78 2.19-4.64 5.49-4.64 2.28 0 3.78.69 5.08 1.33l-1.22 2.5c-1.41-.72-2.44-1.03-3.5-1.03-1.08 0-1.8.56-1.8 1.39 0 .72.47 1.11 1.78 1.44l1.72.44c1.75.44 2.33.97 2.83 1.61.53.67.78 1.47.78 2.42-.01 2.95-2.46 4.95-6.1 4.95m12.69-.11c-1.58 0-2.86-.75-3.3-1.94-.28-.72-.33-1.17-.33-3.19v-10.6c0-1.86-.05-3-.2-4.27l3.8-.86c.14.78.2 1.69.2 3.69v11.08c0 2.44.03 2.78.25 3.16.14.25.44.39.75.39.14 0 .22 0 .41-.06l.64 2.22c-.64.25-1.42.38-2.22.38m10.82-6.55c-2.58 0-3.47.47-3.47 2.17 0 1.11.69 1.86 1.64 1.86.7 0 1.39-.36 1.95-.97l.05-3.05h-.17zm3.16 6.94c-.86-.36-1.64-1-2-1.72-.28.28-.58.56-.86.75-.69.5-1.69.78-2.86.78-3.16 0-4.89-1.61-4.89-4.44 0-3.33 2.3-4.88 6.83-4.88.28 0 .53 0 .83.03v-.58c0-1.58-.3-2.11-1.66-2.11-1.19 0-2.58.58-4.11 1.61l-1.58-2.67c.75-.47 1.3-.75 2.3-1.17 1.39-.58 2.58-.83 3.88-.83 2.39 0 4.03.89 4.58 2.47.2.58.28 1.03.25 2.55l-.08 4.78c-.03 1.55.08 2.22 1.33 3.17l-1.96 2.26m12.47-.72v-9.24c0-1.61-.28-2.08-1.25-2.08-.75 0-1.72.5-2.58 1.28v10.05h-3.72v-10.3c0-1.22-.17-2.39-.5-3.33l3.3-.94c.33.58.53 1.19.53 1.78.55-.39 1.03-.72 1.64-1.06.75-.39 1.72-.61 2.55-.61 1.58 0 2.97.83 3.41 2.05.2.53.28 1.14.28 2.03v10.38l-3.66-.01m15.59-10.47c-.69-.61-1.36-.92-2.03-.92-1.67 0-2.39 1.39-2.39 4.55 0 3.05.64 4.05 2.58 4.05.7 0 1.47-.47 1.83-.92l.01-6.76zm.84 10.47c-.11-.22-.16-.44-.22-.83-.92.81-2 1.19-3.28 1.19-3.61 0-5.88-2.8-5.88-7.22 0-4.44 2.47-7.5 6.08-7.5 1.03 0 1.83.25 2.53.81-.06-.31-.11-1.28-.11-2.11v-4.89l3.69.58v14.77c0 3.5.27 4.63.53 5.19h-3.34m20.29.32c-2.39 0-4.41-.83-5.86-2.39-1.61-1.75-2.36-4.11-2.36-7.39 0-3.64.97-6.22 2.94-8 1.36-1.22 3-1.8 4.97-1.8 2.03 0 3.78.64 5.22 1.89l-1.03 1.42c-1.55-1.06-2.66-1.47-4.13-1.47-2.22 0-3.97 1.03-4.75 3.22-.5 1.42-.75 3.03-.75 4.83 0 2.5.47 4.52 1.33 5.77.86 1.25 2.8 2.03 4.61 2.03 1.19 0 2.22-.25 3.03-.75v-5.8H231l-.45-1.89h6.41v8.88c-1.35.89-3.4 1.45-5.34 1.45m17.2-11c-.58-1.22-1.8-1.78-2.94-1.78-1.22 0-2.36.58-2.83 1.5-.44.86-.67 1.97-.67 3.61 0 1.94.34 3.66.86 4.53.5.83 1.61 1.39 2.8 1.39 1.44 0 2.53-.75 3-2.08.31-.86.42-1.64.42-3 0-1.95-.19-3.25-.64-4.17zm-2.83 11.05c-3.8 0-5.97-2.8-5.97-7.36 0-4.5 2.25-7.25 5.89-7.25 2.3 0 3.8 1.06 4.75 2.41.86 1.25 1.28 2.89 1.28 5.14-.01 4.62-2.48 7.06-5.95 7.06m13.88-.22h-2.14l-4.97-13.85 2.22-.47 3.22 9.52c.39 1.14.67 2.36.67 2.36h.06s.22-1.08.67-2.33l3.17-9.19h2.3l-5.2 13.96m14.48-11.41c-.47-.75-1.45-1.22-2.5-1.22-1.97 0-3.08 1.44-3.19 4.3h6.33c-.03-1.5-.22-2.41-.64-3.08zm-5.69 4.72v.33c0 1.3.17 2.31.64 3.03.78 1.19 2.05 1.69 3.44 1.69 1.33 0 2.42-.42 3.39-1.3l.83 1.39c-1.22 1.11-2.89 1.72-4.66 1.72-3.83 0-6.13-2.78-6.13-7.36 0-2.33.5-3.83 1.67-5.22 1.11-1.31 2.47-1.91 4.14-1.91 1.5 0 2.8.53 3.75 1.5 1.19 1.22 1.58 2.53 1.58 5.83v.31l-8.65-.01m17.71-5.19a1.75 1.75 0 0 0-.61-.11c-.83 0-1.67.36-2.3 1-.64.64-.81 1.06-.81 2.19v8.66h-2.16V32.02c0-2.03-.47-2.94-.47-2.94l2.16-.58s.53 1.08.45 2.25c1-1.41 2.47-2.3 3.89-2.3.36 0 .75.14.75.14l-.9 2.35m10.11 11.74v-9.35c0-1.47-.11-1.83-.5-2.31-.3-.36-.89-.58-1.53-.58-1.11 0-2.83.89-3.83 1.94v10.3h-2.11V32.02c0-1.97-.53-2.92-.53-2.92l2.11-.58s.5 1.03.5 2.17c1.44-1.44 2.89-2.14 4.36-2.14 1.5 0 2.83.81 3.39 2.03.22.5.33 1.06.33 1.61v10.49h-2.19m21.53 0V32.47c0-1.33-.61-2.03-1.78-2.03-1.25 0-2.22.81-3.66 2.14v10.1h-2.19v-9.83c0-.83-.09-1.39-.39-1.78-.33-.39-.78-.56-1.41-.56-1.05 0-2.08.53-3.53 1.83v10.33h-2.08V31.96c0-2-.5-2.94-.5-2.94l2.11-.5s.5 1.08.5 2.05c.91-1.03 2.61-2.08 4.02-2.08 1.36 0 2.72.83 3.22 2.31 1.33-1.42 3.02-2.31 4.44-2.31 2.05 0 3.47 1.56 3.47 3.75v10.44h-2.22m13.88-11.27c-.47-.75-1.44-1.22-2.5-1.22-1.97 0-3.08 1.44-3.2 4.3h6.33c-.02-1.5-.21-2.41-.63-3.08zm-5.69 4.72v.33c0 1.3.17 2.31.64 3.03.78 1.19 2.05 1.69 3.44 1.69 1.33 0 2.42-.42 3.39-1.3l.83 1.39c-1.22 1.11-2.89 1.72-4.66 1.72-3.83 0-6.14-2.78-6.14-7.36 0-2.33.5-3.83 1.67-5.22 1.11-1.31 2.47-1.91 4.14-1.91 1.5 0 2.8.53 3.75 1.5 1.19 1.22 1.58 2.53 1.58 5.83v.31l-8.64-.01m19.79 6.55v-9.35c0-1.47-.11-1.83-.5-2.31-.3-.36-.89-.58-1.52-.58-1.11 0-2.83.89-3.83 1.94v10.3h-2.11V32.02c0-1.97-.53-2.92-.53-2.92l2.11-.58s.5 1.03.5 2.17c1.45-1.44 2.89-2.14 4.36-2.14 1.5 0 2.83.81 3.39 2.03.23.5.33 1.06.33 1.61v10.49h-2.2m11.52-12.19h-2.89v8.91c0 1.53.42 2.06 1.78 2.06.61 0 .97-.08 1.36-.28l.31 1.39c-.7.36-1.47.56-2.44.56-.72 0-1.28-.14-1.8-.39-.97-.47-1.33-1.36-1.33-2.75V30.5h-1.8v-1.64h1.8c0-1.33.22-3.5.22-3.5l2.28-.5s-.28 2.16-.28 4h3.47l-.68 1.63"/></svg>