<?xml version="1.0" encoding="UTF-8"?>
<svg width="60px" height="60px" viewBox="0 0 60 60" version="1.1" xmlns="http://www.w3.org/2000/svg" xmlns:xlink="http://www.w3.org/1999/xlink">
    <title>Group 3</title>
    <g id="Symbols" stroke="none" stroke-width="1" fill="none" fill-rule="evenodd">
        <g id="Header/blue" transform="translate(-1248.000000, -55.000000)">
            <g id="Group-3" transform="translate(1248.000000, 54.998300)">
                <rect id="Background" fill="#063652" x="0" y="7.10542736e-15" width="60" height="60" rx="30"></rect>
                <path d="M43.862278,39.482412 C43.1348171,37.798389 42.07914,36.268729 40.7540541,34.9786431 C39.4329928,33.6848344 37.8680704,32.653283 36.1457071,31.9409547 C36.1302817,31.933417 36.1148562,31.9296482 36.0994308,31.9221105 C38.5019414,30.2261306 40.0637661,27.4635678 40.0637661,24.3467336 C40.0637661,19.183417 35.7832095,14.9999999 30.5,14.9999999 C25.2167905,14.9999999 20.9362339,19.183417 20.9362339,24.3467336 C20.9362339,27.4635678 22.4980586,30.2261306 24.9005692,31.9258793 C24.8851438,31.933417 24.8697183,31.9371858 24.8542929,31.9447235 C23.1266448,32.6570351 21.5763892,33.6783919 20.2459459,34.982412 C18.9220948,36.2734941 17.8665906,37.8029035 17.137722,39.4861808 C16.4216819,41.1341193 16.0355054,42.9009237 16,44.6909547 C15.9980172,44.7722173 16.0296003,44.8508578 16.0876838,44.9090423 C16.1457673,44.9672268 16.2254296,44.9999999 16.3086051,44.9999999 L18.6224195,44.9999999 C18.7920992,44.9999999 18.9270717,44.8680904 18.9309281,44.7060301 C19.0080552,41.7964823 20.203526,39.0716079 22.3168098,37.0062813 C24.5033644,34.8693466 27.4072014,33.6934672 30.5,33.6934672 C33.5927986,33.6934672 36.4966356,34.8693466 38.6831902,37.0062813 C40.796474,39.0716079 41.9919448,41.7964823 42.0690719,44.7060301 C42.0729283,44.8718592 42.2079008,44.9999999 42.3775805,44.9999999 L44.6913949,44.9999999 C44.7745704,44.9999999 44.8542327,44.9672268 44.9123162,44.9090423 C44.9703997,44.8508578 45.0019828,44.7722173 45,44.6909547 C44.9613399,42.8894471 44.5795605,41.1369346 43.862278,39.482412 Z M30.5,30.9999999 C28.765407,30.9999999 27.1328488,30.3235464 25.9046512,29.0953488 C24.6764535,27.8671511 24,26.2345929 24,24.4999999 C24,22.7654069 24.6764535,21.1328488 25.9046512,19.9046511 C27.1328488,18.6764534 28.765407,17.9999999 30.5,17.9999999 C32.234593,17.9999999 33.8671512,18.6764534 35.0953488,19.9046511 C36.3235465,21.1328488 37,22.7654069 37,24.4999999 C37,26.2345929 36.3235465,27.8671511 35.0953488,29.0953488 C33.8671512,30.3235464 32.234593,30.9999999 30.5,30.9999999 Z" id="Icon-Shape" fill="#FFFFFF" fill-rule="nonzero"></path>
            </g>
        </g>
    </g>
</svg>