<?xml version="1.0" encoding="utf-8"?>
<!-- Generator: Adobe Illustrator 24.0.0, SVG Export Plug-In . SVG Version: 6.00 Build 0)  -->
<svg version="1.1" id="Layer_1" xmlns="http://www.w3.org/2000/svg" xmlns:xlink="http://www.w3.org/1999/xlink" x="0px" y="0px"
	 viewBox="0 0 189.76 61.96" style="enable-background:new 0 0 189.76 61.96;" xml:space="preserve">
<style type="text/css">
	.st0{fill:#FFFFFF;}
</style>
<g>
	<g>
		<path class="st0" d="M66.26,23.45c-0.22,0.06-0.74,0.22-1.08,0.26c0.65-0.63,1.04-1.41,1.04-2.05c-0.31,0.1-0.87,0.31-1.38,0.42
			c1.01-0.86,1.57-1.85,1.33-3.18c-0.31,0.16-0.75,0.41-1.18,0.59c0.88-1.36,0.87-2.56,0.51-3.26c-0.39,0.37-0.87,0.8-1.38,1.11
			c0.32-1.57,0.31-2.59-0.35-3.29c-0.68,1.27-1.25,2.21-2.2,3.34c0.07-1.04-0.04-2.33-0.72-3.01c0,0-0.2,1.45-0.7,1.91
			c-0.12-1.42-0.56-2.19-1.21-2.95c0,0-0.04,1.48-0.45,2.39c-0.34-1.24-0.97-2.2-1.79-3.11c0.06,2.73-0.7,7.87-2.9,11.33
			c-0.26,2.06-0.48,5.14-3.82,6.96c-0.49-0.34-1.33-0.77-2.52-0.7c-0.31-1.55,1.71-2.96,3.45-4.08c1.76-1.14,2.53-2.11,2.49-3.63
			c-0.04-1.66-1.17-2.34-2.33-2.39c-1.64-0.07-2.98,1.42-3.29,2.04c-0.48,0.22-1.88,0.66-2.46,0.82c-0.64,0.17-1.36,0.43-1.81,0.81
			c0.27,0.17,1.04,0.23,1.34,0.18c0.56-0.08,2.33-0.41,4.03-0.61c0.62,0.33,1.62,0.9,0.56,1.63c-1.44,0.92-2.06,1.17-4.1,2.23
			c-3.22,1.69-2.18,5.93-1.39,6.25c0,1.43,1.28,4.02,2.15,4.92c0.39,1.8-0.13,4.49-0.68,5.6c-0.45-1.1-1.22-3.62-1.73-5.1
			c0.53-2.8-0.32-4.02-0.91-4.5c-0.59-0.48-1.52-0.35-2.12,0.62c0.93-0.1,1.24,1.09,1.22,2.32c-0.03,1.48-0.4,2.66-1.43,2.67
			c0.08,1.27,1.44,1.62,2.12,1.01c0.1,0.28,0.65,1.94,1.17,3.42c0.31,0.87,0.6,1.68,0.8,2.1c0.21,0.47,1.78,0.54,1.96,0
			c0.25-0.72,0.45-1.26,0.84-2.1v0c0.3-0.64,0.71-1.46,1.35-2.66c0.42,0.73,0.98,1.88,1.31,2.66c0.15,0.36,0.26,0.65,0.27,0.78
			c0.13,1.2,0.06,5.48-0.27,8.04c-3.52-0.96-4.51,0.76-4.2,2.04c0.51-0.56,1.17-0.49,1.58-0.19c-0.1,0.94,0.15,1.61,1.11,1.9
			c1.01-2.67,4.64-2.08,4.97-1.86c0.01-0.51,0.51-1.81-1.36-2.07c0.07-2.31,0.31-5.14,0.39-5.73c0.08-0.59,0.15-0.96-0.13-1.88
			c-0.08-0.28-0.18-0.62-0.29-1.02c-0.24-0.94-0.49-2.16-0.51-3.48c0.32,0.32,1.1,0.58,1.63,0.46c0.41,1.74,1,1.24,1.31,1.97
			c0.16,0.38,0.19,0.73,0.24,1.05c0.04,0.3,0.08,0.57,0.25,0.79c1.25,0.04,2.31-0.26,3.07-0.79c0.23-0.17,0.44-0.35,0.61-0.55
			c-0.31-1.86-0.83-2.78-1.8-3.9c-0.25-1.52-0.96-2.91-1.94-4.14c1.23-0.4,2.47-1.4,3.12-2.09c0.59-0.04,1.26-0.53,1.31-1.49
			c0.34-0.04,0.63-0.06,0.9-0.11c-0.03-0.26-0.1-0.66-0.14-0.9c0.45,0,0.88-0.02,1.31-0.06c-0.12-0.35-0.28-0.71-0.41-0.98
			c0.45,0,1.01-0.03,1.46-0.06c-0.24-0.45-0.42-0.84-0.56-1.24c0.52-0.05,1.32-0.18,1.98-0.34c-0.21-0.22-0.45-0.45-0.81-0.8
			c1.71-0.51,2.46-1.7,2.55-2.22c-0.25,0-0.77,0.12-1.08,0.09C65.52,25.05,66.17,24.28,66.26,23.45"/>
		<path class="st0" d="M42.29,27.3H20.63v8c0.1,0.06,0.19,0.13,0.29,0.22v-7.88h21.55v7.33c0.08,0.08,0.15,0.19,0.22,0.32V27.3
			L42.29,27.3"/>
		<path class="st0" d="M31.62,54.87c-9.56-3.56-10.77-11.4-10.81-14.96l-0.03-0.01l0.03-0.26c0-0.77,0.06-1.29,0.09-1.48
			c-0.03-0.51-0.11-0.9-0.19-1.2l-0.09-0.19v3.69c0,4.13,1.52,7.7,4.5,10.59c2.62,2.53,5.56,3.72,6.4,4.02l0.14,0.05l0.13-0.05
			c0.84-0.3,3.78-1.49,6.39-4.02c2.99-2.89,4.5-6.46,4.5-10.59V39.8l-0.23,0.29c-0.08,1.85-0.43,4.73-1.66,6.9
			C39.31,50.03,37.04,52.53,31.62,54.87"/>
		<path class="st0" d="M14.46,5.68c1.36,0.67,1.8-0.56,4.34,1.09c-1.69,0.53-2.98,2.62-4.88,2.08c1.37-0.68,1.22-1.68,2.01-2.17
			C15.43,6.61,14.45,6.38,14.46,5.68L14.46,5.68z M19.35,19.22c-0.82-0.33-2.08-0.54-2.77,0.44C16.2,19,16.76,18,17.11,17.7
			c-1.78,0.03-2.8-0.51-3.07-1.06c0.66-0.36,2.33-0.97,3.7,0.03c0.94,0.69,1.42,1.02,2.53,1.39c0.4-0.41,0.25-0.22,0.38-0.34
			c-0.92-0.63-1.32-5.5-3.11-5.68c0.26-0.61,1.18-0.56,1.93-0.36c0.05-1.09-0.4-2.89-1.07-3.93c1.04-0.55,1.75,0.04,2.11,1.34
			c0.38,1.37-0.07,4.81,0.83,7.91l0.56-0.52c-0.28-1.81,1.7-2.47,2.13-3.37c0.17,1.21-0.08,1.76-0.42,2.2
			c0.72,0.09,1.04,0.79,0.92,1.28c-1.73-0.26-2.73,1.48-2.34,2.85C20.93,19.73,20.06,19.52,19.35,19.22L19.35,19.22z M27.8,20.22
			c-1.49,0.09-2.95,2.03-2.34,4.24c-0.22,0.08-0.87,0.07-1.08-0.38c-0.16,0.72-1.62,1.54-2.68,1.43c0.59-0.64,0.98-2.07,2.13-2.83
			c1.16-0.76,1.68-1.28,2.08-2.57c-0.54,0.25-3.32,0.97-4.11,0.11c1.83-0.26,4-1.3,5.07-1.97l-0.43-0.45
			c-1.15,0.65-2.68,1.18-3.46,1.42c-0.28-2.29,1.91-2.2,2.07-1.58c0.9-1.07,0.27-2.6-0.39-2.77c0.68-1.83,0-2.95-0.58-3.63
			c-0.14,1.94-2.3,2.26-2.56,3.75c-0.09-1.18-0.16-4.38-0.26-5.94c-0.17-2.89-3.83-3.91-4.38-3.91c-2.39,0.11-2.62-0.2-2.56-1.31
			c-1.21,1.38-0.8,2.6,0.22,3.19c-0.14,0.83-1.46,1.47-2.28,1.65c1.94,1.8,4.19,0.73,5.27-0.29l0.24-0.21
			c0.39,0.69,0.67,1.94,0.67,2.66c-1.82-0.1-2.14,1.31-2.14,1.81c2.31-0.95,2.56,3.46,3.16,4.17c-0.59-0.04-1.63-1.4-3.16-1.5
			c-1.85-0.12-2.5,0.87-3.25,0.83c0.14,1.3,1.73,2.04,2.76,2.19c-0.52,1.34-0.06,2.24,1.03,2.57c0-1.22,1.55-1.6,3.2-0.63
			c1.99,1.16,3.01,1.26,4.61,0.77c-0.26,0.58-0.98,0.64-1.87,1.51c-1.23,1.22-1.27,2.81-2.66,3.39c1.62,0.77,4.07-0.31,4.42-0.93
			c0.68,0.42,1.55,0.17,1.79-0.26c-1.1-2.43,0.76-3.88,1.49-3.85C27.83,20.92,28.15,20.2,27.8,20.22"/>
		<path class="st0" d="M44.63,7c0.82-0.59,1.33-0.85,1.76-1.09c0.7,0.03,1.91-0.06,2.64-0.43c-0.76,0.93-0.85,1.27-2.08,1.4
			c1.6,0.14,2.28,1.58,3.07,1.8C47.35,9.5,47.08,6.85,44.63,7z M47.94,15.01c0.8,0.65,0.54,1.59,0.35,1.8
			c-0.7-1.21-2.95-0.79-5.16,1.7c-0.16,0.19-0.36,0.4-0.61,0.62c0.17-2.98-2.27-3.03-2.99-2.73c0.08-0.86,0.61-1.45,0.9-1.53
			c-0.72-0.83-0.87-1.88-0.96-2.64c1.19,0.52,2.96,1.91,3.26,4.32l0.77-0.52c-0.23-4.21-0.18-4.19-0.21-7.05
			c-0.01-0.4,0.02-1.33,1.29-1.23c0.05,1.06,0.21,3.88,0.16,7.8h0.45c0.41-1.1,1.86-2.38,3.54-2.26c1.15,0.07,1.55,0.05,2.21-0.24
			C50.41,14.34,48.45,14.92,47.94,15.01L47.94,15.01z M45.51,13.54c0-2.71-0.1-4.94-0.13-5.64L45.71,8
			c1.94,0.68,2.39,3.02,6.41,0.37c-2.15,0.25-2.26-1.57-3.25-1.61c1.49-0.84,1.59-2.79,1.59-2.79c-1.25,1.01-4.15,1.07-4.71,1.4
			c-0.75,0.45-1.69,1-2.33,1.35c-1.67,0.91-0.51,5.87-0.67,7.68c-0.9-2.7-2.73-2.3-3.69-3.84c-0.72,1.29,0.04,3.46,0.34,4.07
			c-1.04,0.85-0.76,2.41-0.51,2.82c0.89-0.64,2.26-0.47,2.68,0.6c-1.17,0.71-3.12,0.84-4.45-0.45l-0.48,0.53
			c0.94,1.25,3.3,1.73,5.05,0.72c-0.01,0.28-0.07,0.6-0.19,0.95c-0.91,0.48-2.09,0.74-3.43,0.28c0.19,1.36,1.75,2.38,3.23,2.79
			c-0.5,0.39-1.12,0.54-1.57,0.49c0.28,0.78,0.43,1.84-0.16,2.66c-0.74-0.49-1.14-0.98-1.42-2.89c-0.28-1.91-1.66-3.86-2.73-4.25
			c-0.06,0.68-0.06,0.38,0.06,0.82c2.84,2.09,1.23,5.84,4.19,7.19c1.08-1.24,1.1-1.67,0.93-2.84c1.07-0.28,1.87-1.18,2.15-1.87
			c-1.01,0.48-2.62-0.36-3.06-1.02c1.76-0.06,3.38-1.38,5.05-3.12c1.49-1.56,3.47-1.32,3.32-0.1c1.03-0.15,1.44-1.56,1.1-2.46
			c1.51-0.47,2.69-1.59,2.85-3.33C49.99,13.16,47.42,11.49,45.51,13.54"/>
		<path class="st0" d="M34.57,22.78c-0.14,0-0.26,0.07-0.34,0.17l-0.48-0.06l0-0.87c0.16-0.06,0.26-0.22,0.26-0.4
			c0-0.24-0.19-0.44-0.43-0.44c-0.24,0-0.44,0.2-0.44,0.44c0,0.16,0.09,0.31,0.23,0.38l-0.01,0.84l-0.46-0.04
			c-0.07-0.15-0.22-0.26-0.39-0.26c-0.24,0-0.43,0.19-0.43,0.43c0,0.24,0.19,0.43,0.43,0.43c0.15,0,0.29-0.08,0.36-0.2l0.49,0.05
			l-0.02,1.27c-0.14,0.07-0.23,0.22-0.23,0.38c0,0.24,0.19,0.43,0.43,0.43c0.24,0,0.44-0.19,0.44-0.43c0-0.17-0.11-0.33-0.26-0.39
			l0.01-1.22l0.41,0.06c0.06,0.17,0.22,0.29,0.41,0.29c0.24,0,0.43-0.2,0.43-0.44S34.81,22.78,34.57,22.78"/>
		<path class="st0" d="M30.8,22.53c-0.18,0-0.33,0.1-0.4,0.26l-0.45,0.04l-0.01-0.84c0.13-0.07,0.23-0.22,0.23-0.38
			c0-0.24-0.2-0.44-0.43-0.44c-0.24,0-0.44,0.2-0.44,0.44c0,0.18,0.11,0.34,0.26,0.4l0.01,0.87l-0.48,0.06
			c-0.07-0.1-0.2-0.17-0.34-0.17c-0.24,0-0.44,0.2-0.44,0.44s0.19,0.44,0.44,0.44c0.19,0,0.35-0.12,0.41-0.29l0.41-0.06l0.01,1.22
			c-0.15,0.07-0.26,0.22-0.26,0.39c0,0.24,0.2,0.43,0.43,0.43c0.24,0,0.44-0.19,0.44-0.43c0-0.17-0.1-0.31-0.23-0.38l-0.01-1.27
			l0.48-0.05c0.08,0.12,0.21,0.2,0.37,0.2c0.24,0,0.43-0.19,0.43-0.43C31.23,22.72,31.04,22.53,30.8,22.53"/>
		<path class="st0" d="M31.66,26.21c-0.65,1.24-1.85,1.2-2.9,0.5c-0.42-0.27-0.85-0.46-1.25-0.52c0.18-1.22,0.48-3.52,0.7-5.46
			c1.36-0.61,3.04-0.76,3.45,0.81c0.41-1.56,2.09-1.42,3.45-0.81c0.22,1.94,0.52,4.24,0.7,5.46c-0.39,0.06-0.83,0.25-1.25,0.52
			C33.5,27.41,32.3,27.45,31.66,26.21z M36.57,26.25c-0.26-1.75-0.9-6.66-0.97-8.3l-0.74,0.03c0.01,0.28,0.04,0.65,0.08,1.08
			c-0.9-0.26-2.07-0.45-3.27-0.45c-1.2,0-2.38,0.19-3.28,0.45c0.04-0.43,0.07-0.8,0.08-1.08l-0.75-0.03
			c-0.07,1.64-0.7,6.55-0.97,8.3C26.29,26.43,26,26.88,26,27.68c0,0,4.07,0.06,5.65,0.06c1.57,0,5.65-0.06,5.65-0.06
			C37.31,26.88,37.01,26.43,36.57,26.25"/>
		<path class="st0" d="M53.65,61.24H9.67c-0.2-1.4-0.47-2.3-0.71-3.06h45.4C54.11,58.95,53.85,59.85,53.65,61.24L53.65,61.24z
			 M23.84,51.83c0.41,0.6,0.79,1.04,0.98,1.52c0.19,0.51,0.07,0.81-0.3,1.33c-0.84,1.17-2.28,2.17-3.42,2.8h-4.41
			C19.45,56.68,23.2,54.31,23.84,51.83z M21.17,51.02c0.36-0.67,1.23-0.88,1.83-0.09c0.25,0.33,0.15,1.24-0.9,2.36
			C21.34,52.61,20.78,51.73,21.17,51.02z M38.74,54.68c-0.37-0.52-0.49-0.82-0.3-1.33c0.19-0.48,0.58-0.92,0.98-1.52
			c0.64,2.48,4.38,4.85,7.15,5.64h-4.41C41.03,56.85,39.58,55.85,38.74,54.68z M40.26,50.93c0.6-0.79,1.47-0.58,1.83,0.09
			c0.38,0.71-0.17,1.59-0.93,2.28C40.12,52.17,40.01,51.26,40.26,50.93z M54.52,57.25c-0.47,0.15-1.04,0.23-1.9,0.23h-1.06
			c-3.66-0.07-7.42-1.17-9.73-3.52c3.19-3.22-0.55-5.86-2.58-3.13c-0.63,0.85-1.13,1.45-1.57,2.28c-0.36,0.67-0.09,1.33,0.7,2.36
			c0.43,0.56,1.51,1.44,2.39,2.01H22.49c0.88-0.58,1.95-1.45,2.39-2.01c0.79-1.03,1.06-1.69,0.7-2.36
			c-0.44-0.82-0.94-1.43-1.58-2.28c-2.02-2.73-5.76-0.08-2.58,3.13c-2.31,2.36-6.07,3.45-9.73,3.52h-1.01
			c-0.86,0-1.43-0.08-1.9-0.23c-0.76-0.19-0.93,0.15-0.52,1.45c0.28,0.87,0.5,2.29,0.6,3.27h45.56c0.1-0.98,0.32-2.4,0.6-3.27
			C55.45,57.39,55.28,57.06,54.52,57.25"/>
		<path class="st0" d="M14.92,60.12l-0.01-0.02l0.33-0.87l0.02-0.02l0.01,0.02l0.32,0.87l-0.01,0.02L14.92,60.12L14.92,60.12z
			 M15.63,60.25l0.02,0.02l0.12,0.32l-0.02,0.06l-0.04,0.02l0.08,0.03h0.49l0.11-0.03l-0.03-0.02l-0.11-0.01
			c-0.06-0.01-0.13-0.05-0.23-0.28c-0.17-0.4-0.58-1.46-0.64-1.6l-0.07-0.09l-0.07,0.11l-0.65,1.64c-0.05,0.13-0.1,0.21-0.22,0.23
			l-0.09,0l-0.03,0.02l0.05,0.03h0.59l0.04-0.03l-0.04-0.02h-0.04c-0.08,0-0.1-0.03-0.1-0.08l0.04-0.15l0.05-0.15l0.02-0.03H15.63"
			/>
		<path class="st0" d="M16.92,59.87c0,0.38,0.1,0.57,0.23,0.69c0.19,0.17,0.44,0.17,0.57,0.17c0.17,0,0.36-0.02,0.54-0.19
			c0.22-0.19,0.25-0.5,0.25-0.79v-0.28l0-0.55c0.01-0.09,0.02-0.13,0.09-0.15l0.08-0.01l0.04-0.02l-0.05-0.03l-0.3,0.01l-0.3-0.01
			l-0.06,0.03l0.05,0.02l0.09,0.01c0.08,0.02,0.11,0.06,0.11,0.15l0,0.55v0.32c0,0.28-0.01,0.51-0.15,0.65
			c-0.11,0.11-0.25,0.14-0.36,0.14c-0.09,0-0.21-0.01-0.32-0.1c-0.13-0.1-0.21-0.27-0.21-0.64v-0.37l0-0.55
			c0-0.09,0.03-0.13,0.09-0.15l0.08-0.01l0.04-0.02l-0.06-0.03l-0.32,0.01l-0.38-0.01l-0.06,0.03l0.05,0.02l0.1,0.01
			c0.09,0.02,0.11,0.06,0.12,0.15l0,0.55L16.92,59.87"/>
		<path class="st0" d="M19.95,59.45l0-0.52l0.03-0.05l0.17-0.02c0.21,0,0.5,0.03,0.74,0.26c0.11,0.11,0.25,0.32,0.25,0.65
			c0,0.27-0.05,0.51-0.22,0.66c-0.16,0.13-0.33,0.19-0.6,0.19c-0.21,0-0.31-0.06-0.34-0.1l-0.03-0.2l-0.01-0.53L19.95,59.45
			L19.95,59.45z M19.63,59.94c0,0.24,0,0.45-0.01,0.56c-0.01,0.08-0.02,0.13-0.08,0.14l-0.09,0.01l-0.04,0.02l0.05,0.03h0.33
			l0.56,0.03c0.48,0,0.75-0.19,0.87-0.31c0.15-0.15,0.28-0.41,0.28-0.73c0-0.31-0.12-0.53-0.26-0.66c-0.28-0.29-0.72-0.29-1.04-0.29
			l-0.4,0.01l-0.38-0.01l-0.05,0.03l0.04,0.02l0.11,0.01c0.08,0.02,0.11,0.06,0.11,0.15l0.01,0.55L19.63,59.94"/>
		<path class="st0" d="M22.51,60.12L22.5,60.1l0.33-0.87l0.02-0.02l0.01,0.02l0.32,0.87l-0.01,0.02L22.51,60.12L22.51,60.12z
			 M23.21,60.25l0.02,0.02l0.12,0.32l-0.03,0.06l-0.04,0.02l0.08,0.03h0.49l0.12-0.03l-0.03-0.02l-0.11-0.01
			c-0.05-0.01-0.13-0.05-0.23-0.28l-0.65-1.6l-0.06-0.09l-0.07,0.11l-0.65,1.64c-0.05,0.13-0.1,0.21-0.22,0.23l-0.08,0l-0.03,0.02
			l0.05,0.03h0.58l0.05-0.03l-0.04-0.02h-0.04c-0.08,0-0.1-0.03-0.1-0.08l0.04-0.15l0.06-0.15l0.03-0.03H23.21"/>
		<path class="st0" d="M25.76,59c0.08-0.12,0.13-0.19,0.19-0.21l0.09-0.01l0.04-0.02l-0.05-0.03l-0.26,0.01l-0.26-0.01l-0.06,0.03
			l0.03,0.02l0.09,0.01l0.04,0.04l-0.03,0.1c-0.04,0.07-0.28,0.43-0.36,0.54c-0.1-0.17-0.22-0.36-0.33-0.58l-0.03-0.07l0.03-0.04
			l0.07-0.01l0.04-0.02l-0.05-0.03l-0.28,0.01l-0.4-0.01l-0.05,0.02l0.03,0.03l0.11,0.02c0.09,0.02,0.15,0.08,0.22,0.19l0.45,0.74
			l-0.5,0.72c-0.09,0.12-0.14,0.17-0.21,0.19l-0.1,0.01l-0.04,0.02l0.04,0.03h0.56l0.05-0.03l-0.03-0.02l-0.06,0l-0.05-0.05
			l0.04-0.1l0.39-0.63l0.41,0.71l-0.01,0.06l-0.04,0.03l0.09,0.03h0.55l0.05-0.03l-0.03-0.02l-0.1-0.01
			c-0.07-0.02-0.11-0.05-0.15-0.11c-0.06-0.08-0.49-0.79-0.57-0.92L25.76,59"/>
		<path class="st0" d="M29.32,60.12L29.3,60.1l0.32-0.87l0.02-0.02l0.01,0.02l0.33,0.88l-0.01,0.02H29.32L29.32,60.12z M30.02,60.25
			l0.02,0.02l0.12,0.32l-0.02,0.06l-0.04,0.02l0.08,0.03h0.49l0.12-0.03l-0.03-0.02l-0.11-0.01c-0.05-0.01-0.13-0.05-0.23-0.28
			l-0.65-1.6l-0.07-0.09l-0.07,0.11l-0.65,1.64c-0.05,0.13-0.1,0.21-0.22,0.23l-0.08,0l-0.03,0.02l0.05,0.03h0.58l0.05-0.03
			l-0.04-0.02h-0.04c-0.08,0-0.11-0.03-0.11-0.08l0.04-0.15l0.05-0.15l0.02-0.03H30.02"/>
		<path class="st0" d="M31.62,59.94c0,0.24,0,0.45-0.01,0.56c-0.01,0.08-0.02,0.13-0.08,0.14l-0.09,0.01l-0.04,0.02l0.05,0.03h0.74
			l0.05-0.03l-0.05-0.02l-0.13-0.01c-0.08-0.01-0.1-0.06-0.11-0.13c-0.01-0.11-0.01-0.32-0.01-0.56v-1.07l0.33,0.01
			c0.23,0.01,0.3,0.08,0.31,0.15v0.02l0.03,0.05l0.02-0.04l0.01-0.3l-0.02-0.05l-0.25,0.03h-1.03l-0.26-0.01l-0.11-0.04l-0.03,0.05
			l-0.05,0.3l0.02,0.05l0.03-0.03l0.04-0.09c0.04-0.06,0.1-0.07,0.25-0.08l0.39-0.01L31.62,59.94"/>
		<path class="st0" d="M36.15,59.73l0.02-0.01l0.38,0.01c0.08,0.01,0.12,0.06,0.13,0.09l0.01,0.09l0.03,0.04l0.02-0.06l0.01-0.19
			l0.02-0.16l-0.01-0.03l-0.04,0.03l-0.11,0.04l-0.12,0.01l-0.33,0l-0.02-0.03v-0.65l0.03-0.04l0.4,0.01c0.1,0,0.16,0.05,0.18,0.08
			l0.02,0.1l0.03,0.04l0.03-0.03l0.01-0.21l0.02-0.12l-0.02-0.03l-0.04,0.02l-0.11,0.01l-0.69,0l-0.38-0.01l-0.06,0.03l0.04,0.02
			l0.1,0.01c0.08,0.02,0.1,0.06,0.11,0.15l0.01,0.55v0.46c0,0.26,0,0.45-0.01,0.56c-0.01,0.08-0.02,0.13-0.07,0.14l-0.1,0.01
			l-0.03,0.02l0.05,0.03h0.73l0.06-0.03l-0.04-0.02l-0.13-0.01c-0.08-0.01-0.09-0.06-0.1-0.14c-0.01-0.11-0.01-0.3-0.01-0.56
			L36.15,59.73"/>
		<path class="st0" d="M37.82,59.94l-0.01,0.57c-0.01,0.07-0.02,0.12-0.07,0.13l-0.09,0.01l-0.04,0.02l0.05,0.03h0.73l0.05-0.03
			l-0.04-0.02l-0.13-0.01c-0.08-0.01-0.1-0.06-0.11-0.13l-0.01-0.57v-0.46l0-0.55c0-0.09,0.03-0.13,0.1-0.15l0.08-0.01l0.04-0.03
			l-0.06-0.02l-0.32,0.01l-0.33-0.01l-0.06,0.02l0.04,0.03l0.09,0.01c0.06,0.02,0.08,0.06,0.09,0.15l0,0.55L37.82,59.94"/>
		<path class="st0" d="M39.7,59.45v-0.52l0.04-0.05l0.17-0.02c0.21,0,0.5,0.03,0.74,0.26c0.11,0.11,0.24,0.32,0.24,0.65
			c0,0.27-0.05,0.51-0.22,0.66c-0.16,0.13-0.33,0.19-0.6,0.19c-0.2,0-0.31-0.06-0.34-0.1l-0.03-0.2l-0.01-0.53L39.7,59.45
			L39.7,59.45z M39.38,59.94c0,0.24,0,0.45-0.02,0.56c-0.01,0.08-0.02,0.13-0.07,0.14l-0.1,0.01l-0.04,0.02l0.06,0.03h0.33
			l0.56,0.03c0.47,0,0.75-0.19,0.87-0.31c0.14-0.15,0.28-0.41,0.28-0.73c0-0.31-0.12-0.53-0.26-0.66c-0.28-0.29-0.72-0.29-1.04-0.29
			l-0.4,0.01l-0.37-0.01l-0.06,0.03l0.05,0.02l0.1,0.01c0.08,0.02,0.1,0.06,0.11,0.15l0.01,0.55V59.94"/>
		<path class="st0" d="M42.16,59.94c0,0.24,0,0.45-0.01,0.56c-0.01,0.08-0.02,0.13-0.07,0.14l-0.1,0.01l-0.04,0.02l0.05,0.03h0.33
			l0.72,0.01c0.1,0,0.12,0,0.14-0.07l0.04-0.29L43.2,60.3l-0.03,0.04c-0.02,0.1-0.05,0.16-0.12,0.19c-0.07,0.03-0.17,0.03-0.24,0.03
			c-0.27,0-0.31-0.04-0.31-0.22v-0.61l0.02-0.03l0.37,0.01c0.1,0.01,0.13,0.04,0.15,0.1l0.01,0.09l0.02,0.03l0.02-0.05l0.01-0.17
			l0.03-0.19l-0.02-0.02l-0.04,0.03l-0.13,0.04l-0.41,0.01l-0.02-0.03V58.9l0.02-0.03l0.37,0.01c0.13,0.02,0.15,0.05,0.17,0.1
			l0.02,0.1l0.02,0.03l0.03-0.03l0.01-0.18l0.02-0.17l-0.01-0.03l-0.04,0.01l-0.12,0.02l-0.65,0l-0.37-0.01l-0.06,0.03l0.04,0.02
			l0.1,0.01c0.09,0.02,0.11,0.06,0.11,0.15l0.01,0.55L42.16,59.94"/>
		<path class="st0" d="M44.51,59.49l0-0.55c0-0.09,0.03-0.13,0.1-0.15l0.1-0.01l0.04-0.02l-0.05-0.03l-0.35,0.01L44,58.73
			l-0.06,0.03l0.04,0.02l0.09,0.01c0.09,0.02,0.1,0.06,0.11,0.15l0,0.55v0.46c0,0.24,0,0.45-0.01,0.56
			c-0.01,0.08-0.02,0.13-0.08,0.14L44,60.65l-0.04,0.02l0.05,0.03h0.33l0.76,0.01c0.13,0,0.15-0.01,0.16-0.08l0.04-0.3l-0.02-0.04
			l-0.03,0.04l-0.07,0.16c-0.06,0.06-0.16,0.07-0.31,0.07c-0.2,0-0.27-0.02-0.31-0.06c-0.05-0.05-0.05-0.23-0.05-0.56L44.51,59.49"
			/>
		<path class="st0" d="M46.14,59.94l-0.01,0.57c-0.01,0.07-0.03,0.12-0.08,0.13l-0.1,0.01l-0.04,0.02l0.05,0.03h0.74l0.05-0.03
			l-0.05-0.02l-0.13-0.01c-0.08-0.01-0.1-0.06-0.11-0.13l-0.01-0.57v-0.46l0.01-0.55c0-0.09,0.03-0.13,0.1-0.15l0.08-0.01l0.04-0.03
			l-0.05-0.02l-0.32,0.01l-0.34-0.01l-0.06,0.02l0.04,0.03l0.1,0.01c0.06,0.02,0.08,0.06,0.09,0.15l0.01,0.55L46.14,59.94"/>
		<path class="st0" d="M47.93,60.74c0.14,0,0.28-0.02,0.42-0.1c0.19-0.12,0.24-0.3,0.24-0.45c0-0.25-0.11-0.43-0.43-0.66l-0.08-0.06
			c-0.21-0.16-0.28-0.26-0.28-0.37c0-0.16,0.12-0.27,0.31-0.27c0.17,0,0.24,0.08,0.28,0.13c0.06,0.06,0.07,0.14,0.07,0.17l0.03,0.04
			l0.03-0.07l0.01-0.31l-0.03-0.03c-0.07-0.02-0.18-0.05-0.35-0.05c-0.36,0-0.6,0.21-0.6,0.49c0,0.21,0.1,0.4,0.38,0.62l0.13,0.09
			c0.21,0.17,0.25,0.29,0.25,0.42c0,0.13-0.11,0.29-0.35,0.29c-0.16,0-0.31-0.07-0.37-0.26l-0.03-0.13l-0.02-0.05l-0.03,0.07
			l-0.02,0.34l0.05,0.09C47.66,60.72,47.78,60.73,47.93,60.74"/>
		<path class="st0" d="M31.66,15.23c-1.36,0-2.9,0.32-4.08,0.84c0.02-0.26,0.11-0.49,0.28-0.69c0.69-0.83,2.48-1.12,3.81-1.12
			c1.32,0,3.12,0.3,3.8,1.12c0.17,0.2,0.26,0.43,0.28,0.69C34.56,15.55,33.04,15.23,31.66,15.23L31.66,15.23z M33.98,17.16
			l-0.43-0.98c0.64,0.12,1.26,0.31,1.79,0.53l0.25,1C35.2,17.56,34.64,17.34,33.98,17.16L33.98,17.16z M29.98,17l-0.72-0.71
			c0.59-0.15,1.22-0.25,1.83-0.29l0.43,0.84C30.97,16.85,30.46,16.91,29.98,17L29.98,17z M27.62,17.76l-0.21,0.09
			c-0.29,0.12-0.49,0.02-0.56-0.12c-0.08-0.15-0.03-0.4,0.33-0.62l0.15-0.08l0.69,0.57L27.62,17.76L27.62,17.76z M31.66,12.64
			l0.98,0.71c-0.42-0.04-0.77-0.05-0.98-0.05c-0.21,0-0.57,0.01-0.98,0.05L31.66,12.64z M30.54,10.04c-0.4-0.87-0.52-2.01,0.72-1.46
			l0.1,1.46H30.54z M31.48,6.88l0.18,0.13l0.17-0.13l0.71-0.52l-0.41,1.38L32.1,7.75c-0.07-0.17-0.25-0.29-0.44-0.29
			c-0.2,0-0.37,0.11-0.44,0.29l-0.04-0.01l-0.41-1.38L31.48,6.88L31.48,6.88z M32.53,12.52l-0.7-0.51l-0.17-0.13l-0.18,0.13
			l-0.7,0.51l0.45-1.47h0.85L32.53,12.52z M32.78,10.04h-0.83l0.1-1.46C33.29,8.03,33.17,9.17,32.78,10.04z M28.64,10.38l0.51-0.7
			l0.13-0.18l-0.13-0.18l-0.51-0.7l1.04,0.32c0.05,0.45,0.16,0.75,0.27,1.03L28.64,10.38L28.64,10.38z M33.64,8.95l1.03-0.32
			l-0.51,0.7L34.04,9.5l0.13,0.18l0.51,0.7l-1.31-0.41C33.48,9.7,33.58,9.4,33.64,8.95L33.64,8.95z M40.1,7.15
			c0.02-0.39-0.7-0.68-0.88-0.7c-0.3-0.02-0.69,0.61-1.08,1.01c-0.35-1.87-0.17-2.67,0.03-3.5c0.79,1.43,1.86,1.74,2.42,1.67
			c-1.9-1.52-1.57-2.89-2.15-2.97c-0.33-0.03-0.56-0.01-0.74-0.01c-0.67,0-0.76,1.29-0.84,1.88c-0.43-0.8-0.85-1.47-1.59-2.41
			c-0.7-1.8-1.56-1.35-2.43-2.17c0.68,1.03,0.13,1.66,1.7,2.41c0.41,0.39,0.89,1,1.21,1.49c-0.26,0.35-0.44,0.55-0.69,0.78
			c-0.19,0.29-0.29,1.41-0.9,2.25c0.9-0.39,1.25-0.94,1.57-1.48c2.84,2.14,0.53,7.62-0.12,8.82c-0.62-0.42-1.43-0.66-2.15-0.79
			l-0.08-0.25l-0.67-2.16h0.31c0.36,0,0.44-0.24,0.38-0.43l1.96,0.6l0.87,0.27l-0.53-0.73L34.79,9.5l0.91-1.25l0.53-0.74l-0.87,0.26
			L33.6,8.32c-0.12-0.4-0.45-0.59-0.81-0.64l0.6-2l0.25-0.86l-0.72,0.52l-1.25,0.91L30.4,5.35l-0.72-0.52l0.25,0.86l0.59,2
			c-0.36,0.05-0.69,0.24-0.81,0.64l-1.77-0.54l-0.86-0.26l0.53,0.74l0.91,1.25l-0.91,1.26l-0.53,0.73l0.86-0.27l1.97-0.61
			c-0.06,0.19,0.01,0.43,0.38,0.43h0.31l-0.67,2.16l-0.07,0.25c-0.75,0.13-1.57,0.38-2.2,0.82c-1.92-3.71-1.37-7.47,0.23-8.71
			c-0.03,0.79,0.66,1.86,0.98,2.08c-0.21-0.81,0.16-2.27-0.27-2.63c-0.3-0.25-0.74-0.38-1.22-0.36c0.32-0.53,0.77-1.21,1.53-2.21
			c1.13-0.54,1.45-1.85,1.73-2.51c-1.23,0.45-2.12,1.08-2.32,2.11c-0.43,0.57-0.92,1.25-1.45,2.05c0.03-0.97-0.51-1.3-1.21-1.36
			c-2.07,0.43-1.91,1.92-3.68,2.95c1.21,0.43,3.1-2.24,3.75-1.94c0.1,1.63-0.27,2.91-0.27,3.8C25.16,7.21,25,6.97,24.73,6.93
			c-0.25-0.05-0.94,0.01-1.42,0.53c-0.13,0.82-0.1,2.38-0.87,4.23c1.15-1.06,1.7-3.12,1.88-3.72c0.3,0.4,0.62,1.29,0.69,2.06
			c0.14,1.48,1.05,3.95,1.83,5.14c-0.22,0.41-0.28,0.88-0.2,1.39c-0.6,0.44-0.67,1.07-0.46,1.49c0.22,0.45,0.82,0.76,1.51,0.48
			l0.22-0.09c0.73-0.3,2.1-0.87,3.75-0.87c1.65,0,3.01,0.57,3.75,0.87l0.22,0.09c0.7,0.28,1.29-0.03,1.51-0.48
			c0.21-0.42,0.15-1.05-0.46-1.49c0.08-0.55-0.01-1.05-0.26-1.49l0.02,0.02c1.41-2.01,1.51-5.85,2.67-6.95
			c0.1,1.35,0.81,2.46,1.52,2.61C40.06,9.84,40.06,8,40.1,7.15"/>
		<path class="st0" d="M22.26,38.46l-0.87,0.01c-0.13,1.51-0.07,2.88,0.14,4.14c0.54-0.89,1.08-1.78,1.06-2.4
			C22.56,39.57,22.41,38.98,22.26,38.46"/>
		<path class="st0" d="M25.36,41.07c0.3,0.83,0.67,2.15,0.97,3.08c-0.26,0.01-0.51,0.03-0.74,0.06c-0.13-0.33-0.57-1.42-1.01-2.48
			C24.15,40.75,25.14,40.5,25.36,41.07z M27.19,40.19c0.07-0.49,1.45-0.58,1.19,0.49c-0.26,1.09-0.59,2.35-0.84,3.44l-0.35-0.01
			l-0.35,0.01c-0.25-1.09-0.58-2.36-0.84-3.44C25.73,39.61,27.11,39.7,27.19,40.19z M29.8,41.74c-0.44,1.05-0.88,2.15-1,2.48
			c-0.24-0.03-0.49-0.05-0.74-0.06c0.3-0.93,0.66-2.25,0.97-3.08C29.23,40.5,30.22,40.75,29.8,41.74z M25.37,44.83
			c0.3-0.11,1.47-0.17,1.82-0.17c0.35,0,1.51,0.06,1.82,0.17c0.03,0.15,0.04,0.37,0.01,0.53c-0.45,0.13-1.24,0.2-1.83,0.2
			c-0.59,0-1.38-0.07-1.83-0.2C25.33,45.2,25.33,44.98,25.37,44.83L25.37,44.83z M28.63,48.26c-0.4,0.09-1.03,0.12-1.45,0.12
			c-0.42,0-1.06-0.04-1.45-0.12l0.16-0.64c-0.3-0.03-0.6-0.14-0.84-0.23c0.12-0.43,0.32-0.85,0.47-1.43
			c0.53,0.12,1.06,0.16,1.66,0.16c0.6,0,1.13-0.04,1.66-0.16c0.16,0.58,0.36,1.01,0.48,1.43c-0.24,0.09-0.55,0.2-0.84,0.23
			L28.63,48.26L28.63,48.26z M22.65,38.45c0.15,0.52,0.28,1.1,0.31,1.74c0.03,0.74-0.52,1.65-1.1,2.61l-0.2,0.34
			c1.68,8.25,9.66,11,9.66,11V38.47C31.31,38.47,25.3,38.45,22.65,38.45"/>
		<path class="st0" d="M40.08,40l-0.03-0.39l0.39,0c0.53,0,0.79-0.51,0.93-1.1c-2.05-0.01-9.38,0.01-9.38,0.01v7.57
			c0.61-0.45,1.2-0.82,1.97-1.07v-1.66h0.76c0.05-1.83,0.48-3.15,1.33-4.02l0.25-0.26l0.25,0.26c0.85,0.88,1.29,2.2,1.33,4.02h0.79
			v1.77c0.84,0.35,1.4,0.88,1.84,1.44c0.69-1.41,1.2-3.04,1.38-4.93l-0.11,0.01C40.99,41.65,40.15,41.08,40.08,40"/>
		<path class="st0" d="M41.91,38.52l-0.15,0c-0.19,0.86-0.58,1.46-1.31,1.46c0.06,0.86,0.71,1.3,1.33,1.3l0.14-0.02
			C41.99,40.39,41.99,39.49,41.91,38.52"/>
		<path class="st0" d="M38.12,48.32l-0.67-0.77l-1.13,1.01l0.47,0.53c0,0,0.47-0.22,0.9,0.26l-1.19,1.03
			c-0.42-0.49-0.13-0.93-0.13-0.93l-0.46-0.53l-1.38,1.24l-0.45-0.52l1.42-1.19l-0.51-0.59l-0.46,0.41
			c-0.41-0.47-0.72-1.08-0.43-1.87c0.81-0.18,1.38,0.22,1.78,0.68l-0.46,0.41l0.52,0.6l1.17-0.98l-0.67-0.76
			c0.6-0.07,1.12,0.14,1.42,0.48C38.13,47.18,38.27,47.74,38.12,48.32L38.12,48.32z M36.3,45.4c-2.23,0-3.09,0.62-4.31,1.55v7.24
			c0,0,5.28-1.82,8.16-6.92C39.48,46.28,38.52,45.4,36.3,45.4"/>
		<path class="st0" d="M23.22,32.31c1.11-0.63,1.69-1.1,2.28-2.02c-0.44-0.21-0.96-0.6-1.34-1.14c2.11,0.59,3.18,0.9,5.67,0.02
			c-0.41,0.64-1.01,1.03-1.52,1.35c0.56,0.93,1.12,2,1.32,2.84c-0.75-0.06-1.59,0.12-2.19,0.67c-0.93,0.04-2.11,0.34-2.76-1.77
			c-0.33,0.17-0.67,0.39-0.67,0.39c0.38,1.38,1.08,2.32,2.93,2.12c0.1,0.44,0.18,0.69,0.41,1.06c-0.76,0.44-2.67,1.57-4.13,0.28
			L23.22,32.31L23.22,32.31z M30.21,35.42c-0.2,0.28-1.39,0.65-1.69,0.46c-0.5-0.3-0.75-0.96-0.63-1.24
			c0.15-0.37,1.46-0.73,1.88-0.59C30.19,34.2,30.38,35.18,30.21,35.42L30.21,35.42z M33.76,33.83v-0.39l-0.93-0.02
			c0.22-0.98,2.14-2.23,3-2.52c-0.05-1.07,1.36-1.42,2.49-1.46c1.4-0.04,1.73,1.47,1.73,1.93c0,0.62-0.16,1.99-0.94,2.41
			c-1.13,0.62-2.08-0.23-2.08-1.01c0-0.85,0.59-1.34,1.6-1.23c1.01,0.11,0.94-0.45,0.17-0.65c-0.38-0.09-1.98-0.17-2.52,1.02
			c-0.31,0.01-0.64-0.11-0.83-0.31c-0.21,0.27-0.53,0.46-0.98,0.58c0.39,0.8,1.18,0.66,1.67,0.28l-0.02,0.34
			c0,1.95,2.08,2.45,3.36,1.71c-0.21,0.63-0.11,1.43-0.03,1.97h-5.04c0.09-0.54,0.76-1.15,1.32-1.55l-0.45-0.7
			c-0.55,0.24-1.06,0.46-1.65,0.62C32.23,35.23,32.32,34.24,33.76,33.83L33.76,33.83z M21.7,34.58c0.56,0.46,0.77,0.8,0.6,2.35
			c-0.02,0.19,0.08,0.56,0.2,0.95h18.98c0.02-0.21,0.03-0.41,0.03-0.58c0.01-0.85-0.14-1.53-0.42-1.81
			c-0.09-0.09-0.19-0.13-0.37-0.13l-0.03,0l-0.76,0.08l0.4-0.65c0.4-0.64,0.96-1.01,1.57-1.05v-5.64H21.43v6.29l0.21,0.13
			L21.7,34.58"/>
		<path class="st0" d="M21.43,34.84v3.04h0.67c-0.12-0.4-0.21-0.75-0.18-1C22.1,35.35,21.87,35.19,21.43,34.84"/>
		<path class="st0" d="M41.91,37.88v-3.78c-0.44,0.04-0.9,0.31-1.25,0.88l0.11-0.01c0.85,0,1.13,1.15,1.11,2.33
			c0,0.19-0.02,0.39-0.03,0.58H41.91"/>
		<path class="st0" d="M26.41,32.71c0.35,0.17,0.79-0.03,1.24,0.03c-0.09-0.2-0.18-0.34-0.13-0.62c0.11-0.55-0.32-0.69-0.53-0.67
			c-0.51,0.03-0.81,0.14-1.34,0C26.02,31.81,25.92,32.47,26.41,32.71"/>
		<path class="st0" d="M21.96,36.85c0.18-1.58-0.07-1.7-0.52-2.07c-0.39-0.33-1.05-0.43-1.69-0.87c-0.46-0.32-0.59-0.78-1.18-1.4
			c0.12-1.33,1.07-2.95,1.76-3.31c0.1-0.06,0.07-2.11,0.07-2.11s0.46-0.02,0.42-0.05c-0.62-0.38-1.38-0.09-1.93,0.55
			c-0.53,0.43-1.74,1.24-2.57,1.52c-1.13-0.95-2.89-1.79-4.18-3.09c0,0,1.7-0.02,2.49-0.34c0.21-0.13,0.76-0.99,0.53-1.83
			c-0.27-0.1-0.65-0.3-1.02-0.5c-0.47-0.27-0.92-0.55-1.13-0.71c-0.74-0.56-1.04-1.05-2.32-1.37c0.08-0.59,0.21-0.45,0.77-0.83
			c0.72-0.49,1.12-1.07,1.41-1.64c0.22-0.45-0.03-1.38-0.61-0.2c-0.2,0.42-0.76,0.97-1.39,1.14c0.05-0.36,0.07-0.58,0.07-0.77
			c1.87-1.32,1.69-2.49,1.55-3.58c-0.08-0.63-0.71-0.9-0.68-0.24c0.01,0.44,0.4,1.68-0.88,2.41c-0.03-0.55-0.18-0.8-0.29-1.08
			c1.14-1.51,0.66-2.96,0.18-3.61c-0.3-0.43-1.06-0.57-0.71,0.1c0.28,0.55,0.73,2.03-0.11,2.64c-0.3-0.36-0.63-0.5-0.75-0.99
			c0.09-1.63-0.02-2.63-0.22-3.21c-0.2-0.55-0.72-0.88-0.67-0.08c0.05,0.9,0.12,2.05,0.04,2.12C8.3,13.5,7.09,12.37,6.6,12.04
			c-0.5-0.35-1.08-0.22-0.51,0.46c0.51,0.6,2.05,1.73,1.86,2.1c-0.12,0.23-1.23-0.68-1.8-0.87c-0.58-0.2-0.76,0.11-0.27,0.51
			c0.79,0.65,1.31,1.07,2.6,1.51c1.29,0.43,1.94,2.22,1.53,4.78c-0.02,0.12-0.24,0.1-0.36,0.06c-0.06-0.98-0.23-2.15-0.46-2.66
			c-0.31-0.67-0.91-0.69-0.69,0.22c0.18,0.73,0.28,1.51,0.15,2.48c-1.07-0.18-1.48-0.47-1.92-0.73c-0.05-0.5,0.2-1.3,0.26-2.04
			c0.04-0.72-0.38-1.17-0.62-0.27c-0.23,0.86-0.38,1.28-0.52,1.9c-0.3-0.1-0.63-0.24-0.78-0.41l-0.08-1.76
			c-0.07-0.8-0.38-0.77-0.62-0.07c-0.11,0.32-0.19,0.75-0.22,1.27c-0.38-0.23-0.63-0.66-0.67-1.01c0.06-0.83,0.2-1.71,0.3-2.26
			c0.07-0.39-0.2-1.2-0.51-0.22c-0.22,0.69-0.28,1.28-0.42,1.77c-0.27-0.02-0.63-1.61-0.82-2.61c-0.08-0.46-0.47-0.99-0.54,0.04
			c-0.08,1.13,0.15,2.27,0.44,2.77c-0.55-0.06-1.07-1.04-1.45-1.62c-0.34-0.51-0.5,0.02-0.46,0.22c0.32,2.01,1.93,2.73,2.66,2.87
			c1.12,1.62,3.27,2.31,5.09,3.09c-2.36-0.03-2.98,0.92-4.06,0.31c0.05,0.89,0.49,1.3,0.91,1.51c0.3,0.14,0.6,0.18,0.74,0.21
			c0.2,1.08,1.22,1.03,2.1,1.08c-0.22,2.11,0.03,4.9,1.88,6.97C9.27,32.7,9.2,34.1,9.21,35.03c-1.52,1.41-2.87,4.36-3.4,5.99
			c-0.4,1.22-1,2.17-1.93,2.61c0.76,0.81,1.88,0.41,2.53-0.04c0.05,0.72,0.21,1.23,0.32,1.65c-0.43,0.65-0.73,1.1-0.69,1.88
			c-0.49,0.13-0.83,0.44-1.1,0.77c-0.16,0.21,0.03,1.18,0.21,1.59c0.61,1.35,0.13,4.41,0.03,5.32c0.25,0.01,0.72,0.03,0.82-0.35
			c0.15,0.13,0.52,0.4,0.69,0.99C6.66,55.7,6.51,56.64,7,56.76c0.39,0.1,2.09,0.04,2.32-0.26c-0.17-0.2-0.47-0.65-0.65-1.1
			c0-0.47-0.04-1.03-0.17-1.27c-0.2-0.34-0.69-1.12-1-1.44c-0.07-0.56-0.13-3.05,0.14-4.01c0.44-0.31,3.43-2.53,4.06-4.66
			c0.55,0.19,0.38,1.67,0.38,3.6c0,0.52,0.63,0.78,1,0.82c0.81,0.1,1.97,0.87,3.26,2.78c0.25-0.27,0.58-0.52,0.58-0.52
			c0.17,0.23,0.36,0.78,0.48,1.13c0.14,0.26,1.18,0.42,1.98,0.17c0.26-0.09,0.42-0.13,0.59-0.42c-1.02-1.77-1.63-2.94-2.93-3.92
			c-0.6-0.46-1.41-0.68-2.08-1.11c0.45-0.84,1.69-4.81,0.94-6.26c-0.25-0.48-1.19-0.96-2.34-0.74c0.96-1.16,2.91-3.44,3.16-4.13
			c0.22,0.27,1.38,0.08,2.23,0.42c0.31,0.12,1.19,1.26,1.23,1.65c0.08,0.7,0.12,1.53-0.38,3.45c0.34-0.06,0.29-0.07,0.63-0.21
			c0.06,0.51-0.1,0.92-0.55,1.69c0.11,0.69,0.42,1.75,0.75,1.96c0.44-1.29,2.04-3.13,2-4.2C22.56,38.72,21.88,37.49,21.96,36.85"/>
		<path class="st0" d="M82.22,20.83c-0.26-0.82-1.12-2.06-2.86-2.06c-1.1,0-2.06,0.56-2.53,1.43c-0.56,1.05-0.82,2.48-0.82,4.45
			c0,2.81,0.47,4.56,1.45,5.27c0.52,0.37,1.17,0.56,1.94,0.56c2.27,0,3.23-1.73,3.23-5.88C82.64,22.93,82.5,21.74,82.22,20.83
			L82.22,20.83z M87.26,35.48c0,0-0.47,0.28-1.45,0.28c-1.26,0-2.39-0.75-3-1.15c-0.77-0.52-2.04-1.24-3.3-1.64
			c-2.43,0-4.03-0.68-5.27-2.29c-1.24-1.59-1.87-3.65-1.87-6.04c0-3.51,1.33-6.34,3.67-7.61c0.96-0.51,2.15-0.8,3.37-0.8
			c4.33,0,7,3.16,7,8.26c0,3.53-1.26,6.18-3.21,7.47c0.44,0.16,1.08,0.58,1.45,0.82c0.58,0.35,1.29,0.68,2.01,0.68
			c0.7,0,1.45-0.12,1.45-0.12L87.26,35.48"/>
		<path class="st0" d="M96.75,33.05c-0.4-0.28-0.73-0.68-0.94-1.17c-0.77,0.75-1.9,1.15-3.16,1.15c-1.69,0-3.14-0.8-3.53-1.94
			c-0.19-0.54-0.26-1.17-0.26-2.39v-7.68l3.09-0.59v7.7c0,1.08,0.09,1.64,0.26,1.97c0.16,0.33,0.63,0.56,1.1,0.56
			c0.77,0,1.71-0.56,1.94-1.15v-8.43l3-0.63v9.15c0,0.8,0.26,1.62,0.72,2.18L96.75,33.05"/>
		<path class="st0" d="M107.88,25.27c0-0.89-0.09-1.36-0.38-1.8c-0.3-0.47-0.75-0.7-1.38-0.7c-1.19,0-1.87,0.94-1.87,2.6v0.05h3.63
			L107.88,25.27L107.88,25.27z M104.2,27.71v0.09c0,1.85,0.91,2.9,2.53,2.9c1.08,0,2.08-0.4,3.04-1.19l1.22,1.87
			c-1.38,1.12-2.83,1.66-4.52,1.66c-3.44,0-5.67-2.43-5.67-6.2c0-2.15,0.45-3.58,1.5-4.75c0.98-1.1,2.18-1.61,3.77-1.61
			c1.38,0,2.69,0.47,3.46,1.26c1.1,1.12,1.59,2.74,1.59,5.24v0.73L104.2,27.71"/>
		<path class="st0" d="M119.71,25.27c0-0.89-0.09-1.36-0.37-1.8c-0.31-0.47-0.75-0.7-1.38-0.7c-1.19,0-1.87,0.94-1.87,2.6v0.05h3.63
			C119.71,25.42,119.71,25.27,119.71,25.27z M116.03,27.71v0.09c0,1.85,0.91,2.9,2.53,2.9c1.08,0,2.08-0.4,3.04-1.19l1.22,1.87
			c-1.38,1.12-2.83,1.66-4.52,1.66c-3.44,0-5.66-2.43-5.66-6.2c0-2.15,0.44-3.58,1.5-4.75c0.98-1.1,2.18-1.61,3.77-1.61
			c1.38,0,2.69,0.47,3.46,1.26c1.1,1.12,1.59,2.74,1.59,5.24v0.73L116.03,27.71"/>
		<path class="st0" d="M131.54,32.72v-7.8c0-1.36-0.23-1.75-1.05-1.75c-0.63,0-1.45,0.42-2.18,1.08v8.47h-3.14v-8.68
			c0-1.03-0.14-2.01-0.42-2.81l2.79-0.8c0.28,0.49,0.45,1.01,0.45,1.5c0.47-0.33,0.87-0.61,1.38-0.89c0.63-0.33,1.45-0.52,2.15-0.52
			c1.33,0,2.5,0.7,2.88,1.73c0.16,0.44,0.24,0.96,0.24,1.71v8.75H131.54"/>
		<path class="st0" d="M141.45,33.09c-1.48,0-3.09-0.47-4.85-1.38l1.12-2.3c0.96,0.59,2.62,1.36,3.98,1.36
			c0.89,0,1.59-0.59,1.59-1.36c0-0.82-0.59-1.24-1.85-1.48l-1.4-0.26c-0.8-0.14-1.78-0.7-2.2-1.22c-0.42-0.51-0.68-1.38-0.68-2.16
			c0-2.34,1.85-3.91,4.63-3.91c1.92,0,3.18,0.58,4.28,1.12l-1.03,2.11c-1.19-0.61-2.06-0.87-2.95-0.87c-0.91,0-1.52,0.47-1.52,1.17
			c0,0.61,0.4,0.94,1.5,1.22l1.45,0.38c1.47,0.37,1.97,0.82,2.39,1.36c0.44,0.56,0.65,1.24,0.65,2.04
			C146.58,31.41,144.52,33.09,141.45,33.09"/>
		<path class="st0" d="M151.86,33c-1.34,0-2.41-0.63-2.79-1.64c-0.23-0.61-0.28-0.98-0.28-2.69v-8.94c0-1.57-0.05-2.53-0.16-3.6
			l3.21-0.73c0.12,0.66,0.16,1.43,0.16,3.11v9.34c0,2.06,0.02,2.34,0.21,2.67c0.12,0.21,0.38,0.33,0.63,0.33
			c0.12,0,0.19,0,0.35-0.05l0.54,1.87C153.19,32.88,152.53,33,151.86,33"/>
		<path class="st0" d="M160.69,27.47c-2.18,0-2.93,0.4-2.93,1.83c0,0.94,0.59,1.57,1.38,1.57c0.59,0,1.17-0.31,1.64-0.82l0.05-2.58
			L160.69,27.47L160.69,27.47z M163.36,33.33c-0.73-0.3-1.38-0.84-1.69-1.45c-0.23,0.23-0.49,0.47-0.73,0.63
			c-0.59,0.42-1.43,0.66-2.41,0.66c-2.67,0-4.12-1.36-4.12-3.74c0-2.81,1.94-4.12,5.76-4.12c0.24,0,0.45,0,0.7,0.02v-0.49
			c0-1.33-0.26-1.78-1.4-1.78c-1.01,0-2.18,0.49-3.46,1.36l-1.33-2.25c0.63-0.4,1.1-0.63,1.94-0.98c1.17-0.49,2.18-0.7,3.28-0.7
			c2.01,0,3.4,0.75,3.86,2.08c0.16,0.49,0.23,0.87,0.21,2.15l-0.07,4.03c-0.02,1.31,0.07,1.87,1.12,2.67L163.36,33.33"/>
		<path class="st0" d="M173.58,32.72v-7.8c0-1.36-0.23-1.75-1.05-1.75c-0.63,0-1.45,0.42-2.18,1.08v8.47h-3.14v-8.68
			c0-1.03-0.14-2.01-0.42-2.81l2.79-0.8c0.28,0.49,0.45,1.01,0.45,1.5c0.47-0.33,0.87-0.61,1.38-0.89c0.63-0.33,1.45-0.52,2.15-0.52
			c1.33,0,2.5,0.7,2.88,1.73c0.16,0.44,0.23,0.96,0.23,1.71v8.75H173.58"/>
		<path class="st0" d="M186.44,23.89c-0.59-0.52-1.15-0.77-1.71-0.77c-1.4,0-2.01,1.17-2.01,3.84c0,2.58,0.54,3.42,2.18,3.42
			c0.59,0,1.24-0.4,1.55-0.77L186.44,23.89L186.44,23.89z M187.14,32.72c-0.1-0.19-0.14-0.38-0.19-0.7
			c-0.77,0.68-1.69,1.01-2.76,1.01c-3.04,0-4.96-2.36-4.96-6.09c0-3.75,2.08-6.32,5.13-6.32c0.87,0,1.54,0.21,2.13,0.68
			c-0.05-0.26-0.09-1.08-0.09-1.78V15.4l3.11,0.49v12.45c0,2.95,0.23,3.91,0.44,4.38H187.14"/>
		<path class="st0" d="M79.77,55.63c-2.01,0-3.72-0.7-4.94-2.01c-1.36-1.47-1.99-3.47-1.99-6.23c0-3.06,0.82-5.24,2.48-6.74
			c1.15-1.03,2.53-1.52,4.19-1.52c1.71,0,3.18,0.54,4.4,1.59l-0.87,1.19c-1.31-0.89-2.25-1.24-3.49-1.24c-1.87,0-3.35,0.87-4,2.72
			c-0.42,1.19-0.63,2.55-0.63,4.07c0,2.11,0.4,3.82,1.12,4.87c0.73,1.05,2.36,1.71,3.89,1.71c1.01,0,1.87-0.21,2.55-0.63v-4.89
			h-3.23l-0.37-1.59h5.4v7.49C83.14,55.16,81.41,55.63,79.77,55.63"/>
		<path class="st0" d="M94.85,46.36c-0.49-1.03-1.52-1.5-2.48-1.5c-1.03,0-1.99,0.49-2.39,1.26c-0.38,0.72-0.56,1.66-0.56,3.04
			c0,1.64,0.28,3.09,0.72,3.82c0.42,0.7,1.36,1.17,2.37,1.17c1.22,0,2.13-0.63,2.53-1.76c0.26-0.73,0.35-1.38,0.35-2.53
			C95.39,48.23,95.22,47.13,94.85,46.36L94.85,46.36z M92.46,55.68c-3.21,0-5.03-2.36-5.03-6.2c0-3.79,1.9-6.11,4.96-6.11
			c1.94,0,3.21,0.89,4,2.04c0.73,1.05,1.08,2.44,1.08,4.33C97.47,53.62,95.39,55.68,92.46,55.68"/>
		<path class="st0" d="M104.74,55.49h-1.8l-4.19-11.68l1.87-0.4l2.71,8.03c0.33,0.96,0.56,1.99,0.56,1.99h0.05
			c0,0,0.19-0.91,0.56-1.97l2.67-7.75h1.94L104.74,55.49"/>
		<path class="st0" d="M117.53,45.87c-0.4-0.63-1.22-1.03-2.11-1.03c-1.66,0-2.6,1.22-2.69,3.63h5.34
			C118.04,47.2,117.88,46.43,117.53,45.87L117.53,45.87z M112.73,49.85v0.28c0,1.1,0.14,1.94,0.54,2.55
			c0.66,1.01,1.73,1.43,2.9,1.43c1.12,0,2.04-0.35,2.86-1.1l0.7,1.17c-1.03,0.94-2.43,1.45-3.93,1.45c-3.23,0-5.17-2.34-5.17-6.2
			c0-1.97,0.42-3.23,1.4-4.4c0.94-1.1,2.08-1.62,3.49-1.62c1.26,0,2.36,0.44,3.16,1.26c1.01,1.03,1.33,2.13,1.33,4.92v0.26
			L112.73,49.85"/>
		<path class="st0" d="M128.24,45.47c-0.12-0.05-0.33-0.09-0.51-0.09c-0.7,0-1.4,0.3-1.94,0.84c-0.54,0.54-0.68,0.89-0.68,1.85v7.3
			h-1.82v-8.99c0-1.71-0.4-2.48-0.4-2.48l1.83-0.49c0,0,0.44,0.91,0.38,1.9c0.84-1.19,2.08-1.94,3.27-1.94
			c0.3,0,0.63,0.12,0.63,0.12L128.24,45.47"/>
		<path class="st0" d="M137.46,55.37v-7.89c0-1.24-0.09-1.54-0.42-1.94c-0.26-0.31-0.75-0.49-1.29-0.49c-0.93,0-2.39,0.75-3.23,1.64
			v8.69h-1.78v-8.99c0-1.66-0.44-2.46-0.44-2.46l1.78-0.49c0,0,0.42,0.87,0.42,1.83c1.22-1.22,2.43-1.8,3.68-1.8
			c1.26,0,2.39,0.68,2.86,1.71c0.19,0.42,0.28,0.89,0.28,1.36v8.85L137.46,55.37"/>
		<path class="st0" d="M155.61,55.37v-8.62c0-1.12-0.52-1.71-1.5-1.71c-1.05,0-1.87,0.68-3.09,1.8v8.52h-1.85v-8.29
			c0-0.7-0.07-1.17-0.33-1.5c-0.28-0.33-0.65-0.47-1.19-0.47c-0.89,0-1.76,0.44-2.97,1.54v8.71h-1.76v-9.03
			c0-1.69-0.42-2.48-0.42-2.48l1.78-0.42c0,0,0.42,0.91,0.42,1.73c0.77-0.87,2.2-1.76,3.39-1.76c1.15,0,2.29,0.7,2.72,1.94
			c1.12-1.19,2.55-1.94,3.74-1.94c1.73,0,2.93,1.31,2.93,3.16v8.8L155.61,55.37"/>
		<path class="st0" d="M167.3,45.87c-0.4-0.63-1.22-1.03-2.11-1.03c-1.66,0-2.6,1.22-2.69,3.63h5.34
			C167.81,47.2,167.65,46.43,167.3,45.87L167.3,45.87z M162.5,49.85v0.28c0,1.1,0.14,1.94,0.54,2.55c0.65,1.01,1.73,1.43,2.9,1.43
			c1.12,0,2.04-0.35,2.86-1.1l0.7,1.17c-1.03,0.94-2.43,1.45-3.93,1.45c-3.23,0-5.17-2.34-5.17-6.2c0-1.97,0.42-3.23,1.4-4.4
			c0.94-1.1,2.08-1.62,3.49-1.62c1.26,0,2.37,0.44,3.16,1.26c1.01,1.03,1.34,2.13,1.34,4.92v0.26L162.5,49.85"/>
		<path class="st0" d="M179.76,55.37v-7.89c0-1.24-0.09-1.54-0.42-1.94c-0.26-0.31-0.75-0.49-1.29-0.49c-0.94,0-2.39,0.75-3.23,1.64
			v8.69h-1.78v-8.99c0-1.66-0.45-2.46-0.45-2.46l1.78-0.49c0,0,0.42,0.87,0.42,1.83c1.22-1.22,2.43-1.8,3.67-1.8
			c1.26,0,2.39,0.68,2.86,1.71c0.19,0.42,0.28,0.89,0.28,1.36v8.85L179.76,55.37"/>
		<path class="st0" d="M189.46,45.1h-2.43v7.51c0,1.29,0.35,1.73,1.5,1.73c0.51,0,0.82-0.07,1.15-0.23l0.26,1.17
			c-0.59,0.31-1.24,0.47-2.06,0.47c-0.61,0-1.08-0.12-1.52-0.33c-0.82-0.4-1.12-1.15-1.12-2.32v-8.01h-1.52v-1.38h1.52
			c0-1.12,0.19-2.95,0.19-2.95l1.92-0.42c0,0-0.23,1.83-0.23,3.37h2.93L189.46,45.1"/>
	</g>
</g>
</svg>
