<?xml version="1.0" encoding="utf-8"?>
<!-- Generator: Adobe Illustrator 24.0.0, SVG Export Plug-In . SVG Version: 6.00 Build 0)  -->
<svg version="1.1" id="Layer_1" xmlns="http://www.w3.org/2000/svg" xmlns:xlink="http://www.w3.org/1999/xlink" x="0px" y="0px"
	 viewBox="0 0 358.17 61.96" style="enable-background:new 0 0 358.17 61.96;" xml:space="preserve">
<style type="text/css">
	.st0{fill:#FFFFFF;}
</style>
<g>
	<g>
		<path class="st0" d="M66.21,23.49c-0.22,0.06-0.74,0.21-1.08,0.25c0.65-0.63,1.04-1.41,1.04-2.05c-0.31,0.1-0.87,0.31-1.38,0.42
			c1.01-0.86,1.56-1.85,1.32-3.18c-0.31,0.16-0.74,0.41-1.18,0.59c0.88-1.36,0.87-2.56,0.51-3.26c-0.39,0.37-0.87,0.8-1.38,1.11
			c0.32-1.57,0.31-2.58-0.35-3.29c-0.67,1.26-1.25,2.21-2.19,3.33c0.07-1.04-0.04-2.33-0.72-3.01c0,0-0.19,1.45-0.7,1.91
			c-0.12-1.42-0.56-2.19-1.21-2.95c0,0-0.04,1.48-0.44,2.39c-0.34-1.23-0.98-2.19-1.79-3.11c0.06,2.73-0.7,7.87-2.89,11.32
			c-0.26,2.05-0.48,5.13-3.82,6.95c-0.48-0.34-1.33-0.77-2.52-0.7c-0.31-1.55,1.71-2.95,3.45-4.08c1.76-1.14,2.53-2.11,2.49-3.62
			c-0.04-1.66-1.17-2.34-2.33-2.39c-1.64-0.07-2.98,1.42-3.29,2.03c-0.47,0.23-1.88,0.66-2.46,0.82c-0.64,0.17-1.36,0.43-1.81,0.82
			c0.27,0.17,1.04,0.23,1.34,0.18c0.56-0.08,2.33-0.41,4.03-0.61c0.62,0.33,1.62,0.89,0.56,1.63c-1.44,0.93-2.06,1.16-4.1,2.23
			c-3.22,1.69-2.18,5.93-1.39,6.24c0,1.43,1.28,4.02,2.15,4.92c0.39,1.8-0.13,4.48-0.67,5.59c-0.45-1.09-1.22-3.62-1.73-5.1
			c0.52-2.79-0.32-4.02-0.91-4.5c-0.59-0.48-1.52-0.35-2.12,0.62c0.93-0.1,1.24,1.09,1.22,2.32c-0.02,1.48-0.4,2.66-1.43,2.67
			c0.08,1.26,1.44,1.62,2.12,1.01c0.11,0.28,0.66,1.94,1.17,3.42c0.31,0.88,0.6,1.68,0.8,2.1c0.21,0.47,1.78,0.54,1.97,0
			c0.25-0.72,0.44-1.26,0.83-2.1c0.3-0.64,0.71-1.45,1.34-2.66c0.42,0.73,0.98,1.88,1.31,2.66c0.15,0.36,0.26,0.65,0.27,0.78
			c0.13,1.2,0.06,5.48-0.27,8.04c-3.51-0.96-4.51,0.76-4.2,2.03c0.5-0.56,1.16-0.49,1.57-0.19c-0.1,0.94,0.15,1.61,1.11,1.9
			c1.01-2.67,4.63-2.08,4.97-1.85c0.02-0.52,0.5-1.81-1.36-2.08c0.07-2.3,0.31-5.13,0.39-5.72c0.09-0.59,0.15-0.96-0.13-1.88
			c-0.08-0.28-0.18-0.62-0.29-1.02c-0.24-0.93-0.49-2.15-0.51-3.47c0.33,0.32,1.1,0.58,1.63,0.46c0.41,1.74,1,1.24,1.31,1.97
			c0.16,0.38,0.19,0.73,0.24,1.04c0.04,0.31,0.09,0.57,0.26,0.8c1.24,0.04,2.3-0.26,3.06-0.8c0.23-0.16,0.44-0.35,0.61-0.55
			c-0.31-1.85-0.83-2.77-1.8-3.89c-0.25-1.52-0.96-2.91-1.94-4.14c1.23-0.4,2.47-1.4,3.12-2.09c0.59-0.04,1.26-0.53,1.31-1.49
			c0.34-0.04,0.63-0.06,0.9-0.11c-0.03-0.26-0.1-0.66-0.14-0.9c0.45,0,0.88-0.02,1.3-0.06c-0.12-0.35-0.28-0.71-0.41-0.98
			c0.45,0,1.01-0.03,1.46-0.06c-0.24-0.45-0.42-0.84-0.56-1.24c0.52-0.05,1.32-0.18,1.98-0.34c-0.21-0.22-0.45-0.45-0.81-0.8
			c1.71-0.5,2.46-1.7,2.54-2.22c-0.25,0-0.77,0.11-1.08,0.09C65.46,25.08,66.1,24.31,66.21,23.49"/>
		<path class="st0" d="M42.25,27.33H20.61v7.99c0.1,0.06,0.19,0.13,0.29,0.22v-7.87h21.53v7.32c0.08,0.08,0.15,0.18,0.22,0.31v-7.97
			L42.25,27.33"/>
		<path class="st0" d="M31.6,54.88c-9.55-3.56-10.76-11.39-10.8-14.94l-0.03-0.01l0.03-0.26c0-0.77,0.06-1.29,0.09-1.48
			c-0.03-0.51-0.1-0.91-0.19-1.2l-0.09-0.19v3.69c0,4.13,1.51,7.69,4.5,10.58c2.61,2.53,5.55,3.71,6.39,4.01l0.13,0.05l0.14-0.05
			c0.84-0.3,3.78-1.48,6.39-4.01c2.98-2.89,4.5-6.45,4.5-10.58v-0.67c-0.08,0.12-0.15,0.2-0.23,0.29c-0.09,1.85-0.43,4.73-1.66,6.9
			C39.28,50.04,37.01,52.54,31.6,54.88"/>
		<path class="st0" d="M14.45,5.73c1.36,0.66,1.8-0.56,4.34,1.08c-1.68,0.53-2.98,2.62-4.88,2.08c1.36-0.68,1.22-1.67,2.01-2.17
			C15.42,6.66,14.43,6.43,14.45,5.73z M19.34,19.26c-0.81-0.33-2.07-0.55-2.77,0.44c-0.38-0.66,0.18-1.66,0.54-1.95
			c-1.79,0.03-2.8-0.51-3.06-1.06c0.66-0.36,2.33-0.97,3.69,0.03c0.94,0.69,1.42,1.02,2.53,1.39c0.4-0.4,0.25-0.22,0.38-0.34
			c-0.91-0.63-1.32-5.49-3.11-5.68c0.26-0.61,1.18-0.56,1.93-0.36c0.05-1.09-0.4-2.88-1.07-3.92c1.04-0.55,1.75,0.05,2.12,1.34
			c0.38,1.37-0.07,4.8,0.83,7.9l0.56-0.52c-0.28-1.8,1.7-2.47,2.13-3.36c0.17,1.21-0.08,1.75-0.42,2.19
			c0.72,0.08,1.04,0.79,0.93,1.28c-1.73-0.25-2.73,1.48-2.34,2.85C20.92,19.76,20.04,19.55,19.34,19.26L19.34,19.26z M27.78,20.26
			c-1.49,0.08-2.95,2.02-2.33,4.23c-0.22,0.08-0.87,0.07-1.08-0.38c-0.16,0.72-1.62,1.54-2.68,1.43c0.59-0.63,0.99-2.07,2.13-2.82
			c1.15-0.76,1.67-1.28,2.08-2.57c-0.53,0.25-3.32,0.97-4.1,0.11c1.83-0.27,3.99-1.3,5.06-1.97l-0.42-0.45
			c-1.15,0.65-2.68,1.18-3.46,1.42c-0.28-2.29,1.9-2.2,2.07-1.58c0.9-1.07,0.27-2.6-0.4-2.77c0.68-1.83,0-2.95-0.58-3.62
			c-0.14,1.94-2.3,2.25-2.56,3.74c-0.08-1.18-0.16-4.38-0.25-5.93c-0.17-2.89-3.82-3.91-4.38-3.91c-2.39,0.11-2.61-0.2-2.55-1.3
			c-1.21,1.38-0.8,2.6,0.23,3.19c-0.14,0.83-1.47,1.47-2.28,1.65c1.94,1.8,4.19,0.73,5.27-0.29l0.23-0.21
			c0.39,0.69,0.67,1.94,0.67,2.65c-1.81-0.1-2.14,1.31-2.14,1.81c2.3-0.96,2.56,3.46,3.16,4.17c-0.59-0.04-1.63-1.41-3.16-1.5
			c-1.85-0.12-2.5,0.87-3.25,0.83c0.14,1.31,1.73,2.04,2.75,2.19c-0.52,1.33-0.06,2.24,1.02,2.57c0-1.22,1.54-1.6,3.2-0.63
			c1.99,1.16,3.01,1.26,4.61,0.77c-0.26,0.58-0.98,0.64-1.87,1.5c-1.24,1.22-1.28,2.81-2.66,3.39c1.62,0.77,4.06-0.31,4.41-0.93
			c0.68,0.42,1.55,0.17,1.78-0.25c-1.1-2.43,0.76-3.88,1.49-3.85C27.81,20.96,28.13,20.23,27.78,20.26"/>
		<path class="st0" d="M44.6,7.05c0.82-0.59,1.33-0.84,1.76-1.1c0.7,0.03,1.91-0.06,2.64-0.42c-0.76,0.93-0.84,1.27-2.08,1.4
			c1.6,0.14,2.28,1.58,3.07,1.8C47.31,9.55,47.04,6.89,44.6,7.05z M47.9,15.05c0.8,0.66,0.54,1.59,0.35,1.8
			c-0.7-1.21-2.95-0.79-5.16,1.7c-0.15,0.19-0.36,0.4-0.61,0.62c0.17-2.98-2.26-3.03-2.98-2.73c0.08-0.86,0.61-1.45,0.9-1.53
			c-0.72-0.83-0.87-1.88-0.96-2.64c1.19,0.52,2.96,1.91,3.26,4.32l0.77-0.52c-0.23-4.2-0.18-4.18-0.21-7.04
			c0-0.4,0.02-1.33,1.28-1.23c0.05,1.06,0.22,3.88,0.16,7.79h0.45c0.41-1.09,1.85-2.38,3.54-2.26c1.15,0.08,1.55,0.05,2.21-0.24
			C50.37,14.38,48.41,14.96,47.9,15.05L47.9,15.05z M45.47,13.58c0-2.71-0.1-4.94-0.13-5.64l0.33,0.1c1.94,0.68,2.39,3.02,6.4,0.37
			c-2.15,0.25-2.26-1.57-3.24-1.61c1.49-0.84,1.59-2.78,1.59-2.78c-1.25,1.01-4.14,1.07-4.71,1.4c-0.75,0.45-1.69,1-2.33,1.35
			c-1.67,0.91-0.51,5.86-0.67,7.67c-0.9-2.7-2.72-2.29-3.68-3.83c-0.72,1.29,0.04,3.45,0.34,4.07c-1.04,0.84-0.76,2.4-0.51,2.82
			c0.89-0.64,2.26-0.47,2.68,0.59c-1.17,0.71-3.12,0.84-4.45-0.45l-0.48,0.53c0.94,1.24,3.3,1.73,5.05,0.72
			c-0.01,0.28-0.07,0.6-0.19,0.95c-0.91,0.48-2.09,0.74-3.43,0.28c0.18,1.36,1.74,2.37,3.23,2.78c-0.5,0.39-1.12,0.55-1.57,0.49
			c0.28,0.78,0.44,1.84-0.15,2.67c-0.74-0.49-1.14-0.98-1.42-2.89c-0.29-1.91-1.66-3.85-2.73-4.25c-0.06,0.68-0.06,0.38,0.06,0.82
			c2.84,2.08,1.23,5.83,4.18,7.18c1.08-1.23,1.1-1.67,0.93-2.83c1.07-0.28,1.86-1.18,2.15-1.87c-1.01,0.48-2.61-0.36-3.06-1.02
			c1.76-0.06,3.38-1.38,5.04-3.12c1.49-1.56,3.47-1.32,3.32-0.1c1.03-0.15,1.43-1.56,1.09-2.46c1.51-0.47,2.69-1.59,2.85-3.33
			C49.94,13.2,47.38,11.53,45.47,13.58"/>
		<path class="st0" d="M34.54,22.81c-0.14,0-0.26,0.07-0.34,0.17l-0.48-0.07l0.01-0.87c0.16-0.07,0.26-0.22,0.26-0.4
			c0-0.24-0.19-0.44-0.43-0.44s-0.43,0.2-0.43,0.44c0,0.17,0.09,0.31,0.22,0.38l-0.01,0.84l-0.46-0.04
			c-0.06-0.16-0.22-0.26-0.39-0.26c-0.24,0-0.43,0.19-0.43,0.43c0,0.24,0.19,0.43,0.43,0.43c0.15,0,0.29-0.08,0.36-0.2l0.49,0.05
			l-0.01,1.27c-0.14,0.07-0.23,0.22-0.23,0.38c0,0.24,0.19,0.44,0.43,0.44c0.24,0,0.44-0.2,0.44-0.44c0-0.17-0.11-0.33-0.26-0.39
			l0.01-1.21l0.41,0.06c0.06,0.17,0.22,0.29,0.41,0.29c0.24,0,0.44-0.19,0.44-0.43C34.97,23.01,34.78,22.81,34.54,22.81"/>
		<path class="st0" d="M30.77,22.56c-0.18,0-0.33,0.1-0.4,0.26l-0.45,0.04l-0.01-0.84c0.13-0.07,0.23-0.22,0.23-0.38
			c0-0.24-0.2-0.44-0.43-0.44c-0.24,0-0.44,0.2-0.44,0.44c0,0.18,0.11,0.33,0.26,0.4l0.01,0.87l-0.48,0.07
			c-0.08-0.1-0.2-0.17-0.34-0.17c-0.24,0-0.43,0.19-0.43,0.44c0,0.24,0.19,0.43,0.43,0.43c0.19,0,0.35-0.12,0.41-0.29l0.41-0.06
			l0.01,1.21c-0.15,0.07-0.25,0.22-0.25,0.39c0,0.24,0.19,0.44,0.43,0.44c0.24,0,0.44-0.2,0.44-0.44c0-0.17-0.1-0.31-0.24-0.38
			l-0.01-1.27l0.48-0.05c0.08,0.12,0.21,0.2,0.37,0.2c0.24,0,0.44-0.2,0.44-0.43C31.21,22.76,31.01,22.56,30.77,22.56"/>
		<path class="st0" d="M31.63,26.24c-0.65,1.24-1.85,1.2-2.9,0.51c-0.42-0.28-0.85-0.46-1.25-0.52c0.18-1.22,0.48-3.51,0.7-5.45
			c1.36-0.61,3.03-0.76,3.45,0.81c0.41-1.57,2.09-1.42,3.44-0.81c0.22,1.94,0.52,4.23,0.7,5.45c-0.39,0.06-0.83,0.25-1.25,0.52
			C33.48,27.44,32.27,27.48,31.63,26.24z M36.54,26.28c-0.26-1.75-0.89-6.65-0.97-8.29l-0.75,0.03c0.01,0.28,0.04,0.65,0.08,1.08
			c-0.9-0.27-2.07-0.45-3.27-0.45c-1.2,0-2.38,0.18-3.27,0.45c0.04-0.43,0.07-0.8,0.08-1.08l-0.75-0.03
			c-0.07,1.64-0.7,6.54-0.97,8.29c-0.45,0.17-0.74,0.62-0.74,1.42c0,0,4.07,0.06,5.65,0.06s5.64-0.06,5.64-0.06
			C37.28,26.9,36.98,26.46,36.54,26.28"/>
		<path class="st0" d="M53.61,61.25H9.65c-0.2-1.4-0.46-2.3-0.7-3.05h45.35C54.07,58.95,53.8,59.85,53.61,61.25z M23.82,51.84
			c0.41,0.6,0.79,1.04,0.98,1.52c0.19,0.5,0.07,0.81-0.3,1.32c-0.83,1.17-2.28,2.17-3.42,2.79h-4.4
			C19.44,56.69,23.18,54.32,23.82,51.84L23.82,51.84z M21.15,51.02c0.36-0.67,1.23-0.88,1.83-0.09c0.25,0.34,0.14,1.24-0.9,2.37
			C21.32,52.62,20.76,51.74,21.15,51.02L21.15,51.02z M38.71,54.68c-0.37-0.52-0.49-0.82-0.3-1.32c0.19-0.48,0.57-0.92,0.98-1.52
			c0.64,2.48,4.38,4.85,7.15,5.64h-4.41C40.99,56.85,39.55,55.85,38.71,54.68L38.71,54.68z M40.23,50.94
			c0.6-0.79,1.47-0.58,1.83,0.09c0.38,0.71-0.17,1.59-0.93,2.28C40.09,52.18,39.98,51.28,40.23,50.94L40.23,50.94z M54.48,57.25
			c-0.47,0.14-1.04,0.22-1.9,0.22h-1.06c-3.65-0.07-7.42-1.16-9.72-3.52c3.18-3.21-0.56-5.85-2.58-3.13
			c-0.63,0.85-1.13,1.46-1.57,2.28c-0.35,0.67-0.09,1.33,0.7,2.36c0.43,0.56,1.51,1.44,2.39,2.01H22.47
			c0.88-0.57,1.95-1.44,2.39-2.01c0.78-1.02,1.06-1.69,0.7-2.36c-0.44-0.83-0.95-1.43-1.58-2.28c-2.02-2.72-5.76-0.08-2.58,3.13
			c-2.3,2.36-6.06,3.45-9.72,3.52h-1.01c-0.86,0-1.43-0.09-1.9-0.22c-0.76-0.18-0.93,0.14-0.52,1.45c0.28,0.87,0.5,2.29,0.6,3.26
			H54.4c0.1-0.98,0.32-2.4,0.6-3.26C55.4,57.39,55.24,57.07,54.48,57.25"/>
		<path class="st0" d="M14.91,60.12L14.9,60.1l0.33-0.87l0.02-0.02l0.01,0.02l0.32,0.87l-0.01,0.02H14.91L14.91,60.12z M15.61,60.25
			l0.03,0.02l0.12,0.32l-0.02,0.06l-0.04,0.02l0.08,0.02l0.49,0l0.12-0.02l-0.03-0.02l-0.11-0.01c-0.06-0.02-0.13-0.05-0.23-0.28
			c-0.17-0.4-0.59-1.46-0.64-1.6l-0.07-0.08l-0.07,0.11l-0.65,1.63c-0.05,0.13-0.1,0.22-0.22,0.23l-0.09,0l-0.03,0.02l0.05,0.02
			l0.31,0l0.28,0l0.04-0.02l-0.04-0.02h-0.04c-0.08,0-0.1-0.03-0.1-0.08l0.04-0.15l0.05-0.15l0.02-0.02L15.61,60.25"/>
		<path class="st0" d="M16.91,59.87c0,0.38,0.1,0.57,0.23,0.69c0.19,0.17,0.44,0.18,0.58,0.18c0.17,0,0.36-0.02,0.54-0.19
			c0.22-0.18,0.25-0.49,0.25-0.78v-0.28l0-0.55c0.01-0.09,0.02-0.14,0.09-0.15l0.08-0.01l0.05-0.02l-0.05-0.02l-0.3,0l-0.29,0
			l-0.06,0.02l0.05,0.02l0.09,0.01c0.09,0.02,0.11,0.06,0.11,0.15l0,0.55v0.33c0,0.27-0.01,0.5-0.15,0.65
			c-0.11,0.1-0.25,0.14-0.36,0.14c-0.09,0-0.21-0.02-0.33-0.11c-0.13-0.11-0.2-0.26-0.2-0.64v-0.37l0-0.55
			c0.01-0.09,0.03-0.14,0.1-0.15l0.08-0.01l0.04-0.02l-0.06-0.02l-0.32,0l-0.38,0l-0.06,0.02l0.05,0.02l0.1,0.01
			c0.09,0.02,0.11,0.06,0.11,0.15l0.01,0.55L16.91,59.87"/>
		<path class="st0" d="M19.94,59.44l0-0.52l0.03-0.05l0.17-0.02c0.21,0,0.5,0.03,0.74,0.26c0.11,0.11,0.25,0.32,0.25,0.65
			c0,0.27-0.05,0.51-0.22,0.65c-0.16,0.13-0.33,0.19-0.6,0.19c-0.21,0-0.31-0.06-0.34-0.1l-0.03-0.2l0-0.53L19.94,59.44L19.94,59.44
			z M19.61,59.94c0,0.24,0,0.45-0.01,0.56c-0.01,0.08-0.02,0.13-0.07,0.15l-0.09,0.01l-0.04,0.02l0.05,0.02l0.33,0l0.56,0.03
			c0.48,0,0.75-0.18,0.87-0.31c0.15-0.15,0.28-0.4,0.28-0.72c0-0.31-0.12-0.53-0.25-0.66c-0.28-0.29-0.72-0.29-1.04-0.29l-0.4,0
			l-0.38,0l-0.06,0.02l0.04,0.02l0.11,0.01c0.08,0.02,0.1,0.06,0.11,0.15l0.01,0.55L19.61,59.94"/>
		<path class="st0" d="M22.49,60.12l-0.01-0.02l0.32-0.87l0.01-0.02l0.01,0.02l0.32,0.87l-0.01,0.02
			C23.14,60.12,22.49,60.12,22.49,60.12z M23.19,60.25l0.02,0.02l0.12,0.32l-0.03,0.06l-0.04,0.02l0.08,0.02l0.49,0l0.12-0.02
			l-0.04-0.02l-0.11-0.01c-0.06-0.02-0.13-0.05-0.22-0.28c-0.17-0.4-0.59-1.46-0.65-1.6l-0.06-0.08l-0.07,0.11l-0.66,1.63
			c-0.05,0.13-0.1,0.22-0.22,0.23l-0.08,0l-0.03,0.02l0.05,0.02l0.31,0l0.27,0l0.04-0.02l-0.04-0.02h-0.04
			c-0.08,0-0.1-0.03-0.1-0.08l0.04-0.15l0.06-0.15l0.03-0.02L23.19,60.25"/>
		<path class="st0" d="M25.74,59c0.08-0.12,0.13-0.19,0.19-0.21l0.09-0.01l0.04-0.02l-0.05-0.02l-0.26,0l-0.26,0l-0.05,0.02
			l0.03,0.02l0.09,0.01l0.04,0.04l-0.03,0.1l-0.36,0.55l-0.33-0.58l-0.03-0.07l0.03-0.04l0.07-0.01l0.04-0.02l-0.05-0.02l-0.28,0
			l-0.4,0l-0.05,0.02l0.02,0.03l0.11,0.02c0.09,0.03,0.15,0.09,0.21,0.19l0.45,0.74l-0.5,0.71c-0.09,0.13-0.14,0.18-0.21,0.2
			l-0.1,0.01l-0.04,0.02l0.04,0.02h0.05l0.22,0l0.25,0h0.05l0.05-0.02l-0.03-0.02l-0.06,0l-0.05-0.04l0.04-0.11l0.39-0.62l0.41,0.71
			l-0.01,0.06l-0.04,0.03l0.09,0.03l0.46,0h0.08l0.05-0.02l-0.03-0.02l-0.1-0.01c-0.07-0.02-0.11-0.05-0.15-0.11
			c-0.06-0.08-0.49-0.79-0.57-0.91L25.74,59"/>
		<path class="st0" d="M29.29,60.12l-0.01-0.02l0.32-0.87l0.02-0.02l0.01,0.02l0.33,0.87l-0.01,0.02L29.29,60.12L29.29,60.12z
			 M29.99,60.25l0.02,0.02l0.12,0.32l-0.02,0.06l-0.04,0.02l0.08,0.02l0.49,0l0.12-0.02l-0.03-0.02l-0.11-0.01
			c-0.05-0.02-0.13-0.05-0.23-0.28c-0.17-0.4-0.58-1.46-0.64-1.6l-0.07-0.08l-0.07,0.11l-0.65,1.63c-0.05,0.13-0.1,0.22-0.22,0.23
			l-0.08,0l-0.03,0.02l0.05,0.02l0.31,0l0.27,0l0.04-0.02l-0.04-0.02h-0.04c-0.08,0-0.1-0.03-0.1-0.08l0.04-0.15l0.05-0.15
			l0.02-0.02L29.99,60.25"/>
		<path class="st0" d="M31.59,59.94c0,0.24,0,0.45-0.01,0.56c-0.01,0.08-0.02,0.13-0.07,0.15l-0.09,0.01l-0.04,0.02l0.05,0.02
			l0.33,0l0.41,0l0.04-0.02l-0.04-0.02l-0.13-0.01c-0.08-0.01-0.1-0.07-0.1-0.14c-0.01-0.11-0.01-0.32-0.01-0.56v-1.06l0.33,0.01
			c0.23,0.01,0.3,0.08,0.31,0.15v0.03l0.03,0.05l0.02-0.04l0.01-0.3l-0.02-0.05l-0.25,0.02h-1.03l-0.26-0.01l-0.11-0.03l-0.03,0.05
			l-0.05,0.3l0.02,0.04l0.03-0.03l0.04-0.1c0.04-0.06,0.1-0.07,0.25-0.07l0.39-0.01L31.59,59.94"/>
		<path class="st0" d="M36.12,59.74l0.02-0.02l0.38,0.01c0.08,0.01,0.12,0.06,0.13,0.09l0.01,0.08l0.02,0.03l0.02-0.05l0.01-0.19
			l0.02-0.16l-0.02-0.02l-0.03,0.03l-0.12,0.04l-0.11,0l-0.33,0l-0.02-0.03v-0.65l0.03-0.04l0.4,0.01c0.1,0,0.15,0.04,0.17,0.08
			l0.01,0.1l0.03,0.04l0.03-0.03l0.01-0.21l0.02-0.12l-0.02-0.02l-0.04,0.02l-0.11,0.01h-0.69l-0.37,0l-0.06,0.02l0.04,0.02
			l0.1,0.01c0.08,0.02,0.1,0.06,0.11,0.15l0.01,0.55v0.46c0,0.25,0,0.45-0.01,0.56c-0.01,0.08-0.02,0.13-0.08,0.15l-0.09,0.01
			l-0.04,0.02l0.06,0.02l0.33,0l0.4,0l0.06-0.02l-0.04-0.02l-0.13-0.01c-0.08-0.01-0.1-0.07-0.1-0.15c-0.01-0.11-0.01-0.3-0.01-0.56
			L36.12,59.74"/>
		<path class="st0" d="M37.79,59.94l-0.01,0.57c-0.01,0.07-0.03,0.12-0.08,0.13l-0.09,0.01l-0.04,0.02l0.05,0.02l0.33,0l0.41,0
			l0.05-0.02l-0.04-0.02l-0.14-0.01c-0.08-0.01-0.1-0.06-0.1-0.13l-0.01-0.57v-0.46l0-0.55c0.01-0.09,0.02-0.14,0.1-0.15l0.08-0.01
			l0.04-0.03l-0.06-0.02l-0.32,0l-0.33,0l-0.06,0.02l0.04,0.03l0.09,0.01c0.06,0.02,0.08,0.06,0.09,0.15l0,0.55L37.79,59.94"/>
		<path class="st0" d="M39.67,59.44v-0.52l0.04-0.05l0.17-0.02c0.21,0,0.5,0.03,0.74,0.26c0.11,0.11,0.25,0.32,0.25,0.65
			c0,0.27-0.05,0.51-0.22,0.65c-0.16,0.13-0.33,0.19-0.6,0.19c-0.21,0-0.31-0.06-0.34-0.1l-0.03-0.2l-0.01-0.53L39.67,59.44
			L39.67,59.44z M39.35,59.94c0,0.24,0,0.45-0.02,0.56c-0.01,0.08-0.02,0.13-0.07,0.15l-0.1,0.01l-0.04,0.02l0.06,0.02l0.33,0
			l0.55,0.03c0.48,0,0.75-0.18,0.87-0.31c0.15-0.15,0.29-0.4,0.29-0.72c0-0.31-0.12-0.53-0.26-0.66c-0.28-0.29-0.72-0.29-1.04-0.29
			l-0.4,0l-0.38,0l-0.06,0.02l0.05,0.02l0.1,0.01c0.08,0.02,0.1,0.06,0.11,0.15l0.01,0.55L39.35,59.94"/>
		<path class="st0" d="M42.13,59.94l-0.01,0.56c-0.01,0.08-0.02,0.13-0.08,0.15l-0.1,0.01l-0.04,0.02l0.05,0.02l0.33,0l0.72,0.01
			c0.1,0,0.12,0,0.14-0.07l0.04-0.29l-0.02-0.05l-0.03,0.04c-0.02,0.1-0.05,0.16-0.12,0.19c-0.07,0.03-0.17,0.03-0.24,0.03
			c-0.26,0-0.31-0.04-0.31-0.22v-0.61l0.02-0.03l0.37,0.01c0.1,0.01,0.13,0.05,0.15,0.1L43,59.92l0.02,0.02l0.02-0.05l0.01-0.17
			l0.02-0.19l-0.02-0.02l-0.04,0.03l-0.13,0.04l-0.42,0.01l-0.02-0.03V58.9l0.02-0.02l0.37,0.01c0.13,0.01,0.16,0.04,0.17,0.09
			l0.02,0.09l0.02,0.04l0.02-0.03l0.01-0.17l0.02-0.17l-0.02-0.02l-0.04,0.01l-0.11,0.02h-0.65l-0.37,0l-0.06,0.02l0.04,0.02
			l0.1,0.01c0.09,0.02,0.11,0.06,0.11,0.15l0,0.55L42.13,59.94"/>
		<path class="st0" d="M44.48,59.49l0-0.55c0.01-0.09,0.03-0.14,0.1-0.15l0.1-0.01l0.04-0.02l-0.05-0.02l-0.35,0l-0.35,0l-0.05,0.02
			l0.04,0.02l0.09,0.01c0.08,0.02,0.1,0.06,0.11,0.15l0.01,0.55v0.46c0,0.24,0,0.45-0.01,0.56c-0.01,0.08-0.02,0.13-0.08,0.15
			l-0.09,0.01l-0.04,0.02l0.05,0.02l0.33,0l0.76,0.01c0.13,0,0.15-0.01,0.16-0.07l0.04-0.3l-0.02-0.04l-0.03,0.04l-0.07,0.16
			c-0.06,0.07-0.17,0.07-0.31,0.07c-0.2,0-0.27-0.02-0.31-0.06c-0.05-0.05-0.05-0.23-0.05-0.56L44.48,59.49"/>
		<path class="st0" d="M46.1,59.94l-0.01,0.57c-0.01,0.07-0.03,0.12-0.08,0.13l-0.1,0.01l-0.04,0.02l0.05,0.02l0.33,0l0.41,0
			l0.05-0.02l-0.05-0.02l-0.13-0.01c-0.08-0.01-0.1-0.06-0.1-0.13c-0.01-0.11-0.01-0.32-0.01-0.57v-0.46l0.01-0.55
			c0.01-0.09,0.03-0.14,0.1-0.15l0.08-0.01l0.04-0.03l-0.05-0.02l-0.32,0l-0.34,0l-0.06,0.02l0.04,0.03l0.1,0.01
			c0.06,0.02,0.08,0.06,0.09,0.15l0,0.55V59.94"/>
		<path class="st0" d="M47.89,60.74c0.14,0,0.29-0.02,0.42-0.11c0.19-0.12,0.24-0.3,0.24-0.45c0-0.24-0.12-0.42-0.43-0.66
			l-0.07-0.06c-0.21-0.16-0.27-0.25-0.27-0.37c0-0.16,0.12-0.27,0.31-0.27c0.17,0,0.24,0.08,0.28,0.13
			c0.06,0.07,0.07,0.15,0.07,0.17l0.03,0.04l0.03-0.08l0.01-0.31l-0.04-0.03c-0.07-0.02-0.18-0.04-0.35-0.04
			c-0.36,0-0.6,0.21-0.6,0.49c0,0.21,0.1,0.4,0.38,0.62l0.12,0.09c0.22,0.17,0.25,0.29,0.25,0.42c0,0.13-0.11,0.29-0.35,0.29
			c-0.16,0-0.31-0.07-0.37-0.26l-0.03-0.13l-0.02-0.05l-0.03,0.07l-0.01,0.34l0.05,0.09C47.62,60.72,47.74,60.74,47.89,60.74"/>
		<path class="st0" d="M31.63,15.27c-1.36,0-2.9,0.32-4.08,0.84c0.02-0.26,0.11-0.49,0.28-0.69c0.69-0.83,2.48-1.12,3.8-1.12
			c1.33,0,3.12,0.3,3.8,1.12c0.17,0.2,0.26,0.43,0.28,0.69C34.53,15.59,33.01,15.27,31.63,15.27z M33.95,17.19l-0.42-0.97
			c0.64,0.12,1.26,0.31,1.79,0.54l0.25,1C35.17,17.6,34.62,17.37,33.95,17.19z M29.96,17.04l-0.72-0.71
			c0.59-0.15,1.22-0.25,1.83-0.29l0.43,0.84C30.94,16.89,30.43,16.95,29.96,17.04L29.96,17.04z M27.6,17.8l-0.21,0.09
			c-0.29,0.11-0.49,0.02-0.56-0.12c-0.08-0.15-0.03-0.4,0.33-0.62l0.15-0.08L28,17.63L27.6,17.8L27.6,17.8z M31.63,12.68l0.98,0.71
			c-0.42-0.04-0.77-0.05-0.98-0.05c-0.21,0-0.56,0.01-0.98,0.05L31.63,12.68z M30.51,10.08c-0.4-0.87-0.51-2.01,0.72-1.46l0.1,1.46
			H30.51z M31.45,6.93l0.18,0.13l0.18-0.13l0.71-0.52l-0.41,1.38L32.07,7.8C32,7.63,31.83,7.51,31.63,7.51
			c-0.2,0-0.36,0.11-0.44,0.29l-0.04-0.01l-0.41-1.38L31.45,6.93L31.45,6.93z M32.5,12.56l-0.7-0.51l-0.18-0.13l-0.18,0.13
			l-0.7,0.51l0.45-1.47h0.85L32.5,12.56z M32.75,10.08h-0.82l0.1-1.46C33.26,8.07,33.15,9.21,32.75,10.08z M28.62,10.42l0.51-0.7
			l0.13-0.18l-0.13-0.18l-0.51-0.7l1.04,0.32c0.06,0.45,0.16,0.75,0.27,1.03L28.62,10.42L28.62,10.42z M33.61,8.99l1.04-0.32
			l-0.51,0.7l-0.13,0.18l0.13,0.18l0.51,0.7l-1.31-0.4C33.45,9.74,33.55,9.44,33.61,8.99L33.61,8.99z M40.07,7.2
			c0.02-0.39-0.7-0.69-0.88-0.7c-0.3-0.02-0.69,0.62-1.08,1.01c-0.35-1.87-0.17-2.67,0.03-3.5c0.79,1.43,1.85,1.74,2.42,1.67
			c-1.9-1.51-1.57-2.89-2.15-2.97c-0.33-0.03-0.57-0.01-0.73-0.01c-0.67,0-0.76,1.29-0.84,1.88c-0.43-0.8-0.86-1.48-1.59-2.4
			c-0.7-1.8-1.56-1.35-2.43-2.16c0.68,1.03,0.13,1.66,1.7,2.4c0.41,0.39,0.89,1,1.21,1.49c-0.26,0.35-0.44,0.55-0.69,0.79
			c-0.19,0.29-0.29,1.41-0.9,2.25c0.9-0.39,1.25-0.94,1.57-1.48c2.84,2.14,0.53,7.61-0.12,8.81c-0.62-0.42-1.42-0.66-2.15-0.79
			l-0.08-0.24l-0.67-2.16H33c0.35,0,0.44-0.24,0.38-0.43l1.96,0.61l0.87,0.27l-0.53-0.73l-0.91-1.26l0.91-1.25l0.53-0.74l-0.87,0.27
			l-1.76,0.54c-0.12-0.4-0.45-0.59-0.81-0.64l0.59-2l0.25-0.86l-0.72,0.53L31.63,6.3l-1.26-0.91l-0.72-0.53l0.25,0.86l0.59,2
			c-0.35,0.05-0.69,0.24-0.81,0.64l-1.76-0.54l-0.86-0.27l0.53,0.74l0.91,1.25l-0.91,1.26l-0.53,0.73l0.86-0.27l1.97-0.61
			c-0.06,0.19,0.01,0.43,0.38,0.43h0.31l-0.67,2.16l-0.08,0.24c-0.75,0.13-1.57,0.38-2.2,0.82c-1.91-3.71-1.38-7.46,0.23-8.7
			c-0.03,0.79,0.66,1.86,0.98,2.08C28.64,6.87,29,5.42,28.58,5.06c-0.3-0.25-0.74-0.38-1.22-0.36c0.32-0.53,0.77-1.21,1.53-2.21
			c1.13-0.53,1.45-1.84,1.73-2.5C29.39,0.44,28.5,1.07,28.3,2.1c-0.43,0.58-0.91,1.25-1.45,2.05c0.03-0.97-0.51-1.31-1.21-1.36
			c-2.06,0.43-1.91,1.92-3.68,2.95c1.21,0.42,3.1-2.23,3.75-1.93c0.1,1.63-0.27,2.91-0.27,3.79c-0.31-0.34-0.47-0.57-0.73-0.62
			c-0.25-0.04-0.94,0.01-1.42,0.53c-0.13,0.82-0.1,2.38-0.87,4.23c1.15-1.05,1.7-3.12,1.88-3.72c0.29,0.4,0.61,1.3,0.69,2.06
			c0.14,1.48,1.05,3.95,1.82,5.14c-0.21,0.41-0.28,0.88-0.2,1.39c-0.6,0.45-0.67,1.07-0.46,1.49c0.22,0.45,0.82,0.76,1.51,0.48
			l0.22-0.09c0.73-0.3,2.09-0.87,3.74-0.87c1.65,0,3.01,0.57,3.75,0.87l0.22,0.09c0.69,0.28,1.28-0.03,1.51-0.48
			c0.21-0.42,0.14-1.05-0.46-1.49c0.08-0.55-0.01-1.05-0.26-1.49l0.02,0.02c1.41-2.01,1.51-5.85,2.67-6.94
			c0.1,1.35,0.81,2.46,1.52,2.61C40.03,9.88,40.03,8.04,40.07,7.2"/>
		<path class="st0" d="M22.25,38.48l-0.87,0.01c-0.13,1.51-0.07,2.88,0.14,4.14c0.54-0.89,1.08-1.78,1.05-2.4
			C22.54,39.58,22.39,39,22.25,38.48"/>
		<path class="st0" d="M25.34,41.09c0.3,0.83,0.67,2.15,0.97,3.07c-0.26,0.02-0.51,0.03-0.75,0.07c-0.13-0.33-0.56-1.42-1.01-2.48
			C24.13,40.77,25.13,40.51,25.34,41.09L25.34,41.09z M27.16,40.2c0.07-0.49,1.45-0.58,1.19,0.49c-0.26,1.09-0.59,2.36-0.84,3.45
			l-0.35,0l-0.35,0c-0.25-1.09-0.58-2.36-0.84-3.45C25.71,39.62,27.09,39.72,27.16,40.2L27.16,40.2z M29.78,41.76
			c-0.45,1.06-0.88,2.15-1.01,2.48c-0.23-0.04-0.49-0.06-0.74-0.07c0.3-0.93,0.66-2.24,0.97-3.07
			C29.2,40.51,30.19,40.77,29.78,41.76L29.78,41.76z M25.34,44.84c0.3-0.11,1.47-0.16,1.82-0.16c0.35,0,1.51,0.06,1.82,0.16
			c0.03,0.16,0.03,0.38,0.01,0.54c-0.45,0.13-1.24,0.2-1.83,0.2c-0.59,0-1.38-0.07-1.83-0.2C25.31,45.22,25.31,45,25.34,44.84z
			 M28.61,48.27c-0.39,0.09-1.02,0.13-1.44,0.13s-1.05-0.04-1.45-0.13l0.15-0.65c-0.3-0.03-0.6-0.14-0.84-0.23
			c0.12-0.42,0.31-0.85,0.47-1.43c0.54,0.12,1.06,0.17,1.66,0.17c0.6,0,1.12-0.05,1.66-0.17c0.16,0.58,0.35,1.01,0.48,1.43
			c-0.24,0.08-0.55,0.2-0.84,0.23C28.46,47.63,28.61,48.27,28.61,48.27z M22.63,38.47c0.15,0.52,0.28,1.1,0.31,1.73
			c0.03,0.74-0.52,1.65-1.1,2.62l-0.2,0.33c1.67,8.25,9.65,11,9.65,11V38.49C31.29,38.49,25.28,38.47,22.63,38.47"/>
		<path class="st0" d="M40.04,40.02l-0.03-0.39l0.39,0c0.53,0,0.79-0.51,0.93-1.1c-2.04-0.02-9.38,0.01-9.38,0.01v7.56
			c0.61-0.45,1.2-0.83,1.97-1.07v-1.66h0.76c0.04-1.83,0.48-3.15,1.33-4.02l0.24-0.26l0.25,0.26c0.85,0.87,1.29,2.19,1.33,4.02h0.79
			v1.77c0.84,0.35,1.4,0.88,1.83,1.44c0.69-1.41,1.2-3.04,1.39-4.93l-0.11,0.01C40.95,41.67,40.11,41.1,40.04,40.02"/>
		<path class="st0" d="M41.87,38.54l-0.15-0.01c-0.18,0.87-0.58,1.46-1.3,1.47c0.06,0.86,0.71,1.3,1.33,1.3l0.15-0.02
			C41.95,40.41,41.96,39.51,41.87,38.54"/>
		<path class="st0" d="M38.08,48.33l-0.67-0.76l-1.13,1.01l0.47,0.53c0,0,0.47-0.22,0.9,0.26c-0.32,0.28-0.87,0.76-1.19,1.03
			c-0.42-0.49-0.13-0.92-0.13-0.92l-0.46-0.53l-1.39,1.24l-0.45-0.52l1.42-1.19l-0.51-0.59l-0.47,0.41
			c-0.4-0.47-0.72-1.09-0.43-1.87c0.81-0.18,1.38,0.22,1.78,0.68l-0.46,0.41l0.51,0.59l1.16-0.97l-0.67-0.76
			c0.6-0.07,1.12,0.14,1.42,0.48C38.1,47.2,38.24,47.75,38.08,48.33L38.08,48.33z M36.26,45.41c-2.22,0-3.08,0.62-4.31,1.55v7.23
			c0,0,5.28-1.81,8.15-6.91C39.45,46.29,38.48,45.41,36.26,45.41"/>
		<path class="st0" d="M23.2,32.34c1.11-0.63,1.68-1.09,2.27-2.02c-0.43-0.21-0.95-0.6-1.34-1.14c2.11,0.59,3.18,0.9,5.67,0.02
			c-0.41,0.64-1.01,1.02-1.52,1.35c0.56,0.93,1.12,1.99,1.32,2.84c-0.74-0.06-1.59,0.12-2.19,0.67c-0.93,0.04-2.11,0.34-2.76-1.77
			c-0.33,0.17-0.67,0.4-0.67,0.4c0.38,1.38,1.08,2.32,2.94,2.12c0.1,0.44,0.18,0.69,0.41,1.06c-0.76,0.44-2.67,1.57-4.13,0.28
			C23.2,36.13,23.2,32.34,23.2,32.34z M30.18,35.45c-0.2,0.28-1.39,0.65-1.68,0.46c-0.5-0.3-0.75-0.96-0.63-1.24
			c0.14-0.36,1.46-0.73,1.88-0.59C30.17,34.22,30.35,35.21,30.18,35.45L30.18,35.45z M33.74,33.86v-0.39l-0.93-0.01
			c0.22-0.98,2.13-2.23,2.99-2.52c-0.05-1.07,1.36-1.42,2.49-1.45c1.4-0.04,1.73,1.46,1.73,1.93c0,0.62-0.16,1.99-0.94,2.41
			C37.96,34.43,37,33.58,37,32.81c0-0.84,0.59-1.34,1.6-1.23c1.01,0.11,0.94-0.46,0.17-0.65c-0.37-0.09-1.98-0.17-2.51,1.02
			c-0.31,0.01-0.64-0.11-0.83-0.3c-0.21,0.27-0.53,0.45-0.98,0.58c0.39,0.79,1.18,0.66,1.67,0.28l-0.02,0.34
			c0,1.95,2.08,2.44,3.36,1.71c-0.21,0.63-0.11,1.43-0.03,1.97h-5.03c0.09-0.54,0.76-1.15,1.32-1.55l-0.45-0.71
			c-0.55,0.24-1.06,0.46-1.65,0.61C32.21,35.25,32.29,34.26,33.74,33.86L33.74,33.86z M21.68,34.6c0.56,0.46,0.77,0.8,0.6,2.35
			c-0.02,0.19,0.08,0.56,0.19,0.95h18.96c0.02-0.21,0.03-0.41,0.03-0.58c0.02-0.85-0.14-1.53-0.41-1.81
			c-0.09-0.09-0.19-0.14-0.37-0.14h-0.02l-0.76,0.08l0.4-0.65c0.4-0.64,0.96-1,1.56-1.05v-5.63H21.42v6.28l0.21,0.13L21.68,34.6"/>
		<path class="st0" d="M21.42,34.86v3.04h0.67c-0.12-0.4-0.21-0.75-0.18-1C22.08,35.37,21.85,35.21,21.42,34.86"/>
		<path class="st0" d="M41.87,37.9v-3.77c-0.44,0.04-0.9,0.32-1.25,0.88L40.73,35c0.84,0,1.13,1.15,1.11,2.32
			c0,0.2-0.01,0.39-0.03,0.58L41.87,37.9"/>
		<path class="st0" d="M26.39,32.73c0.35,0.17,0.78-0.03,1.24,0.03c-0.09-0.2-0.18-0.34-0.13-0.62c0.11-0.55-0.32-0.69-0.53-0.67
			c-0.51,0.03-0.8,0.14-1.34,0C26,31.83,25.9,32.5,26.39,32.73"/>
		<path class="st0" d="M21.94,36.88c0.18-1.57-0.07-1.7-0.52-2.07c-0.39-0.32-1.04-0.42-1.69-0.87c-0.46-0.32-0.59-0.78-1.18-1.4
			c0.12-1.33,1.06-2.94,1.76-3.31c0.1-0.05,0.07-2.1,0.07-2.1s0.46-0.02,0.42-0.05c-0.62-0.38-1.38-0.09-1.92,0.55
			c-0.53,0.42-1.74,1.24-2.57,1.52c-1.13-0.95-2.89-1.79-4.18-3.08c0,0,1.7-0.01,2.49-0.34c0.21-0.13,0.75-1,0.53-1.83
			c-0.27-0.09-0.65-0.29-1.02-0.5c-0.47-0.27-0.92-0.55-1.13-0.71c-0.74-0.56-1.04-1.05-2.32-1.37c0.08-0.59,0.21-0.45,0.77-0.83
			c0.72-0.49,1.12-1.07,1.4-1.64c0.22-0.45-0.03-1.38-0.61-0.2c-0.2,0.42-0.76,0.97-1.39,1.14c0.05-0.36,0.07-0.57,0.07-0.77
			c1.87-1.32,1.69-2.49,1.54-3.58c-0.08-0.63-0.71-0.9-0.69-0.24c0.02,0.43,0.41,1.67-0.88,2.4c-0.03-0.55-0.18-0.8-0.29-1.08
			c1.14-1.5,0.66-2.95,0.18-3.61c-0.31-0.42-1.06-0.57-0.72,0.1c0.28,0.55,0.73,2.03-0.11,2.64c-0.29-0.37-0.63-0.51-0.74-1
			C9.32,13,9.22,12,9.01,11.43c-0.2-0.54-0.72-0.88-0.67-0.08c0.04,0.91,0.12,2.05,0.04,2.12c-0.08,0.07-1.29-1.05-1.78-1.39
			c-0.5-0.34-1.09-0.21-0.51,0.46c0.51,0.59,2.05,1.73,1.85,2.1c-0.12,0.23-1.23-0.68-1.8-0.87c-0.58-0.2-0.76,0.11-0.27,0.51
			c0.79,0.64,1.31,1.07,2.6,1.5c1.29,0.43,1.94,2.22,1.53,4.78c-0.02,0.12-0.24,0.1-0.37,0.06c-0.06-0.97-0.23-2.14-0.46-2.66
			c-0.31-0.68-0.91-0.69-0.69,0.23c0.18,0.72,0.28,1.5,0.15,2.47c-1.07-0.18-1.47-0.47-1.92-0.73c-0.05-0.5,0.21-1.31,0.25-2.04
			c0.04-0.72-0.38-1.17-0.62-0.27c-0.23,0.86-0.38,1.28-0.52,1.9c-0.31-0.1-0.63-0.24-0.78-0.41l-0.08-1.76
			c-0.08-0.8-0.38-0.77-0.61-0.07c-0.11,0.32-0.2,0.75-0.23,1.27c-0.38-0.23-0.63-0.66-0.67-1.01c0.06-0.83,0.2-1.71,0.3-2.26
			c0.07-0.4-0.2-1.2-0.51-0.23c-0.22,0.7-0.28,1.28-0.42,1.77c-0.27-0.02-0.63-1.6-0.81-2.61c-0.08-0.46-0.47-0.98-0.54,0.04
			c-0.08,1.13,0.16,2.27,0.44,2.77c-0.55-0.06-1.07-1.04-1.45-1.62c-0.34-0.51-0.5,0.02-0.46,0.23c0.33,2.01,1.93,2.72,2.66,2.87
			c1.12,1.61,3.27,2.31,5.09,3.09c-2.36-0.03-2.98,0.92-4.06,0.3c0.05,0.89,0.49,1.3,0.92,1.51c0.3,0.14,0.6,0.18,0.74,0.21
			c0.2,1.08,1.22,1.02,2.1,1.08c-0.22,2.11,0.03,4.89,1.88,6.97c-0.05,1.07-0.13,2.47-0.11,3.4c-1.52,1.41-2.87,4.36-3.4,5.99
			c-0.4,1.22-1,2.17-1.93,2.62c0.76,0.8,1.88,0.4,2.53-0.04c0.04,0.72,0.21,1.22,0.32,1.65c-0.43,0.64-0.73,1.09-0.69,1.88
			c-0.49,0.14-0.83,0.44-1.09,0.77c-0.17,0.21,0.03,1.18,0.21,1.59c0.6,1.35,0.13,4.41,0.03,5.31c0.26,0.01,0.72,0.03,0.82-0.35
			c0.15,0.14,0.52,0.41,0.69,0.99c-0.04,0.25-0.18,1.19,0.3,1.31c0.39,0.1,2.09,0.04,2.32-0.25c-0.17-0.2-0.47-0.65-0.65-1.1
			c0-0.46-0.04-1.02-0.17-1.26c-0.2-0.34-0.69-1.12-1-1.44c-0.07-0.56-0.12-3.05,0.14-4.01c0.44-0.3,3.43-2.52,4.05-4.65
			c0.55,0.19,0.38,1.67,0.38,3.59c0,0.52,0.63,0.78,1,0.82c0.81,0.1,1.96,0.87,3.25,2.78c0.25-0.27,0.58-0.52,0.58-0.52
			c0.17,0.22,0.36,0.77,0.48,1.13c0.14,0.26,1.18,0.42,1.98,0.18c0.26-0.09,0.42-0.14,0.59-0.42c-1.01-1.77-1.62-2.94-2.92-3.92
			c-0.6-0.45-1.41-0.68-2.08-1.11c0.45-0.85,1.69-4.81,0.94-6.26c-0.25-0.48-1.19-0.95-2.34-0.74c0.96-1.15,2.9-3.43,3.16-4.13
			c0.22,0.27,1.37,0.08,2.23,0.42c0.31,0.13,1.19,1.26,1.23,1.65c0.08,0.7,0.11,1.53-0.37,3.45c0.34-0.06,0.29-0.07,0.63-0.21
			c0.06,0.51-0.1,0.91-0.55,1.68c0.11,0.69,0.42,1.76,0.75,1.95c0.43-1.29,2.04-3.12,1.99-4.2C22.54,38.74,21.86,37.51,21.94,36.88"
			/>
		<path class="st0" d="M83.8,28.58c-0.31-0.97-1.33-2.44-3.39-2.44c-1.31,0-2.44,0.67-3,1.69c-0.67,1.25-0.97,2.94-0.97,5.27
			c0,3.33,0.55,5.42,1.72,6.25c0.61,0.44,1.39,0.67,2.31,0.67c2.69,0,3.83-2.06,3.83-6.97C84.3,31.08,84.13,29.66,83.8,28.58
			L83.8,28.58z M89.77,45.96c0,0-0.56,0.33-1.72,0.33c-1.5,0-2.83-0.89-3.55-1.36c-0.92-0.61-2.42-1.47-3.91-1.94
			c-2.89,0-4.78-0.8-6.25-2.72c-1.47-1.89-2.22-4.33-2.22-7.16c0-4.16,1.58-7.52,4.36-9.02c1.14-0.61,2.55-0.94,4-0.94
			c5.14,0,8.3,3.75,8.3,9.8c0,4.19-1.5,7.33-3.8,8.86c0.53,0.19,1.28,0.69,1.72,0.97c0.69,0.41,1.53,0.8,2.39,0.8
			c0.83,0,1.72-0.14,1.72-0.14L89.77,45.96"/>
		<path class="st0" d="M101.37,43.07c-0.47-0.33-0.86-0.8-1.11-1.39c-0.92,0.89-2.25,1.36-3.75,1.36c-2,0-3.72-0.94-4.19-2.31
			c-0.22-0.64-0.31-1.39-0.31-2.83V28.8l3.67-0.69v9.13c0,1.28,0.11,1.94,0.31,2.33c0.19,0.39,0.75,0.67,1.31,0.67
			c0.92,0,2.03-0.67,2.3-1.36v-9.99l3.55-0.75v10.85c0,0.94,0.31,1.92,0.86,2.58L101.37,43.07"/>
		<path class="st0" d="M114.91,33.85c0-1.05-0.11-1.61-0.44-2.14c-0.36-0.56-0.89-0.83-1.64-0.83c-1.42,0-2.22,1.11-2.22,3.08v0.06
			h4.3L114.91,33.85L114.91,33.85z M110.55,36.74v0.11c0,2.19,1.08,3.44,3,3.44c1.28,0,2.47-0.47,3.61-1.42l1.44,2.22
			c-1.64,1.33-3.36,1.97-5.36,1.97c-4.08,0-6.72-2.89-6.72-7.35c0-2.56,0.53-4.25,1.78-5.64c1.17-1.31,2.58-1.92,4.47-1.92
			c1.64,0,3.19,0.56,4.11,1.5c1.31,1.33,1.89,3.25,1.89,6.22v0.86L110.55,36.74"/>
		<path class="st0" d="M129.29,33.85c0-1.05-0.11-1.61-0.45-2.14c-0.36-0.56-0.89-0.83-1.64-0.83c-1.42,0-2.22,1.11-2.22,3.08v0.06
			h4.3L129.29,33.85L129.29,33.85z M124.93,36.74v0.11c0,2.19,1.08,3.44,3,3.44c1.28,0,2.47-0.47,3.61-1.42l1.45,2.22
			c-1.64,1.33-3.36,1.97-5.36,1.97c-4.08,0-6.72-2.89-6.72-7.35c0-2.56,0.53-4.25,1.78-5.64c1.17-1.31,2.58-1.92,4.47-1.92
			c1.64,0,3.19,0.56,4.11,1.5c1.3,1.33,1.89,3.25,1.89,6.22v0.86L124.93,36.74"/>
		<path class="st0" d="M143.67,42.68v-9.24c0-1.61-0.28-2.08-1.25-2.08c-0.75,0-1.72,0.5-2.58,1.28v10.05h-3.72v-10.3
			c0-1.22-0.17-2.39-0.5-3.33l3.3-0.94c0.33,0.58,0.53,1.19,0.53,1.78c0.55-0.39,1.03-0.72,1.64-1.06c0.75-0.39,1.72-0.61,2.55-0.61
			c1.58,0,2.97,0.83,3.41,2.05c0.19,0.53,0.28,1.14,0.28,2.03v10.38L143.67,42.68"/>
		<path class="st0" d="M155.76,43.12c-1.75,0-3.66-0.56-5.74-1.64l1.33-2.72c1.14,0.69,3.11,1.61,4.72,1.61
			c1.05,0,1.89-0.69,1.89-1.61c0-0.97-0.69-1.47-2.19-1.75l-1.66-0.31c-0.94-0.17-2.11-0.83-2.61-1.44c-0.5-0.61-0.8-1.64-0.8-2.55
			c0-2.78,2.19-4.64,5.49-4.64c2.28,0,3.78,0.69,5.08,1.33l-1.22,2.5c-1.41-0.72-2.44-1.03-3.5-1.03c-1.08,0-1.8,0.56-1.8,1.39
			c0,0.72,0.47,1.11,1.78,1.44l1.72,0.44c1.75,0.44,2.33,0.97,2.83,1.61c0.53,0.67,0.78,1.47,0.78,2.42
			C161.85,41.12,159.4,43.12,155.76,43.12"/>
		<path class="st0" d="M168.45,43.01c-1.58,0-2.86-0.75-3.3-1.94c-0.28-0.72-0.33-1.17-0.33-3.19v-10.6c0-1.86-0.05-3-0.2-4.27
			l3.8-0.86c0.14,0.78,0.2,1.69,0.2,3.69v11.08c0,2.44,0.03,2.78,0.25,3.16c0.14,0.25,0.44,0.39,0.75,0.39c0.14,0,0.22,0,0.41-0.06
			l0.64,2.22C170.03,42.88,169.25,43.01,168.45,43.01"/>
		<path class="st0" d="M179.27,36.46c-2.58,0-3.47,0.47-3.47,2.17c0,1.11,0.69,1.86,1.64,1.86c0.7,0,1.39-0.36,1.95-0.97l0.05-3.05
			H179.27z M182.43,43.4c-0.86-0.36-1.64-1-2-1.72c-0.28,0.28-0.58,0.56-0.86,0.75c-0.69,0.5-1.69,0.78-2.86,0.78
			c-3.16,0-4.89-1.61-4.89-4.44c0-3.33,2.3-4.88,6.83-4.88c0.28,0,0.53,0,0.83,0.03v-0.58c0-1.58-0.3-2.11-1.66-2.11
			c-1.19,0-2.58,0.58-4.11,1.61l-1.58-2.67c0.75-0.47,1.3-0.75,2.3-1.17c1.39-0.58,2.58-0.83,3.88-0.83c2.39,0,4.03,0.89,4.58,2.47
			c0.2,0.58,0.28,1.03,0.25,2.55l-0.08,4.78c-0.03,1.55,0.08,2.22,1.33,3.17L182.43,43.4"/>
		<path class="st0" d="M194.9,42.68v-9.24c0-1.61-0.28-2.08-1.25-2.08c-0.75,0-1.72,0.5-2.58,1.28v10.05h-3.72v-10.3
			c0-1.22-0.17-2.39-0.5-3.33l3.3-0.94c0.33,0.58,0.53,1.19,0.53,1.78c0.55-0.39,1.03-0.72,1.64-1.06c0.75-0.39,1.72-0.61,2.55-0.61
			c1.58,0,2.97,0.83,3.41,2.05c0.2,0.53,0.28,1.14,0.28,2.03v10.38L194.9,42.68"/>
		<path class="st0" d="M210.49,32.21c-0.69-0.61-1.36-0.92-2.03-0.92c-1.67,0-2.39,1.39-2.39,4.55c0,3.05,0.64,4.05,2.58,4.05
			c0.7,0,1.47-0.47,1.83-0.92L210.49,32.21L210.49,32.21z M211.33,42.68c-0.11-0.22-0.16-0.44-0.22-0.83
			c-0.92,0.81-2,1.19-3.28,1.19c-3.61,0-5.88-2.8-5.88-7.22c0-4.44,2.47-7.5,6.08-7.5c1.03,0,1.83,0.25,2.53,0.81
			c-0.06-0.31-0.11-1.28-0.11-2.11v-4.89l3.69,0.58v14.77c0,3.5,0.27,4.63,0.53,5.19H211.33"/>
		<path class="st0" d="M231.62,42.99c-2.39,0-4.41-0.83-5.86-2.39c-1.61-1.75-2.36-4.11-2.36-7.39c0-3.64,0.97-6.22,2.94-8
			c1.36-1.22,3-1.8,4.97-1.8c2.03,0,3.78,0.64,5.22,1.89l-1.03,1.42c-1.55-1.06-2.66-1.47-4.13-1.47c-2.22,0-3.97,1.03-4.75,3.22
			c-0.5,1.42-0.75,3.03-0.75,4.83c0,2.5,0.47,4.52,1.33,5.77c0.86,1.25,2.8,2.03,4.61,2.03c1.19,0,2.22-0.25,3.03-0.75v-5.8H231
			l-0.45-1.89h6.41v8.88C235.61,42.43,233.56,42.99,231.62,42.99"/>
		<path class="st0" d="M248.82,31.99c-0.58-1.22-1.8-1.78-2.94-1.78c-1.22,0-2.36,0.58-2.83,1.5c-0.44,0.86-0.67,1.97-0.67,3.61
			c0,1.94,0.34,3.66,0.86,4.53c0.5,0.83,1.61,1.39,2.8,1.39c1.44,0,2.53-0.75,3-2.08c0.31-0.86,0.42-1.64,0.42-3
			C249.46,34.21,249.27,32.91,248.82,31.99L248.82,31.99z M245.99,43.04c-3.8,0-5.97-2.8-5.97-7.36c0-4.5,2.25-7.25,5.89-7.25
			c2.3,0,3.8,1.06,4.75,2.41c0.86,1.25,1.28,2.89,1.28,5.14C251.93,40.6,249.46,43.04,245.99,43.04"/>
		<path class="st0" d="M259.87,42.82h-2.14l-4.97-13.85l2.22-0.47l3.22,9.52c0.39,1.14,0.67,2.36,0.67,2.36h0.06
			c0,0,0.22-1.08,0.67-2.33l3.17-9.19h2.3L259.87,42.82"/>
		<path class="st0" d="M274.35,31.41c-0.47-0.75-1.45-1.22-2.5-1.22c-1.97,0-3.08,1.44-3.19,4.3h6.33
			C274.96,32.99,274.77,32.08,274.35,31.41z M268.66,36.13v0.33c0,1.3,0.17,2.31,0.64,3.03c0.78,1.19,2.05,1.69,3.44,1.69
			c1.33,0,2.42-0.42,3.39-1.3l0.83,1.39c-1.22,1.11-2.89,1.72-4.66,1.72c-3.83,0-6.13-2.78-6.13-7.36c0-2.33,0.5-3.83,1.67-5.22
			c1.11-1.31,2.47-1.91,4.14-1.91c1.5,0,2.8,0.53,3.75,1.5c1.19,1.22,1.58,2.53,1.58,5.83v0.31L268.66,36.13"/>
		<path class="st0" d="M286.37,30.94c-0.14-0.06-0.39-0.11-0.61-0.11c-0.83,0-1.67,0.36-2.3,1c-0.64,0.64-0.81,1.06-0.81,2.19v8.66
			h-2.16V32.02c0-2.03-0.47-2.94-0.47-2.94l2.16-0.58c0,0,0.53,1.08,0.45,2.25c1-1.41,2.47-2.3,3.89-2.3c0.36,0,0.75,0.14,0.75,0.14
			L286.37,30.94"/>
		<path class="st0" d="M296.48,42.68v-9.35c0-1.47-0.11-1.83-0.5-2.31c-0.3-0.36-0.89-0.58-1.53-0.58c-1.11,0-2.83,0.89-3.83,1.94
			v10.3h-2.11V32.02c0-1.97-0.53-2.92-0.53-2.92l2.11-0.58c0,0,0.5,1.03,0.5,2.17c1.44-1.44,2.89-2.14,4.36-2.14
			c1.5,0,2.83,0.81,3.39,2.03c0.22,0.5,0.33,1.06,0.33,1.61v10.49L296.48,42.68"/>
		<path class="st0" d="M318.01,42.68V32.47c0-1.33-0.61-2.03-1.78-2.03c-1.25,0-2.22,0.81-3.66,2.14v10.1h-2.19v-9.83
			c0-0.83-0.09-1.39-0.39-1.78c-0.33-0.39-0.78-0.56-1.41-0.56c-1.05,0-2.08,0.53-3.53,1.83v10.33h-2.08V31.96
			c0-2-0.5-2.94-0.5-2.94l2.11-0.5c0,0,0.5,1.08,0.5,2.05c0.91-1.03,2.61-2.08,4.02-2.08c1.36,0,2.72,0.83,3.22,2.31
			c1.33-1.42,3.02-2.31,4.44-2.31c2.05,0,3.47,1.56,3.47,3.75v10.44L318.01,42.68"/>
		<path class="st0" d="M331.89,31.41c-0.47-0.75-1.44-1.22-2.5-1.22c-1.97,0-3.08,1.44-3.2,4.3h6.33
			C332.5,32.99,332.31,32.08,331.89,31.41z M326.2,36.13v0.33c0,1.3,0.17,2.31,0.64,3.03c0.78,1.19,2.05,1.69,3.44,1.69
			c1.33,0,2.42-0.42,3.39-1.3l0.83,1.39c-1.22,1.11-2.89,1.72-4.66,1.72c-3.83,0-6.14-2.78-6.14-7.36c0-2.33,0.5-3.83,1.67-5.22
			c1.11-1.31,2.47-1.91,4.14-1.91c1.5,0,2.8,0.53,3.75,1.5c1.19,1.22,1.58,2.53,1.58,5.83v0.31L326.2,36.13"/>
		<path class="st0" d="M345.99,42.68v-9.35c0-1.47-0.11-1.83-0.5-2.31c-0.3-0.36-0.89-0.58-1.52-0.58c-1.11,0-2.83,0.89-3.83,1.94
			v10.3h-2.11V32.02c0-1.97-0.53-2.92-0.53-2.92l2.11-0.58c0,0,0.5,1.03,0.5,2.17c1.45-1.44,2.89-2.14,4.36-2.14
			c1.5,0,2.83,0.81,3.39,2.03c0.23,0.5,0.33,1.06,0.33,1.61v10.49L345.99,42.68"/>
		<path class="st0" d="M357.51,30.49h-2.89v8.91c0,1.53,0.42,2.06,1.78,2.06c0.61,0,0.97-0.08,1.36-0.28l0.31,1.39
			c-0.7,0.36-1.47,0.56-2.44,0.56c-0.72,0-1.28-0.14-1.8-0.39c-0.97-0.47-1.33-1.36-1.33-2.75v-9.49h-1.8v-1.64h1.8
			c0-1.33,0.22-3.5,0.22-3.5l2.28-0.5c0,0-0.28,2.16-0.28,4h3.47L357.51,30.49"/>
	</g>
</g>
</svg>
